<?xml version="1.0" encoding="UTF-8"?>
<svg id="Layer_1" data-name="Layer 1" xmlns="http://www.w3.org/2000/svg" viewBox="0 0 45 24">
  <defs>
    <style>
      .cls-1 {
        fill: #e2e8f0;
      }
    </style>
  </defs>
  <path class="cls-1" d="m3.01,5.72c.05-.03.09-.04.12-.07.94-.79,2.04-1.24,3.22-1.52.36-.08.72-.16,1.1-.16.42,0,.83-.06,1.25-.02.5.05.99.15,1.48.27.81.19,1.57.52,2.27.99.7.48,1.32,1.03,1.86,1.69.46.55.8,1.17,1.08,1.83.24.55.41,1.12.52,1.71.06.31.1.62.1.93.02,3.58.03,7.16.03,10.73,0,.56-.39,1.2-1.15,1.35-.81.16-1.53-.35-1.73-1.17-.02-.08,0-.16,0-.24,0-1.26,0-2.52,0-3.78,0-.05,0-.09,0-.16-.06.04-.12.08-.16.11-.64.52-1.35.9-2.11,1.19-.49.19-1,.31-1.51.41-.61.11-1.23.13-1.85.09-.69-.05-1.38-.16-2.03-.43-.92-.37-1.81-.81-2.56-1.48-1.07-.96-1.87-2.11-2.36-3.47-.19-.53-.3-1.07-.38-1.63-.05-.37-.06-.76-.06-1.14,0-3.26,0-6.51,0-9.77,0-.69.43-1.29,1.08-1.46.79-.21,1.63.28,1.78,1.04.03.16.06.33.06.49,0,1.12,0,2.25,0,3.37,0,.08-.01.16-.02.27Zm4.5,1.17c-.92.03-2.13.57-3.12,1.62-1.01,1.05-1.43,2.33-1.35,3.75.15,2.36,2.11,4.74,5.11,4.72,2.58-.01,5.1-2.17,4.96-5.35-.12-2.55-2.27-4.75-5.6-4.74Z"/>
  <path class="cls-1" d="m28.15,18.13s.08-.07.12-.11c.27-.35.63-.55,1.07-.54.21,0,.43.03.63.08.32.07.51.31.67.57.02.04.05.07.08.13.05-.06.08-.11.12-.16.31-.41.71-.62,1.23-.63.27,0,.54.02.79.13.45.21.68.58.74,1.06.11.84.04,1.69.05,2.53,0,.1-.06.22-.13.29-.05.05-.18.07-.25.05-.13-.04-.22-.15-.22-.29,0-.26,0-.51,0-.77,0-.39.01-.78,0-1.16,0-.22-.04-.44-.1-.65-.11-.38-.46-.61-.86-.63-.45-.03-.8.13-1.02.52-.1.18-.17.39-.18.59-.02.67,0,1.34-.01,2.01,0,.06-.01.12-.03.17-.04.15-.18.26-.3.25-.13-.01-.27-.17-.28-.33,0-.63,0-1.25,0-1.88,0-.22-.04-.43-.09-.64-.11-.45-.44-.69-.91-.69-.53,0-.95.29-1.08.75-.05.18-.07.38-.08.57,0,.6,0,1.21,0,1.82,0,.13-.02.27-.15.34-.19.12-.45-.03-.45-.27,0-.25,0-.5,0-.76,0-.86,0-1.71,0-2.57,0-.17.15-.34.31-.34.19,0,.29.12.3.34,0,.07,0,.13,0,.2.01,0,.03.02.04.03Z"/>
  <path class="cls-1" d="m35.23,18.16c.07-.06.12-.09.15-.13.27-.37.64-.56,1.1-.55.21,0,.42.03.62.08.31.07.5.31.66.56.03.04.05.08.02.04.17-.13.34-.26.51-.39.26-.2.55-.28.88-.3.27-.01.54.01.79.12.46.2.7.57.76,1.06.11.85.04,1.7.05,2.54,0,.1-.07.22-.14.29-.05.05-.17.06-.24.04-.13-.05-.22-.16-.22-.31,0-.62,0-1.24,0-1.86,0-.21-.05-.43-.09-.64-.06-.36-.43-.71-.91-.69-.57.02-.96.27-1.1.75-.05.19-.07.38-.08.58,0,.59,0,1.19,0,1.78,0,.04,0,.08,0,.12-.03.18-.19.33-.33.31-.14-.02-.27-.18-.27-.37,0-.64,0-1.27,0-1.91,0-.22-.05-.44-.11-.65-.1-.34-.45-.62-.87-.62-.55,0-.9.25-1.1.74-.05.13-.08.27-.08.4,0,.67,0,1.33-.01,2,0,.11-.05.26-.13.33-.16.15-.44,0-.47-.23,0-.03,0-.05,0-.08,0-1.09,0-2.19,0-3.28,0-.25.26-.41.47-.29.06.04.11.14.13.22.02.08,0,.18,0,.32Z"/>
  <path class="cls-1" d="m21.85,20.49c-1.03,1.15-2.21.82-2.84.2-.69-.68-.76-1.82-.15-2.54.39-.46.91-.69,1.52-.67.62.02,1.09.3,1.45.8,0,0,.02-.02.03-.02,0-.13,0-.27,0-.4,0-.14.07-.22.19-.25.18-.04.3.01.35.15.02.06.03.13.03.19,0,.96.01,1.92,0,2.87,0,.31-.06.63-.16.92-.19.59-.65.88-1.23,1-.22.05-.45.1-.68.09-.58-.02-1.12-.22-1.61-.53-.12-.08-.15-.22-.08-.33.08-.13.21-.17.35-.1.26.12.52.26.79.34.38.11.77.13,1.15,0,.46-.16.76-.45.84-.94.04-.25.04-.51.05-.77Zm-1.44-2.49c-.74-.03-1.35.54-1.35,1.33,0,.79.62,1.4,1.36,1.38.81-.02,1.44-.52,1.45-1.38,0-.73-.58-1.34-1.45-1.34Z"/>
  <path class="cls-1" d="m19.18,13.1s.07-.06.09-.08c.29-.4.68-.66,1.16-.73.84-.12,1.74.27,2.07,1.2.22.6.22,1.21-.01,1.8-.24.6-.68.99-1.32,1.13-.5.11-.98.06-1.4-.25-.21-.16-.39-.37-.57-.54-.01.13-.02.29-.04.46-.02.17-.16.28-.3.27-.12,0-.27-.18-.28-.32,0-.04,0-.07,0-.11,0-1.63,0-3.27,0-4.9,0-.03,0-.05,0-.08.01-.17.15-.33.3-.32.2.02.3.06.3.32,0,.57,0,1.15,0,1.72,0,.13,0,.26,0,.41Zm2.9,1.26c-.04-.2-.07-.39-.12-.59-.16-.65-.99-1.11-1.64-.94-.91.24-1.41,1.24-1.05,2.13.35.89,1.38,1.25,2.14.75.48-.32.65-.79.67-1.35Z"/>
  <path class="cls-1" d="m24.85,9.26c0,.54,0,1.08,0,1.61,0,.11-.05.26-.14.33-.17.14-.44-.01-.46-.24,0-.04,0-.08,0-.12,0-1.51,0-3.01,0-4.52,0-.23.11-.34.32-.34.19,0,.29.12.29.34,0,.11,0,.22,0,.37.05-.05.09-.08.11-.11.29-.38.67-.62,1.14-.71.67-.13,1.52.24,1.89.83.26.41.33.85.33,1.33,0,.5-.15.93-.44,1.33-.3.41-.72.6-1.21.68-.7.11-1.26-.15-1.71-.67-.03-.04-.06-.07-.09-.11-.01,0-.02.01-.03.02Zm2.89-1.31c-.03-.18-.04-.36-.08-.54-.15-.67-.98-1.17-1.64-1-.87.22-1.32,1.11-1.15,1.92.13.63.87,1.28,1.53,1.2.5-.06.89-.27,1.14-.71.15-.26.2-.56.21-.87Z"/>
  <path class="cls-1" d="m29.66,6.51c.14-.12.28-.24.43-.35.4-.3.85-.35,1.33-.29.34.04.62.17.86.41.21.21.32.48.36.78.12.84.04,1.68.05,2.51,0,.1-.07.22-.14.29-.05.05-.17.06-.24.04-.13-.05-.22-.16-.22-.31,0-.58,0-1.17,0-1.75,0-.22-.02-.44-.06-.65-.07-.42-.47-.77-.9-.79-.3-.01-.61-.02-.88.16-.35.24-.56.55-.57.98-.01.67,0,1.33-.01,2,0,.11-.05.26-.13.33-.16.14-.43,0-.46-.22,0-.03,0-.06,0-.09,0-1.66,0-3.33,0-4.99,0-.18.1-.32.25-.34.2-.03.35.1.35.31,0,.62,0,1.23,0,1.85,0,.06,0,.12,0,.18,0-.01-.01-.03-.02-.04Z"/>
  <path class="cls-1" d="m23.76,14.54c0,.35.15.64.35.89.3.36.69.55,1.17.53.39-.02.73-.19,1.04-.42.07-.05.16-.09.25-.12.11-.03.19.03.24.13.05.11.05.2-.03.29-.3.34-.7.51-1.13.6-.29.05-.58.05-.87-.02-.7-.16-1.18-.56-1.45-1.23-.35-.88-.15-1.85.52-2.46.35-.32.77-.47,1.26-.47.56,0,1.02.18,1.41.58.24.24.33.54.41.85.04.16.04.34.06.5.04.24-.12.35-.34.35-.38,0-.75,0-1.13,0-.55,0-1.1,0-1.64,0-.03,0-.07,0-.11,0Zm-.01-.46h2.63c.03-.53-.41-1.26-1.11-1.3-.38-.02-.74.03-1.03.32-.27.27-.43.59-.5.98Z"/>
  <path class="cls-1" d="m26.05,21.02s-.06.08-.09.12c-.36.42-.83.55-1.35.54-.45-.01-.85-.15-1.13-.5-.54-.66-.44-1.65.64-2,.41-.14.83-.12,1.25-.06.22.03.43.07.64.1.03,0,.09-.05.09-.07,0-.5-.19-1.02-.85-1.12-.46-.07-.9,0-1.32.17-.17.07-.31.01-.38-.15-.06-.12.02-.26.18-.33.52-.21,1.05-.29,1.6-.21.35.05.68.12.94.39.2.21.31.47.35.76.11.84.04,1.68.06,2.51,0,.14-.02.29-.19.36-.17.06-.37-.07-.38-.25,0-.08,0-.16,0-.24-.01,0-.03-.02-.04-.02Zm.01-.99c0-.07,0-.14,0-.21,0-.1,0-.16-.13-.17-.27-.03-.55-.07-.82-.12-.35-.06-.69,0-.99.19-.53.34-.45,1.02.02,1.32.28.18.58.18.9.13.62-.09,1.01-.52,1.01-1.14Z"/>
  <path class="cls-1" d="m36.07,9.4s-.06.08-.09.12c-.36.42-.82.55-1.35.54-.45,0-.85-.15-1.13-.5-.54-.66-.44-1.65.63-2,.41-.14.83-.12,1.25-.06.22.03.44.08.66.11.02,0,.07-.04.08-.07.09-.52-.32-1.06-.84-1.13-.47-.07-.91,0-1.35.18-.15.06-.3-.01-.37-.16-.05-.11.02-.26.16-.31.29-.11.58-.19.89-.22.46-.05.89-.01,1.32.16.27.11.45.31.57.57.16.35.18.73.18,1.11,0,.61,0,1.22,0,1.83,0,.15-.02.3-.19.37-.17.06-.37-.07-.38-.25,0-.08,0-.16,0-.24-.01,0-.03-.02-.04-.02Zm.01-.99c0-.07,0-.14,0-.21,0-.1-.01-.15-.13-.17-.27-.03-.54-.07-.8-.12-.33-.06-.64,0-.94.15-.26.13-.41.35-.42.64-.01.3.12.55.39.71.28.17.57.18.88.13.64-.09,1.02-.51,1.02-1.14Z"/>
  <path class="cls-1" d="m21.21,9.39c-.04.05-.07.11-.11.16-.45.57-1.55.69-2.19.26-.46-.32-.64-.77-.57-1.3.06-.48.41-.75.84-.92.44-.17.89-.15,1.35-.1.22.03.43.08.64.11.03,0,.08-.05.08-.07,0-.51-.19-1.02-.85-1.12-.46-.07-.9,0-1.32.17-.17.07-.31.01-.38-.15-.06-.12.02-.26.18-.33.52-.21,1.05-.29,1.6-.21.35.05.69.13.95.4.2.21.3.47.34.75.11.84.04,1.68.06,2.53,0,.14-.03.29-.19.35-.16.06-.36-.07-.38-.24,0-.08,0-.16,0-.24-.02-.01-.03-.02-.05-.04Zm.02-.99c0-.07,0-.14,0-.21,0-.09-.01-.14-.12-.16-.27-.03-.55-.07-.82-.12-.34-.06-.67,0-.96.17-.52.3-.52,1.02,0,1.34.28.17.57.19.88.14.65-.1,1.03-.51,1.03-1.15Z"/>
  <path class="cls-1" d="m33.18,15.82c-.05.06-.1.11-.15.17-.3.33-.68.45-1.11.48-.38.03-.74-.05-1.06-.26-.46-.31-.63-.76-.56-1.29.06-.48.41-.75.84-.92.44-.18.9-.15,1.35-.1.22.03.43.08.64.11.03,0,.08-.05.08-.08,0-.5-.19-1.02-.85-1.12-.46-.07-.9,0-1.32.17-.17.07-.31.01-.38-.15-.05-.12.02-.26.19-.33.52-.21,1.05-.29,1.6-.21.35.05.68.12.94.39.21.21.31.48.35.76.11.84.04,1.68.06,2.51,0,.08,0,.19-.06.24-.07.07-.19.15-.27.14-.12-.02-.24-.11-.24-.27,0-.08,0-.16,0-.24-.01,0-.02,0-.03-.01Zm0-1c0-.07,0-.14,0-.21.01-.1-.02-.15-.13-.16-.27-.03-.54-.07-.8-.12-.33-.06-.65,0-.94.15-.54.28-.56,1.02-.04,1.35.28.18.58.19.9.14.63-.09,1.02-.51,1.02-1.15Z"/>
  <path class="cls-1" d="m44.27,21.01c-.04.05-.08.1-.12.16-.44.56-1.53.69-2.18.26-.47-.31-.65-.76-.58-1.29.06-.47.39-.74.8-.91.45-.19.91-.17,1.38-.11.22.03.44.08.66.11.02,0,.07-.04.08-.07.09-.52-.32-1.05-.84-1.13-.47-.07-.91,0-1.34.18-.16.07-.31,0-.38-.16-.05-.12.02-.25.18-.32.52-.21,1.05-.29,1.6-.21.36.05.7.13.96.41.19.21.29.46.33.74.12.84.04,1.69.06,2.53,0,.15-.03.29-.2.35-.16.06-.36-.07-.37-.25,0-.08,0-.16,0-.24-.02-.01-.03-.02-.05-.03Zm.02-.98c0-.07,0-.14,0-.21,0-.1-.01-.15-.13-.17-.27-.03-.54-.07-.8-.12-.33-.06-.64,0-.94.15-.26.13-.41.35-.42.65,0,.3.12.55.38.71.28.17.57.18.89.13.64-.09,1.02-.51,1.02-1.14Z"/>
  <path class="cls-1" d="m28.5,12.9s-.02.09-.02.13c0,.74,0,1.47,0,2.21,0,.37.17.61.49.68.13.03.27.02.4,0,.28-.05.42.06.38.3-.02.13-.11.17-.21.19-.31.07-.61.11-.92.02-.38-.11-.68-.42-.7-.8-.03-.53-.03-1.06-.04-1.6,0-.38,0-.75,0-1.15-.1,0-.18,0-.26,0-.18,0-.29-.09-.31-.23-.02-.12.12-.26.3-.28.09-.01.18,0,.28,0,0-.31,0-.61,0-.9,0-.25.22-.4.44-.31.13.06.17.17.17.29,0,.3,0,.59,0,.91.14,0,.28,0,.42,0,.2,0,.39,0,.59,0,.16,0,.3.14.29.28,0,.15-.11.24-.29.24-.32,0-.63,0-.95,0-.01,0-.03,0-.04.01Z"/>
  <path class="cls-1" d="m22.8,7.07c0-.83,0-1.65,0-2.48,0-.08.02-.18.07-.23.06-.07.17-.15.25-.15.12,0,.25.06.25.22,0,.05.02.1.02.14,0,1.65,0,3.3,0,4.96,0,.13,0,.28-.14.35-.07.04-.18.06-.26.03-.13-.04-.21-.15-.21-.3,0-.52,0-1.05,0-1.57,0-.32,0-.64,0-.97Z"/>
  <path class="cls-1" d="m28.5,12.9s.03,0,.04-.01c-.01,0-.03,0-.04.01Z"/>
</svg>