<?xml version="1.0" encoding="UTF-8"?>
<svg id="Layer_1" data-name="Layer 1" xmlns="http://www.w3.org/2000/svg" viewBox="0 0 69 36">
  <defs>
    <style>
      .cls-1 {
        fill: #e2e8f0;
      }
    </style>
  </defs>
  <path class="cls-1" d="m4.84,8.45c.08-.04.14-.07.19-.11,1.44-1.2,3.11-1.89,4.91-2.31.55-.13,1.1-.24,1.67-.24.63,0,1.27-.09,1.89-.03.76.07,1.51.23,2.25.4,1.24.29,2.39.79,3.45,1.51,1.06.72,2.01,1.57,2.83,2.57.69.84,1.21,1.79,1.64,2.79.36.84.62,1.71.79,2.6.09.47.15.94.15,1.42.03,5.44.04,10.89.05,16.33,0,.86-.59,1.83-1.76,2.06-1.24.25-2.33-.53-2.63-1.77-.03-.12-.01-.24-.01-.37,0-1.92,0-3.84,0-5.75,0-.07,0-.14,0-.24-.1.07-.18.11-.25.17-.97.79-2.05,1.37-3.22,1.81-.75.28-1.52.47-2.3.62-.93.17-1.88.2-2.82.14-1.05-.07-2.11-.25-3.09-.65-1.4-.57-2.76-1.23-3.89-2.25-1.62-1.46-2.85-3.21-3.59-5.28-.29-.81-.46-1.64-.58-2.47-.08-.57-.1-1.15-.1-1.73,0-4.96,0-9.91,0-14.87,0-1.05.66-1.96,1.65-2.23,1.21-.32,2.49.42,2.72,1.58.05.24.09.49.09.74,0,1.71,0,3.42,0,5.13,0,.13-.02.25-.03.41Zm6.85,1.78c-1.39.04-3.24.87-4.75,2.46-1.53,1.6-2.18,3.54-2.05,5.71.22,3.6,3.21,7.21,7.77,7.19,3.92-.02,7.76-3.3,7.54-8.14-.18-3.88-3.46-7.23-8.51-7.21Z"/>
  <path class="cls-1" d="m43.1,27.33c.06-.06.13-.1.18-.17.41-.54.95-.83,1.63-.82.32,0,.65.05.96.12.48.11.77.48,1.02.87.04.06.07.11.13.2.07-.1.13-.17.18-.24.47-.62,1.09-.95,1.88-.96.42,0,.82.03,1.2.2.69.31,1.03.88,1.13,1.61.17,1.28.06,2.56.08,3.85,0,.15-.09.33-.19.44-.08.08-.27.11-.38.07-.2-.06-.33-.22-.33-.44,0-.39,0-.78,0-1.17,0-.59.02-1.18,0-1.77-.01-.33-.07-.67-.16-1-.16-.58-.7-.92-1.3-.96-.69-.04-1.22.2-1.56.79-.15.27-.26.6-.27.9-.03,1.02-.01,2.04-.02,3.06,0,.09-.02.18-.04.26-.06.22-.27.39-.45.38-.2-.02-.42-.27-.42-.51,0-.95,0-1.9,0-2.85,0-.33-.06-.66-.14-.98-.17-.69-.67-1.05-1.39-1.05-.8,0-1.45.44-1.65,1.15-.08.28-.11.58-.12.87-.01.92,0,1.84,0,2.76,0,.2-.03.41-.22.52-.3.18-.68-.05-.69-.41,0-.38,0-.77,0-1.15,0-1.3,0-2.61,0-3.91,0-.27.23-.52.47-.52.29,0,.45.18.45.51,0,.1,0,.2,0,.3.02.01.04.03.06.04Z"/>
  <path class="cls-1" d="m53.88,27.37c.11-.09.19-.13.23-.2.42-.56.97-.85,1.67-.83.31,0,.63.05.94.12.47.11.76.47,1.01.85.04.06.08.12.04.07.26-.2.52-.39.78-.6.39-.31.84-.43,1.33-.45.41-.02.82.02,1.2.19.7.31,1.06.87,1.16,1.61.17,1.29.06,2.58.08,3.87,0,.15-.1.33-.22.45-.07.07-.26.09-.36.05-.2-.07-.33-.24-.33-.47,0-.94.01-1.89,0-2.83,0-.33-.08-.65-.13-.98-.09-.56-.66-1.08-1.38-1.06-.87.02-1.47.41-1.67,1.14-.08.28-.11.58-.12.88-.01.91,0,1.81,0,2.72,0,.06,0,.12,0,.18-.05.27-.29.49-.5.47-.22-.02-.41-.28-.42-.56,0-.97.01-1.93,0-2.9,0-.33-.08-.67-.17-1-.15-.52-.69-.94-1.32-.94-.83,0-1.37.38-1.67,1.13-.08.19-.12.4-.13.61-.01,1.01,0,2.03-.02,3.04,0,.17-.08.39-.2.51-.25.23-.68,0-.71-.35,0-.04,0-.08,0-.12,0-1.66,0-3.33,0-4.99,0-.37.4-.63.71-.44.1.06.16.21.2.34.03.13,0,.27,0,.49Z"/>
  <path class="cls-1" d="m33.51,30.91c-1.57,1.75-3.36,1.24-4.33.3-1.06-1.03-1.15-2.76-.23-3.86.59-.7,1.38-1.05,2.32-1.02.94.03,1.66.46,2.21,1.21.01-.01.03-.02.04-.03,0-.2,0-.41,0-.61,0-.21.11-.34.29-.38.28-.06.46.02.53.23.03.09.04.19.04.29,0,1.46.02,2.92,0,4.37,0,.47-.1.96-.24,1.4-.29.89-1,1.34-1.88,1.51-.34.07-.69.15-1.03.14-.89-.03-1.7-.33-2.45-.81-.18-.12-.23-.33-.12-.5.13-.2.32-.25.53-.16.4.18.79.4,1.2.51.57.16,1.17.19,1.75,0,.71-.24,1.16-.69,1.28-1.44.06-.39.05-.78.08-1.17Zm-2.19-3.8c-1.13-.05-2.05.82-2.06,2.03,0,1.21.95,2.13,2.06,2.1,1.23-.03,2.19-.8,2.2-2.1,0-1.12-.89-2.04-2.2-2.03Z"/>
  <path class="cls-1" d="m29.44,19.67c.07-.06.11-.09.14-.12.44-.6,1.03-1.01,1.77-1.11,1.28-.18,2.65.42,3.15,1.82.33.92.34,1.84-.02,2.74-.36.92-1.04,1.5-2.02,1.73-.77.17-1.5.09-2.14-.38-.33-.24-.59-.56-.87-.82-.02.2-.03.45-.06.7-.04.25-.24.43-.45.42-.18-.01-.41-.28-.42-.49,0-.05,0-.11,0-.16,0-2.49,0-4.97,0-7.46,0-.04,0-.08,0-.12.02-.27.22-.5.46-.48.31.02.45.09.46.48.01.87,0,1.75,0,2.62,0,.2,0,.39,0,.63Zm4.41,1.91c-.06-.3-.11-.6-.19-.9-.24-.99-1.5-1.69-2.49-1.43-1.39.37-2.14,1.88-1.6,3.25.53,1.35,2.1,1.91,3.26,1.14.73-.48.99-1.2,1.01-2.06Z"/>
  <path class="cls-1" d="m38.08,13.83c0,.82.01,1.64,0,2.46,0,.17-.08.39-.21.5-.25.22-.67-.02-.7-.37,0-.06,0-.12,0-.18,0-2.29,0-4.59,0-6.88,0-.34.17-.52.48-.52.29,0,.44.18.44.52,0,.17,0,.34,0,.56.08-.08.13-.12.17-.17.45-.58,1.02-.94,1.74-1.09,1.02-.2,2.31.37,2.87,1.26.39.62.5,1.3.5,2.02,0,.75-.23,1.42-.66,2.02-.45.63-1.1.92-1.83,1.04-1.06.17-1.91-.22-2.6-1.03-.05-.06-.09-.11-.14-.17-.02,0-.03.02-.05.02Zm4.4-1.99c-.04-.27-.07-.55-.13-.82-.23-1.03-1.49-1.79-2.5-1.53-1.33.34-2,1.68-1.76,2.92.19.96,1.33,1.95,2.32,1.83.76-.09,1.35-.41,1.74-1.08.23-.4.31-.85.32-1.32Z"/>
  <path class="cls-1" d="m45.4,9.65c.22-.18.43-.36.66-.53.61-.45,1.29-.53,2.03-.43.52.07.95.26,1.31.62.32.33.48.73.54,1.18.18,1.27.06,2.55.08,3.83,0,.15-.11.33-.22.45-.07.07-.26.09-.36.05-.2-.07-.33-.24-.33-.47,0-.89,0-1.78,0-2.67,0-.33-.04-.66-.09-.99-.1-.65-.71-1.17-1.37-1.2-.46-.02-.92-.04-1.34.25-.53.36-.85.84-.86,1.49-.02,1.01,0,2.03-.02,3.04,0,.17-.08.39-.2.5-.24.22-.66,0-.7-.34,0-.05,0-.09,0-.14,0-2.53,0-5.06,0-7.6,0-.28.16-.49.38-.52.31-.04.54.15.54.47,0,.94,0,1.87,0,2.81,0,.09,0,.18,0,.27,0-.02-.02-.04-.03-.07Z"/>
  <path class="cls-1" d="m36.42,21.87c.01.53.22.98.54,1.36.46.54,1.05.84,1.78.8.6-.03,1.11-.29,1.58-.64.11-.08.25-.14.38-.18.17-.05.29.05.36.2.08.16.08.31-.05.45-.46.51-1.06.78-1.72.91-.44.08-.88.07-1.33-.03-1.06-.24-1.79-.86-2.2-1.87-.54-1.34-.23-2.82.79-3.74.54-.49,1.17-.72,1.91-.72.85,0,1.55.28,2.15.88.36.36.5.82.63,1.29.07.25.05.51.1.77.06.36-.18.53-.52.53-.57,0-1.15,0-1.72,0-.83,0-1.67,0-2.5,0-.05,0-.1,0-.17,0Zm-.02-.7h4c.04-.81-.63-1.92-1.69-1.98-.58-.03-1.13.04-1.56.48-.41.41-.65.9-.76,1.5Z"/>
  <path class="cls-1" d="m39.9,31.72c-.05.06-.09.12-.14.18-.54.64-1.26.84-2.06.83-.68-.02-1.29-.24-1.72-.77-.82-1.01-.66-2.51.97-3.05.63-.21,1.27-.18,1.91-.09.33.04.65.11.98.16.04,0,.13-.07.13-.11-.01-.76-.29-1.56-1.29-1.71-.7-.11-1.36,0-2.01.26-.26.1-.47.02-.58-.22-.08-.18.03-.4.28-.5.78-.32,1.59-.44,2.44-.32.53.08,1.04.19,1.43.59.31.33.47.72.53,1.16.17,1.27.06,2.55.08,3.83,0,.22-.03.45-.29.54-.26.1-.57-.1-.58-.38,0-.12,0-.24,0-.36-.02-.01-.04-.02-.07-.04Zm.02-1.5c0-.11,0-.21,0-.32.01-.15,0-.24-.19-.26-.42-.04-.83-.11-1.24-.18-.54-.09-1.05,0-1.5.28-.8.51-.68,1.56.03,2.01.43.27.89.27,1.37.2.94-.13,1.53-.79,1.53-1.74Z"/>
  <path class="cls-1" d="m55.14,14.04c-.05.06-.09.12-.14.18-.54.64-1.25.84-2.06.83-.68-.01-1.29-.23-1.72-.77-.82-1-.67-2.51.96-3.05.63-.21,1.27-.18,1.91-.1.33.04.66.12,1,.17.03,0,.11-.06.12-.11.13-.79-.49-1.61-1.28-1.72-.72-.1-1.39,0-2.05.28-.22.1-.46-.02-.56-.25-.07-.17.03-.39.25-.47.43-.17.88-.29,1.35-.34.7-.07,1.36-.02,2.01.24.42.17.69.47.87.86.25.54.27,1.11.28,1.69.01.93,0,1.86,0,2.78,0,.23-.02.46-.29.56-.26.1-.56-.1-.58-.38,0-.12,0-.24,0-.36-.02-.01-.04-.02-.07-.04Zm.02-1.51c0-.11,0-.22,0-.32.01-.15-.02-.23-.2-.25-.41-.04-.82-.11-1.22-.18-.51-.09-.98,0-1.43.23-.39.2-.63.54-.64.98-.02.46.19.83.59,1.09.42.27.87.27,1.35.2.97-.14,1.55-.78,1.55-1.74Z"/>
  <path class="cls-1" d="m32.54,14.03c-.06.08-.11.16-.17.24-.69.87-2.35,1.05-3.33.39-.71-.48-.98-1.17-.87-1.97.1-.73.63-1.14,1.27-1.4.67-.26,1.36-.23,2.05-.15.33.04.65.11.98.16.04,0,.13-.07.13-.11-.01-.77-.3-1.55-1.29-1.71-.7-.11-1.36,0-2.01.26-.26.1-.47.02-.58-.22-.08-.18.03-.4.28-.5.78-.32,1.59-.44,2.44-.32.54.08,1.05.19,1.44.61.3.32.46.71.52,1.14.17,1.28.06,2.56.09,3.84,0,.22-.04.44-.3.53-.25.09-.55-.1-.57-.37,0-.12,0-.25,0-.37-.02-.02-.05-.04-.07-.06Zm.03-1.51c0-.11,0-.22,0-.32.01-.14-.02-.22-.19-.24-.42-.05-.83-.11-1.24-.18-.52-.09-1.02,0-1.46.25-.79.45-.79,1.55-.01,2.03.42.26.87.28,1.35.21,1-.15,1.56-.77,1.56-1.75Z"/>
  <path class="cls-1" d="m50.75,23.82c-.08.08-.16.17-.23.25-.45.5-1.04.69-1.68.74-.58.04-1.12-.08-1.61-.4-.7-.47-.96-1.16-.86-1.96.1-.72.62-1.14,1.27-1.4.67-.27,1.36-.23,2.06-.15.33.04.65.11.98.16.04,0,.13-.07.13-.11-.01-.77-.3-1.55-1.29-1.71-.7-.11-1.36,0-2.01.26-.25.1-.47.02-.58-.23-.08-.18.03-.39.28-.49.78-.32,1.59-.44,2.44-.32.53.08,1.04.19,1.42.6.31.33.47.72.53,1.16.17,1.27.06,2.55.08,3.82,0,.12-.01.28-.09.36-.11.11-.29.23-.42.21-.18-.03-.36-.17-.37-.41,0-.12,0-.24,0-.36-.02,0-.03-.01-.05-.02Zm0-1.53c0-.11,0-.22,0-.32.02-.16-.02-.23-.2-.25-.41-.04-.82-.11-1.22-.18-.51-.09-.98,0-1.43.23-.83.43-.86,1.56-.07,2.06.43.27.88.28,1.37.21.96-.14,1.54-.78,1.55-1.75Z"/>
  <path class="cls-1" d="m67.63,31.71c-.06.08-.12.16-.18.24-.67.85-2.33,1.06-3.31.4-.71-.47-.99-1.16-.88-1.97.09-.71.59-1.12,1.22-1.39.68-.29,1.39-.25,2.1-.17.33.04.66.12,1,.17.04,0,.11-.06.12-.11.13-.8-.49-1.6-1.28-1.72-.71-.11-1.38,0-2.03.27-.24.1-.48,0-.58-.24-.07-.18.04-.38.27-.48.78-.32,1.59-.44,2.44-.32.55.08,1.07.19,1.46.62.29.32.44.71.5,1.13.18,1.28.06,2.57.09,3.85,0,.22-.04.44-.3.53-.25.09-.55-.11-.57-.37,0-.12,0-.25,0-.37-.02-.02-.05-.03-.07-.05Zm.03-1.5c0-.11,0-.22,0-.32.01-.15-.02-.23-.2-.25-.41-.04-.82-.11-1.22-.18-.51-.09-.98,0-1.43.23-.39.2-.63.54-.64.98-.01.46.18.83.59,1.08.42.26.87.27,1.35.2.97-.14,1.55-.78,1.55-1.74Z"/>
  <path class="cls-1" d="m43.62,19.37c-.01.07-.03.13-.03.2,0,1.12,0,2.24,0,3.36,0,.56.26.92.74,1.03.19.04.41.03.61,0,.42-.08.64.09.58.46-.03.19-.16.26-.32.3-.46.11-.92.17-1.4.03-.57-.17-1.04-.64-1.07-1.22-.04-.81-.05-1.62-.06-2.43,0-.57,0-1.15,0-1.74-.15,0-.28,0-.4,0-.28,0-.44-.14-.47-.35-.03-.18.19-.39.45-.43.13-.02.27,0,.43,0,0-.47,0-.92,0-1.37,0-.39.33-.62.66-.47.19.08.25.25.25.45,0,.45,0,.9,0,1.39.22,0,.43,0,.64,0,.3,0,.6,0,.89,0,.24,0,.46.22.45.43,0,.23-.16.36-.44.36-.48,0-.96,0-1.44,0-.02,0-.04.01-.06.02Z"/>
  <path class="cls-1" d="m34.95,10.49c0-1.26,0-2.51,0-3.77,0-.12.03-.27.1-.36.1-.11.25-.22.39-.22.18,0,.37.08.39.33,0,.07.04.15.04.22,0,2.51,0,5.03,0,7.54,0,.2-.02.42-.21.53-.11.06-.28.09-.39.05-.19-.07-.32-.23-.32-.46,0-.8,0-1.59,0-2.39,0-.49,0-.98,0-1.47Z"/>
  <path class="cls-1" d="m43.62,19.37s.04-.01.06-.02c-.02,0-.04.01-.06.02Z"/>
</svg>