<?xml version="1.0" encoding="UTF-8"?>
<svg id="Layer_1" data-name="Layer 1" xmlns="http://www.w3.org/2000/svg" viewBox="0 0 61 32">
  <defs>
    <style>
      .cls-1 {
        fill: #e2e8f0;
      }
    </style>
  </defs>
  <path class="cls-1" d="m4.23,7.54c.07-.04.12-.06.16-.09,1.27-1.06,2.76-1.67,4.35-2.04.48-.11.97-.21,1.48-.21.56,0,1.12-.08,1.68-.02.67.06,1.34.2,1.99.36,1.1.26,2.12.7,3.06,1.34.94.64,1.78,1.39,2.51,2.27.62.75,1.07,1.58,1.46,2.47.32.75.55,1.51.7,2.3.08.41.13.84.13,1.26.02,4.82.04,9.64.04,14.47,0,.76-.52,1.62-1.56,1.82-1.1.22-2.07-.47-2.33-1.57-.02-.1-.01-.22-.01-.32,0-1.7,0-3.4,0-5.1,0-.06,0-.12,0-.22-.09.06-.16.1-.22.15-.86.7-1.82,1.21-2.85,1.6-.66.25-1.35.42-2.04.55-.82.15-1.66.18-2.5.12-.93-.07-1.87-.22-2.74-.57-1.24-.5-2.45-1.09-3.45-1.99-1.44-1.29-2.52-2.84-3.18-4.68-.25-.71-.41-1.45-.52-2.19-.07-.5-.09-1.02-.09-1.53,0-4.39,0-8.78,0-13.17,0-.93.58-1.74,1.46-1.97,1.07-.29,2.2.37,2.41,1.4.04.22.08.44.08.66,0,1.52,0,3.03,0,4.55,0,.11-.02.22-.03.37Zm6.07,1.57c-1.23.03-2.87.77-4.21,2.18-1.36,1.42-1.93,3.14-1.81,5.06.2,3.19,2.85,6.38,6.88,6.37,3.47-.02,6.88-2.92,6.68-7.21-.16-3.44-3.06-6.4-7.54-6.39Z"/>
  <path class="cls-1" d="m38.12,24.26c.05-.05.11-.09.16-.15.36-.48.84-.73,1.44-.72.29,0,.57.04.85.11.43.1.68.42.91.77.03.05.06.1.11.18.06-.09.11-.15.16-.21.42-.55.96-.84,1.66-.85.37,0,.72.03,1.06.18.61.28.91.78,1,1.42.15,1.13.05,2.27.07,3.41,0,.13-.08.29-.17.39-.07.07-.24.09-.34.07-.18-.05-.29-.2-.29-.39,0-.35,0-.69,0-1.04,0-.52.02-1.05,0-1.57-.01-.3-.06-.6-.14-.88-.14-.51-.62-.82-1.15-.85-.61-.03-1.08.18-1.38.7-.13.24-.23.53-.24.8-.03.9-.01,1.81-.02,2.71,0,.08-.02.16-.04.23-.06.2-.24.34-.4.33-.18-.01-.37-.24-.37-.45,0-.84,0-1.69,0-2.53,0-.29-.05-.59-.12-.87-.15-.61-.6-.93-1.23-.93-.71,0-1.28.39-1.46,1.02-.07.25-.1.51-.1.77-.01.82,0,1.63,0,2.45,0,.18-.03.36-.2.46-.26.16-.6-.04-.61-.36,0-.34,0-.68,0-1.02,0-1.16,0-2.31,0-3.47,0-.24.2-.46.42-.46.25,0,.4.16.4.45,0,.09,0,.18,0,.26.02.01.04.03.06.04Z"/>
  <path class="cls-1" d="m47.66,24.3c.1-.08.16-.12.21-.17.37-.49.86-.75,1.48-.74.28,0,.56.05.83.11.42.1.67.42.89.75.04.05.07.11.03.06.23-.18.46-.35.69-.53.35-.27.75-.38,1.18-.4.37-.01.72.02,1.06.16.62.27.94.77,1.03,1.43.15,1.14.06,2.28.07,3.43,0,.13-.09.29-.19.4-.06.06-.23.08-.32.05-.18-.06-.29-.21-.29-.42,0-.84.01-1.67,0-2.51,0-.29-.07-.58-.12-.87-.08-.49-.59-.95-1.22-.94-.77.02-1.3.36-1.48,1.01-.07.25-.1.52-.1.78-.01.8,0,1.6,0,2.41,0,.05,0,.11,0,.16-.04.24-.26.44-.44.42-.19-.02-.37-.25-.37-.49,0-.86.01-1.71,0-2.57,0-.3-.07-.6-.15-.88-.13-.46-.61-.83-1.17-.83-.74,0-1.22.33-1.48,1-.07.17-.11.36-.11.54-.01.9,0,1.79-.02,2.69,0,.15-.07.35-.17.45-.22.2-.6,0-.63-.31,0-.03,0-.07,0-.1,0-1.47,0-2.95,0-4.42,0-.33.35-.56.63-.39.09.05.15.19.17.3.03.11,0,.24,0,.43Z"/>
  <path class="cls-1" d="m29.63,27.44c-1.39,1.55-2.98,1.1-3.83.27-.94-.91-1.02-2.45-.2-3.42.52-.62,1.22-.93,2.06-.9.83.03,1.47.41,1.96,1.08.01-.01.03-.02.04-.03,0-.18,0-.36,0-.54,0-.18.1-.3.26-.33.25-.06.4.02.47.2.03.08.04.17.04.26,0,1.29.02,2.58,0,3.87,0,.42-.08.85-.21,1.24-.26.79-.88,1.18-1.66,1.34-.3.06-.61.13-.91.12-.79-.03-1.51-.3-2.17-.71-.16-.1-.2-.29-.11-.44.11-.18.28-.22.47-.14.35.16.7.35,1.06.46.51.15,1.03.17,1.55,0,.63-.21,1.03-.61,1.13-1.27.05-.34.05-.69.07-1.04Zm-1.94-3.36c-1-.04-1.82.72-1.83,1.8,0,1.07.84,1.89,1.83,1.86,1.09-.03,1.94-.71,1.95-1.86,0-.99-.79-1.81-1.95-1.8Z"/>
  <path class="cls-1" d="m26.02,17.48c.06-.05.1-.08.13-.11.39-.53.91-.89,1.57-.99,1.13-.16,2.34.37,2.79,1.62.29.81.3,1.63-.02,2.43-.32.81-.92,1.33-1.79,1.53-.68.15-1.33.08-1.89-.34-.29-.21-.52-.49-.77-.73-.01.17-.02.4-.06.62-.03.23-.22.38-.4.37-.16-.01-.36-.25-.37-.43,0-.05,0-.1,0-.14,0-2.2,0-4.4,0-6.6,0-.03,0-.07,0-.1.01-.24.2-.44.4-.43.27.02.4.08.41.43.01.77,0,1.55,0,2.32,0,.17,0,.35,0,.56Zm3.91,1.7c-.05-.26-.1-.53-.16-.79-.21-.88-1.33-1.49-2.2-1.26-1.23.33-1.9,1.67-1.42,2.87.47,1.19,1.86,1.69,2.89,1.01.64-.43.87-1.07.9-1.82Z"/>
  <path class="cls-1" d="m33.67,12.31c0,.73.01,1.45,0,2.18,0,.15-.07.35-.18.44-.22.19-.6-.01-.62-.32,0-.05,0-.11,0-.16,0-2.03,0-4.06,0-6.09,0-.3.15-.46.43-.46.26,0,.39.16.39.46,0,.15,0,.3,0,.5.07-.07.12-.1.15-.15.4-.51.91-.83,1.54-.96.9-.18,2.05.33,2.55,1.12.35.55.44,1.15.44,1.79,0,.67-.21,1.25-.59,1.79-.4.56-.98.81-1.62.92-.94.15-1.7-.2-2.3-.91-.04-.05-.08-.1-.12-.15-.02,0-.03.01-.05.02Zm3.89-1.77c-.04-.24-.06-.49-.11-.73-.2-.91-1.32-1.58-2.22-1.35-1.17.3-1.78,1.49-1.56,2.58.17.85,1.18,1.72,2.06,1.62.68-.08,1.2-.36,1.54-.95.21-.36.27-.75.29-1.17Z"/>
  <path class="cls-1" d="m40.15,8.6c.19-.16.38-.32.58-.47.54-.4,1.14-.47,1.8-.38.46.06.84.23,1.16.55.29.29.42.65.48,1.05.16,1.13.05,2.26.07,3.39,0,.13-.09.29-.19.39-.06.06-.23.08-.32.05-.18-.06-.29-.21-.29-.42,0-.79,0-1.58,0-2.36,0-.29-.03-.59-.08-.88-.09-.57-.63-1.04-1.21-1.06-.41-.02-.82-.03-1.19.22-.47.32-.75.75-.76,1.32-.01.9,0,1.79-.02,2.69,0,.15-.07.35-.18.44-.22.19-.59,0-.62-.3,0-.04,0-.08,0-.12,0-2.24,0-4.48,0-6.73,0-.25.14-.44.34-.46.28-.04.48.14.48.42,0,.83,0,1.66,0,2.49,0,.08,0,.16,0,.24,0-.02-.02-.04-.03-.06Z"/>
  <path class="cls-1" d="m32.2,19.43c.01.47.2.87.48,1.2.4.48.93.75,1.57.71.53-.03.98-.26,1.4-.57.1-.07.22-.13.34-.16.15-.04.25.04.32.18.07.14.07.27-.04.39-.41.45-.94.69-1.52.8-.39.07-.78.06-1.18-.03-.94-.21-1.59-.76-1.95-1.65-.48-1.18-.2-2.5.7-3.31.48-.43,1.04-.63,1.69-.64.75,0,1.37.25,1.9.78.32.32.45.73.56,1.14.06.22.05.45.09.68.05.32-.16.47-.46.47-.51,0-1.02,0-1.52,0-.74,0-1.48,0-2.22,0-.05,0-.09,0-.15,0Zm-.02-.62h3.55c.04-.71-.56-1.7-1.49-1.75-.52-.03-1,.04-1.38.43-.36.36-.58.8-.67,1.32Z"/>
  <path class="cls-1" d="m35.28,28.16c-.04.05-.08.11-.13.16-.48.56-1.11.75-1.82.73-.6-.01-1.14-.21-1.53-.68-.72-.89-.59-2.23.86-2.7.56-.18,1.12-.16,1.69-.08.29.04.58.1.87.14.03,0,.12-.06.11-.1-.01-.67-.26-1.38-1.14-1.52-.62-.1-1.21,0-1.78.23-.23.09-.42.02-.52-.2-.07-.16.02-.35.25-.44.69-.28,1.41-.39,2.16-.28.47.07.92.17,1.26.53.28.29.42.64.47,1.03.15,1.13.05,2.26.08,3.39,0,.19-.03.4-.25.48-.23.09-.5-.09-.52-.34,0-.11,0-.21,0-.32-.02-.01-.04-.02-.06-.03Zm.02-1.33c0-.1,0-.19,0-.28,0-.13,0-.21-.17-.23-.37-.04-.74-.1-1.1-.16-.48-.08-.93,0-1.33.25-.71.45-.6,1.38.03,1.78.38.24.79.24,1.21.18.83-.12,1.36-.7,1.36-1.54Z"/>
  <path class="cls-1" d="m48.78,12.49c-.04.05-.08.11-.12.16-.48.56-1.11.75-1.82.73-.6-.01-1.14-.21-1.53-.68-.72-.89-.6-2.22.85-2.7.55-.18,1.12-.16,1.69-.09.3.04.59.11.88.15.03,0,.1-.06.11-.1.12-.7-.44-1.42-1.13-1.52-.63-.09-1.23,0-1.82.25-.2.08-.41-.02-.49-.22-.06-.15.02-.35.22-.42.39-.15.78-.26,1.19-.3.62-.07,1.21-.02,1.78.21.37.15.61.41.77.76.22.47.24.99.25,1.5,0,.82,0,1.64,0,2.47,0,.2-.02.41-.25.5-.23.09-.5-.09-.52-.34,0-.11,0-.21,0-.32-.02-.01-.04-.02-.06-.03Zm.02-1.34c0-.1,0-.19,0-.28.01-.14-.02-.21-.18-.22-.36-.04-.72-.09-1.08-.16-.45-.08-.87,0-1.26.2-.35.18-.55.48-.57.87-.01.41.17.74.52.96.37.24.77.24,1.19.18.86-.13,1.37-.69,1.37-1.54Z"/>
  <path class="cls-1" d="m28.76,12.48c-.05.07-.1.14-.15.21-.61.77-2.08.93-2.95.35-.63-.43-.87-1.03-.77-1.75.09-.64.55-1.01,1.13-1.24.59-.23,1.21-.21,1.82-.13.29.04.58.1.87.14.03,0,.11-.07.11-.1-.01-.68-.26-1.38-1.14-1.51-.62-.1-1.21,0-1.78.23-.23.09-.42.02-.52-.2-.08-.16.02-.35.24-.44.69-.28,1.41-.39,2.16-.28.48.07.93.17,1.28.54.27.28.41.63.46,1.01.15,1.13.05,2.27.08,3.41,0,.2-.03.39-.26.47-.22.08-.49-.09-.51-.33,0-.11,0-.22,0-.33-.02-.02-.04-.03-.06-.05Zm.02-1.33c0-.1,0-.19,0-.28.01-.13-.02-.19-.17-.21-.37-.04-.74-.1-1.1-.16-.46-.08-.9,0-1.3.23-.7.4-.7,1.37-.01,1.8.37.23.77.25,1.19.18.88-.14,1.38-.68,1.38-1.55Z"/>
  <path class="cls-1" d="m44.89,21.15c-.07.07-.14.15-.21.22-.4.44-.92.61-1.49.65-.51.04-1-.07-1.43-.36-.62-.41-.85-1.03-.76-1.73.09-.64.55-1.01,1.13-1.24.59-.24,1.21-.21,1.82-.13.29.04.58.1.87.14.03,0,.11-.07.11-.1-.01-.68-.26-1.38-1.14-1.51-.62-.1-1.21,0-1.78.23-.23.09-.42.01-.51-.2-.07-.16.03-.35.25-.44.7-.28,1.41-.39,2.16-.28.47.07.92.17,1.26.53.28.29.42.64.47,1.03.15,1.13.05,2.26.07,3.39,0,.11-.01.25-.08.32-.09.1-.26.2-.37.18-.16-.03-.32-.15-.32-.36,0-.11,0-.21,0-.32-.02,0-.03-.01-.05-.02Zm0-1.35c0-.1,0-.19,0-.29.01-.14-.02-.2-.18-.22-.36-.04-.72-.09-1.08-.16-.45-.08-.87,0-1.26.2-.73.38-.76,1.38-.06,1.82.38.24.78.25,1.21.19.85-.12,1.37-.69,1.37-1.55Z"/>
  <path class="cls-1" d="m59.84,28.15c-.05.07-.1.14-.16.21-.59.75-2.06.94-2.93.35-.63-.42-.87-1.02-.78-1.74.08-.63.53-1,1.08-1.23.6-.26,1.23-.23,1.86-.15.3.03.59.11.88.15.03,0,.1-.06.11-.1.12-.71-.43-1.42-1.13-1.53-.63-.1-1.22,0-1.8.24-.22.09-.42,0-.51-.22-.06-.16.03-.34.24-.43.69-.28,1.41-.39,2.16-.29.48.07.94.17,1.29.55.26.28.39.63.45,1,.16,1.13.05,2.27.08,3.41,0,.2-.03.39-.26.47-.22.08-.49-.09-.5-.33,0-.11,0-.22,0-.33-.02-.02-.04-.03-.06-.05Zm.02-1.33c0-.1,0-.19,0-.29.01-.14-.02-.21-.18-.22-.36-.04-.72-.09-1.08-.16-.45-.08-.87,0-1.26.2-.35.18-.56.48-.57.87-.01.41.16.74.52.96.37.23.77.24,1.19.18.86-.13,1.37-.69,1.37-1.54Z"/>
  <path class="cls-1" d="m38.58,17.21c-.01.06-.03.12-.03.17,0,.99,0,1.98,0,2.98,0,.49.23.82.66.91.17.04.36.03.54,0,.37-.07.57.08.52.4-.03.17-.14.23-.29.26-.41.1-.82.15-1.24.03-.51-.15-.92-.56-.95-1.08-.04-.72-.04-1.43-.05-2.15,0-.51,0-1.02,0-1.54-.13,0-.24,0-.36,0-.25,0-.39-.13-.42-.31-.02-.16.17-.35.4-.38.12-.02.24,0,.38,0,0-.42,0-.82,0-1.22,0-.34.3-.54.59-.42.17.07.22.23.22.4,0,.4,0,.8,0,1.23.19,0,.38,0,.56,0,.26,0,.53,0,.79,0,.22,0,.4.19.4.38,0,.2-.15.32-.39.32-.43,0-.85,0-1.28,0-.02,0-.04,0-.05.01Z"/>
  <path class="cls-1" d="m30.9,9.35c0-1.11,0-2.23,0-3.34,0-.11.02-.24.09-.32.09-.1.23-.2.34-.2.16,0,.33.07.34.3,0,.07.03.13.03.19,0,2.23,0,4.45,0,6.68,0,.18-.01.37-.18.47-.1.05-.25.08-.35.04-.17-.06-.28-.2-.28-.4,0-.71,0-1.41,0-2.12,0-.43,0-.87,0-1.3Z"/>
  <path class="cls-1" d="m38.58,17.21s.04,0,.05-.01c-.02,0-.04,0-.05.01Z"/>
</svg>