<?xml version="1.0" encoding="UTF-8"?>
<svg id="Layer_1" data-name="Layer 1" xmlns="http://www.w3.org/2000/svg" viewBox="0 0 43 24">
  <defs>
    <style>
      .cls-1 {
        fill: #e2e8f0;
      }
    </style>
  </defs>
  <path class="cls-1" d="m7.02,2.64c-.09.25-.18.48-.27.71-.26.69-.52,1.39-.78,2.08-.25.66-.5,1.31-.74,1.97-.03.08-.06.13-.16.11-.27-.05-.55-.09-.82-.15-.36-.08-.72-.17-1.08-.26.16-.42.32-.83.47-1.25.26-.67.51-1.35.76-2.03.21-.57.43-1.13.64-1.7.16-.43.35-.86.48-1.3.07-.24.22-.3.42-.31.6-.01,1.21-.03,1.81-.03.19,0,.39.05.58.08.04,0,.09.05.11.08.24.63.47,1.26.7,1.89.2.53.4,1.05.6,1.57.26.67.51,1.34.76,2.02.17.44.33.88.49,1.33,0,.02,0,.04,0,.07-.35.04-.7.08-1.05.11-.31.03-.62.06-.94.08-.04,0-.1-.04-.11-.08-.17-.43-.33-.87-.5-1.3-.16-.4-.32-.81-.47-1.21-.2-.52-.38-1.05-.58-1.57-.11-.31-.23-.61-.36-.94Z"/>
  <path class="cls-1" d="m16.29,6.2c-.23.18-.45.36-.68.53-1.04.76-2.15,1.37-3.35,1.82-.69.26-1.39.47-2.1.66-.51.14-1.04.22-1.57.29-.42.06-.85.07-1.27.09-.45.02-.9.03-1.35.03-.32,0-.65-.04-.97-.08-.38-.04-.75-.08-1.12-.15-.54-.1-1.07-.21-1.6-.35-.49-.13-.97-.29-1.46-.45-.1-.03-.2-.07-.3-.12-.03-.02-.07-.06-.08-.1-.03-.21-.08-.43-.08-.64,0-.35.01-.69.03-1.04,0-.1.04-.21.06-.31,5.31,2.16,10.58,2.11,15.82-.24,0,.01.01.03.02.04Z"/>
  <path class="cls-1" d="m4.33,9.76c-.35.93-.69,1.84-1.04,2.77h3.18c.14.46.14,1.51.01,2.03H.37c.04-.13.08-.25.12-.36.19-.5.37-.99.56-1.49.17-.45.35-.89.52-1.34.24-.64.48-1.28.72-1.92,0-.02.08-.05.11-.04.51.1,1.01.21,1.52.32.12.02.25.03.41.04Z"/>
  <path class="cls-1" d="m16.3,12.52c.11.68.11,1.34,0,2.03h-.16c-1.47,0-2.93,0-4.4,0-.18,0-.26-.05-.32-.21-.16-.44-.33-.87-.49-1.31-.18-.48-.35-.96-.52-1.43-.25-.67-.51-1.35-.76-2.01.66-.18,1.31-.35,1.97-.53.08.21.17.44.26.66.13.34.26.69.39,1.03.15.39.29.77.44,1.16.06.17.11.36.19.53.02.04.11.07.16.07,1.03,0,2.06,0,3.09,0h.16Z"/>
  <path class="cls-1" d="m40.5.52h.72c0,.05,0,.09,0,.14,0,1.18,0,2.36,0,3.54,0,.32-.05.63-.17.93-.18.44-.73.79-1.19.79-1,0-2,0-2.99,0-.36,0-.7-.09-1.05-.18-.04-.01-.1,0-.14.01-.21.11-.43.17-.67.17-.71,0-1.41,0-2.12,0-.06,0-.11-.02-.16-.03-.02.18-.04.36-.07.54-.07.39-.39.65-.75.69-.21.02-.42.03-.64.03-.13,0-.25-.04-.41-.06.04-.2.08-.38.12-.57.24.1.46.09.68.04.15-.04.25-.14.29-.3.02-.08.04-.16.05-.24,0-1.11,0-2.21,0-3.33h-.45c-.07-.17-.08-.32-.04-.49.02-.09.05-.11.14-.11.35,0,.7,0,1.07,0v3.19c.78,0,1.55,0,2.32,0,.32,0,.57-.24.62-.61.05-.36.05-.74.06-1.1,0-.25.01-.49.1-.73.13-.38.4-.61.77-.71.34-.09.7-.09,1.05-.04.23.03.46.07.71.11-.03.18-.06.33-.09.48-.02.1-.1.13-.18.1-.32-.11-.66-.13-.99-.11-.39.03-.64.23-.65.67-.01.61,0,1.21.01,1.82,0,.03,0,.06.01.13.16,0,.32,0,.47,0,.9,0,1.8-.01,2.69,0,.46,0,.74-.2.82-.68.02-.14.04-.29.04-.44,0-1.15,0-2.29,0-3.44v-.17Z"/>
  <path class="cls-1" d="m22.91,2.07c0,.08,0,.13,0,.18,0,.95,0,1.9,0,2.85,0,.11.03.15.14.15,1.03,0,2.05,0,3.08,0,.26,0,.53-.23.58-.49.04-.26.08-.52.09-.78.01-.58,0-1.16,0-1.75v-.15h.73v3.19c.33.01.64.03.94.03.15,0,.3-.02.44-.07.31-.1.48-.34.49-.65.03-.76.04-1.53.05-2.29,0-.07,0-.13,0-.21h.71s0,.09,0,.14c0,.69,0,1.37,0,2.06,0,.3-.05.59-.17.87-.2.45-.58.67-1.04.72-.41.04-.83.05-1.24.03-.26-.01-.52-.1-.78-.15-.05,0-.11-.02-.15,0-.28.14-.59.16-.9.16-.99,0-1.99,0-2.98,0-.2,0-.4-.09-.6-.13-.06-.01-.13-.02-.18,0-.34.15-.69.16-1.05.12-.29-.03-.56-.12-.8-.28-.42-.29-.61-.72-.68-1.21-.06-.37-.02-.74.1-1.08.2-.59.6-1.02,1.22-1.21.38-.12.77-.11,1.16-.06.2.02.4.02.6.03.07,0,.14,0,.23,0Zm-.72.6c-.11-.02-.22-.03-.33-.05-.58-.07-1.13.1-1.38.74-.11.27-.13.55-.12.83.02.68.47,1.15,1.17,1.11.25-.01.52-.23.57-.48.04-.2.08-.41.09-.62.01-.5,0-1.01,0-1.53Z"/>
  <path class="cls-1" d="m34.58,9.15h.72v2.01s.06-.05.07-.07c.32-.35.71-.49,1.17-.4.16.03.32.03.46.09.39.15.63.45.76.85.11.34.16.69.14,1.04-.04.74-.3,1.37-1.03,1.7-.27.12-.56.19-.86.2-.45,0-.89-.01-1.33-.14-.09-.03-.12-.06-.12-.16,0-1.68,0-3.37,0-5.05,0-.01,0-.03,0-.06Zm.73,4.74c.29.07.57.09.86.04.42-.07.77-.38.89-.78.1-.34.1-.67.05-1.02-.06-.48-.26-.72-.69-.82-.53-.12-1.08.21-1.11.83-.03.58,0,1.16,0,1.75Z"/>
  <path class="cls-1" d="m27.93,12.12c-.01-.11-.01-.24-.04-.36-.06-.28-.22-.43-.5-.47-.35-.06-.69-.02-1.03.06-.06.02-.12.03-.19.05-.12-.18-.15-.37-.14-.59.26-.05.51-.11.76-.14.19-.02.38,0,.57.02.15.01.31.02.46.07.46.13.72.45.78.93.02.17.03.35.03.52,0,.69,0,1.37,0,2.06,0,.09-.02.13-.13.16-.56.14-1.12.18-1.69.13-.48-.04-.88-.26-1.05-.76-.17-.5,0-1.06.43-1.36.31-.22.66-.29,1.03-.3.22,0,.44,0,.69,0Zm-.01.61c-.16-.01-.3-.03-.45-.04-.15,0-.3,0-.45.03-.39.07-.57.3-.56.69,0,.27.18.48.44.53.34.07.68.02,1.02-.04v-1.19Z"/>
  <path class="cls-1" d="m31.37,10.78c.44-.04.82-.11,1.21-.11.33,0,.66.04.94.23.33.21.46.53.47.9.02.81.02,1.63.03,2.44,0,.11-.02.15-.15.18-.55.14-1.12.17-1.68.12-.57-.05-1.1-.38-1.11-1.16,0-.65.48-1.07,1.05-1.2.27-.06.54-.08.81-.03.11.02.22,0,.33,0,.05-.39-.05-.72-.38-.81-.3-.08-.61-.1-.92-.03-.12.03-.24.03-.35.08-.09.04-.12,0-.14-.07-.04-.16-.08-.32-.13-.53Zm1.93,1.94c-.31,0-.62-.03-.92,0-.35.04-.54.29-.56.59-.03.33.19.59.48.64.34.06.67.02,1-.04v-1.19Z"/>
  <path class="cls-1" d="m41.93,12.15c-.02-.15-.02-.28-.05-.41-.06-.28-.3-.43-.59-.46-.37-.04-.72,0-1.08.12-.02,0-.08-.03-.09-.06-.05-.17-.09-.34-.13-.51.42-.11.8-.18,1.2-.16.22.01.45.05.66.1.38.1.75.42.76,1.09,0,.8.02,1.6.03,2.4,0,.1-.02.13-.13.16-.55.14-1.11.17-1.67.13-.45-.03-.86-.22-1.03-.68-.28-.73.06-1.42.84-1.65.3-.09.61-.12.93-.07.11.02.23,0,.36,0Zm-.02,1.79v-1.22c-.31,0-.61-.03-.91,0-.39.04-.59.35-.57.7.02.33.29.56.67.55.27,0,.53-.02.81-.04Z"/>
  <path class="cls-1" d="m21.8,12.15c-.01-.14-.02-.27-.04-.39-.06-.29-.27-.45-.57-.48-.39-.04-.77.01-1.17.14-.04-.17-.09-.34-.11-.5,0-.03.05-.1.09-.11.59-.17,1.19-.22,1.79-.02.29.1.51.29.62.6.09.24.12.49.12.74,0,.71,0,1.42,0,2.13,0,.09-.02.13-.13.16-.55.14-1.1.17-1.66.13-.4-.03-.76-.17-.98-.54-.31-.51-.19-1.18.26-1.54.24-.19.52-.31.83-.32.31-.01.62,0,.96,0Zm0,.57c-.28,0-.54-.05-.8-.02-.48.04-.68.29-.67.75,0,.22.2.48.43.5.3.02.6,0,.9,0,.05,0,.14-.06.14-.1.01-.37,0-.74,0-1.13Z"/>
  <path class="cls-1" d="m18.04,19.82c.24,0,.49,0,.73,0,.26,0,.39-.07.42-.39.03-.25.01-.5.02-.76,0-.18,0-.18.18-.18v1.2c.16.14.56.19.75.07.14-.09.16-.25.16-.4,0-.52,0-1.04,0-1.57.06,0,.13,0,.2-.01,0,.04.01.08.01.11,0,.5,0,.99,0,1.49,0,.06,0,.12-.02.17-.08.15.02.2.13.24.18.08.36.06.53.02.18-.04.22-.21.23-.37.01-.23,0-.46.01-.69,0-.31,0-.63,0-.96.07,0,.14,0,.22-.01,0,.33,0,.66,0,.98,0,.26,0,.52-.03.78-.03.36-.21.43-.56.47-.2.02-.4-.02-.59-.11-.04-.02-.09-.02-.13,0-.31.18-.62.15-.93.02-.08-.03-.14-.05-.23,0-.08.05-.19.08-.29.08-2.21,0-4.41,0-6.62,0-.01,0-.03,0-.04,0,.03-.13.1-.18.24-.17.31.01.62,0,.95,0-.07-.29-.12-.56-.2-.83-.05-.18-.15-.23-.33-.23q-.19,0-.17-.18c.38-.07.66.08.74.44.05.24.09.48.15.71,0,.03.06.08.1.08.31,0,.63,0,.94,0,.01-.14,0-.28.05-.4.07-.25.27-.3.51-.29.22.02.38.17.38.39,0,.06,0,.11,0,.17-.01.1.03.13.13.13.12,0,.25,0,.37,0,.12-.95-.28-1.34-1.22-1.12-.02-.05-.04-.1-.06-.16.41-.14.79-.15,1.16.07.23.15.34.37.35.64,0,.18,0,.36,0,.55h1.28c-.21-.34-.41-.66-.62-.99.41-.42,1.39-.36,1.62,0-.17.32-.35.64-.52.96,0,0,0,.02,0,.03,0,0,.01,0,.02,0Zm-.83-.95c.19.32.37.62.57.94.18-.33.35-.64.52-.95-.28-.18-.72-.18-1.09,0Zm-1.87.95c.04-.49-.09-.52-.29-.51-.17.01-.26.13-.21.51h.5Z"/>
  <path class="cls-1" d="m24.54,13.91c.02.2.04.38.07.58-.37.03-.73.11-1.07-.06-.29-.14-.45-.38-.46-.7-.02-.62-.01-1.25-.01-1.87,0-.85,0-1.71,0-2.56,0-.05,0-.09,0-.15h.72v.16c0,1.33,0,2.65,0,3.98,0,.12,0,.24.02.35.1.33.3.34.61.3.03,0,.06-.02.12-.03Z"/>
  <path class="cls-1" d="m41.91.52h.72v5.37h-.72V.52Z"/>
  <path class="cls-1" d="m29.21,14.5v-3.76h.62c.02.19.05.36.07.55.48-.52.61-.58,1.27-.54v.65c-.12,0-.23,0-.33,0-.46-.03-.78.34-.85.72-.04.22-.04.45-.05.68,0,.52,0,1.04,0,1.56,0,.11-.03.14-.14.14-.19,0-.39,0-.59,0Z"/>
  <path class="cls-1" d="m5.22,19.77c-.05-.03-.1-.06-.16-.08-.29-.14-.5-.34-.52-.68-.02-.36.32-.61.58-.58.13.01.25,0,.38.03.25.05.37.24.39.49.02.28-.06.53-.24.74.22.13.45.13.68.11.09-.01.19-.1.24-.19.05-.08.05-.19.05-.29,0-.46,0-.92,0-1.37,0-.05,0-.1,0-.16h.22c0,.4,0,.8,0,1.2,0,.19-.02.39-.03.58-.01.32-.28.44-.52.44-.19,0-.38-.03-.57-.07-.14-.03-.26-.05-.39.02-.09.05-.22.05-.33.05-.29,0-.57,0-.86,0-.1,0-.22.01-.3-.03-.18-.1-.33-.06-.52,0-.26.09-.53.03-.79-.08-.03-.01-.08-.02-.1,0-.16.12-.35.12-.54.12-.18,0-.35,0-.54,0v-.25c-.16,0-.3.02-.44.02-.33,0-.57-.29-.54-.56.01-.13.02-.27.07-.38.09-.21.26-.31.49-.31.21,0,.42.02.64.04v1.29c.2-.02.4,0,.59-.05.19-.04.23-.15.25-.42.02-.23,0-.46,0-.69q0-.2.22-.19c0,.2,0,.4,0,.6,0,.2-.02.4-.03.63.13.03.3.1.46.1.33,0,.43-.13.46-.48.02-.22,0-.45,0-.67,0-.05,0-.09,0-.15.07-.02.13-.03.18-.04v1.23c.47.22,1,.08,1.52.1v-.04Zm0-1.17c-.28,0-.44.13-.44.37,0,.29.32.64.61.65.03,0,.09-.03.1-.05.06-.12.14-.24.17-.36.11-.39-.06-.61-.44-.61Zm-3.87.11c-.13,0-.25,0-.36,0-.21,0-.34.1-.38.29-.06.25,0,.47.19.52.16.05.34.01.51,0,.02,0,.04-.06.04-.09,0-.23,0-.47,0-.73Z"/>
  <path class="cls-1" d="m38.59,11.32c-.15,0-.28,0-.4,0-.04,0-.09-.06-.1-.09-.01-.12-.01-.25,0-.37,0-.04.06-.1.09-.1.37,0,.73,0,1.1,0v3.74h-.69v-3.17Z"/>
  <path class="cls-1" d="m36.17,20.71c-.02-.05-.04-.1-.07-.16.14-.02.27-.02.4-.05.23-.06.35-.26.35-.55,0-.31,0-.61,0-.92,0-.05,0-.09,0-.15.08-.01.14-.02.22-.03,0,.24,0,.48,0,.71,0,.08.02.13.1.16.31.12.62.13.94.04.14-.04.19-.15.2-.28.02-.24.03-.49.04-.75.05,0,.12-.02.2-.04-.01.35.05.69-.08,1.04.26.07.52.13.78.03.19-.07.22-.24.22-.41,0-.25,0-.5,0-.77.07-.01.13-.03.19-.04v1.14c.19.12.43.16.67.09.18-.05.22-.21.23-.37.01-.24.01-.49.01-.73,0-.21,0-.21.19-.21v1.22c.19.1.42.17.66.09.09-.03.17-.12.21-.21.04-.09.04-.2.04-.3,0-.44,0-.89,0-1.33q0-.19.22-.17v.67c0,.31,0,.62,0,.93,0,.31-.11.51-.34.58-.27.08-.54.07-.79-.04-.09-.04-.15-.04-.24,0-.28.14-.58.12-.87,0-.09-.04-.15-.04-.24.01-.21.13-.45.09-.68.07-.23-.02-.45-.05-.69,0-.29.05-.6.07-.9-.05-.03-.01-.06-.01-.1-.02.02.7-.39.79-.89.8Z"/>
  <path class="cls-1" d="m28.84,19.79c-.2-.32-.39-.64-.59-.97.16-.14.34-.24.55-.26.32-.04.64-.04.93.14.11.07.17.13.07.27-.17.27-.31.55-.49.87.34-.02.66-.02.97-.05.15-.02.23-.2.24-.43,0-.48,0-.96,0-1.45v-.14h.22s0,.08,0,.13c0,.47,0,.94,0,1.42,0,.13-.02.27-.07.39-.08.21-.27.3-.47.3-.76,0-1.52,0-2.28,0-.12,0-.23-.05-.35-.07-.01.66-.34.79-.89.79-.03-.05-.06-.1-.08-.15.15-.03.29-.04.44-.08.18-.05.29-.21.3-.39.01-.35.02-.7.03-1.05,0-.05,0-.09,0-.15.07,0,.13-.02.21-.03,0,.22.01.44,0,.66-.01.15.07.21.18.24.1.03.22.05.32.05.25,0,.51,0,.76,0h.02s0-.02,0-.03Zm.25.02c.18-.32.35-.63.52-.94-.27-.19-.81-.18-1.08.01.18.3.36.61.56.93Z"/>
  <path class="cls-1" d="m35.86,17.85c-.29.27-.56.52-.86.8.12.04.19.07.27.09.35.09.56.35.56.71,0,.18,0,.36,0,.55h-1.94v-.25c-.13.01-.25.03-.37.03-.39,0-.62-.24-.61-.62,0-.36.21-.64.61-.64.1,0,.2,0,.3,0,.1.01.19.04.29.06v1.24h1.49c.08-.52,0-.82-.64-.96-.11-.02-.22-.03-.36-.04.04-.05.08-.09.12-.13.24-.26.49-.51.71-.78.12-.14.23-.15.42-.05Zm-1.96,1.27v-.07c0-.34,0-.32-.34-.35-.32-.02-.5.3-.4.6.09.29.3.28.55.26.14,0,.23-.06.19-.23-.01-.07,0-.14,0-.21Z"/>
  <path class="cls-1" d="m24.17,19.82c.17,0,.31,0,.45,0,.26-.01.4-.17.4-.45,0-.23,0-.47,0-.7q0-.19.23-.17c-.02.37-.04.73-.06,1.1,0,.04.03.11.07.13.14.07.28.14.45.08.06-.02.13,0,.19-.02.16-.06.2-.21.21-.36.01-.25,0-.5.01-.74,0-.2,0-.2.19-.19,0,.37.01.75,0,1.12,0,.21-.25.38-.52.39-.22.01-.43-.02-.63-.11-.04-.02-.1,0-.15.01-.1.03-.2.09-.3.09-.21.01-.42,0-.63,0-.03,0-.06,0-.11,0v-.26c-.15,0-.28.03-.41.03-.38,0-.59-.26-.58-.63,0-.35.23-.63.58-.63.16,0,.32.01.48.02.1,0,.14.04.14.16,0,.37,0,.74,0,1.13Zm-.21-.68v-.06c0-.37,0-.38-.38-.36-.09,0-.21.05-.28.11-.14.14-.16.4-.06.56.09.16.27.22.48.18q.23-.04.23-.29v-.14Z"/>
  <path class="cls-1" d="m6.55,22.49c.32.11.39.23.4.5,0,.23-.16.4-.43.46-.28.06-.56.07-.85,0v-1.81c.2,0,.4,0,.6,0,.08,0,.16.02.23.04.15.03.27.12.3.27.05.24,0,.39-.18.5-.01,0-.03.02-.07.04Zm-.6.77c.09,0,.18,0,.27,0,.03,0,.07,0,.1,0,.17-.02.3-.12.31-.24.02-.22-.04-.32-.26-.36-.14-.03-.28-.02-.42-.03v.64Zm0-.86c.2-.01.42.06.54-.15.04-.08.03-.24-.02-.3-.13-.16-.33-.13-.52-.11v.56Z"/>
  <path class="cls-1" d="m26.93,22.18v1.27h-.26v-1.79c.19-.06.3.02.4.19.22.37.46.73.72,1.12v-1.31h.28v1.78c-.17.05-.29,0-.38-.16-.23-.38-.48-.74-.72-1.11-.01,0-.02,0-.03,0Z"/>
  <path class="cls-1" d="m10.08,22.18v1.28h-.27v-1.78c.18-.05.28,0,.38.17.22.38.47.74.73,1.14v-1.31h.28v1.78c-.24.05-.24.04-.37-.15-.25-.37-.49-.74-.74-1.12,0,0-.01-.01-.02-.02,0,0,0,.02,0,.02Z"/>
  <path class="cls-1" d="m17.17,22.94v-1.28h.27v1.78c-.23.05-.25.04-.37-.16-.22-.34-.45-.69-.67-1.03-.02-.03-.04-.06-.08-.12v1.31h-.28v-1.77c.23-.06.25-.05.38.15.24.37.49.75.74,1.12,0,0,0,.01.01.02,0,0,0-.02,0-.02Z"/>
  <path class="cls-1" d="m13.9,22.55c.05-.18.08-.36.16-.53.25-.52,1.07-.48,1.35-.15.12.14.19.31.19.49,0,.19.01.39-.03.58-.09.41-.39.53-.74.56-.51.04-.92-.32-.9-.93-.01,0-.02,0-.04-.01Zm1.42.02c-.01-.1-.02-.19-.04-.28-.06-.28-.21-.41-.5-.42-.22-.01-.41.11-.49.35-.07.19-.09.39-.04.59.05.23.24.45.42.46.34.02.52-.08.61-.39.03-.1.03-.2.04-.3Z"/>
  <path class="cls-1" d="m3.08,22.7c.19.25.38.49.57.74-.2.05-.34.03-.46-.16-.15-.23-.33-.44-.51-.67.05-.01.09-.03.14-.04.21-.05.35-.2.36-.36.02-.27-.13-.31-.31-.35-.09-.02-.18,0-.28,0v1.6h-.29c0-.2,0-.39,0-.59,0-.37,0-.73,0-1.1,0-.1.04-.15.14-.14.19.01.39.01.58.03.23.02.43.17.48.35.06.25-.03.47-.25.61-.04.03-.09.05-.15.08Z"/>
  <path class="cls-1" d="m34.91,22.71c.19.24.37.49.57.75-.19.03-.35.03-.47-.17-.14-.23-.33-.44-.5-.66.09-.04.2-.06.29-.11.19-.1.26-.26.19-.45-.05-.14-.18-.18-.3-.19-.09-.01-.18,0-.28,0v1.6h-.29v-.54c0-.38,0-.76,0-1.15,0-.11.04-.14.14-.14.19.01.39.01.58.03.23.02.43.17.47.35.06.24-.03.46-.24.6-.05.03-.1.06-.15.09Z"/>
  <path class="cls-1" d="m19.69,21.87v1.59h-.3c0-.27,0-.53,0-.8,0-.3,0-.59,0-.89,0-.1.05-.14.13-.14.24.01.49.02.73.06.21.03.32.22.34.43.03.3-.15.45-.4.58.1.13.19.25.28.37.09.12.18.24.28.36-.22.07-.3.04-.44-.14-.17-.22-.34-.44-.52-.68.24-.09.52-.14.49-.46-.02-.24-.12-.33-.59-.3Z"/>
  <path class="cls-1" d="m21.5,21.66h.34c.22.6.43,1.19.65,1.8h-.31c-.03-.1-.07-.2-.1-.31-.02-.08-.07-.11-.15-.11-.17,0-.34,0-.51,0-.1,0-.14.04-.17.13-.02.1-.06.19-.09.29h-.3c.22-.6.43-1.2.65-1.8Zm.16.28c-.1.3-.19.58-.28.86h.57c-.1-.29-.19-.56-.29-.86Z"/>
  <path class="cls-1" d="m4.73,21.66c.22.61.43,1.2.65,1.8h-.3s-.03-.06-.04-.09q-.12-.32-.45-.32h-.03q-.42,0-.52.41h-.3c.06-.17.11-.33.17-.5.14-.38.29-.76.42-1.14.05-.14.11-.18.24-.16.05,0,.09,0,.15,0Zm-.44,1.15h.56c-.1-.29-.19-.57-.29-.89-.1.31-.19.6-.29.88,0,0,.01,0,.02.01h-.02s0,0,0,.01l.02-.02Z"/>
  <path class="cls-1" d="m9.52,23.46h-.31c-.04-.11-.07-.22-.12-.32-.02-.04-.08-.08-.12-.08-.19,0-.38,0-.57,0-.07,0-.12,0-.13.09,0,.03-.03.07-.04.1q-.08.25-.36.2c.22-.59.43-1.19.65-1.78h.34c.21.59.43,1.19.65,1.79Zm-.53-.66c-.1-.28-.19-.56-.28-.83-.01,0-.02,0-.03,0-.09.27-.19.54-.28.82h.59Z"/>
  <path class="cls-1" d="m1.01,21.66h.34c.21.6.43,1.19.64,1.79q-.32.02-.45-.41c-.22,0-.45,0-.68,0-.04,0-.08.05-.1.09-.04.1-.07.21-.11.32h-.29c.22-.6.43-1.2.65-1.8Zm.45,1.14c-.1-.29-.19-.57-.3-.89-.11.32-.2.6-.3.89h.59Z"/>
  <path class="cls-1" d="m29.89,21.68c-.04.22-.06.23-.27.19-.4-.07-.72.05-.82.47-.07.26-.05.53.16.74.21.2.47.22.75.14v-.7h.29c0,.28,0,.55,0,.82,0,.03-.04.08-.07.09-.27.06-.54.1-.82.03-.51-.13-.7-.64-.62-1.1.09-.52.61-.83,1.15-.7.08.02.17.02.26.03Z"/>
  <path class="cls-1" d="m40.27,23.23h.85v.22h-1.12v-1.79h1.08v.21h-.82c0,.16,0,.3,0,.45,0,.03.07.07.11.07.18,0,.36,0,.56,0v.23h-.66v.6Z"/>
  <path class="cls-1" d="m33.72,23.46h-1.1v-1.79h1.1v.22h-.81v.51h.63c.03.24.03.24-.18.24-.15,0-.29,0-.45,0v.6h.81v.23Z"/>
  <path class="cls-1" d="m41.35,23.39c.02-.06.04-.12.07-.18.15.02.3.04.45.05.08,0,.18,0,.25-.04.07-.04.16-.12.18-.19.03-.13.02-.27-.15-.33-.14-.05-.28-.1-.42-.16-.23-.1-.34-.27-.32-.48.02-.19.18-.37.41-.39.23-.03.46,0,.69,0,.04.22,0,.25-.19.22-.14-.02-.3-.02-.43.01-.2.05-.22.26-.06.38.06.05.14.07.21.1.09.04.19.07.28.11.21.08.33.24.32.47-.02.24-.09.39-.37.48-.28.1-.57.08-.86,0-.02,0-.04-.03-.06-.04Z"/>
  <path class="cls-1" d="m37.2,21.66c-.16.42-.31.82-.46,1.22-.06.16-.11.31-.15.48-.04.17-.18.1-.28.11-.09.01-.13-.03-.16-.12-.11-.32-.23-.64-.35-.97-.08-.24-.17-.47-.25-.71.31-.02.31-.02.4.26.13.4.27.8.41,1.24.09-.25.17-.48.24-.7.07-.22.14-.45.2-.67.03-.1.08-.15.19-.13.06,0,.11,0,.19,0Z"/>
  <path class="cls-1" d="m32.16,21.7c-.02.06-.03.12-.05.18-.14,0-.28-.02-.42-.02-.04,0-.09,0-.13,0-.12,0-.22.09-.23.19,0,.07.07.17.13.23.07.06.17.08.26.12.07.03.15.06.23.09.24.1.32.28.29.53-.03.21-.13.34-.35.42-.3.1-.6.08-.9,0,0-.21.04-.24.23-.2.14.02.3.03.44,0,.18-.02.26-.11.26-.25,0-.18-.06-.26-.23-.32-.14-.05-.28-.1-.42-.16-.15-.07-.23-.19-.24-.37,0-.2.08-.32.24-.42.18-.1.37-.1.57-.08.1,0,.21.04.32.07Z"/>
  <path class="cls-1" d="m39.56,21.69c.02.19-.02.21-.21.19-.15-.02-.32-.02-.47.02-.26.07-.46.48-.4.76.06.27.17.51.47.57.14.03.29.03.43,0,.17-.05.23,0,.23.17-.36.16-.91.13-1.18-.16-.29-.31-.35-.78-.11-1.2.2-.34.6-.52,1.24-.34Z"/>
  <path class="cls-1" d="m13.69,21.7c-.03.08-.05.14-.07.21-.34-.05-.67-.14-.92.21-.15.2-.15.7,0,.9.26.33.59.27.94.19.03.06.05.12.08.18-.26.18-.9.16-1.18-.11-.3-.29-.34-.76-.2-1.09.23-.52.51-.61,1.35-.48Z"/>
  <path class="cls-1" d="m23.99,23.2c.03.07.05.13.07.19-.36.17-.92.14-1.2-.15-.27-.28-.33-.79-.14-1.16.2-.4.54-.5,1.3-.38-.02.07-.04.13-.06.2-.17-.01-.33-.04-.49-.03-.27,0-.54.27-.54.54,0,.17,0,.36.07.52.13.33.46.37.75.33.07-.01.14-.03.23-.05Z"/>
  <path class="cls-1" d="m9.1,18.5c0,.26,0,.51,0,.77,0,.31.2.56.58.55.23,0,.46,0,.69,0,.32,0,.42-.09.45-.41.03-.3.03-.59.05-.91.05-.01.11-.02.21-.04-.02.39-.01.76-.05,1.12-.03.26-.21.4-.48.4-.34,0-.68.02-1.02,0-.35-.02-.59-.24-.61-.59-.02-.23-.02-.47,0-.7,0-.08.1-.15.16-.23.01,0,.03.01.04.02Z"/>
  <path class="cls-1" d="m18.57,23.46h-.29v-1.56h-.52v-.23h1.33v.22h-.52v1.58Z"/>
  <path class="cls-1" d="m25.06,23.46h-.29v-1.57h-.54v-.22h1.34v.22h-.5v1.57Z"/>
  <path class="cls-1" d="m26.09,6.39h.8v.76h-.8v-.76Z"/>
  <path class="cls-1" d="m21.47.53v.75c-.23,0-.45.02-.66.01-.07,0-.14-.02-.14-.12,0-.15-.03-.31-.02-.46,0-.16.06-.21.25-.21.19,0,.37.02.58.03Z"/>
  <path class="cls-1" d="m25.74,6.39v.75h-.81v-.75h.81Z"/>
  <path class="cls-1" d="m22.58,1.28h-.8v-.76h.8v.76Z"/>
  <path class="cls-1" d="m28.93,7.15c-.24,0-.45,0-.67,0-.12,0-.14-.08-.14-.17,0-.16,0-.31,0-.47,0-.04.06-.11.09-.11.23,0,.46,0,.72,0v.75Z"/>
  <path class="cls-1" d="m39.21,9.17v.77c-.25,0-.49,0-.73,0-.03,0-.08-.07-.08-.12,0-.18,0-.35,0-.53,0-.08.03-.13.13-.12.22,0,.44,0,.69,0Z"/>
  <path class="cls-1" d="m7.33,21.66h.27v1.79h-.27v-1.79Z"/>
  <path class="cls-1" d="m25.89,21.66h.27v1.8h-.27v-1.8Z"/>
  <path class="cls-1" d="m42.63,17.77v2.22h-.22v-.15c0-.63,0-1.26,0-1.89q0-.19.22-.18Z"/>
  <path class="cls-1" d="m31.25,17.77h.2v2.22h-.2v-2.22Z"/>
  <path class="cls-1" d="m7.54,19.99h-.2v-2.22c.06,0,.13,0,.2-.01v2.23Z"/>
  <path class="cls-1" d="m37.51,21.66h.27v1.79h-.27v-1.79Z"/>
  <path class="cls-1" d="m11.56,17.77c.07,0,.13,0,.19-.01v2.23h-.19v-2.22Z"/>
  <path class="cls-1" d="m26.34,20.38c0,.07,0,.14,0,.2,0,.08,0,.14-.11.13-.1,0-.12-.04-.12-.13,0-.07,0-.13,0-.21h.23Z"/>
  <path class="cls-1" d="m5.25,18.11h-.21v-.3h.21v.3Z"/>
  <path class="cls-1" d="m3.49,18.1v-.3h.22v.3h-.22Z"/>
  <path class="cls-1" d="m2,20.71v-.33h.19v.33h-.19Z"/>
  <path class="cls-1" d="m25.22,20.71h-.19v-.34h.19v.34Z"/>
  <path class="cls-1" d="m39.29,18.13v-.33h.18c.04.33.03.35-.18.33Z"/>
  <path class="cls-1" d="m39.88,18.13q-.2.02-.19-.33h.19v.33Z"/>
  <path class="cls-1" d="m9.74,17.8h.18v.3h-.18v-.3Z"/>
  <path class="cls-1" d="m10.14,17.8h.19v.3h-.19v-.3Z"/>
  <path class="cls-1" d="m1.12,17.91h.18v.3h-.18v-.3Z"/>
  <path class="cls-1" d="m18.78,18.1v-.3h.19v.3h-.19Z"/>
  <path class="cls-1" d="m19.4,18.1h-.18v-.3h.18v.3Z"/>
  <path class="cls-1" d="m.9,18.22h-.18v-.31h.18v.31Z"/>
  <path class="cls-1" d="m33.87,18.22h-.19v-.31h.19v.31Z"/>
  <path class="cls-1" d="m33.44,17.92v.3h-.19v-.3h.19Z"/>
  <path class="cls-1" d="m23.74,17.91h.19v.3h-.19v-.3Z"/>
  <path class="cls-1" d="m2.43,20.37h.16v.33h-.16v-.33Z"/>
  <path class="cls-1" d="m24.79,20.71h-.16v-.33h.16v.33Z"/>
  <path class="cls-1" d="m39.5,17.34h.19v.27h-.19v-.27Z"/>
  <path class="cls-1" d="m23.5,18.22h-.16v-.3h.16v.3Z"/>
  <path class="cls-1" d="m28.84,19.79s0,.02,0,.03h-.02s0-.02.01-.03Z"/>
  <path class="cls-1" d="m18.04,19.82s-.01,0-.02,0c0,0,0-.02,0-.03,0,.01,0,.02.01.03Z"/>
  <path class="cls-1" d="m10.08,22.18s0-.02,0-.02c0,0,.01.01.02.02h0s0,0,0,0Z"/>
  <path class="cls-1" d="m17.17,22.94s0,.02,0,.02c0,0,0-.01-.01-.02h0s0,0,0,0Z"/>
  <path class="cls-1" d="m4.29,22.8l-.02.02s0-.01,0-.02c0,0,.01,0,.02,0,0,0,0,0,0,0Z"/>
</svg>