<?xml version="1.0" encoding="UTF-8"?>
<svg id="Icons" xmlns="http://www.w3.org/2000/svg" viewBox="0 0 200 200">
  <defs>
    <style>
      .cls-1, .cls-2, .cls-3, .cls-4, .cls-5, .cls-6, .cls-7, .cls-8 {
        fill: none;
      }

      .cls-1, .cls-9 {
        opacity: .3;
      }

      .cls-2, .cls-10, .cls-11, .cls-12 {
        opacity: .4;
      }

      .cls-3, .cls-13, .cls-14, .cls-15 {
        opacity: .5;
      }

      .cls-4, .cls-16 {
        opacity: .7;
      }

      .cls-5 {
        stroke: #27debf;
        stroke-linecap: round;
        stroke-linejoin: round;
        stroke-width: .34px;
      }

      .cls-17, .cls-6 {
        opacity: .1;
      }

      .cls-18, .cls-19 {
        fill: #f6e05e;
      }

      .cls-20 {
        fill: #ebebeb;
      }

      .cls-21 {
        fill: #f28f8f;
      }

      .cls-22, .cls-23, .cls-15, .cls-24, .cls-25, .cls-11 {
        fill: #f0f0f0;
      }

      .cls-26 {
        fill: #e6e6e6;
      }

      .cls-27, .cls-12 {
        fill: #f5f5f5;
      }

      .cls-28, .cls-29, .cls-14, .cls-30, .cls-31, .cls-16, .cls-32 {
        fill: #fff;
      }

      .cls-33 {
        fill: #ffa8a7;
      }

      .cls-34 {
        fill: #ffbda7;
      }

      .cls-35 {
        fill: #fafafa;
      }

      .cls-36 {
        fill: #e0e0e0;
      }

      .cls-37 {
        fill: #b16668;
      }

      .cls-38 {
        fill: #37474f;
      }

      .cls-39 {
        fill: #455a64;
      }

      .cls-40 {
        fill: #263238;
      }

      .cls-41, .cls-7 {
        opacity: .15;
      }

      .cls-42, .cls-8 {
        opacity: .2;
      }

      .cls-43 {
        opacity: .25;
      }

      .cls-44 {
        opacity: .35;
      }

      .cls-19 {
        fill-rule: evenodd;
      }

      .cls-23, .cls-29 {
        opacity: .6;
      }

      .cls-24, .cls-30 {
        opacity: .9;
      }

      .cls-25, .cls-31 {
        opacity: .8;
      }

      .cls-32 {
        opacity: .75;
      }
    </style>
  </defs>
  <ellipse id="Floor-2" data-name="Floor" class="cls-12" cx="99.49" cy="134.77" rx="94.49" ry="54.55"/>
  <path id="Shadow" class="cls-26" d="m182.16,127.1l-53.68,31.01c-.46.27-1.21.27-1.67,0l-89.52-51.69c-.46-.27-.46-.7,0-.96l53.68-31.01c.46-.27,1.21-.27,1.67,0l89.52,51.69c.46.27.46.7,0,.96Z"/>
  <ellipse id="Shadow-2" data-name="Shadow" class="cls-26" cx="65.35" cy="157.8" rx="33.4" ry="19.29"/>
  <ellipse id="Shadow-3" data-name="Shadow" class="cls-26" cx="99.26" cy="139.4" rx="24.19" ry="13.97"/>
  <g id="Plants-2" data-name="Plants">
    <g>
      <path class="cls-18" d="m169.82,113.44s.84-6.72,4.24-11.9c3.4-5.18,8.03-8.39,12.32-8.68,4.29-.29,7.71,3.69,3.1,6.35-4.62,2.66-12.8,5.34-16.66,15.43l-3-1.2Z"/>
      <g class="cls-1">
        <path d="m169.82,113.44s.84-6.72,4.24-11.9c3.4-5.18,8.03-8.39,12.32-8.68,4.29-.29,7.71,3.69,3.1,6.35-4.62,2.66-12.8,5.34-16.66,15.43l-3-1.2Z"/>
      </g>
      <path class="cls-28" d="m171.1,111.71s-.03,0-.05-.01c-.12-.05-.17-.18-.12-.3,4.64-11.1,13.31-15.66,17.24-16.52.12-.03.25.05.27.17.03.12-.05.25-.17.27-3.85.84-12.35,5.33-16.92,16.25-.04.1-.15.16-.25.14Z"/>
    </g>
    <g>
      <path class="cls-18" d="m194.84,108.42c-.37.83-1.27,1.26-2.11,1.59-.83.33-1.75.7-2.2,1.48-.91,1.58.59,3.79-.4,5.33-.41.64-1.18.98-1.93,1.12-.62.12-1.26.12-1.9.17-.3,0-.61-.03-.9-.07-.87-.13-1.81-.17-2.61.28-1.25.7-1.64,2.29-2.4,3.51-.91,1.46-2.53,2.42-4.22,2.65-1,.13-1.94.42-2.64-.52-.33-.44-.5-.99-.66-1.52-.66-2.19-1.33-4.38-1.99-6.57-.26-.85-.51-1.8-.08-2.58.31-.57.9-.9,1.44-1.26,1.07-.71,2.02-1.59,2.81-2.6.76-.97,1.12-2.12,1.81-3.09,1.33-1.85,3.71-3.13,6.01-2.75,1.32.22,2.61.96,3.98.9,1.33-.06,2.62-.41,3.98-.32,1.42.1,2.86.7,3.67,1.91.45.68.67,1.58.34,2.33Z"/>
      <g class="cls-6">
        <path d="m194.84,108.42c-.37.83-1.27,1.26-2.11,1.59-.83.33-1.75.7-2.2,1.48-.91,1.58.59,3.79-.4,5.33-.41.64-1.18.98-1.93,1.12-.62.12-1.26.12-1.9.17-.3,0-.61-.03-.9-.07-.87-.13-1.81-.17-2.61.28-1.25.7-1.64,2.29-2.4,3.51-.91,1.46-2.53,2.42-4.22,2.65-1,.13-1.94.42-2.64-.52-.33-.44-.5-.99-.66-1.52-.66-2.19-1.33-4.38-1.99-6.57-.26-.85-.51-1.8-.08-2.58.31-.57.9-.9,1.44-1.26,1.07-.71,2.02-1.59,2.81-2.6.76-.97,1.12-2.12,1.81-3.09,1.33-1.85,3.71-3.13,6.01-2.75,1.32.22,2.61.96,3.98.9,1.33-.06,2.62-.41,3.98-.32,1.42.1,2.86.7,3.67,1.91.45.68.67,1.58.34,2.33Z"/>
      </g>
      <path class="cls-28" d="m173.43,120.19s-.01,0-.02,0c-.11-.03-.17-.14-.14-.25,3.3-12.35,16.31-14.14,19.36-13.91.11,0,.2.11.19.22,0,.11-.11.2-.22.19-2.98-.22-15.71,1.53-18.93,13.61-.03.1-.13.17-.23.15Z"/>
      <path class="cls-28" d="m187.89,113.93s-.08-.03-.11-.06c-.03-.03-3.35-3.31-8.86-2.5-.11.01-.21-.06-.23-.17-.02-.11.06-.21.17-.23,5.72-.84,9.17,2.58,9.21,2.61.08.08.08.21,0,.29-.05.05-.12.07-.18.06Z"/>
    </g>
  </g>
  <g id="Desk-2" data-name="Desk">
    <g id="Table">
      <g>
        <path class="cls-38" d="m131.75,113.14v35.34c0,.29-.21.65-.46.79l-.97.56c-.25.15-.66.15-.92,0l-.97-.56c-.25-.15-.46-.5-.46-.79v-35.34c0-.29.21-.41.46-.26l.97.56c.25.15.66.15.92,0l.97-.56c.25-.15.46-.03.46.26Z"/>
        <path class="cls-39" d="m129.4,149.84l-.97-.56c-.25-.15-.46-.5-.46-.79v-35.34c0-.29.21-.41.46-.26l.97.56c.25.15.46.5.46.79v35.34c0,.29-.21.41-.46.26Z"/>
      </g>
      <g>
        <path class="cls-38" d="m173.31,89.13v35.34c0,.29-.21.65-.46.79l-.97.56c-.25.15-.66.15-.92,0l-.97-.56c-.25-.15-.46-.5-.46-.79v-35.34c0-.29.21-.41.46-.26l.97.56c.25.15.66.15.92,0l.97-.56c.25-.15.46-.03.46.26Z"/>
        <path class="cls-39" d="m170.96,125.83l-.97-.56c-.25-.15-.46-.5-.46-.79v-35.34c0-.29.21-.41.46-.26l.97.56c.25.15.46.5.46.79v35.34c0,.29-.21.41-.46.26Z"/>
      </g>
      <g>
        <path class="cls-38" d="m59.55,71.43v35.34c0,.29-.21.65-.46.79l-.97.56c-.25.15-.66.15-.92,0l-.97-.56c-.25-.15-.46-.5-.46-.79v-35.34c0-.29.21-.41.46-.26l.97.56c.25.15.66.15.92,0l.97-.56c.25-.15.46-.03.46.26Z"/>
        <path class="cls-39" d="m57.2,108.13l-.97-.56c-.25-.15-.46-.5-.46-.79v-35.34c0-.29.21-.41.46-.26l.97.56c.25.15.46.5.46.79v35.34c0,.29-.21.41-.46.26Z"/>
      </g>
      <g id="Desk-3" data-name="Desk">
        <g>
          <path class="cls-38" d="m182.35,92.36v-.33c0-.53-.37-1.18-.83-1.44l-89.52-51.69c-.46-.27-1.21-.27-1.67,0l-45.08,26.04c-.46.27-.83.91-.83,1.44v.33c0,.53.37,1.18.83,1.44l89.52,51.69c.46.27,1.21.27,1.67,0l45.08-26.04c.46-.27.83-.91.83-1.44Z"/>
          <path class="cls-18" d="m135.6,117.79v2.26c.3,0,.6-.07.83-.2l45.08-26.04c.46-.27.83-.91.83-1.44v-.33c0-.47-.29-1.03-.68-1.34.3.26.25.62-.15.85l-45.08,26.04c-.23.13-.53.2-.83.2Z"/>
          <path class="cls-40" d="m135.6,117.79v2.26c.3,0,.6-.07.83-.2l45.08-26.04c.46-.27.83-.91.83-1.44v-.33c0-.47-.29-1.03-.68-1.34.3.26.25.62-.15.85l-45.08,26.04c-.23.13-.53.2-.83.2Z"/>
          <path class="cls-39" d="m181.51,91.55l-45.08,26.04c-.46.27-1.21.27-1.67,0l-89.52-51.69c-.46-.27-.46-.7,0-.96l45.08-26.04c.46-.27,1.21-.27,1.67,0l89.52,51.69c.46.27.46.7,0,.96Z"/>
        </g>
      </g>
    </g>
    <g id="Keyboard">
      <path id="Shadow-4" data-name="Shadow" class="cls-41" d="m112.16,73.71l-8.5,4.92c-.26.15-.69.15-.95,0l-25.1-14.47c-.26-.15-.26-.4,0-.55l8.5-4.92c.26-.15.69-.15.95,0l25.1,14.47c.26.15.26.4,0,.55Z"/>
      <g id="Keyboard-2" data-name="Keyboard">
        <g>
          <path class="cls-20" d="m78.12,62.74c0-.1.07-.2.2-.28l7.98-4.61c.26-.15.69-.15.95,0l24.36,14.09c.13.08.2.18.2.27,0,.1,0,.74,0,.84,0,.1-.07.2-.2.27l-7.98,4.61c-.26.15-.69.15-.95,0l-24.36-14.06c-.13-.08-.2-.17-.2-.27,0-.1,0-.76,0-.86Z"/>
          <path class="cls-28" d="m103.63,77.08l7.98-4.59c.26-.15.26-.4,0-.55l-24.36-14.09c-.26-.15-.69-.15-.95,0l-7.98,4.61c-.26.15-.26.4,0,.55l24.36,14.06c.26.15.69.15.95,0Z"/>
          <path class="cls-36" d="m103.19,77.19v.86c.16,0,.32-.04.45-.11l7.98-4.61c.13-.08.2-.18.2-.27v-.84c0,.1-.07.2-.2.27l-7.98,4.59c-.12.07-.29.11-.45.11Z"/>
        </g>
        <path class="cls-39" d="m79.6,62.8s0,0,0,0l.79-.46,1.07.62-.79.47-1.07-.62h0Zm1.24-.71s0,0,0-.01l.79-.46.84.49-.8.47-.84-.49h0Zm.26,1.58s0,0,0,0l.79-.46.84.49-.8.47-.84-.49h0Zm.98-2.29s0,0,0-.01l.79-.46,1.36.79-.79.47-1.36-.78h0Zm.03,1.45s0,0,0-.01l.79-.46.67.39-.8.47-.67-.39h0Zm.26,1.58s0,0,0-.01l.79-.46.84.49-.8.47-.84-.49h0Zm.83-.95s0,0,0-.01l.79-.46.67.39-.79.47-.67-.39h0Zm.11-2.79s0,0,0-.01l.79-.46,1.07.62-.8.47-1.07-.62h0Zm.32,4.47s0,0,0-.01l.79-.46,6.08,3.51-.8.47-6.08-3.51h0Zm.23-2.72s0,0,0-.01l.79-.46.67.39-.79.47-.67-.39h0Zm.43,1.68s0,0,0-.01l.79-.46.67.39-.79.47-.67-.39h0Zm.25-4.14s0,0,0-.01l.79-.46.67.39-.79.47-.67-.39h0Zm.26,1.58s0,0,0-.01l.79-.46.67.39-.8.47-.67-.39h0Zm.15,1.51s0,0,0-.01l.79-.46.67.39-.8.47-.67-.39h0Zm.43,1.68s0,0,0-.01l.79-.46.67.39-.8.47-.67-.39h0Zm.25-4.14s0,0,0-.01l.79-.46.67.39-.79.47-.67-.39h0Zm.26,1.58s0,0,0-.01l.79-.46.67.39-.8.47-.67-.39h0Zm.15,1.51s0,0,0-.01l.79-.46.67.39-.8.47-.67-.39h0Zm0-4.59s0,0,0-.01l.79-.46.84.49-.8.47-.84-.49h0Zm.43,6.27s0,0,0-.01l.79-.46.67.39-.79.47-.67-.39h0Zm.25-4.14s0,0,0-.01l.79-.46.67.39-.79.47-.67-.39h0Zm.26,1.58s0,0,0-.01l.79-.46.67.39-.8.47-.67-.39h0Zm.15,1.51s0,0,0-.01l.79-.46.67.39-.8.47-.67-.39h0Zm.43,1.68s0,0,0-.01l.79-.46.67.39-.79.47-.67-.39h0Zm.22-5.89s0,0,0-.01l.79-.46.67.39-.8.47-.67-.39h0Zm.04,1.76s0,0,0-.01l.79-.46.67.39-.8.47-.67-.39h0Zm.26,1.58s0,0,0-.01l.79-.46.67.39-.8.47-.67-.39h0Zm.15,1.51s0,0,0-.01l.79-.46.67.39-.8.47-.67-.39h0Zm.43,1.68s0,0,0-.01l.79-.46.67.39-.8.47-.67-.39h0Zm.22-5.89s0,0,0-.01l.79-.46.67.39-.8.47-.67-.39h0Zm.04,1.76s0,0,0,0l.79-.46.67.39-.8.47-.67-.39h0Zm.26,1.58s0,0,0-.01l.79-.46.67.39-.8.47-.67-.39h0Zm.15,1.51s0,0,0-.01l.79-.46.67.39-.8.47-.67-.39h0Zm.43,1.68s0,0,0-.01l.79-.46.67.39-.79.47-.67-.39h0Zm.22-5.89s0,0,0-.01l.79-.46.67.39-.8.47-.67-.39h0Zm.04,1.76s0,0,0-.01l.79-.46.67.39-.8.47-.67-.39h0Zm.12,5.78s0,0,0-.01l.79-.46.84.49-.8.47-.84-.49h0Zm.14-4.2s0,0,0-.01l.79-.46.67.39-.8.47-.67-.39h0Zm.15,1.51s0,0,0,0l.79-.46.67.39-.8.47-.67-.39h0Zm.43,1.68s0,0,0-.01l.79-.46.67.39-.8.47-.67-.39h0Zm.22-5.89s0,0,0-.01l.79-.46.67.39-.8.47-.67-.39h0Zm.04,1.76s0,0,0-.01l.79-.46.67.39-.8.47-.67-.39h0Zm.26,1.58s0,0,0-.01l.79-.46.67.39-.8.47-.67-.39h0Zm.03,4.3s0,0,0-.01l.79-.46.84.49-.79.47-.84-.49h0Zm.11-2.79s0,0,0-.01l.79-.46.67.39-.8.47-.67-.39h0Zm.43,1.68s0,0,0-.01l.79-.46.67.39-.79.47-.67-.39h0Zm.25-4.14s0,0,0-.01l.79-.46.67.39-.8.47-.67-.39h0Zm.26,1.58s0,0,0-.01l.79-.46.67.39-.79.47-.67-.39h0Zm.15,1.51s0,0,0-.01l.79-.46.67.39-.8.47-.67-.39h0Zm.03-4.57s0,0,0-.01l.79-.46.67.39-.8.47-.67-.39h0Zm.03,7.46s0,0,0-.01l.79-.46.84.49-.8.47-.84-.49h0Zm.37-1.21s0,0,0,0l.79-.46.67.39-.8.47-.67-.39h0Zm.25-4.14s0,0,0-.01l.79-.46.67.39-.8.47-.67-.39h0Zm.26,1.58s0,0,0-.01l.79-.46.67.39-.8.47-.67-.39h0Zm.15,1.51s0,0,0-.01l.79-.46.67.39-.8.47-.67-.39h0Zm.03-4.57s0,0,0-.01l.79-.46.67.39-.8.47-.67-.39h0Zm.2,7.56s0,0,0-.01l.79-.46,1.07.62-.8.47-1.07-.62h0Zm.2-1.31s0,0,0-.01l.79-.46,2.11,1.22-.8.47-2.11-1.22h0Zm.25-4.14s0,0,0-.01l.79-.46.67.39-.8.47-.67-.39h0Zm.26,1.58s0,0,0-.01l.79-.46.67.39-.8.47-.67-.39h0Zm.15,1.51s0,0,0,0l.79-.46.67.39-.8.47-.67-.39h0Zm.03-4.57s0,0,0-.01l.79-.46.67.39-.8.47-.67-.39h0Zm.66,2.11s0,0,0-.01l.79-.46.67.39-.8.47-.67-.39h0Zm.18,5.82s0,0,0,0l.79-.46.67.39-.8.47-.67-.39h0Zm.08-4.24s0,0,0-.01l.79-.46.67.39-.79.47-.67-.39h0Zm.15,1.51s0,0,0,0l.79-.46.61.35s.11.04.19.04.16-.02.2-.04l1.04-.6.78.45-2.03,1.19-1.59-.92h0Zm.03-4.57s0,0,0-.01l.79-.46.67.39-.8.47-.67-.39h0Zm.66,2.11s0,0,0-.01l.79-.46.67.39-.8.47-.67-.39h0Zm.18,5.82s0,0,0-.01l.79-.46.67.39-.8.47-.67-.39h0Zm.08-4.24s0,0,0-.01l.79-.46.67.39-.8.47-.67-.39h0Zm.65-2.78s0,0,0-.01l.79-.46.67.39-.8.47-.67-.39h0Zm.18,1.84s0,0,0-.01l.79-.46.67.39-.8.47-.67-.39h0Zm.18,5.82s0,0,0-.01l.79-.46.67.39-.8.47-.67-.39h0Zm.14-1.35s0,0,0-.01l.79-.46.67.39-.8.47-.67-.39h0Zm.59-5.68s0,0,0-.01l.79-.46.67.39-.79.47-.67-.39h0Zm.18,1.84s0,0,0-.01l.79-.46,1.19.69-.8.47-1.19-.68h0Zm.41,5.95s0,0,0-.01l.79-.46,1.76,1.02-.8.47-1.76-1.02h0Zm.2-4.17s0,0,0-.01l.79-.46.67.39-.79.47-.67-.39h0Zm.31-2.98s0,0,0-.01l.79-.46.67.39-.79.47-.67-.39h0Zm.73,6.44s0,0,0-.01l.79-.46.67.39-.79.47-.67-.39h0Zm.05-2.82s0,0,0-.01l.79-.46.67.39-.8.47-.67-.39h0Zm.14-1.35s0,0,0-.01l.79-.46.67.39-.8.47-.67-.39h0Zm.16-1.64s0,0,0-.01l.79-.46.67.39-.79.47-.67-.39h0Zm.59,7.79s0,0,0-.01l.79-.46.67.39-.8.47-.67-.39h0Zm.14-1.35s0,0,0-.01l.79-.46.67.39-.8.47-.67-.39h0Zm.05-2.82s0,0,0-.01l.79-.46.67.39-.8.47-.67-.39h0Zm.09,1.48s0,0,0-.01l.79-.46.67.39-.79.47-.67-.39h0Zm.05-2.82s0,0,0-.01l.79-.46.67.39-.8.47-.67-.39h0Zm.41-1.5s0,0,0-.01l.79-.46.67.39-.8.47-.67-.39h0Zm.35,7.65s0,0,0-.01l2.03-1.17.67.39-2.03,1.19-.67-.39h0Zm.14-1.35s0,0,0-.01l.79-.46.67.39-.8.47-.67-.39h0Zm.14-1.35s0,0,0-.01l.79-.46.67.39-.79.47-.67-.39h0Zm.05-2.82s0,0,0-.01l.79-.46.67.39-.8.47-.67-.39h0Zm.09,1.48s0,0,0,0l.79-.46.67.39-.8.47-.67-.39h0Zm.32-2.98s0,0,0-.01l.79-.46.67.39-.8.47-.67-.39h0Zm.63,4.95s0,0,0-.01l.79-.46.67.39-.79.47-.67-.39h0Zm.14-1.35s0,0,0,0l.79-.46.67.39-.8.47-.67-.39h0Zm.14-1.35s0,0,0-.01l.79-.46.67.39-.8.47-.67-.39h0Zm.18-1.63s0,0,0-.01l.79-.46.67.39-.8.47-.67-.39h0Zm.63,4.95s0,0,0-.01l2.03-1.17.67.39-2.03,1.19-.67-.39h0Zm.14-1.35s0,0,0,0l.79-.46.67.39-.8.47-.67-.39h0Zm.14-1.35s0,0,0,0l.79-.46.67.39-.8.47-.67-.39h0Zm.72-1.68s0,0,0-.01l.34-.2.67.39-.34.21-.67-.38h0Zm.37,2.31s0,0,0-.01l.79-.46.67.39-.8.47-.67-.39h0Zm.72-1.68s0,0,0-.01l.34-.2.67.39-.34.21-.67-.38h0Zm.37,2.31s0,0,0-.01l.79-.46.67.39-.8.47-.67-.39h0Zm.72-1.68s0,0,0-.01l.34-.2.67.39-.34.21-.67-.38h0Zm1.09.63s0,0,0-.01l.34-.2.67.39-.34.21-.67-.38h0Z"/>
      </g>
    </g>
    <g id="PC">
      <polygon id="Shadow-5" data-name="Shadow" class="cls-41" points="146.14 81.47 154.74 76.5 111.75 51.68 103.15 56.65 146.14 81.47"/>
      <g id="Monitor">
        <g>
          <path class="cls-26" d="m121.8,73.39l-6.14-3.55c-.63-.37-.95-.84-.95-1.32,0-.48,0-.85,0-.85l5.78-3.28c.34-.19.61-.67.61-1.06v-7.57l10.72,6.19v7.57c0,.39-.27.86-.61,1.06l-4.82,2.81c-1.27.73-3.32.73-4.58,0Z"/>
          <path class="cls-36" d="m129.24,70.86v.85l1.96-1.13c.34-.19.61-.67.61-1.06v-7.57l-2.04-1.18c-.04.52-.09,1.05-.13,1.58l1.43.83v5.91c0,.39-.27.86-.61,1.06l-1.22.71Z"/>
          <path class="cls-27" d="m131.08,69.09c0,.39-.27.86-.61,1.06l-4.08,2.38c-1.27.73-3.32.73-4.58,0l-6.14-3.55c-1.27-.73-1.27-1.91,0-2.65l4.09-2.38c.34-.19.61-.67.61-1.06v-5.91s10.72,6.19,10.72,6.19v5.91Z"/>
          <path class="cls-20" d="m118.5,64.68h0s1.24-.72,1.24-.72c.34-.19.61-.67.61-1.06v-5.91l10.72,6.19v5.91c0,.39-.27.86-.61,1.06l-1.22.71-10.74-6.18Z"/>
          <path class="cls-20" d="m114.71,67.66v.85c0,.48.32.96.95,1.32l6.14,3.55c.61.35,1.39.53,2.19.54v-.85c-.79-.01-1.58-.19-2.19-.54l-6.14-3.55c-.63-.36-.95-.84-.95-1.32Z"/>
        </g>
        <path class="cls-39" d="m148.29,77.26c-.4.23-1.06.22-1.48-.03-5.27-3.04-36.19-20.89-41.46-23.94-.42-.24-.76-.84-.76-1.32V15.68c0-.49.32-1.07.72-1.3s1.06-.22,1.48.03l41.46,23.94c.42.24.76.84.76,1.32v36.29c0,.49-.32,1.07-.72,1.3Z"/>
        <path class="cls-18" d="m146.81,77.23l-41.46-23.94c-.42-.24-.76-.84-.76-1.32V15.68c0-.49.34-.68.76-.44l41.46,23.94c.42.24.76.84.76,1.32v36.29c0,.49-.34.68-.76.44Z"/>
        <path class="cls-38" d="m146.81,77.23l-41.46-23.94c-.42-.24-.76-.84-.76-1.32V15.68c0-.49.34-.68.76-.44l41.46,23.94c.42.24.76.84.76,1.32v36.29c0,.49-.34.68-.76.44Z"/>
        <path class="cls-36" d="m146.92,77.38c.42.19,1.01.18,1.37-.03.4-.23.72-.81.72-1.3v-4.08l-1.43.83v4.08c0,.44-.28.65-.65.5Z"/>
        <path class="cls-28" d="m147.57,72.8v4.08c0,.49-.34.68-.76.44l-41.46-23.94c-.42-.24-.76-.84-.76-1.32v-4.08l42.99,24.82Z"/>
        <path class="cls-18" d="m146.14,69.7v-28.72c0-.29-.21-.65-.46-.79l-39.2-22.63c-.25-.15-.46-.03-.46.26v28.72c0,.29.2.65.46.79l39.21,22.63c.25.15.46.03.46-.26Z"/>
        <path class="cls-14" d="m146.14,69.7v-28.72c0-.29-.21-.65-.46-.79l-39.2-22.63c-.25-.15-.46-.03-.46.26v28.72c0,.29.2.65.46.79l39.21,22.63c.25.15.46.03.46-.26Z"/>
        <path class="cls-39" d="m143.82,40.74l-34.91-20.15c-.25-.15-.46-.03-.46.26v25.42c0,.29.21.65.46.79l34.91,20.15c.25.15.46.03.46-.27v-25.41c0-.29-.21-.65-.46-.79Z"/>
        <g>
          <path class="cls-40" d="m112.53,26.82v15.98c0,.1-.07.14-.15.09l-2.56-1.48c-.08-.05-.15-.17-.15-.26v-15.98c0-.1.07-.14.15-.09l2.56,1.48c.08.05.15.17.15.26Z"/>
          <g>
            <path class="cls-38" d="m112.17,27.19l-.85-.49c-.06-.04-.11,0-.11.07v.98c0,.07.05.16.11.2l.85.49c.06.04.11,0,.11-.07v-.98c0-.07-.05-.16-.11-.2Z"/>
            <path class="cls-38" d="m110.86,26.44l-.85-.49c-.06-.04-.11,0-.11.07v.98c0,.07.05.16.11.2l.85.49c.06.04.11,0,.11-.07v-.98c0-.07-.05-.16-.11-.2Z"/>
            <path class="cls-38" d="m112.17,28.67l-.85-.49c-.06-.04-.11,0-.11.07v.98c0,.07.05.16.11.2l.85.49c.06.04.11,0,.11-.07v-.98c0-.07-.05-.16-.11-.2Z"/>
            <path class="cls-38" d="m110.86,27.92l-.85-.49c-.06-.04-.11,0-.11.07v.98c0,.07.05.16.11.2l.85.49c.06.04.11,0,.11-.07v-.98c0-.07-.05-.16-.11-.2Z"/>
            <path class="cls-38" d="m112.17,30.16l-.85-.49c-.06-.04-.11,0-.11.07v.98c0,.07.05.16.11.2l.85.49c.06.04.11,0,.11-.07v-.98c0-.07-.05-.16-.11-.2Z"/>
            <path class="cls-38" d="m110.86,29.4l-.85-.49c-.06-.04-.11,0-.11.07v.98c0,.07.05.16.11.2l.85.49c.06.04.11,0,.11-.07v-.98c0-.07-.05-.16-.11-.2Z"/>
            <path class="cls-38" d="m112.17,31.64l-.85-.49c-.06-.04-.11,0-.11.07v.98c0,.07.05.16.11.2l.85.49c.06.04.11,0,.11-.07v-.98c0-.07-.05-.16-.11-.2Z"/>
            <path class="cls-38" d="m110.86,30.88l-.85-.49c-.06-.04-.11,0-.11.07v.98c0,.07.05.16.11.2l.85.49c.06.04.11,0,.11-.07v-.98c0-.07-.05-.16-.11-.2Z"/>
            <path class="cls-38" d="m112.17,33.12l-.85-.49c-.06-.04-.11,0-.11.07v.98c0,.07.05.16.11.2l.85.49c.06.04.11,0,.11-.07v-.98c0-.07-.05-.16-.11-.2Z"/>
            <path class="cls-38" d="m110.86,32.36l-.85-.49c-.06-.04-.11,0-.11.07v.98c0,.07.05.16.11.2l.85.49c.06.04.11,0,.11-.07v-.98c0-.07-.05-.16-.11-.2Z"/>
            <path class="cls-38" d="m112.17,34.6l-.85-.49c-.06-.04-.11,0-.11.07v.98c0,.07.05.16.11.2l.85.49c.06.04.11,0,.11-.07v-.98c0-.07-.05-.16-.11-.2Z"/>
            <path class="cls-38" d="m110.86,33.84l-.85-.49c-.06-.04-.11,0-.11.07v.98c0,.07.05.16.11.2l.85.49c.06.04.11,0,.11-.07v-.98c0-.07-.05-.16-.11-.2Z"/>
            <path class="cls-38" d="m112.17,36.08l-.85-.49c-.06-.04-.11,0-.11.07v.98c0,.07.05.16.11.2l.85.49c.06.04.11,0,.11-.07v-.98c0-.07-.05-.16-.11-.2Z"/>
            <path class="cls-38" d="m110.86,35.32l-.85-.49c-.06-.04-.11,0-.11.07v.98c0,.07.05.16.11.2l.85.49c.06.04.11,0,.11-.07v-.98c0-.07-.05-.16-.11-.2Z"/>
            <path class="cls-38" d="m112.17,37.56l-.85-.49c-.06-.04-.11,0-.11.07v.98c0,.07.05.16.11.2l.85.49c.06.04.11,0,.11-.07v-.98c0-.07-.05-.16-.11-.2Z"/>
            <path class="cls-38" d="m110.86,36.81l-.85-.49c-.06-.04-.11,0-.11.07v.98c0,.07.05.16.11.2l.85.49c.06.04.11,0,.11-.07v-.98c0-.07-.05-.16-.11-.2Z"/>
          </g>
          <path class="cls-36" d="m112.12,39.42l-1.26-.73c-.09-.05-.17-.01-.17.1v1.46c0,.11.08.24.17.3l1.26.73c.09.05.17.01.17-.1v-1.46c0-.11-.08-.24-.17-.3Z"/>
          <path class="cls-39" d="m110.15,39.66l1.03.6s.04.05.04.07v1.19s-1.04-.6-1.04-.6c-.01-.01-.04-.05-.04-.07v-1.19m-.17-.38c-.06,0-.09.04-.09.12v1.46c0,.11.08.24.17.3l1.26.73s.05.02.08.02c.06,0,.09-.04.09-.12v-1.46c0-.11-.08-.24-.17-.3l-1.26-.73s-.05-.02-.08-.02h0Z"/>
        </g>
        <path class="cls-38" d="m139.05,43.38l-22.71-13.11c-.48-.28-.87-.05-.87.5v16.83c0,.55.39,1.23.87,1.5l22.71,13.1c.48.28.87.05.87-.5v-16.82c0-.55-.39-1.23-.87-1.5Z"/>
        <g>
          <g>
            <path class="cls-18" d="m117.59,33.67s-.07-.03-.07-.07v-.26s.01-.05.03-.06c.02-.01.05-.01.07,0l.23.13s.04.06.02.09c-.02.03-.06.04-.09.02l-.13-.07v.15s-.03.07-.07.07Z"/>
            <path class="cls-18" d="m125.38,37.9s-.02,0-.03,0l-.47-.27s-.04-.06-.02-.09c.02-.03.06-.04.09-.02l.47.27s.04.06.02.09c-.01.02-.03.03-.06.03Zm-.94-.55s-.02,0-.03,0l-.47-.27s-.04-.06-.02-.09c.02-.03.06-.04.09-.02l.47.27s.04.06.02.09c-.01.02-.03.03-.06.03Zm-.94-.55s-.02,0-.03,0l-.47-.27s-.04-.06-.02-.09c.02-.03.06-.04.09-.02l.47.27s.04.06.02.09c-.01.02-.03.03-.06.03Zm-.94-.55s-.02,0-.03,0l-.47-.27s-.04-.06-.02-.09c.02-.03.06-.04.09-.02l.47.27s.04.06.02.09c-.01.02-.03.03-.06.03Zm-.94-.55s-.02,0-.03,0l-.47-.27s-.04-.06-.02-.09c.02-.03.06-.04.09-.02l.47.27s.04.06.02.09c-.01.02-.03.03-.06.03Zm-.94-.55s-.02,0-.03,0l-.47-.27s-.04-.06-.02-.09c.02-.03.06-.04.09-.02l.47.27s.04.06.02.09c-.01.02-.03.03-.06.03Zm-.94-.55s-.02,0-.03,0l-.47-.27s-.04-.06-.02-.09c.02-.03.06-.04.09-.02l.47.27s.04.06.02.09c-.01.02-.03.03-.06.03Zm-.94-.55s-.02,0-.03,0l-.47-.27s-.04-.06-.02-.09c.02-.03.06-.04.09-.02l.47.27s.04.06.02.09c-.01.02-.03.03-.06.03Z"/>
            <path class="cls-18" d="m126.08,38.57s-.07-.03-.07-.07v-.23l-.2-.11s-.04-.06-.02-.09c.02-.03.06-.04.09-.02l.23.13s.03.03.03.06v.26s-.03.07-.07.07Z"/>
            <path class="cls-18" d="m126.08,51.27s-.07-.03-.07-.07v-.53s.03-.07.07-.07.07.03.07.07v.53s-.03.07-.07.07Zm0-1.06s-.07-.03-.07-.07v-.53s.03-.07.07-.07.07.03.07.07v.53s-.03.07-.07.07Zm0-1.06s-.07-.03-.07-.07v-.53s.03-.07.07-.07.07.03.07.07v.53s-.03.07-.07.07Zm0-1.06s-.07-.03-.07-.07v-.53s.03-.07.07-.07.07.03.07.07v.53s-.03.07-.07.07Zm0-1.06s-.07-.03-.07-.07v-.53s.03-.07.07-.07.07.03.07.07v.53s-.03.07-.07.07Zm0-1.06s-.07-.03-.07-.07v-.53s.03-.07.07-.07.07.03.07.07v.53s-.03.07-.07.07Zm0-1.06s-.07-.03-.07-.07v-.53s.03-.07.07-.07.07.03.07.07v.53s-.03.07-.07.07Zm0-1.06s-.07-.03-.07-.07v-.53s.03-.07.07-.07.07.03.07.07v.53s-.03.07-.07.07Zm0-1.06s-.07-.03-.07-.07v-.53s.03-.07.07-.07.07.03.07.07v.53s-.03.07-.07.07Zm0-1.06s-.07-.03-.07-.07v-.53s.03-.07.07-.07.07.03.07.07v.53s-.03.07-.07.07Zm0-1.06s-.07-.03-.07-.07v-.53s.03-.07.07-.07.07.03.07.07v.53s-.03.07-.07.07Zm0-1.06s-.07-.03-.07-.07v-.53s.03-.07.07-.07.07.03.07.07v.53s-.03.07-.07.07Z"/>
            <path class="cls-18" d="m126.08,52.07s-.02,0-.03,0l-.23-.13s-.04-.06-.02-.09c.02-.03.06-.04.09-.02l.13.07v-.15s.03-.07.07-.07.07.03.07.07v.26s-.01.05-.03.06c-.01,0-.02,0-.03,0Z"/>
            <path class="cls-18" d="m125.38,51.66s-.02,0-.03,0l-.47-.27s-.04-.06-.02-.09c.02-.03.06-.04.09-.02l.47.27s.04.06.02.09c-.01.02-.03.03-.06.03Zm-.94-.55s-.02,0-.03,0l-.47-.27s-.04-.06-.02-.09c.02-.03.06-.04.09-.02l.47.27s.04.06.02.09c-.01.02-.03.03-.06.03Zm-.94-.55s-.02,0-.03,0l-.47-.27s-.04-.06-.02-.09c.02-.03.06-.04.09-.02l.47.27s.04.06.02.09c-.01.02-.03.03-.06.03Zm-.94-.55s-.02,0-.03,0l-.47-.27s-.04-.06-.02-.09c.02-.03.06-.04.09-.02l.47.27s.04.06.02.09c-.01.02-.03.03-.06.03Zm-.94-.55s-.02,0-.03,0l-.47-.27s-.04-.06-.02-.09c.02-.03.06-.04.09-.02l.47.27s.04.06.02.09c-.01.02-.03.03-.06.03Zm-.94-.55s-.02,0-.03,0l-.47-.27s-.04-.06-.02-.09c.02-.03.06-.04.09-.02l.47.27s.04.06.02.09c-.01.02-.03.03-.06.03Zm-.94-.55s-.02,0-.03,0l-.47-.27s-.04-.06-.02-.09c.02-.03.06-.04.09-.02l.47.27s.04.06.02.09c-.01.02-.03.03-.06.03Zm-.94-.55s-.02,0-.03,0l-.47-.27s-.04-.06-.02-.09c.02-.03.06-.04.09-.02l.47.27s.04.06.02.09c-.01.02-.03.03-.06.03Z"/>
            <path class="cls-18" d="m117.82,47.3s-.02,0-.03,0l-.23-.13s-.03-.03-.03-.06v-.26s.03-.07.07-.07.07.03.07.07v.23l.2.11s.04.06.02.09c-.01.02-.03.03-.06.03Z"/>
            <path class="cls-18" d="m117.59,46.38s-.07-.03-.07-.07v-.53s.03-.07.07-.07.07.03.07.07v.53s-.03.07-.07.07Zm0-1.06s-.07-.03-.07-.07v-.53s.03-.07.07-.07.07.03.07.07v.53s-.03.07-.07.07Zm0-1.06s-.07-.03-.07-.07v-.53s.03-.07.07-.07.07.03.07.07v.53s-.03.07-.07.07Zm0-1.06s-.07-.03-.07-.07v-.53s.03-.07.07-.07.07.03.07.07v.53s-.03.07-.07.07Zm0-1.06s-.07-.03-.07-.07v-.53s.03-.07.07-.07.07.03.07.07v.53s-.03.07-.07.07Zm0-1.06s-.07-.03-.07-.07v-.53s.03-.07.07-.07.07.03.07.07v.53s-.03.07-.07.07Zm0-1.06s-.07-.03-.07-.07v-.53s.03-.07.07-.07.07.03.07.07v.53s-.03.07-.07.07Zm0-1.06s-.07-.03-.07-.07v-.53s.03-.07.07-.07.07.03.07.07v.53s-.03.07-.07.07Zm0-1.06s-.07-.03-.07-.07v-.53s.03-.07.07-.07.07.03.07.07v.53s-.03.07-.07.07Zm0-1.06s-.07-.03-.07-.07v-.53s.03-.07.07-.07.07.03.07.07v.53s-.03.07-.07.07Zm0-1.06s-.07-.03-.07-.07v-.53s.03-.07.07-.07.07.03.07.07v.53s-.03.07-.07.07Zm0-1.06s-.07-.03-.07-.07v-.53s.03-.07.07-.07.07.03.07.07v.53s-.03.07-.07.07Z"/>
          </g>
          <g>
            <path class="cls-18" d="m117.7,33.65s-.05-.01-.06-.04l-.11-.24s0-.07.03-.09c.03-.02.07,0,.09.03l.11.24s0,.07-.03.09c0,0-.02,0-.03,0Z"/>
            <path class="cls-18" d="m125.75,51.34s-.05-.01-.06-.04l-.22-.49s0-.07.03-.09c.03-.02.07,0,.09.03l.22.49s0,.07-.03.09c0,0-.02,0-.03,0Zm-.45-.98s-.05-.01-.06-.04l-.22-.49s0-.07.03-.09c.03-.02.07,0,.09.03l.22.49s0,.07-.03.09c0,0-.02,0-.03,0Zm-.45-.98s-.05-.01-.06-.04l-.22-.49s0-.07.03-.09c.03-.02.07,0,.09.03l.22.49s0,.07-.03.09c0,0-.02,0-.03,0Zm-.45-.98s-.05-.01-.06-.04l-.22-.49s0-.07.03-.09c.03-.02.07,0,.09.03l.22.49s0,.07-.03.09c0,0-.02,0-.03,0Zm-.45-.98s-.05-.01-.06-.04l-.22-.49s0-.07.03-.09c.03-.02.07,0,.09.03l.22.49s0,.07-.03.09c0,0-.02,0-.03,0Zm-.45-.98s-.05-.01-.06-.04l-.22-.49s0-.07.03-.09c.03-.02.07,0,.09.03l.22.49s0,.07-.03.09c0,0-.02,0-.03,0Zm-.45-.98s-.05-.01-.06-.04l-.22-.49s0-.07.03-.09c.03-.02.07,0,.09.03l.22.49s0,.07-.03.09c0,0-.02,0-.03,0Zm-.45-.98s-.05-.01-.06-.04l-.22-.49s0-.07.03-.09c.03-.02.07,0,.09.03l.22.49s0,.07-.03.09c0,0-.02,0-.03,0Zm-.45-.98s-.05-.01-.06-.04l-.22-.49s0-.07.03-.09c.03-.02.07,0,.09.03l.22.49s0,.07-.03.09c0,0-.02,0-.03,0Zm-.45-.98s-.05-.01-.06-.04l-.22-.49s0-.07.03-.09c.03-.02.07,0,.09.03l.22.49s0,.07-.03.09c0,0-.02,0-.03,0Zm-.45-.98s-.05-.01-.06-.04l-.22-.49s0-.07.03-.09c.03-.02.07,0,.09.03l.22.49s0,.07-.03.09c0,0-.02,0-.03,0Zm-.45-.98s-.05-.01-.06-.04l-.22-.49s0-.07.03-.09c.03-.02.07,0,.09.03l.22.49s0,.07-.03.09c0,0-.02,0-.03,0Zm-.45-.98s-.05-.01-.06-.04l-.22-.49s0-.07.03-.09c.03-.02.07,0,.09.03l.22.49s0,.07-.03.09c0,0-.02,0-.03,0Zm-.45-.98s-.05-.01-.06-.04l-.22-.49s0-.07.03-.09c.03-.02.07,0,.09.03l.22.49s0,.07-.03.09c0,0-.02,0-.03,0Zm-.45-.98s-.05-.01-.06-.04l-.22-.49s0-.07.03-.09c.03-.02.07,0,.09.03l.22.49s0,.07-.03.09c0,0-.02,0-.03,0Zm-.45-.98s-.05-.01-.06-.04l-.22-.49s0-.07.03-.09c.03-.02.07,0,.09.03l.22.49s0,.07-.03.09c0,0-.02,0-.03,0Zm-.45-.98s-.05-.01-.06-.04l-.22-.49s0-.07.03-.09c.03-.02.07,0,.09.03l.22.49s0,.07-.03.09c0,0-.02,0-.03,0Zm-.45-.98s-.05-.01-.06-.04l-.22-.49s0-.07.03-.09c.03-.02.07,0,.09.03l.22.49s0,.07-.03.09c0,0-.02,0-.03,0Z"/>
            <path class="cls-18" d="m126.08,52.07s-.05-.01-.06-.04l-.11-.24s0-.07.03-.09c.03-.02.07,0,.09.03l.11.24s0,.07-.03.09c0,0-.02,0-.03,0Z"/>
          </g>
          <g>
            <path class="cls-18" d="m125.9,38.49s-.03,0-.05-.02c-.03-.03-.03-.07,0-.09l.18-.19s.07-.03.09,0c.03.03.03.07,0,.09l-.18.19s-.03.02-.05.02Z"/>
            <path class="cls-18" d="m118.13,46.61s-.03,0-.05-.02c-.03-.03-.03-.07,0-.09l.35-.37s.07-.03.09,0c.03.03.03.07,0,.09l-.35.37s-.03.02-.05.02Zm.71-.74s-.03,0-.05-.02c-.03-.03-.03-.07,0-.09l.35-.37s.07-.03.09,0c.03.03.03.07,0,.09l-.35.37s-.03.02-.05.02Zm.71-.74s-.03,0-.05-.02c-.03-.03-.03-.07,0-.09l.35-.37s.07-.03.09,0c.03.03.03.07,0,.09l-.35.37s-.03.02-.05.02Zm.71-.74s-.03,0-.05-.02c-.03-.03-.03-.07,0-.09l.35-.37s.07-.03.09,0c.03.03.03.07,0,.09l-.35.37s-.03.02-.05.02Zm.71-.74s-.03,0-.05-.02c-.03-.03-.03-.07,0-.09l.35-.37s.07-.03.09,0c.03.03.03.07,0,.09l-.35.37s-.03.02-.05.02Zm.71-.74s-.03,0-.05-.02c-.03-.03-.03-.07,0-.09l.35-.37s.07-.03.09,0c.03.03.03.07,0,.09l-.35.37s-.03.02-.05.02Zm.71-.74s-.03,0-.05-.02c-.03-.03-.03-.07,0-.09l.35-.37s.07-.03.09,0c.03.03.03.07,0,.09l-.35.37s-.03.02-.05.02Zm.71-.74s-.03,0-.05-.02c-.03-.03-.03-.07,0-.09l.35-.37s.07-.03.09,0c.03.03.03.07,0,.09l-.35.37s-.03.02-.05.02Zm.71-.74s-.03,0-.05-.02c-.03-.03-.03-.07,0-.09l.35-.37s.07-.03.09,0c.03.03.03.07,0,.09l-.35.37s-.03.02-.05.02Zm.71-.74s-.03,0-.05-.02c-.03-.03-.03-.07,0-.09l.35-.37s.07-.03.09,0c.03.03.03.07,0,.09l-.35.37s-.03.02-.05.02Zm.71-.74s-.03,0-.05-.02c-.03-.03-.03-.07,0-.09l.35-.37s.07-.03.09,0c.03.03.03.07,0,.09l-.35.37s-.03.02-.05.02Z"/>
            <path class="cls-18" d="m117.59,47.17s-.03,0-.05-.02c-.03-.03-.03-.07,0-.09l.18-.19s.07-.03.09,0c.03.03.03.07,0,.09l-.18.19s-.03.02-.05.02Z"/>
          </g>
          <g>
            <path class="cls-18" d="m121.84,49.62s-.07-.03-.07-.07v-.26s.03-.07.07-.07.07.03.07.07v.26s-.03.07-.07.07Z"/>
            <path class="cls-18" d="m121.84,48.87s-.07-.03-.07-.07v-.49s.03-.07.07-.07.07.03.07.07v.49s-.03.07-.07.07Zm0-.98s-.07-.03-.07-.07v-.49s.03-.07.07-.07.07.03.07.07v.49s-.03.07-.07.07Zm0-.98s-.07-.03-.07-.07v-.49s.03-.07.07-.07.07.03.07.07v.49s-.03.07-.07.07Zm0-.98s-.07-.03-.07-.07v-.49s.03-.07.07-.07.07.03.07.07v.49s-.03.07-.07.07Zm0-.98s-.07-.03-.07-.07v-.49s.03-.07.07-.07.07.03.07.07v.49s-.03.07-.07.07Zm0-.98s-.07-.03-.07-.07v-.49s.03-.07.07-.07.07.03.07.07v.49s-.03.07-.07.07Z"/>
            <path class="cls-18" d="m121.84,43s-.07-.03-.07-.07v-.26s.01-.05.03-.06c.02-.01.05-.01.07,0l.23.13s.04.06.02.09c-.02.03-.06.04-.09.02l-.13-.07v.15s-.03.07-.07.07Z"/>
            <path class="cls-18" d="m125.42,44.81s-.02,0-.03,0l-.42-.24s-.04-.06-.02-.09c.02-.03.06-.04.09-.02l.42.24s.04.06.02.09c-.01.02-.03.03-.06.03Zm-.84-.49s-.02,0-.03,0l-.42-.24s-.04-.06-.02-.09c.02-.03.06-.04.09-.02l.42.24s.04.06.02.09c-.01.02-.03.03-.06.03Zm-.84-.48s-.02,0-.03,0l-.42-.24s-.04-.06-.02-.09c.02-.03.06-.04.09-.02l.42.24s.04.06.02.09c-.01.02-.03.03-.06.03Zm-.84-.48s-.02,0-.03,0l-.42-.24s-.04-.06-.02-.09c.02-.03.06-.04.09-.02l.42.24s.04.06.02.09c-.01.02-.03.03-.06.03Z"/>
            <path class="cls-18" d="m126.07,45.18s-.02,0-.03,0l-.23-.13s-.04-.06-.02-.09c.02-.03.06-.04.09-.02l.23.13s.04.06.02.09c-.01.02-.03.03-.06.03Z"/>
          </g>
          <g>
            <path class="cls-18" d="m121.84,36.08s-.07-.03-.07-.07v-.26s.03-.07.07-.07.07.03.07.07v.26s-.03.07-.07.07Z"/>
            <path class="cls-18" d="m121.84,41.94s-.07-.03-.07-.07v-.49s.03-.07.07-.07.07.03.07.07v.49s-.03.07-.07.07Zm0-.98s-.07-.03-.07-.07v-.49s.03-.07.07-.07.07.03.07.07v.49s-.03.07-.07.07Zm0-.98s-.07-.03-.07-.07v-.49s.03-.07.07-.07.07.03.07.07v.49s-.03.07-.07.07Zm0-.98s-.07-.03-.07-.07v-.49s.03-.07.07-.07.07.03.07.07v.49s-.03.07-.07.07Zm0-.98s-.07-.03-.07-.07v-.49s.03-.07.07-.07.07.03.07.07v.49s-.03.07-.07.07Zm0-.98s-.07-.03-.07-.07v-.49s.03-.07.07-.07.07.03.07.07v.49s-.03.07-.07.07Z"/>
            <path class="cls-18" d="m121.84,42.7s-.02,0-.03,0l-.23-.13s-.04-.06-.02-.09c.02-.03.06-.04.09-.02l.13.08v-.15s.03-.07.07-.07.07.03.07.07v.26s-.01.05-.03.06c-.01,0-.02,0-.03,0Z"/>
            <path class="cls-18" d="m121.19,42.32s-.02,0-.03,0l-.42-.24s-.04-.06-.02-.09c.02-.03.06-.04.09-.02l.42.24s.04.06.02.09c-.01.02-.03.03-.06.03Zm-.84-.49s-.02,0-.03,0l-.42-.24s-.04-.06-.02-.09c.02-.03.06-.04.09-.02l.42.24s.04.06.02.09c-.01.02-.03.03-.06.03Zm-.84-.48s-.02,0-.03,0l-.42-.24s-.04-.06-.02-.09c.02-.03.06-.04.09-.02l.42.24s.04.06.02.09c-.01.02-.03.03-.06.03Zm-.84-.49s-.02,0-.03,0l-.42-.24s-.04-.06-.02-.09c.02-.03.06-.04.09-.02l.42.24s.04.06.02.09c-.01.02-.03.03-.06.03Z"/>
            <path class="cls-18" d="m117.83,40.38s-.02,0-.03,0l-.23-.13s-.04-.06-.02-.09c.02-.03.06-.04.09-.02l.23.13s.04.06.02.09c-.01.02-.03.03-.06.03Z"/>
          </g>
          <path class="cls-5" d="m126.07,45.12c0,3.8-1.9,5.78-4.25,4.43-2.35-1.36-4.25-5.53-4.25-9.34s1.9-5.78,4.25-4.43c2.35,1.36,4.25,5.53,4.25,9.34Z"/>
        </g>
        <polygon class="cls-18" points="128.26 53 135.42 57.13 128.26 41.31 128.26 53"/>
        <path class="cls-38" d="m108.46,20.84c0-.29.21-.41.46-.26l34.91,20.15c.25.15.46.5.46.79v1.95l-35.82-20.68v-1.96Z"/>
        <path class="cls-39" d="m126.08,61.95c.4.23.72.78.72,1.24s-.32.64-.72.41c-.4-.23-.72-.78-.72-1.24,0-.46.32-.64.72-.41Z"/>
        <path class="cls-40" d="m147.35,39.74c.14.24.22.51.23.75v32.3l1.43-.83v-32.3c0-.24-.09-.52-.23-.75l-1.43.83Z"/>
      </g>
    </g>
    <g id="Tablet">
      <path id="Shadow-6" data-name="Shadow" class="cls-41" d="m129.49,93.35l-22.12-12.77c-.21-.12-.54-.12-.75,0l-13.32,7.69c-.21.12-.21.31,0,.43l22.12,12.77c.21.12.54.12.75,0l13.32-7.69c.21-.12.21-.31,0-.43Z"/>
      <g id="Tablet-2" data-name="Tablet">
        <path class="cls-18" d="m129.13,91.98l-21.51-12.42c-.2-.12-.53-.12-.73,0l-12.96,7.48c-.2.12-.36.4-.36.63v.15c0,.23.16.52.36.63l21.51,12.42c.2.12.53.12.73,0l12.96-7.48c.2-.12.36-.4.36-.63v-.15c0-.23-.16-.52-.36-.63Z"/>
        <path class="cls-18" d="m129.13,91.98l-21.51-12.42c-.2-.12-.53-.12-.73,0l-12.96,7.48c-.2.12-.2.3,0,.42l21.51,12.42c.2.12.53.12.73,0l12.96-7.48c.2-.12.2-.3,0-.42Z"/>
        <g class="cls-8">
          <path d="m129.13,91.98l-21.51-12.42c-.2-.12-.53-.12-.73,0l-12.96,7.48c-.2.12-.2.3,0,.42l21.51,12.42c.2.12.53.12.73,0l12.96-7.48c.2-.12.2-.3,0-.42Z"/>
        </g>
        <path class="cls-38" d="m111.11,83.56c-.2-.12-.53-.12-.73,0-1.6.91-7.94,4.58-9.53,5.51-.2.12-.2.31,0,.42,2.1,1.21,12.58,7.26,14.67,8.47.2.12.53.12.73,0l9.53-5.5c.2-.12.2-.3,0-.42l-14.67-8.47Z"/>
        <g>
          <path class="cls-38" d="m104.36,84.2c.64.37.64.97,0,1.34-.64.37-1.68.37-2.32,0-.64-.37-.64-.97,0-1.34.64-.37,1.68-.37,2.32,0Z"/>
          <g>
            <path class="cls-38" d="m100.75,85.59l1.04.61c.3.17.36.43.12.56-.24.14-.67.11-.98-.07l-1.04-.61c-.3-.17-.36-.43-.12-.56.24-.14.67-.11.98.07Z"/>
            <path class="cls-38" d="m99.54,86.3l1.04.61c.3.17.36.43.12.56-.24.14-.67.11-.98-.07l-1.04-.61c-.3-.17-.36-.43-.12-.56.24-.14.67-.11.98.07Z"/>
            <path class="cls-38" d="m98.32,87l1.04.61c.3.17.36.43.12.56-.24.14-.67.11-.98-.07l-1.04-.61c-.3-.17-.36-.43-.12-.56.24-.14.67-.11.98.07Z"/>
          </g>
          <g>
            <path class="cls-38" d="m107.74,81.58l1.04.61c.3.17.36.43.12.56-.24.14-.67.11-.97-.07l-1.04-.61c-.3-.17-.36-.43-.12-.56.24-.14.67-.11.97.07Z"/>
            <path class="cls-38" d="m106.52,82.28l1.04.61c.3.17.36.43.12.56s-.67.11-.98-.07l-1.04-.61c-.3-.17-.36-.43-.12-.56.24-.14.67-.11.98.07Z"/>
            <path class="cls-38" d="m105.31,82.99l1.04.61c.3.17.36.43.12.56-.24.14-.67.11-.98-.07l-1.04-.61c-.3-.17-.36-.43-.12-.56.24-.14.67-.11.98.07Z"/>
          </g>
        </g>
        <g class="cls-1">
          <path d="m115.81,99.97v.99c.13,0,.27-.03.37-.08l12.95-7.48c.2-.11.37-.4.37-.63v-.14c0-.21-.13-.45-.3-.59.13.11.11.27-.07.37l-12.95,7.48c-.1.06-.23.09-.37.09Z"/>
        </g>
        <g class="cls-3">
          <path d="m93.56,87.67v.15c0,.23.16.51.37.63l21.51,12.42c.1.06.23.08.37.08v-.99c-.13,0-.27-.03-.37-.09l-21.51-12.42c-.18-.1-.2-.26-.07-.37-.17.13-.3.38-.3.59Z"/>
        </g>
      </g>
    </g>
    <g id="Pencil">
      <path id="Shadow-7" data-name="Shadow" class="cls-41" d="m107.36,64.64c-.16.28-.47.44-.91.53-.11.02-.23,0-.32-.06l-8.76-5.13-.79-.93c-.06-.07,0-.18.1-.15l1.75.46,8.88,5.13s.07.09.04.14Z"/>
      <g>
        <g>
          <path class="cls-33" d="m98.82,58.69l-1.82-.36c-.05-.01-.09.05-.05.09l1.23,1.4.64-1.13Z"/>
          <path class="cls-40" d="m96.95,58.43s0-.1.05-.09l.36.07h0c-.1.06-.16.17-.15.29v.03s-.26-.3-.26-.3Z"/>
          <path class="cls-18" d="m104.97,63.72l-.15-.09-.18-.1-6.45-3.7c-.07-.2-.03-.41.05-.6.13-.29.38-.52.59-.53l6.45,3.7.34.2c-.23-.12-.88,1.01-.65,1.13Z"/>
          <path class="cls-20" d="m104.4,63.39l-.33-.19c-.1-.05-.04-.29.07-.54.15-.33.45-.65.58-.58l.24.14.09.05c-.13-.07-.43.25-.58.58-.11.24-.17.47-.08.53h0s0,0,0,0Z"/>
          <path class="cls-18" d="m104.32,63.35c-.23-.12.42-1.24.65-1.12l.33.19c-.23-.12-.88,1-.65,1.12l-.33-.19Z"/>
          <path class="cls-20" d="m104.97,63.72l-.33-.19c-.22-.12.4-1.21.63-1.14,0,0,0,0,.01,0l.33.19c-.23-.12-.88,1.01-.65,1.13Z"/>
          <path class="cls-41" d="m96.94,58.37l.06-.03,1.32.72,6.82,3.92s.02-.02.03,0c-.19.3-.34.68-.21.75l-.15-.09-.18-.1-6.45-3.7h0s-1.23-1.4-1.23-1.4c-.02-.02-.02-.04,0-.06Z"/>
          <path class="cls-21" d="m106.36,64.51l-1.39-.8c-.1-.05-.04-.29.07-.54.15-.33.45-.66.58-.59t0,0l1.4.8c.28.16.02.76-.29,1.03-.12.1-.24.15-.37.09Z"/>
        </g>
        <path class="cls-17" d="m106.28,64.08c.08-.31.33-.62.57-.69.09-.02.16-.01.21.03.21.19-.03.75-.33,1-.11.1-.24.14-.36.09-.1-.06-.14-.22-.09-.44Z"/>
      </g>
    </g>
    <g id="Mouse">
      <path class="cls-41" d="m125.55,85.13l2.68,1.55c.84.49,2.17.42,2.95-.16l4.41-3.22c.79-.57.74-1.43-.1-1.92l-1.34-.78c-.84-.49-2.23-.53-3.1-.09l-5.45,2.96c-.87.44-.89,1.19-.05,1.67Z"/>
      <path class="cls-28" d="m135.67,81.9l-3.05,2.39-2.25,1.76c-.22.1-.47.16-.72.17-.38.02-.77-.05-1.07-.23l-2.4-1.38s0,0,0,0c0,0,0,0-.01,0-.84-.49-1.04-1.62-.48-2.42.02-.03.05-.07.07-.1.46-.61,1.13-1.06,1.93-1.22l1.21-.24c1.96-.4,3.58-.59,3.76-.47l3,1.74s.01,0,.02,0Z"/>
      <path class="cls-39" d="m133.96,83.23l.17-.13-2.69-1.56,2.36-.73c-.08-.05-.16-.09-.24-.14l-2.36.73-1.61-.93c-.1.02-.2.04-.3.06l4.67,2.7Z"/>
      <path class="cls-26" d="m130.63,85.9s.01,0,.01-.01c0,0,0,0,0,0l2.14-1.55,2.9-2.09v-.33s0-.02-.01-.02c0,0-.01,0-.02,0-.22-.07-1.47.3-2.99.91l-1.01.4c-.31.12-.6.3-.86.51-.72.6-1.16,1.5-1.16,2.47v.05c.25-.01.5-.07.72-.17l.26-.14Z"/>
    </g>
    <g id="Palettes">
      <path id="Shadow-8" data-name="Shadow" class="cls-41" d="m139.3,87.51c.05-.1.16-.17.29-.19l20.87-3.23h.08c.17,0,.32.07.38.2l.9,1.94,1.12,1.12s.05.07.07.11l.62.36c.11.06.17.16.17.27s-.06.21-.17.28l-15.28,8.82c-.09.05-.18.06-.24.06s-.15-.01-.24-.06l-3.17-1.83c-.11-.06-.17-.16-.17-.28s.06-.21.17-.27l3.72-2.15-4.35,1.45c-.05.02-.1.03-.16.03-.12,0-.24-.04-.32-.12l-2.24-2.24c-.08-.08-.11-.18-.08-.28.03-.11.11-.2.24-.24l4.94-1.65-5.55.86h-.08c-.17,0-.32-.07-.38-.2l-1.16-2.5c-.04-.09-.04-.18,0-.27Z"/>
      <g id="Palette">
        <g>
          <path class="cls-22" d="m144.77,94.17s.02-.05.05-.07l15.28-8.82c.07-.04.18-.04.24,0l3.16,1.83s.05.04.05.07c0,.03,0,.45,0,.47,0,.03-.02.05-.05.07l-15.28,8.82c-.07.04-.18.04-.24,0l-3.16-1.83s-.05-.04-.05-.07,0-.45,0-.47Z"/>
          <path class="cls-36" d="m148.11,96.1v.47s.09,0,.12-.03l15.28-8.83s.05-.04.05-.07v-.47s-.01.05-.05.07l-15.28,8.82s-.07.03-.12.03Z"/>
          <path class="cls-35" d="m160.1,85.28l-15.28,8.82c-.07.04-.07.1,0,.14l3.16,1.83c.07.04.18.04.24,0l15.28-8.82c.07-.04.07-.1,0-.14l-3.16-1.83c-.07-.04-.18-.04-.24,0Z"/>
          <g>
            <polygon class="cls-21" points="160.22 86.08 162.12 87.18 160.22 88.27 158.33 87.18 160.22 86.08"/>
            <polygon class="cls-24" points="160.22 86.08 162.12 87.18 160.22 88.27 158.33 87.18 160.22 86.08"/>
            <g>
              <polygon class="cls-21" points="155.38 88.88 157.27 89.97 155.38 91.07 153.48 89.97 155.38 88.88"/>
              <polygon class="cls-23" points="155.38 88.88 157.27 89.97 155.38 91.07 153.48 89.97 155.38 88.88"/>
            </g>
            <g>
              <polygon class="cls-21" points="152.95 90.28 154.85 91.37 152.95 92.47 151.06 91.37 152.95 90.28"/>
              <polygon class="cls-15" points="152.95 90.28 154.85 91.37 152.95 92.47 151.06 91.37 152.95 90.28"/>
            </g>
            <g>
              <polygon class="cls-21" points="150.53 91.68 152.42 92.77 150.53 93.86 148.64 92.77 150.53 91.68"/>
              <polygon class="cls-11" points="150.53 91.68 152.42 92.77 150.53 93.86 148.64 92.77 150.53 91.68"/>
            </g>
            <polygon class="cls-21" points="148.11 93.08 150 94.17 148.11 95.26 146.22 94.17 148.11 93.08"/>
            <g>
              <polygon class="cls-21" points="157.8 87.48 159.69 88.58 157.8 89.67 155.91 88.58 157.8 87.48"/>
              <polygon class="cls-25" points="157.8 87.48 159.69 88.58 157.8 89.67 155.91 88.58 157.8 87.48"/>
            </g>
          </g>
        </g>
        <path class="cls-40" d="m160.03,85.83c.11.06.28.06.38,0,.11-.06.11-.16,0-.22-.11-.06-.28-.06-.38,0-.11.06-.11.16,0,.22Z"/>
      </g>
      <g id="Palette-2" data-name="Palette">
        <g>
          <path class="cls-22" d="m141.5,90.65s.03-.07.09-.08l18.71-6.24c.08-.03.19-.01.23.04l2.24,2.24s.02.03.02.05v.47s-.03.07-.09.09l-18.71,6.24c-.08.03-.19.01-.23-.04l-2.24-2.24s-.02-.03-.02-.05c0-.03,0-.46,0-.47Z"/>
          <path class="cls-36" d="m143.86,92.98v.48s.09,0,.13,0l18.71-6.24c.06-.02.09-.05.09-.09v-.47s-.03.07-.09.09l-18.71,6.24s-.09.02-.13,0Z"/>
          <path class="cls-35" d="m160.3,84.33l-18.71,6.24c-.08.03-.11.09-.06.14l2.24,2.24s.15.06.23.04l18.71-6.24c.08-.03.11-.09.06-.14l-2.24-2.24s-.15-.06-.23-.04Z"/>
          <g>
            <polygon class="cls-18" points="160.06 85.12 161.4 86.46 159.08 87.23 157.74 85.9 160.06 85.12"/>
            <g>
              <polygon class="cls-18" points="154.12 87.1 155.46 88.44 153.14 89.21 151.81 87.87 154.12 87.1"/>
              <polygon class="cls-43" points="154.12 87.1 155.46 88.44 153.14 89.21 151.81 87.87 154.12 87.1"/>
            </g>
            <g>
              <polygon class="cls-18" points="151.16 88.09 152.49 89.43 150.18 90.2 148.84 88.86 151.16 88.09"/>
              <polygon class="cls-44" points="151.16 88.09 152.49 89.43 150.18 90.2 148.84 88.86 151.16 88.09"/>
            </g>
            <g>
              <polygon class="cls-18" points="148.19 89.08 149.53 90.42 147.21 91.19 145.87 89.85 148.19 89.08"/>
              <polygon class="cls-44" points="148.19 89.08 149.53 90.42 147.21 91.19 145.87 89.85 148.19 89.08"/>
            </g>
            <g>
              <polygon class="cls-18" points="145.22 90.07 146.56 91.41 144.24 92.18 142.9 90.84 145.22 90.07"/>
              <polygon class="cls-13" points="145.22 90.07 146.56 91.41 144.24 92.18 142.9 90.84 145.22 90.07"/>
            </g>
            <g>
              <polygon class="cls-18" points="157.09 86.11 158.43 87.45 156.11 88.22 154.77 86.88 157.09 86.11"/>
              <polygon class="cls-41" points="157.09 86.11 158.43 87.45 156.11 88.22 154.77 86.88 157.09 86.11"/>
            </g>
          </g>
        </g>
        <path class="cls-40" d="m159.99,84.85c.07.07.24.1.37.06.13-.04.17-.14.1-.21-.07-.08-.24-.1-.37-.06-.13.04-.17.14-.1.21Z"/>
      </g>
      <g id="Palette-3" data-name="Palette">
        <g>
          <path class="cls-22" d="m139.5,86.73s.05-.08.13-.09l20.87-3.23c.09-.01.19.02.21.07l1.16,2.5s0,.02,0,.02v.47s-.05.08-.13.1l-20.87,3.23c-.09.01-.19-.02-.21-.07l-1.16-2.5s0-.02,0-.03v-.47Z"/>
          <path class="cls-36" d="m140.77,89.32v.47s.07.01.1,0l20.87-3.23c.08,0,.13-.05.13-.09v-.47s-.05.08-.13.09l-20.87,3.23s-.07,0-.1,0Z"/>
          <path class="cls-35" d="m160.5,83.4l-20.87,3.23c-.09.01-.15.07-.12.12l1.16,2.5c.02.05.12.08.21.07l20.87-3.23c.09-.01.15-.07.12-.12l-1.16-2.5c-.02-.05-.12-.08-.21-.07Z"/>
          <g>
            <polygon class="cls-18" points="159.9 84.13 160.6 85.63 158.01 86.03 157.32 84.53 159.9 84.13"/>
            <polygon class="cls-30" points="159.9 84.13 160.6 85.63 158.01 86.03 157.32 84.53 159.9 84.13"/>
            <g>
              <polygon class="cls-18" points="153.28 85.16 153.98 86.65 151.39 87.05 150.7 85.56 153.28 85.16"/>
              <polygon class="cls-32" points="153.28 85.16 153.98 86.65 151.39 87.05 150.7 85.56 153.28 85.16"/>
            </g>
            <g>
              <polygon class="cls-18" points="149.98 85.67 150.67 87.16 148.08 87.56 147.39 86.07 149.98 85.67"/>
              <polygon class="cls-16" points="149.98 85.67 150.67 87.16 148.08 87.56 147.39 86.07 149.98 85.67"/>
            </g>
            <g>
              <polygon class="cls-18" points="146.67 86.18 147.36 87.67 144.77 88.07 144.08 86.58 146.67 86.18"/>
              <polygon class="cls-29" points="146.67 86.18 147.36 87.67 144.77 88.07 144.08 86.58 146.67 86.18"/>
            </g>
            <polygon class="cls-18" points="143.36 86.69 144.05 88.19 141.46 88.59 140.77 87.09 143.36 86.69"/>
            <g>
              <polygon class="cls-18" points="156.59 84.65 157.29 86.14 154.7 86.54 154.01 85.05 156.59 84.65"/>
              <polygon class="cls-31" points="156.59 84.65 157.29 86.14 154.7 86.54 154.01 85.05 156.59 84.65"/>
            </g>
          </g>
        </g>
        <path class="cls-40" d="m159.96,83.86c.04.08.19.13.33.11.14-.02.23-.11.19-.19-.04-.08-.19-.13-.33-.11-.14.02-.23.11-.19.19Z"/>
      </g>
    </g>
    <g id="Coffe">
      <g class="cls-7">
        <path d="m132.26,107.51c1.83-.82,4.75-.82,6.53,0,1.77.82,1.77,2.15,0,2.96-1.77.82-4.69.82-6.53,0-1.83-.82-1.83-2.15,0-2.96Z"/>
      </g>
      <g>
        <path class="cls-35" d="m131.04,97.95h8.91s-.68,10.51-.68,10.51h0c-.04.38-.4.76-1.08,1.05-1.45.62-3.84.62-5.35,0-.7-.29-1.07-.67-1.12-1.05h0l-.68-10.51Z"/>
        <path class="cls-36" d="m139.95,97.96l-.14,2.13c-.2.14-.45.28-.74.4-1.93.8-5.1.8-7.1,0-.09-.03-.16-.07-.24-.11-.32-.15-.56-.31-.56-.31l-.14-2.12h8.91Z"/>
        <g>
          <path class="cls-18" d="m130.88,98.31v-1.48h.95c.13-.07.27-.13.42-.19,1.83-.73,4.75-.73,6.53,0,.15.06.28.13.4.19h.93v1.48h0c0,.48-.44.96-1.33,1.33-1.77.73-4.69.73-6.53,0-.92-.37-1.37-.85-1.37-1.33Z"/>
          <g class="cls-8">
            <path d="m130.88,98.31v-1.48h.95c.13-.07.27-.13.42-.19,1.83-.73,4.75-.73,6.53,0,.15.06.28.13.4.19h.93v1.48h0c0,.48-.44.96-1.33,1.33-1.77.73-4.69.73-6.53,0-.92-.37-1.37-.85-1.37-1.33Z"/>
          </g>
          <path class="cls-18" d="m132.26,95.5c1.83-.73,4.75-.73,6.53,0,1.77.73,1.77,1.92,0,2.66-1.77.73-4.69.73-6.53,0-1.83-.73-1.83-1.92,0-2.66Z"/>
          <g>
            <path class="cls-18" d="m132.06,96.42h0l.37-.99h6.14l.37.99h0c.14.38-.18.79-.96,1.08-1.33.5-3.53.5-4.91,0-.81-.29-1.14-.7-1-1.08Z"/>
            <path class="cls-42" d="m132.06,96.42h0l.37-.99h6.14l.37.99h0c.14.38-.18.79-.96,1.08-1.33.5-3.53.5-4.91,0-.81-.29-1.14-.7-1-1.08Z"/>
            <path class="cls-18" d="m133.33,94.74c1.23-.45,3.18-.45,4.36,0,1.18.45,1.18,1.17,0,1.61-1.18.45-3.14.45-4.36,0-1.23-.45-1.23-1.17,0-1.61Z"/>
            <g class="cls-1">
              <path class="cls-28" d="m133.33,94.74c1.23-.45,3.18-.45,4.36,0,1.18.45,1.18,1.17,0,1.61-1.18.45-3.14.45-4.36,0-1.23-.45-1.23-1.17,0-1.61Z"/>
            </g>
            <path class="cls-18" d="m132.84,95.55s.03.07.14.15c.1.07.25.16.5.25.54.2,1.29.31,2.05.31s1.5-.11,2.02-.31c.24-.09.4-.18.49-.26.1-.08.13-.14.13-.15,0-.03-.11-.22-.61-.41-.52-.2-1.26-.31-2.02-.31s-1.51.11-2.05.31c-.51.18-.64.37-.64.41Z"/>
            <g class="cls-8">
              <path d="m132.84,95.55s.03.07.14.15c.1.07.25.16.5.25.54.2,1.29.31,2.05.31s1.5-.11,2.02-.31c.24-.09.4-.18.49-.26.1-.08.13-.14.13-.15,0-.03-.11-.22-.61-.41-.52-.2-1.26-.31-2.02-.31s-1.51.11-2.05.31c-.51.18-.64.37-.64.41Z"/>
            </g>
            <path class="cls-18" d="m132.97,95.7c.1.07.25.16.5.25.54.2,1.29.31,2.05.31s1.5-.11,2.02-.31c.24-.09.4-.18.49-.26-.09-.07-.24-.17-.49-.26-.52-.2-1.26-.31-2.02-.31s-1.51.11-2.05.31c-.25.09-.41.18-.5.25Z"/>
            <path d="m134.2,95.73c-.18-.1-.4-.14-.48-.09s-.02.17.16.28c.18.1.4.14.48.09.09-.05.02-.18-.16-.28Z"/>
          </g>
        </g>
        <g>
          <path class="cls-34" d="m139.56,106.09c0,.39-.39.78-1.17,1.08-1.56.59-4.13.59-5.74,0-.8-.3-1.21-.68-1.21-1.07l-.25-3.8c0,.41.43.83,1.28,1.14,1.71.63,4.44.63,6.09,0,.83-.32,1.24-.73,1.24-1.14l-.25,3.8Z"/>
          <g>
            <path class="cls-37" d="m134.12,106.28c-.14-.19-.22-.43-.34-.64-.23-.42-.57-.7-.99-.87-.06-.02-.13,0-.15.06-.22.44-.08,1.06.36,1.5.44.44,1.05.58,1.49.37.02-.01.03-.06.01-.07-.14-.08-.27-.19-.38-.34Z"/>
            <path class="cls-37" d="m133.02,104.64c.23.09.45.23.63.39.19.17.34.39.45.62.17.35.33.57.57.76.05.04.13.03.17-.03.29-.44.18-1.12-.31-1.6-.46-.46-1.09-.59-1.53-.35-.09.05-.08.18.02.22Z"/>
          </g>
        </g>
      </g>
    </g>
    <g id="Lamp">
      <path class="cls-41" d="m88.74,46.46c-2.7,1.56-2.7,4.09,0,5.65,2.7,1.56,7.08,1.56,9.78,0,2.7-1.56,2.7-4.09,0-5.65-2.7-1.56-7.08-1.56-9.78,0Z"/>
      <path class="cls-18" d="m99.81,47.44c-.28-.61-.83-1.18-1.66-1.66-2.5-1.44-6.54-1.44-9.04,0-.83.48-1.38,1.05-1.66,1.66h-.22v.95h0c0,.94.62,1.89,1.87,2.61,2.5,1.44,6.54,1.44,9.04,0,1.25-.72,1.87-1.67,1.87-2.61h0v-.95h-.22Z"/>
      <path class="cls-13" d="m99.81,47.44c-.28-.61-.83-1.18-1.66-1.66-2.5-1.44-6.54-1.44-9.04,0-.83.48-1.38,1.05-1.66,1.66h-.22v.95h0c0,.94.62,1.89,1.87,2.61,2.5,1.44,6.54,1.44,9.04,0,1.25-.72,1.87-1.67,1.87-2.61h0v-.95h-.22Z"/>
      <path class="cls-18" d="m89.11,50.05c-2.5-1.44-2.5-3.78,0-5.22,2.5-1.44,6.54-1.44,9.04,0s2.5,3.78,0,5.22c-2.5,1.44-6.54,1.44-9.04,0Z"/>
      <path class="cls-42" d="m89.11,50.05c-2.5-1.44-2.5-3.78,0-5.22,2.5-1.44,6.54-1.44,9.04,0s2.5,3.78,0,5.22c-2.5,1.44-6.54,1.44-9.04,0Z"/>
      <path class="cls-18" d="m95.02,46.87l-1.2-.42c5.13-14.62-6.85-19.3-7.36-19.49l.44-1.19c.14.05,13.67,5.28,8.12,21.1Z"/>
      <g>
        <path class="cls-38" d="m96.1,47.44c0-1.36-1.1-2.47-2.47-2.47s-2.47,1.1-2.47,2.47h0c0,.36.24.73.72,1.01.96.56,2.52.56,3.49,0,.48-.28.72-.64.72-1.01h0Z"/>
        <path class="cls-40" d="m95.28,47.29c-.17,1.03-2.28,1.53-3.13,1.28.97.42,2.35.38,3.23-.13.48-.28.72-.64.72-1.01,0-1.36-1.1-2.47-2.47-2.47.6,0,1.82,1.29,1.64,2.32Z"/>
      </g>
      <g>
        <path d="m86.75,26.11l-.43-.49,1.5-1.31c.14-.12.34-.1.46.03h0c.12.14.1.34-.03.46l-1.5,1.31Z"/>
        <path class="cls-38" d="m87.69,26.93c.36-.45.05-1.28-.37-1.75-.41-.48-1.19-.9-1.69-.61-.5.29-1.48,1.01-1.48,1.01l2.33,2.68s.84-.87,1.2-1.32Z"/>
        <path class="cls-40" d="m86.55,24.61c.52.61.74,1.76-.8,2.81l.74.85s.84-.87,1.2-1.32c.36-.45.05-1.28-.37-1.75-.2-.23-.48-.44-.77-.57Z"/>
        <path class="cls-18" d="m82.82,37.57c2-1.74,5.25-8.34,2.92-11.02-2.33-2.68-9.32-.37-11.32,1.38"/>
        <path class="cls-42" d="m82.82,37.57c2-1.74,5.25-8.34,2.92-11.02-2.33-2.68-9.32-.37-11.32,1.38"/>
        <path class="cls-18" d="m73.99,30.79c-.72-2.68.76-3.98,3.32-2.89,2.56,1.08,5.21,4.14,5.94,6.82.72,2.68-.76,3.98-3.32,2.89-2.56-1.08-5.21-4.14-5.94-6.82Z"/>
        <path class="cls-13" d="m73.99,30.79c-.72-2.68.76-3.98,3.32-2.89,2.56,1.08,5.21,4.14,5.94,6.82.72,2.68-.76,3.98-3.32,2.89-2.56-1.08-5.21-4.14-5.94-6.82Z"/>
        <path class="cls-18" d="m82.33,32.95s.09-.08.13-.13c-.82-1.48-2.07-2.9-3.42-3.91-.04.03-.09.07-.13.1-1.09.94-1.2,2.59-.25,3.68.94,1.09,2.59,1.2,3.68.25Z"/>
        <path class="cls-16" d="m82.33,32.95s.09-.08.13-.13c-.82-1.48-2.07-2.9-3.42-3.91-.04.03-.09.07-.13.1-1.09.94-1.2,2.59-.25,3.68.94,1.09,2.59,1.2,3.68.25Z"/>
      </g>
    </g>
    <g id="Image">
      <g>
        <path class="cls-36" d="m135.08,23.95l19.6,11.32c.25.15.46.5.46.79v18.68c0,.29-.21.65-.46.79l-.29.17c-.25.15-.66.15-.92,0l-19.6-11.32c-.25-.15-.46-.5-.46-.79v-18.68c0-.29.21-.65.46-.79l.29-.17c.25-.15.66-.15.92,0Z"/>
        <path class="cls-28" d="m133.43,24.78c.06-.19.23-.25.44-.13l19.6,11.32c.13.07.24.2.32.34l1.21-.7c-.08-.14-.19-.27-.32-.34l-19.6-11.32c-.25-.14-.66-.14-.92,0l-.29.17c-.22.12-.4.4-.44.66Z"/>
        <path class="cls-27" d="m133.87,24.65l19.6,11.32c.25.15.46.5.46.79v18.68c0,.29-.21.41-.46.26l-19.6-11.32c-.25-.15-.46-.5-.46-.79v-18.68c0-.29.21-.41.46-.26Z"/>
      </g>
      <g>
        <polygon class="cls-18" points="152.73 36.93 134.62 26.48 134.62 43.21 152.73 53.66 152.73 36.93"/>
        <polygon class="cls-32" points="152.73 36.93 134.62 26.48 134.62 43.21 152.73 53.66 152.73 36.93"/>
      </g>
      <polygon class="cls-18" points="152.73 48.08 147.58 39.2 140.53 44.46 142.25 42.56 138.51 37.6 134.62 40.07 134.62 43.21 152.73 53.66 152.73 48.08"/>
      <path class="cls-18" d="m140.06,32.58c.67.39,1.21,1.32,1.21,2.09,0,.77-.54,1.08-1.21.7-.67-.39-1.21-1.32-1.21-2.09s.54-1.08,1.21-.7Z"/>
    </g>
  </g>
  <g id="Pen_tool-2" data-name="Pen tool">
    <g>
      <path class="cls-18" d="m170.74,58.77c.52.3.95,1.12.95,1.82,0,.62-.34.95-.78.79v13.23l4.82-10.12c.08-.17.08-.45,0-.62-1.22-2.82-2.12-5.99-2.42-9.25-.02-.19-.16-.41-.32-.51l-4.51-2.6c-.16-.09-.31-.02-.33.17-.3,2.82-1.17,4.91-2.33,6.32-.12.14-.18.4-.12.58.68,2.2,4.59,14.91,4.87,15.84v-13.23c-.45-.36-.78-1.08-.78-1.7,0-.7.43-1.02.95-.72Z"/>
      <path class="cls-18" d="m163.5,59.85l4.87,15.84.33-.19v.39l2.21-1.27,4.82-10.12c.08-.17.08-.45,0-.62-1.22-2.82-2.12-5.99-2.42-9.25-.02-.19-.16-.41-.32-.51l-4.51-2.6c-.16-.09-.43-.09-.59,0l-1.62.93c-.16.09-.31.32-.33.51-.3,2.82-1.16,4.91-2.33,6.32-.12.14-.18.4-.12.58Z"/>
      <path class="cls-42" d="m167.59,60.76c0,.62.34,1.34.78,1.7v13.23l.33-.19v.39s0-13.23,0-13.23c.45.15.78-.17.78-.79,0-.7-.43-1.51-.95-1.82-.52-.3-.95.02-.95.72Z"/>
      <path class="cls-18" d="m163.5,59.85l4.87,15.84v-13.23c-.45-.36-.78-1.07-.78-1.7,0-.7.43-1.02.95-.72.53.3.95,1.12.95,1.82,0,.62-.34.95-.78.79v13.23l4.82-10.12c.08-.17.08-.45,0-.62-1.22-2.82-2.12-5.99-2.42-9.25-.02-.19-.16-.41-.32-.51l-4.5-2.6c-.16-.09-.31-.02-.33.17-.3,2.82-1.16,4.91-2.33,6.32-.12.14-.18.4-.12.58Z"/>
      <path class="cls-17" d="m171.02,55.64c.05.08.08.18.09.26.31,3.26,1.21,6.43,2.42,9.25.04.09.06.22.05.34l2.21-1.27c0-.12-.01-.25-.05-.34-1.22-2.82-2.12-5.99-2.42-9.25,0-.08-.04-.18-.09-.26l-2.21,1.28Z"/>
      <path class="cls-9" d="m165.96,52.91c.04-.15.17-.21.32-.12l4.51,2.6c.09.05.17.14.23.25l2.21-1.28c-.06-.1-.14-.2-.23-.25l-4.51-2.6c-.16-.09-.43-.09-.59,0l-1.62.93c-.15.09-.28.28-.32.46Z"/>
      <g>
        <path class="cls-18" d="m174.31,50.08l-7.14-4.12c-.16-.09-.43-.09-.59,0l-1.62.94c-.16.09-.29.32-.29.51v3.14c0,.19.13.42.29.51l7.14,4.12c.16.09.43.09.59,0l1.62-.94c.16-.09.29-.32.29-.51v-3.14c0-.19-.13-.42-.29-.51Z"/>
        <path class="cls-14" d="m164.68,47.35c.02-.15.14-.21.29-.12l7.14,4.12c.08.05.15.13.21.22l2.21-1.27c-.05-.09-.13-.17-.21-.22l-7.14-4.12c-.16-.09-.43-.09-.59,0l-1.62.94c-.15.09-.27.29-.29.46Z"/>
        <path class="cls-42" d="m172.15,55.2s0,0,0,0c0,0,.01,0,.02,0,0,0,.01,0,.02,0,0,0,.02,0,.03,0,.01,0,.02,0,.04,0,0,0,.01,0,.02,0,.02,0,.03,0,.05,0,.13.01.26,0,.36-.07l1.62-.93c.16-.09.29-.32.29-.51v-3.14c0-.09-.03-.2-.09-.29l-2.21,1.27c.05.09.09.2.09.29v3.14c0,.13-.07.21-.16.21-.01,0-.03,0-.04,0-.01,0-.03,0-.04-.01Z"/>
      </g>
      <path class="cls-42" d="m168.7,75.89l2.21-1.27,4.82-10.12c.04-.08.06-.18.06-.28l-2.21,1.27c0,.1-.03.2-.06.28l-4.82,10.12Z"/>
      <path class="cls-41" d="m168.37,62.46v13.23l.33-.19v.39-13.23c.45.15.78-.17.78-.79,0-.01,0-.03,0-.04l-1.12.64Z"/>
    </g>
    <g>
      <path class="cls-39" d="m158.17,58.66c0-.36.25-.51.56-.33.31.18.56.62.56.98,0,.29-.17.44-.4.39.32,6.65,4.97,14.48,10.65,17.76,2.82,1.63,5.46,1.9,7.45.75,1.87-1.08,2.95-3.3,3.06-6.29-.23-.21-.4-.56-.4-.85,0-.36.25-.51.56-.33.31.18.56.62.56.98,0,.31-.18.46-.43.38-.15,3.01-1.28,5.26-3.2,6.37-.86.49-1.82.74-2.87.74-1.5,0-3.16-.5-4.87-1.49-5.81-3.35-10.56-11.41-10.8-18.19-.24-.21-.43-.57-.43-.87Z"/>
      <path class="cls-39" d="m158.73,70.76c.26.15.48.48.54.79l20.41,11.78c.07-.22.28-.29.53-.15.31.18.56.62.56.98s-.25.51-.56.33c-.27-.15-.49-.5-.55-.82l-20.39-11.78c-.07.24-.28.31-.54.17-.31-.18-.56-.62-.56-.98s.25-.51.56-.33Z"/>
      <path class="cls-39" d="m179.43,71.38c0,.44.36.8.8.8s.8-.36.8-.8-.36-.8-.8-.8-.8.36-.8.8Z"/>
      <path class="cls-39" d="m179.46,83.82c0,.44.36.8.8.8s.8-.36.8-.8-.36-.8-.8-.8-.8.36-.8.8Z"/>
      <path class="cls-39" d="m157.88,71.43c0,.44.36.8.8.8s.8-.36.8-.8-.36-.8-.8-.8-.8.36-.8.8Z"/>
      <path class="cls-39" d="m157.96,58.96c0,.44.36.8.8.8s.8-.36.8-.8-.36-.8-.8-.8-.8.36-.8.8Z"/>
    </g>
  </g>
  <g id="Character-2" data-name="Character">
    <g id="Legs">
      <g>
        <g>
          <path class="cls-40" d="m82.08,128.75c-.51.73-.33,2.36-.4,3.04-.08.68-.07,1.36-.14,2.03-.08.76-.15,1.39.26,2.1.53.92,1.57,1.46,2.63,1.6,1.05.14,2.12-.07,3.14-.35,1.02-.28,2.03-.64,3.08-.81,2.63-.42,5.22.35,7.83-.45.61-.19,1.2-.44,1.79-.69.53-.22,1.06-.45,1.56-.75,1.25-.75,3.01-2.35,2.83-3.92-.15-1.4-1.04-2.35-2.69-2.28-2.12.09-4.23.57-6.35.53-1.29-.03-2.75-.1-4.02-.33-1.47-.26-2.78-.61-2.94-1.42-.26-1.29-3.1.04-4.24.59-.36.18-.71.4-1.07.58-.3.14-.56.11-.85.21-.17.06-.3.17-.41.32Z"/>
          <path class="cls-33" d="m81.01,124.32l7.25-2.29s.09,3.8.44,4.72c.35.92,1.41,1.47,2.88,1.73,1.27.23,2.73.3,4.02.33.57.01,1.15-.01,1.72-.06h0c1.89-.19,3.9,1.42,1.17,2.72-2.45,1.17-5.92,1-8.61,1.15-2.69.15-7.16-1.17-7.83-3.18,0,0,0,0,0,0l-1.04-5.12Z"/>
        </g>
        <path class="cls-38" d="m86.42,98.03c1.62,6.68,2,26.94,2,26.94,0,0-3.72,1.98-7.11.79l-6.03-23.45,11.14-4.28Z"/>
      </g>
      <g>
        <path class="cls-40" d="m98.19,138.17c-.51.73-.33,2.36-.4,3.04-.08.68-.07,1.36-.14,2.03-.08.76-.15,1.39.26,2.1.53.92,1.57,1.46,2.63,1.6,1.05.14,2.12-.07,3.14-.35,1.02-.28,2.03-.64,3.08-.81,2.63-.42,5.22.35,7.83-.45.61-.19,1.2-.44,1.79-.69.53-.22,1.06-.45,1.56-.75,1.25-.75,3.01-2.35,2.83-3.92-.15-1.4-1.04-2.35-2.69-2.28-2.12.09-4.23.57-6.35.53-1.29-.03-2.75-.1-4.02-.33-1.47-.26-2.78-.61-2.94-1.42-.26-1.29-3.1.04-4.24.59-.36.18-.71.4-1.07.58-.3.14-.56.11-.85.21-.17.06-.3.17-.41.32Z"/>
        <path class="cls-33" d="m96.98,132.18l6.35-2.27,1.42,6.56c.16.81,1.48,1.16,2.94,1.42,1.27.23,2.73.3,4.02.33.57.01,1.15-.01,1.72-.06h0c1.89-.19,3.9,1.42,1.17,2.72-2.45,1.17-5.92,1-8.61,1.15-2.69.15-8.25-.29-7.83-3.18,0,0,0,0,0,0l-1.18-6.67Z"/>
      </g>
      <path class="cls-39" d="m100.29,104.02c2.8,3.97,3.98,30.09,3.98,30.09,0,0-3.36,3.5-6.55,2.25l-8.04-22.76,10.61-9.58Z"/>
      <path class="cls-41" d="m90.07,114.65s5.88-2.18,7.27-3.76c0,0-3.02,4.33-6.7,5.28l-.57-1.52Z"/>
    </g>
    <g>
      <path class="cls-39" d="m66.64,173.22c.37,0,.67-.3.67-.67v-42.81c0-.37-.3-.67-.67-.67s-.67.3-.67.67v42.81c0,.37.3.67.67.67Z"/>
      <path class="cls-39" d="m40.15,157.64c.27,0,.52-.16.62-.42l13.13-33.23c.14-.34-.03-.73-.37-.86-.34-.14-.73.03-.86.37l-13.13,33.23c-.14.34.03.73.37.86.08.03.16.05.24.05Z"/>
      <path class="cls-39" d="m41.73,153.65c.18,0,.35-.07.48-.21l24.43-25.85,24.39,25.74c.25.27.67.28.94.03.27-.25.28-.67.03-.94l-24.87-26.25c-.13-.13-.3-.21-.48-.21h0c-.18,0-.36.08-.48.21l-24.91,26.36c-.25.27-.24.69.03.94.13.12.29.18.46.18Z"/>
      <path class="cls-39" d="m93.13,157.64c.08,0,.16-.01.24-.05.34-.13.51-.52.37-.86l-13.13-33.23c-.14-.34-.52-.51-.86-.37-.34.13-.51.52-.37.86l13.13,33.23c.1.26.35.42.62.42Z"/>
      <path class="cls-18" d="m93.45,115.06c.48-2.69-1.71-4.78-5.83-7.56-4.12-2.78-9.38-5.53-11.93-6.7-3.44-1.58-6.97-1.44-11.38.83-6.12,3.15-24.56,14.32-24.56,14.32,0,0,27.56,15.56,32.86,14.86,5.3-.7,18.55-9.32,19.6-12.35s1.22-3.41,1.22-3.41Z"/>
      <g class="cls-2">
        <path d="m93.45,115.06c.48-2.69-1.71-4.78-5.83-7.56-4.12-2.78-9.38-5.53-11.93-6.7-3.44-1.58-6.97-1.44-11.38.83-6.12,3.15-24.56,14.32-24.56,14.32,0,0,27.56,15.56,32.86,14.86,5.3-.7,18.55-9.32,19.6-12.35s1.22-3.41,1.22-3.41Z"/>
      </g>
      <path class="cls-18" d="m69.96,127.54c3.96,3.58,8.09.5,14.63-3.75,7.4-4.8,8.86-8.74,8.86-8.74,0,0,0,2.95-.55,4.33-.55,1.38-1.75,2.95-7.09,6.63-5.34,3.68-9.21,5.52-12.8,6.21l-2.83-.39"/>
      <path class="cls-13" d="m84.6,123.8c7.4-4.8,8.86-8.74,8.86-8.74,0,0,0,2.95-.55,4.33-.55,1.38-1.75,2.95-7.09,6.63-5.34,3.68-9.21,5.52-12.8,6.21l-2.83-.39-.22-4.29c3.96,3.58,8.09.5,14.63-3.75Z"/>
      <path class="cls-18" d="m41.06,152.62l-1.74,4.58s-.02.08-.02.12c0,.03,0,.05,0,.08.02.09.13.21.26.29.29.17.77.17,1.06,0,.11-.06.17-.14.21-.22,0,0,0,0,0,0v-.06s1.62-4.29,1.62-4.29l-1.4-.49Z"/>
      <path class="cls-18" d="m92.23,152.62l1.74,4.58s.02.08.02.12c0,.03,0,.05,0,.08-.02.09-.13.21-.26.29-.29.17-.76.17-1.06,0-.11-.06-.17-.14-.21-.22,0,0,0,0,0,0v-.06s-1.62-4.29-1.62-4.29l1.4-.49Z"/>
      <path class="cls-18" d="m65.87,169.24v3.79c0,.11.07.23.22.31.3.17.79.17,1.09,0,.15-.09.22-.2.22-.31v-3.79c-.51-.26-1.02-.26-1.54,0Z"/>
    </g>
    <g id="Character-3" data-name="Character">
      <g id="Character-4" data-name="Character">
        <g>
          <path class="cls-38" d="m48.13,106.46s17.24-7.37,20.75-9.14c3.51-1.76,9.9-4.35,13.23-3.48,2.25.58,3.55,1.38,4.34,4.35.15.56.87,5.83.87,5.83,0,0-9.59,4.5-18.05,6.2-8.46,1.7-21.15-3.77-21.15-3.77Z"/>
          <path class="cls-39" d="m48.13,106.46c-2.14,8.97,3.46,14,6.81,15.94,2.94,1.7,10.63,5.8,18.83,2.5,5.47-2.21,20.24-11.95,20.24-11.95,1.6-2.59,7.72-3.44,7.27-5.51-.11-.52-.16-1.08-.31-1.64-.75-2.82-3.41-6.76-9.35-5.4-3.65.83-10.46,3.29-16.49,5.18-1.38.43-3.38-1.45-4.5-1.04-2.65.97-3.32,5.5-3.32,5.5l-19.18-3.58Z"/>
        </g>
      </g>
      <polygon class="cls-33" points="68.24 67.1 67.25 76.26 59.19 75.64 59.98 65.47 68.24 67.1"/>
      <path class="cls-18" d="m50.28,102.23c.88-1.9,1.68-4.19,4-7.88-3.29-10.5-3.76-13.68-3.61-18.47.08-2.56,3.71-6.86,6.81-6.33.81.14,1.4.18,2.16.32.1,2.11,4.2,2.72,8.14,1.39,1.11.26,2.55.49,3.53.86,1.44.54,7.71,7.27,8.18,12.05.38,3.89-3.6,7.11-3.6,7.11.22,4.09.08,9.68-.02,17.12,0,0-1.24.45-3.17-.4-2,3.19-7.53,8.3-13.61,7.62-10.51-1.18-10.2-8.91-10.2-8.91,0,0,.77-3.17,1.38-4.49Z"/>
      <g class="cls-4">
        <path d="m50.28,102.23c.88-1.9,1.68-4.19,4-7.88-3.29-10.5-3.76-13.68-3.61-18.47.08-2.56,3.71-6.86,6.81-6.33.81.14,1.4.18,2.16.32.1,2.11,4.2,2.72,8.14,1.39,1.11.26,2.55.49,3.53.86,1.44.54,7.71,7.27,8.18,12.05.38,3.89-3.6,7.11-3.6,7.11.22,4.09.08,9.68-.02,17.12,0,0-1.24.45-3.17-.4-2,3.19-7.53,8.3-13.61,7.62-10.51-1.18-10.2-8.91-10.2-8.91,0,0,.77-3.17,1.38-4.49Z"/>
      </g>
      <g id="head">
        <path class="cls-21" d="m74.43,56.27s2.28,3.66,1.96,4.03c-.32.37-1.84.74-1.84.74l-.12-4.76Z"/>
        <path class="cls-33" d="m69.06,47.65c1.79.99,4.88,2.8,5.51,9.51.64,6.89-.95,9.23-1.91,10.1-.65.59-3.91.72-5.6.15-2.11-.72-6.66-3.12-8.72-6.72-2.43-4.24-2.81-9.8.19-11.9,4.21-2.95,9.02-1.98,10.53-1.14Z"/>
        <path class="cls-21" d="m68.18,67.67c1.5.27,3.22.14,4.12-.2h0c-2.55-.06-4.01-.93-4.01-.93l-.11,1.13Z"/>
      </g>
      <path class="cls-18" d="m76.25,46.93c-.61-1.26-2.05-2.11-3.43-1.87.35-1.58-.55-3.35-2.03-4.01-.88-.39-1.88-.41-2.82-.23-.94.18-1.83.55-2.72.92-2.01.83-4.01,1.69-6.03,2.49-.99.39-2,.77-2.91,1.34-1.84,1.15-3.24,2.84-3.82,4.96-.34,1.24-.43,2.54-.32,3.82.15,1.66.62,3.27,1.28,4.79.67,1.55,1.6,2.8,2.64,4.12,1.36,1.74,3.78,3.7,3.78,3.7,2.41,1.15,5.22.37,5.22.37,2.11-2.03,3.56-5.1,3.61-5.25-.08.03-.66.24-1.44.13-.54-.09-1.18-.33-1.82-.92-1.62-1.49-1.74-4.31.39-4.96,2.12-.65,2.9,2.32,2.9,2.32,1.36-.59.97-2.31,1.13-3.3.97-.54,2.46-1.68,3.17-3.84.28.52.53,1.11.76,1.78.82-.7,1.67-1.39,2.21-2.33.69-1.21.85-2.76.24-4.02Z"/>
      <path class="cls-10" d="m76.25,46.93c-.61-1.26-2.05-2.11-3.43-1.87.35-1.58-.55-3.35-2.03-4.01-.88-.39-1.88-.41-2.82-.23-.94.18-1.83.55-2.72.92-2.01.83-4.01,1.69-6.03,2.49-.99.39-2,.77-2.91,1.34-1.84,1.15-3.24,2.84-3.82,4.96-.34,1.24-.43,2.54-.32,3.82.15,1.66.62,3.27,1.28,4.79.67,1.55,1.6,2.8,2.64,4.12,1.36,1.74,3.78,3.7,3.78,3.7,2.41,1.15,5.22.37,5.22.37,2.11-2.03,3.56-5.1,3.61-5.25-.08.03-.66.24-1.44.13-.54-.09-1.18-.33-1.82-.92-1.62-1.49-1.74-4.31.39-4.96,2.12-.65,2.9,2.32,2.9,2.32,1.36-.59.97-2.31,1.13-3.3.97-.54,2.46-1.68,3.17-3.84.28.52.53,1.11.76,1.78.82-.7,1.67-1.39,2.21-2.33.69-1.21.85-2.76.24-4.02Z"/>
    </g>
    <g>
      <path class="cls-18" d="m70.18,131.83c-2.25-.11-4.02-1.77-9.37-4-9.89-4.12-17.31-7.42-20.13-12.6-2.83-5.18-4.83-20.13-4.12-26.61.09-.86.26-1.57.48-2.15l-.7-.1,1.8-1.53h0c1.85-1.5,4.86-.16,7.12,1.07,6.47,3.52,11.54,6.95,15.54,19.31,3.01,9.3,5,17.78,9.15,22.32"/>
      <path class="cls-9" d="m37.04,86.48l-.7-.1,1.8-1.53h0c1.85-1.5,4.86-.16,7.12,1.07,6.47,3.52,11.54,6.95,15.54,19.31,3.01,9.3,5,17.78,9.15,22.32l.22,4.29c-2.25-.11-4.02-1.77-9.37-4-9.89-4.12-17.31-7.42-20.13-12.6-2.83-5.18-4.83-20.13-4.12-26.61.09-.86.26-1.57.48-2.15Z"/>
      <path class="cls-18" d="m43.39,87.51c6.47,3.52,11.54,6.95,15.54,19.31,4,12.36,6.19,23.28,14.08,25.4,0,0-3.57,1.42-14.5-3.21-3.48-1.47-7.7-4.15-10.47-5.71-5.43-3.05-8.73-5.55-9.25-6.48-2.87-5.16-4.83-20.13-4.12-26.61.71-6.48,5.47-4.47,8.71-2.71Z"/>
    </g>
    <g id="Arm">
      <g>
        <path class="cls-40" d="m108.38,91.64s.09,0,.11-.04l.49-.81s.01-.11-.03-.13c-.05-.03-.11-.01-.13.03l-.49.81s-.01.11.03.13c0,0,.02,0,.02.01Z"/>
        <g>
          <path class="cls-18" d="m110.72,89.85l-1.71,1.31c-.25.19-.6-.04-.52-.35l.56-2.1,1.67,1.13Z"/>
          <g class="cls-8">
            <path d="m110.72,89.85l-1.71,1.31c-.25.19-.6-.04-.52-.35l.56-2.1,1.67,1.13Z"/>
          </g>
          <path class="cls-18" d="m115.93,78.35c.13-.16.34-.19.57-.13.62.16,1.42.88,1.07,1.32l-6.85,10.3c-.3.13-.8-.02-1.18-.33-.25-.2-.44-.48-.49-.8l6.88-10.36Z"/>
          <path class="cls-18" d="m115.93,78.35c.13-.16.34-.19.57-.13.62.16,1.42.88,1.07,1.32l-6.85,10.3c-.3.13-.8-.02-1.18-.33-.25-.2-.44-.48-.49-.8l6.88-10.36Z"/>
          <path class="cls-18" d="m116.5,78.22c-.23-.06-.44-.03-.57.13-.1.16.05.6.51.92.57.39,1.02.4,1.15.23.27-.45-.5-1.12-1.1-1.28Z"/>
          <path class="cls-42" d="m116.5,78.22c-.23-.06-.44-.03-.57.13-.1.16.05.6.51.92.57.39,1.02.4,1.15.23.27-.45-.5-1.12-1.1-1.28Z"/>
        </g>
        <path class="cls-38" d="m117.06,77.71c.13-.2.39-.25.59-.12.2.13.25.39.12.59l-.55.82h0c-.03.05-.1.08-.2.08-.19-.01-.42-.16-.51-.33-.04-.09-.04-.16,0-.21h0l.55-.82Z"/>
      </g>
      <path class="cls-33" d="m113.21,86.09s-.42.65-.78,1.17c-.29.42-.45.61-.66.66-.43.1-1.35-.19-1.67-.8l.54-.81c-.61-.06-1.31-.07-1.65.05-.75.28-1.66.73-2.23,2.02-.83,1.87-.66,2.17-2.99,2.33-2.32.17-14.6.37-14.6.37h0c-1.46-1.7-6.84-7.94-8.92-10.42-2.41-2.88-6.96-9.19-8.95-8.55-1.98.64-3.82,6.65-1.15,11.28,2.36,4.1,10.56,11.39,13.9,14.33.35.33.68.61.97.86.02.02.04.04.06.05h0c2.04,1.67,2.94,1.46,5.39.99,2.93-.56,16.76-3.37,19.53-4.6,2.77-1.23,5.28-4.55,5.27-6.24,0-1.69-2.09-2.7-2.09-2.7Z"/>
    </g>
  </g>
  <g id="Ai_Icon" data-name="Ai Icon">
    <g>
      <path class="cls-38" d="m27.78,13.71c0-.98-.69-2.17-1.54-2.66h0c-.85-.49-2.23-.49-3.08,0l-11.68,6.69c-.85.49-1.54,1.68-1.54,2.66v12.61c0,.98.69,2.17,1.54,2.66h0c.85.49,2.23.49,3.08,0l11.83-6.79c1.38-.79,1.39-1.58,1.39-2.56v-12.61Z"/>
      <path class="cls-40" d="m9.94,33.01c0,.98.69,2.17,1.54,2.66h0c.77.44,1.96.48,2.81.13-.72.27-1.28-.14-1.28-1.02v-12.61c0-.49.17-1.03.45-1.52l-3.07-1.77c-.28.48-.45,1.03-.45,1.52v12.61Z"/>
      <path class="cls-39" d="m27.73,13.27c-.18-.65-.77-.86-1.49-.45l-11.69,6.69c-.42.24-.81.66-1.08,1.15l-3.07-1.77c.28-.49.66-.9,1.08-1.15l11.68-6.69c.85-.49,2.23-.49,3.08,0h0c.72.42,1.33,1.35,1.49,2.22Z"/>
    </g>
    <g>
      <path class="cls-18" d="m24.64,16.85c0,.67-.33,1.4-.85,1.71-.5.29-.83-.07-.82-.74-.01-.7.32-1.42.83-1.71s.83.05.84.75Z"/>
      <polygon class="cls-18" points="24.58 19.06 24.44 26.95 22.79 27.9 22.94 20.01 24.58 19.06"/>
      <path class="cls-18" d="m20.08,18.69l-2.07,1.2-2.14,12.01,1.64-.95.5-3.05,2-1.16.54,2.45,1.7-.98-2.17-9.52Zm-1.85,7.25s.63-4.08.74-4.79h.02c.1.57.79,3.89.79,3.89l-1.55.89Z"/>
    </g>
  </g>
  <g id="Ps_Icon" data-name="Ps Icon">
    <g>
      <path class="cls-38" d="m68.1,13.99c0-.98-.69-2.17-1.54-2.66h0c-.85-.49-2.23-.49-3.08,0l-11.68,6.69c-.85.49-1.54,1.68-1.54,2.66v12.61c0,.98.69,2.17,1.54,2.66h0c.85.49,2.23.49,3.08,0l11.83-6.79c1.38-.79,1.39-1.58,1.39-2.56v-12.61Z"/>
      <path class="cls-40" d="m50.27,33.29c0,.98.69,2.17,1.54,2.66h0c.77.44,1.96.48,2.81.13-.72.27-1.28-.14-1.28-1.02v-12.61c0-.49.17-1.03.45-1.52l-3.07-1.77c-.28.48-.45,1.03-.45,1.52v12.61Z"/>
      <path class="cls-39" d="m68.05,13.55c-.18-.65-.77-.86-1.49-.45l-11.69,6.69c-.42.24-.81.66-1.08,1.15l-3.07-1.77c.28-.49.66-.9,1.08-1.15l11.68-6.69c.85-.49,2.23-.49,3.08,0h0c.72.42,1.33,1.35,1.49,2.22Z"/>
    </g>
    <path class="cls-19" d="m65.55,24.64c0,1.4-.72,2.85-2.12,3.65-.64.37-1.21.48-1.58.39l.27-1.83c.28.1.86.07,1.31-.19.46-.26.65-.62.65-1.01s-.15-.48-.72-.45c-1.01.06-1.4-.56-1.39-1.46,0-1.4.78-2.91,1.99-3.61.57-.33,1.08-.42,1.38-.37l-.27,1.77c-.22-.06-.64-.06-1.06.18-.37.21-.58.56-.58.95,0,.35.19.43.78.41.93-.05,1.32.45,1.33,1.55Z"/>
    <path class="cls-19" d="m60.84,19.99c-.45-.3-1.12-.19-2.06.36-.93.54-1.59,1.01-2.05,1.4v10.22l1.51-.87v-3.71c.14-.05.32-.14.52-.26.9-.52,1.67-1.3,2.18-2.35.4-.82.62-1.81.62-2.82s-.29-1.71-.72-1.98Zm-2.1,5.36c-.22.13-.38.2-.51.23v-3.06c.11-.11.32-.28.62-.45.76-.44,1.19-.12,1.19.83,0,1.06-.5,1.98-1.31,2.45Z"/>
  </g>
  <g id="Sketch_Icon" data-name="Sketch Icon">
    <g>
      <path class="cls-38" d="m43.59,35.97c0-.98-.69-2.17-1.54-2.66h0c-.85-.49-2.23-.49-3.08,0l-11.68,6.69c-.85.49-1.54,1.68-1.54,2.66v12.61c0,.98.69,2.17,1.54,2.66h0c.85.49,2.23.49,3.08,0l11.83-6.79c1.38-.79,1.39-1.58,1.39-2.56v-12.61Z"/>
      <path class="cls-40" d="m25.76,55.28c0,.98.69,2.17,1.54,2.66h0c.77.44,1.96.48,2.81.13-.72.27-1.28-.14-1.28-1.02v-12.61c0-.49.17-1.03.45-1.52l-3.07-1.77c-.28.48-.45,1.03-.45,1.52v12.61Z"/>
      <path class="cls-39" d="m43.54,35.54c-.18-.65-.77-.86-1.49-.45l-11.69,6.69c-.42.24-.81.66-1.08,1.15l-3.07-1.77c.28-.49.66-.9,1.08-1.15l11.68-6.69c.85-.49,2.23-.49,3.08,0h0c.72.42,1.33,1.35,1.49,2.22Z"/>
    </g>
    <polygon class="cls-18" points="33.4 43.53 33.4 45.97 35.44 41.85 33.4 43.53"/>
    <polygon class="cls-18" points="38.85 40.33 36.59 41.07 38.85 43.04 38.85 40.33"/>
    <polygon class="cls-18" points="38.69 43.52 36.2 41.35 33.72 46.39 33.9 46.28 36.01 45.06 38.69 43.52"/>
    <polygon class="cls-18" points="31.77 48.05 35.24 51.53 33.07 47.29 31.77 48.05"/>
    <polygon class="cls-18" points="37.51 49.21 40.34 43.1 39.28 43.71 37.51 49.21"/>
    <polygon class="cls-18" points="36.08 52.15 38.68 44.06 33.48 47.06 36.08 52.15"/>
    <polygon class="cls-18" points="32.94 44.66 31.85 47.46 32.92 46.85 32.94 46.84 32.94 44.66"/>
    <polygon class="cls-18" points="39.36 43.13 40.52 42.46 39.32 40.74 39.32 43.15 39.36 43.13"/>
  </g>
</svg>