<?xml version="1.0" encoding="UTF-8"?>
<svg id="Desk" xmlns="http://www.w3.org/2000/svg" viewBox="0 0 200 200">
  <defs>
    <style>
      .cls-1 {
        opacity: .5;
      }

      .cls-1, .cls-2, .cls-3, .cls-4 {
        fill: none;
      }

      .cls-2, .cls-5 {
        opacity: .6;
      }

      .cls-6 {
        opacity: .1;
      }

      .cls-7 {
        fill: #ebebeb;
      }

      .cls-8 {
        fill: #f28f8f;
      }

      .cls-9 {
        fill: #f0f0f0;
      }

      .cls-10 {
        fill: #e6e6e6;
      }

      .cls-11, .cls-12, .cls-5, .cls-13, .cls-14, .cls-15, .cls-16, .cls-17, .cls-18 {
        fill: #fff;
      }

      .cls-19 {
        fill: #ffa8a7;
      }

      .cls-20, .cls-21 {
        fill: #fafafa;
      }

      .cls-22 {
        fill: #fde052;
      }

      .cls-23 {
        fill: #b0494c;
      }

      .cls-24 {
        fill: #e0e0e0;
      }

      .cls-25 {
        fill: #b16668;
      }

      .cls-26, .cls-27 {
        fill: #37474f;
      }

      .cls-28 {
        fill: #455a64;
      }

      .cls-29 {
        fill: #263238;
      }

      .cls-12, .cls-30, .cls-4 {
        opacity: .2;
      }

      .cls-31, .cls-3 {
        opacity: .15;
      }

      .cls-32, .cls-27 {
        opacity: .3;
      }

      .cls-33, .cls-21, .cls-16 {
        opacity: .4;
      }

      .cls-13 {
        opacity: .85;
      }

      .cls-14 {
        opacity: .8;
      }

      .cls-15 {
        opacity: .7;
      }

      .cls-17 {
        opacity: .35;
      }

      .cls-18 {
        opacity: .65;
      }
    </style>
  </defs>
  <path id="Floor-2" data-name="Floor" class="cls-21" d="m32.82,95.48c-37.1,21.42-37.1,56.15,0,77.57,37.1,21.42,97.25,21.42,134.35,0,37.1-21.42,37.1-56.15,0-77.57-37.1-21.42-97.25-21.42-134.35,0Z"/>
  <g id="Desk-2" data-name="Desk">
    <polygon class="cls-26" points="12.1 127.25 12.1 134.8 66.56 166.29 66.56 158.75 12.1 127.25"/>
    <polygon class="cls-28" points="66.56 158.75 168.55 99.85 168.55 107.4 66.56 166.29 66.56 158.75"/>
    <polygon class="cls-7" points="66.56 155.89 10.18 123.3 113.77 63.48 170.15 96.08 66.56 155.89"/>
    <polygon class="cls-24" points="10.18 123.3 10.18 127.3 66.56 159.89 66.56 155.89 10.18 123.3"/>
    <g class="cls-3">
      <polygon points="10.18 123.3 10.18 127.3 66.56 159.89 66.56 155.89 10.18 123.3"/>
    </g>
    <polygon class="cls-24" points="66.56 159.89 170.15 100.08 170.15 96.08 66.56 155.89 66.56 159.89"/>
  </g>
  <g id="Button">
    <path id="Shadow" class="cls-24" d="m48.67,138.12c-.43,0-.86-.11-1.19-.3l-19.02-10.98c-.48-.28-.76-.72-.76-1.22,0-.49.28-.94.76-1.22l18.2-10.53c.33-.19.75-.3,1.19-.3s.86.11,1.19.3l19.02,10.98c.48.28.76.72.76,1.22s-.28.94-.76,1.22l-18.2,10.53c-.33.19-.75.3-1.19.3Z"/>
    <g id="Box">
      <path class="cls-22" d="m66.75,126.26l-17.43,10.09c-.38.22-1.01.22-1.39,0l-18.22-10.52c-.39-.22-.69-.76-.69-1.21v-1.53c.02-.44.33-.99.72-1.21l17.43-10.09c.38-.22,1.01-.22,1.39,0l18.22,10.52c.38.22.69.76.69,1.21v1.53c-.02.44-.33.99-.72,1.21Z"/>
      <path class="cls-30" d="m29.74,121.89c-.37.21-.72.8-.71,1.21v1.53c-.01.44.29.98.68,1.21l18.22,10.52c.2.12.46.17.73.16v-3.14c-.25,0-.51-.05-.7-.16l-18.22-10.52c-.35-.2-.41-.57,0-.81Z"/>
      <path class="cls-16" d="m66.89,122.39c.28.22.24.53-.1.74l-17.43,10.08c-.19.11-.45.17-.7.17v3.14c.25,0,.49-.06.67-.17l17.43-10.09c.38-.22.7-.76.7-1.21v-1.53c.01-.4-.24-.89-.57-1.14Z"/>
      <path class="cls-22" d="m66.78,123.12l-17.43,10.09c-.38.22-1.01.22-1.39,0l-11.58-6.68-6.64-3.83c-.39-.22-.38-.58,0-.81l17.43-10.09c.38-.22,1.01-.22,1.39,0l18.22,10.52c.38.22.39.58,0,.8Z"/>
    </g>
    <g id="_" data-name="&amp;lt;/&amp;gt;">
      <path class="cls-11" d="m39.57,127.04c-.15-.08-.23-.16-.26-.24-.03-.07-.03-.16-.02-.27l.41-4.52s.02-.05.03-.06c.01-.01.03-.02.04-.03.06-.04.14-.05.24-.04.1,0,.19.04.27.08l2.22,1.28c.18.11.28.21.28.3,0,.09,0,.17-.02.23l-.29,1.91,3.3-.18c.11,0,.24-.01.41,0,.17,0,.34.06.52.17l2.22,1.28c.08.05.13.1.14.15.01.06,0,.1-.07.14-.01,0-.03.02-.05.02-.02,0-.06.01-.1.02l-7.82.24c-.18,0-.33,0-.46-.01-.13-.02-.27-.06-.41-.15l-.58-.33Z"/>
      <path class="cls-11" d="m39.85,120.82c-.06-.02-.11-.04-.14-.06-.08-.05-.13-.1-.15-.16-.01-.06,0-.11.07-.14l1.35-.78c.14-.08.29-.11.45-.1.16.01.3.04.42.08l14.58,4.4c.06.02.11.04.14.06.08.05.13.1.15.16.01.06,0,.11-.07.14l-1.38.8c-.13.08-.27.11-.43.1-.16-.01-.3-.04-.44-.07l-14.55-4.42Z"/>
      <path class="cls-11" d="m56.69,117.82c.15.08.23.16.26.24.03.07.03.16.02.27l-.41,4.52s-.02.05-.03.06c-.01.01-.03.02-.04.03-.06.04-.14.05-.24.04-.1,0-.19-.04-.27-.08l-2.22-1.28c-.18-.11-.28-.21-.29-.3,0-.1,0-.17.01-.24l.31-1.9-3.31.17c-.11,0-.24.01-.4.01-.16,0-.33-.06-.52-.16l-2.22-1.28c-.08-.05-.13-.1-.14-.15-.01-.06,0-.1.07-.14.01,0,.03-.02.05-.02.02,0,.06-.01.1-.02l7.82-.24c.18,0,.33,0,.46.01.13.02.27.06.41.15l.58.33Z"/>
    </g>
  </g>
  <g id="Gears">
    <g>
      <g>
        <path class="cls-22" d="m65.89,22.67l-3.1-1.78s-.09-.04-.14-.04-.11.01-.18.04l-2.12.96c-.02-.18,0-.37.06-.51l2.45-4.93c.13-.25.03-.58-.22-.72l-2.65-1.53s0,0-.01,0l-3.09-1.77c-.25-.14-.57-.07-.73.17l-3.05,4.59c-.09.13-.24.23-.4.31l-.23-2.33c-.02-.14-.07-.23-.16-.28l-3.11-1.79s-.08-.03-.12-.03c-.06,0-.13.02-.21.06l-4.12,2.38c-.25.14-.47.49-.49.77l-.41,4.59c-.02.28-.22.66-.43.86-.8.74-1.57,1.55-2.29,2.42-.18.22-.54.32-.81.23l-2.65-.92c-.27-.09-.6.03-.74.27l-3.03,5.25c-.14.25-.08.6.13.78l2.12,1.83c.21.18.3.55.21.81-.39,1.06-.72,2.13-.95,3.2-.06.28-.3.64-.53.8l-3.77,2.65c-.23.16-.42.53-.42.81v4.76c0,.15.06.25.15.3h0s3.11,1.79,3.11,1.79h0c.09.05.19.05.32,0l2.12-.95c.02.18,0,.37-.07.51l-2.44,4.93c-.13.25-.03.57.21.72l3.73,2.14h0l2.02,1.17c.25.14.57.06.73-.17l3.05-4.59c.09-.13.24-.24.4-.31l.23,2.33c.01.13.07.23.16.28l3.1,1.78h0c.09.05.21.05.34-.03l4.12-2.38c.25-.14.47-.49.49-.77l.41-4.59c.03-.28.22-.67.43-.86.8-.74,1.57-1.55,2.29-2.42.18-.22.54-.32.81-.23l2.65.92c.27.09.6-.03.74-.28l3.03-5.25c.14-.25.08-.6-.13-.78l-2.12-1.83c-.21-.19-.3-.55-.21-.82.39-1.06.72-2.13.96-3.2.06-.28.3-.64.53-.8l3.77-2.65c.23-.16.42-.53.42-.81v-4.76c0-.15-.06-.25-.15-.31Zm-18.97,18.19c-1.18.68-2.3.99-3.27.95-.45-.8-.7-1.85-.7-3.11,0-4.44,3.12-9.85,6.97-12.07,1.19-.69,2.3-.98,3.28-.94.45.8.7,1.85.7,3.11,0,4.44-3.12,9.85-6.97,12.07Z"/>
        <path class="cls-16" d="m65.89,22.67l-3.1-1.78s-.09-.04-.14-.04-.11.01-.18.04l-2.12.96c-.02-.18,0-.37.06-.51l2.45-4.93c.13-.25.03-.58-.22-.72l-2.65-1.53s0,0-.01,0l-3.09-1.77c-.25-.14-.57-.07-.73.17l-3.05,4.59c-.09.13-.24.23-.4.31l-.23-2.33c-.02-.14-.07-.23-.16-.28l-3.11-1.79s-.08-.03-.12-.03c-.06,0-.13.02-.21.06l-4.12,2.38c-.25.14-.47.49-.49.77l-.41,4.59c-.02.28-.22.66-.43.86-.8.74-1.57,1.55-2.29,2.42-.18.22-.54.32-.81.23l-2.65-.92c-.27-.09-.6.03-.74.27l-3.03,5.25c-.14.25-.08.6.13.78l2.12,1.83c.21.18.3.55.21.81-.39,1.06-.72,2.13-.95,3.2-.06.28-.3.64-.53.8l-3.77,2.65c-.23.16-.42.53-.42.81v4.76c0,.15.06.25.15.3h0s3.11,1.79,3.11,1.79h0c.09.05.19.05.32,0l2.12-.95c.02.18,0,.37-.07.51l-2.44,4.93c-.13.25-.03.57.21.72l3.73,2.14h0l2.02,1.17c.25.14.57.06.73-.17l3.05-4.59c.09-.13.24-.24.4-.31l.23,2.33c.01.13.07.23.16.28l3.1,1.78h0c.09.05.21.05.34-.03l4.12-2.38c.25-.14.47-.49.49-.77l.41-4.59c.03-.28.22-.67.43-.86.8-.74,1.57-1.55,2.29-2.42.18-.22.54-.32.81-.23l2.65.92c.27.09.6-.03.74-.28l3.03-5.25c.14-.25.08-.6-.13-.78l-2.12-1.83c-.21-.19-.3-.55-.21-.82.39-1.06.72-2.13.96-3.2.06-.28.3-.64.53-.8l3.77-2.65c.23-.16.42-.53.42-.81v-4.76c0-.15-.06-.25-.15-.31Zm-18.97,18.19c-1.18.68-2.3.99-3.27.95-.45-.8-.7-1.85-.7-3.11,0-4.44,3.12-9.85,6.97-12.07,1.19-.69,2.3-.98,3.28-.94.45.8.7,1.85.7,3.11,0,4.44-3.12,9.85-6.97,12.07Z"/>
      </g>
      <path class="cls-6" d="m38.53,45.3c-.08-.27-.35-.4-.61-.28l-1.55.7c.02.18,0,.37-.07.52l-2.45,4.93c-.13.25-.03.57.22.72l3.73,2.14-.63-.36c-.25-.14-.34-.46-.22-.72l2.45-4.93c.13-.25.09-.65-.06-.89-.33-.54-.6-1.15-.82-1.82Zm8.94,9.2c-.06-.06-.11-.15-.13-.26l-.4-4.01c-.03-.28-.27-.45-.55-.39-.69.15-1.36.22-1.99.2-.13,0-.27.03-.4.09l.23,2.33c.02.14.07.23.16.28h0s3.07,1.76,3.07,1.76Z"/>
      <g>
        <path class="cls-22" d="m56.88,12.37c-.24-.14-.57-.06-.73.17l-3.05,4.59c-.05.07-.12.14-.2.19l3.1,1.78c.08-.06.15-.13.2-.2l3.05-4.59c.15-.21.43-.3.67-.2l-3.04-1.75Zm5.9,8.52h0c-.08-.04-.19-.04-.32,0l-2.12.96c.02.14.06.27.13.37.31.51.58,1.09.79,1.73.01.03.02.06.03.09.02.07.06.14.11.19.02.02.03.03.05.05.04.03.08.05.12.06.07.02.15.03.23.01.03,0,.07-.02.1-.03l3.67-1.66s.06-.02.09-.03c.04-.01.09-.02.13,0,.04,0,.08.02.11.04h0s-3.11-1.79-3.11-1.79Zm-13.58-7.84c-.09-.05-.21-.04-.33.03l-4.12,2.38c-.17.1-.32.29-.41.5l3.1,1.78c.09-.21.25-.4.42-.5l4.12-2.38c.12-.06.23-.08.32-.04l-3.08-1.77Zm-14.04,23c-.08.12-.19.23-.29.31l-3.77,2.65c-.1.07-.18.17-.25.29l3.1,1.78c.07-.12.16-.22.25-.28l3.77-2.65c.1-.07.2-.18.29-.31l-3.1-1.78Zm2.29-12.68c-.21,0-.42.12-.53.31l-3.03,5.25c-.06.12-.08.25-.07.38l3.1,1.78c-.02-.13,0-.27.07-.39l3.04-5.25c.1-.17.29-.28.49-.3l-3.06-1.78Z"/>
        <path class="cls-14" d="m56.88,12.37c-.24-.14-.57-.06-.73.17l-3.05,4.59c-.05.07-.12.14-.2.19l3.1,1.78c.08-.06.15-.13.2-.2l3.05-4.59c.15-.21.43-.3.67-.2l-3.04-1.75Zm5.9,8.52h0c-.08-.04-.19-.04-.32,0l-2.12.96c.02.14.06.27.13.37.31.51.58,1.09.79,1.73.01.03.02.06.03.09.02.07.06.14.11.19.02.02.03.03.05.05.04.03.08.05.12.06.07.02.15.03.23.01.03,0,.07-.02.1-.03l3.67-1.66s.06-.02.09-.03c.04-.01.09-.02.13,0,.04,0,.08.02.11.04h0s-3.11-1.79-3.11-1.79Zm-13.58-7.84c-.09-.05-.21-.04-.33.03l-4.12,2.38c-.17.1-.32.29-.41.5l3.1,1.78c.09-.21.25-.4.42-.5l4.12-2.38c.12-.06.23-.08.32-.04l-3.08-1.77Zm-14.04,23c-.08.12-.19.23-.29.31l-3.77,2.65c-.1.07-.18.17-.25.29l3.1,1.78c.07-.12.16-.22.25-.28l3.77-2.65c.1-.07.2-.18.29-.31l-3.1-1.78Zm2.29-12.68c-.21,0-.42.12-.53.31l-3.03,5.25c-.06.12-.08.25-.07.38l3.1,1.78c-.02-.13,0-.27.07-.39l3.04-5.25c.1-.17.29-.28.49-.3l-3.06-1.78Z"/>
      </g>
      <g>
        <path class="cls-22" d="m66.04,27.74v-4.76c0-.28-.21-.42-.47-.3l-3.67,1.65c-.26.12-.53-.01-.61-.28-.21-.67-.49-1.28-.82-1.82-.15-.24-.18-.63-.06-.89l2.45-4.93c.13-.25.03-.58-.22-.72l-2.66-1.53c-.25-.14-.57-.07-.73.17l-3.05,4.59c-.16.24-.51.4-.8.4-.63-.02-1.29.05-1.99.2-.28.06-.52-.11-.55-.39l-.4-4.01c-.03-.28-.25-.4-.5-.25l-4.12,2.38c-.25.14-.47.49-.49.77l-.41,4.59c-.03.28-.22.66-.43.86-.8.74-1.57,1.55-2.29,2.43-.18.22-.54.32-.81.23l-2.65-.92c-.27-.09-.6.03-.74.28l-3.03,5.25c-.14.25-.08.6.13.78l2.12,1.83c.22.19.31.55.21.82-.39,1.06-.72,2.13-.95,3.2-.06.28-.3.64-.53.8l-3.77,2.65c-.23.16-.42.53-.42.81v4.76c0,.28.21.42.47.3l3.67-1.65c.26-.12.53.01.61.28.21.67.49,1.28.82,1.82.15.24.18.64.06.89l-2.45,4.93c-.13.25-.03.58.22.72l2.66,1.53c.25.14.57.07.73-.17l3.05-4.59c.16-.24.51-.4.8-.4.63.02,1.29-.05,1.99-.2.28-.06.52.11.55.39l.4,4.01c.03.28.25.4.5.25l4.12-2.38c.25-.14.47-.49.49-.77l.41-4.59c.03-.28.22-.66.43-.86.8-.74,1.57-1.55,2.29-2.42.18-.22.54-.32.81-.23l2.65.92c.27.09.6-.03.74-.28l3.03-5.25c.14-.25.08-.6-.13-.78l-2.12-1.83c-.22-.19-.31-.55-.21-.82.39-1.06.72-2.13.95-3.2.06-.28.3-.64.53-.8l3.77-2.65c.23-.16.42-.53.42-.81Zm-16.13,14.98c-3.85,2.22-6.97.42-6.97-4.02,0-4.44,3.12-9.85,6.97-12.07,3.85-2.22,6.97-.42,6.97,4.02s-3.12,9.85-6.97,12.07Z"/>
        <path class="cls-18" d="m65.56,22.68l-3.67,1.66c-.26.12-.53-.01-.61-.28-.21-.67-.49-1.28-.82-1.82-.15-.24-.18-.64-.06-.89l2.45-4.93c.13-.25.03-.58-.22-.72l-2.65-1.53c-.25-.14-.57-.07-.73.17l-3.05,4.59c-.16.24-.51.41-.8.4-.63-.02-1.29.05-1.99.2-.28.06-.52-.11-.55-.39l-.4-4.01c-.03-.28-.25-.4-.5-.25l-4.12,2.38c-.25.14-.47.49-.49.77l-.41,4.59c-.03.28-.22.67-.43.86-.8.74-1.57,1.56-2.29,2.42-.18.22-.54.32-.81.23l-2.65-.92c-.27-.09-.6.03-.74.28l-3.03,5.25c-.14.25-.08.6.13.78l2.13,1.83c.21.19.3.55.2.82-.39,1.06-.71,2.13-.95,3.2-.06.28-.3.64-.53.8l-3.77,2.65c-.23.16-.42.53-.42.81v4.76c0,.28.21.42.47.3l3.67-1.65c.26-.12.53.01.61.28.21.67.49,1.28.82,1.82.15.24.18.64.05.89l-2.45,4.93c-.12.25-.03.58.22.72l2.65,1.54c.25.14.57.06.73-.17l3.05-4.59c.16-.23.51-.4.8-.39.63.02,1.29-.05,1.98-.2.28-.06.52.11.55.39l.41,4.01c.03.28.25.4.5.26l4.12-2.38c.25-.14.47-.49.49-.77l.41-4.59c.03-.28.22-.67.43-.86.8-.74,1.57-1.55,2.29-2.42.18-.22.54-.32.81-.23l2.65.92c.27.09.6-.03.74-.28l3.03-5.25c.14-.25.08-.6-.13-.78l-2.12-1.83c-.21-.19-.31-.55-.21-.82.39-1.06.72-2.13.96-3.2.06-.28.3-.64.53-.8l3.77-2.65c.23-.16.42-.53.42-.81v-4.76c0-.28-.21-.42-.47-.3Zm-15.66,20.04c-3.85,2.22-6.97.42-6.97-4.02s3.12-9.85,6.97-12.07c3.85-2.22,6.97-.42,6.97,4.02s-3.12,9.85-6.97,12.07Z"/>
      </g>
    </g>
    <g>
      <g>
        <path class="cls-22" d="m88.8,23.08c.04-.34.26-.8.51-1.03l2.08-1.91c.25-.23.41-.69.35-1.03l-.39-2.27c-.03-.15-.1-.26-.2-.31h0s-2.47-1.42-2.47-1.42h0c-.12-.07-.27-.06-.43.04l-.89.59.86-2.34c.1-.26-.01-.52-.24-.65h.01s-2.47-1.43-2.47-1.43h0s-.1-.05-.16-.06l-1.57-.35c-.33-.07-.73.11-.89.41l-1.47,2.81c-.11.21-.34.41-.59.54l-.07-.22c-.04-.13-.11-.22-.2-.27,0,0,0,0,0,0l-2.47-1.43h0c-.13-.07-.3-.06-.46.07l-2.35,1.85c-.27.21-.47.66-.45,1l.14,2.23c.02.34-.15.82-.37,1.08-.38.46-.75.94-1.09,1.44-.19.28-.62.5-.96.48l-1.51-.07c-.34-.02-.73.22-.87.53l-1.42,3.18c-.13.28-.02.61.24.76h0s1.67.97,1.67.97c.05.14.07.29.04.43-.12.51-.2,1.02-.26,1.52-.04.34-.26.8-.51,1.03l-2.08,1.91c-.25.23-.41.69-.35,1.03l.39,2.27c.03.15.1.25.19.31h0s2.48,1.43,2.48,1.43h0c.12.06.27.06.43-.05l.89-.59-.86,2.34c-.09.25,0,.51.21.64h0s2.48,1.43,2.48,1.43h0c.05.02.11.06.17.07l1.57.35c.33.07.73-.11.89-.41l1.47-2.81c.11-.21.34-.41.59-.54l.07.22c.04.13.11.22.2.27h0s2.45,1.42,2.45,1.42c0,0,0,0,0,0l.03.02h0c.13.07.29.05.45-.07l2.35-1.85c.27-.21.47-.66.45-1l-.14-2.23c-.02-.34.15-.82.37-1.08.38-.46.75-.94,1.09-1.44.19-.28.62-.5.96-.48l1.51.07c.34.02.73-.22.87-.53l1.42-3.18c.14-.31,0-.67-.32-.8l-1.22-.52c-.31-.13-.49-.51-.42-.84.12-.51.2-1.02.26-1.52Zm-12.53,6.91c-.46-2.67,1.23-6.46,3.78-8.46.94-.74,1.86-1.13,2.68-1.19.13.28.23.6.29.98.46,2.67-1.23,6.46-3.78,8.46-.93.73-1.85,1.12-2.67,1.19-.13-.29-.24-.61-.3-.98Z"/>
        <path class="cls-16" d="m88.8,23.08c.04-.34.26-.8.51-1.03l2.08-1.91c.25-.23.41-.69.35-1.03l-.39-2.27c-.03-.15-.1-.26-.2-.31h0s-2.47-1.42-2.47-1.42h0c-.12-.07-.27-.06-.43.04l-.89.59.86-2.34c.1-.26-.01-.52-.24-.65h.01s-2.47-1.43-2.47-1.43h0s-.1-.05-.16-.06l-1.57-.35c-.33-.07-.73.11-.89.41l-1.47,2.81c-.11.21-.34.41-.59.54l-.07-.22c-.04-.13-.11-.22-.2-.27,0,0,0,0,0,0l-2.47-1.43h0c-.13-.07-.3-.06-.46.07l-2.35,1.85c-.27.21-.47.66-.45,1l.14,2.23c.02.34-.15.82-.37,1.08-.38.46-.75.94-1.09,1.44-.19.28-.62.5-.96.48l-1.51-.07c-.34-.02-.73.22-.87.53l-1.42,3.18c-.13.28-.02.61.24.76h0s1.67.97,1.67.97c.05.14.07.29.04.43-.12.51-.2,1.02-.26,1.52-.04.34-.26.8-.51,1.03l-2.08,1.91c-.25.23-.41.69-.35,1.03l.39,2.27c.03.15.1.25.19.31h0s2.48,1.43,2.48,1.43h0c.12.06.27.06.43-.05l.89-.59-.86,2.34c-.09.25,0,.51.21.64h0s2.48,1.43,2.48,1.43h0c.05.02.11.06.17.07l1.57.35c.33.07.73-.11.89-.41l1.47-2.81c.11-.21.34-.41.59-.54l.07.22c.04.13.11.22.2.27h0s2.45,1.42,2.45,1.42c0,0,0,0,0,0l.03.02h0c.13.07.29.05.45-.07l2.35-1.85c.27-.21.47-.66.45-1l-.14-2.23c-.02-.34.15-.82.37-1.08.38-.46.75-.94,1.09-1.44.19-.28.62-.5.96-.48l1.51.07c.34.02.73-.22.87-.53l1.42-3.18c.14-.31,0-.67-.32-.8l-1.22-.52c-.31-.13-.49-.51-.42-.84.12-.51.2-1.02.26-1.52Zm-12.53,6.91c-.46-2.67,1.23-6.46,3.78-8.46.94-.74,1.86-1.13,2.68-1.19.13.28.23.6.29.98.46,2.67-1.23,6.46-3.78,8.46-.93.73-1.85,1.12-2.67,1.19-.13-.29-.24-.61-.3-.98Z"/>
      </g>
      <path class="cls-6" d="m73.94,34.98c-.19-.28-.55-.38-.83-.19l-1.19.78-.86,2.34c-.09.25,0,.5.21.64l2.45,1.41c-.19-.13-.27-.37-.18-.62l1.06-2.87c.12-.32,0-.74-.24-.99-.15-.15-.28-.32-.41-.49Zm7.23,3.58c-.09-.05-.16-.14-.2-.27l-.53-1.76c-.1-.32-.43-.47-.74-.34-.32.14-.65.24-.96.32-.1.02-.2.07-.31.13l.07.23c.04.13.12.22.2.27h0s2.47,1.43,2.47,1.43Z"/>
      <g>
        <path class="cls-22" d="m73.02,20.81c-.15.06-.3.1-.43.09l-1.51-.07c-.21,0-.45.08-.63.23l2.47,1.43c.18-.15.41-.24.63-.23l1.51.07c.14,0,.29-.02.43-.08l-2.47-1.44Zm5.1-8.06c-.13-.08-.3-.06-.46.06l-2.35,1.85c-.17.14-.31.37-.39.62l2.47,1.43c.07-.24.21-.48.39-.62l2.35-1.84c.16-.13.33-.15.47-.06h0s-2.47-1.43-2.47-1.43Zm-8.17,16.53l-2.06,1.89c-.16.14-.26.36-.32.59l2.47,1.42c.05-.23.17-.45.32-.59l2.06-1.89-2.47-1.43Zm15.58-17.95s-.1-.05-.16-.06l-1.57-.35c-.33-.07-.73.11-.89.41l-1.47,2.81c-.07.14-.19.27-.33.38l2.47,1.43c.14-.11.26-.24.33-.38l1.47-2.81c.16-.3.55-.48.89-.41l1.57.35c.06.01.11.03.16.06l-2.47-1.42Zm3.16,3.78h0c-.12-.06-.27-.06-.43.04l-.89.59-.2.53c-.12.32,0,.75.25.99.15.15.28.32.4.49.03.04.07.08.11.12.03.02.06.05.09.07.07.04.14.07.21.08.09.02.18.01.28-.01.05,0,.1-.03.15-.07l2.08-1.37c.05-.03.11-.06.16-.07.06-.02.12-.02.17,0,.03,0,.07.01.1.03l-2.47-1.42Z"/>
        <path class="cls-14" d="m73.02,20.81c-.15.06-.3.1-.43.09l-1.51-.07c-.21,0-.45.08-.63.23l2.47,1.43c.18-.15.41-.24.63-.23l1.51.07c.14,0,.29-.02.43-.08l-2.47-1.44Zm5.1-8.06c-.13-.08-.3-.06-.46.06l-2.35,1.85c-.17.14-.31.37-.39.62l2.47,1.43c.07-.24.21-.48.39-.62l2.35-1.84c.16-.13.33-.15.47-.06h0s-2.47-1.43-2.47-1.43Zm-8.17,16.53l-2.06,1.89c-.16.14-.26.36-.32.59l2.47,1.42c.05-.23.17-.45.32-.59l2.06-1.89-2.47-1.43Zm15.58-17.95s-.1-.05-.16-.06l-1.57-.35c-.33-.07-.73.11-.89.41l-1.47,2.81c-.07.14-.19.27-.33.38l2.47,1.43c.14-.11.26-.24.33-.38l1.47-2.81c.16-.3.55-.48.89-.41l1.57.35c.06.01.11.03.16.06l-2.47-1.42Zm3.16,3.78h0c-.12-.06-.27-.06-.43.04l-.89.59-.2.53c-.12.32,0,.75.25.99.15.15.28.32.4.49.03.04.07.08.11.12.03.02.06.05.09.07.07.04.14.07.21.08.09.02.18.01.28-.01.05,0,.1-.03.15-.07l2.08-1.37c.05-.03.11-.06.16-.07.06-.02.12-.02.17,0,.03,0,.07.01.1.03l-2.47-1.42Z"/>
      </g>
      <g>
        <path class="cls-22" d="m91.74,19.11l-.39-2.27c-.06-.34-.34-.46-.62-.27l-2.08,1.37c-.28.19-.64.09-.83-.19-.13-.18-.26-.34-.41-.5-.23-.25-.36-.67-.24-.99l1.06-2.87c.12-.32-.06-.64-.39-.71l-1.57-.35c-.33-.07-.73.11-.89.41l-1.47,2.81c-.16.3-.56.59-.89.67-.32.08-.64.19-.97.32-.32.13-.64-.01-.74-.34l-.53-1.76c-.1-.33-.39-.42-.66-.21l-2.35,1.85c-.27.21-.47.66-.45,1l.14,2.23c.02.34-.15.82-.37,1.08-.38.46-.75.94-1.09,1.44-.19.28-.62.5-.96.48l-1.51-.07c-.34-.02-.73.22-.87.53l-1.42,3.18c-.14.31,0,.67.32.81l1.22.52c.31.13.49.51.42.84-.12.51-.2,1.02-.26,1.52-.04.34-.26.8-.51,1.03l-2.08,1.91c-.25.23-.41.69-.35,1.02l.39,2.27c.06.34.34.46.62.27l2.08-1.37c.28-.19.64-.09.83.19.13.18.26.34.41.5.23.25.36.67.24.99l-1.06,2.87c-.12.32.06.64.39.71l1.57.35c.33.07.73-.11.89-.41l1.47-2.81c.16-.3.56-.59.89-.67.32-.08.64-.19.97-.32.32-.13.64.01.74.34l.53,1.76c.1.33.39.42.66.21l2.35-1.85c.27-.21.47-.66.45-1l-.14-2.23c-.02-.34.15-.82.37-1.08.38-.46.75-.94,1.09-1.44.19-.28.62-.5.96-.48l1.51.07c.34.02.73-.22.87-.53l1.42-3.18c.14-.31,0-.67-.32-.8l-1.22-.52c-.31-.13-.49-.51-.42-.84.12-.51.2-1.02.26-1.52.04-.34.26-.8.51-1.03l2.08-1.91c.25-.23.41-.69.35-1.02Zm-10.03,12.09c-2.55,2-4.98,1.46-5.44-1.22-.46-2.67,1.23-6.46,3.78-8.46,2.55-2,4.98-1.46,5.44,1.22.46,2.67-1.23,6.46-3.78,8.46Z"/>
        <path class="cls-18" d="m91.74,19.11l-.39-2.27c-.06-.34-.34-.46-.62-.27l-2.08,1.37c-.28.19-.64.09-.83-.19-.13-.18-.26-.34-.41-.5-.23-.25-.36-.67-.24-.99l1.06-2.87c.12-.32-.06-.64-.39-.71l-1.57-.35c-.33-.07-.73.11-.89.41l-1.47,2.81c-.16.3-.56.59-.89.67-.32.08-.64.19-.97.32-.32.13-.64-.01-.74-.34l-.53-1.76c-.1-.33-.39-.42-.66-.21l-2.35,1.85c-.27.21-.47.66-.45,1l.14,2.23c.02.34-.15.82-.37,1.08-.38.46-.75.94-1.09,1.44-.19.28-.62.5-.96.48l-1.51-.07c-.34-.02-.73.22-.87.53l-1.42,3.18c-.14.31,0,.67.32.81l1.22.52c.31.13.49.51.42.84-.12.51-.2,1.02-.26,1.52-.04.34-.26.8-.51,1.03l-2.08,1.91c-.25.23-.41.69-.35,1.02l.39,2.27c.06.34.34.46.62.27l2.08-1.37c.28-.19.64-.09.83.19.13.18.26.34.41.5.23.25.36.67.24.99l-1.06,2.87c-.12.32.06.64.39.71l1.57.35c.33.07.73-.11.89-.41l1.47-2.81c.16-.3.56-.59.89-.67.32-.08.64-.19.97-.32.32-.13.64.01.74.34l.53,1.76c.1.33.39.42.66.21l2.35-1.85c.27-.21.47-.66.45-1l-.14-2.23c-.02-.34.15-.82.37-1.08.38-.46.75-.94,1.09-1.44.19-.28.62-.5.96-.48l1.51.07c.34.02.73-.22.87-.53l1.42-3.18c.14-.31,0-.67-.32-.8l-1.22-.52c-.31-.13-.49-.51-.42-.84.12-.51.2-1.02.26-1.52.04-.34.26-.8.51-1.03l2.08-1.91c.25-.23.41-.69.35-1.02Zm-10.03,12.09c-2.55,2-4.98,1.46-5.44-1.22-.46-2.67,1.23-6.46,3.78-8.46,2.55-2,4.98-1.46,5.44,1.22.46,2.67-1.23,6.46-3.78,8.46Z"/>
      </g>
    </g>
  </g>
  <g id="Coffee">
    <ellipse id="Shadow-2" data-name="Shadow" class="cls-24" cx="114.53" cy="76.5" rx="7.89" ry="4.56"/>
    <g id="Coffee-2" data-name="Coffee">
      <g>
        <path class="cls-22" d="m109.15,62.52c3.01-1.15,7.83-1.2,10.77-.12,2.94,1.08,2.96,2.89.04,4.03-2.91,1.15-7.73,1.2-10.77.12-3.04-1.08-3.06-2.89-.04-4.03Z"/>
        <path class="cls-32" d="m109.15,62.52c3.01-1.15,7.83-1.2,10.77-.12,2.94,1.08,2.96,2.89.04,4.03-2.91,1.15-7.73,1.2-10.77.12-3.04-1.08-3.06-2.89-.04-4.03Z"/>
      </g>
      <g id="Soda">
        <g id="Coffe">
          <g>
            <g>
              <path class="cls-20" d="m114.59,78.87c-1.65,0-3.2-.32-4.37-.9-1.01-.5-1.6-1.13-1.66-1.78l-.04-.38h-.01l-1.57-17.98,15.17.02-1.57,18.01-.04.34c-.06.65-.63,1.29-1.6,1.78-1.13.58-2.66.89-4.3.89Z"/>
              <path class="cls-10" d="m107.4,58.25l14.25.02-1.5,17.12h-.01l-.07.77c-.05.5-.55,1.02-1.37,1.45-1.06.54-2.56.85-4.11.85s-3.07-.3-4.19-.85c-.86-.42-1.38-.95-1.43-1.44l-.06-.54-1.52-17.36m-.92-.84l1.64,18.82h.01c.07.77.7,1.53,1.89,2.12,1.27.63,2.92.94,4.56.94s3.27-.31,4.5-.94c1.15-.59,1.76-1.35,1.83-2.12h.01l1.64-18.8-16.09-.02h0Z"/>
            </g>
            <g>
              <path class="cls-22" d="m106.07,58.99l-.29-3.22h2.04c.23-.15.49-.29.77-.42,3.36-1.6,8.72-1.6,11.97,0,.27.13.51.28.74.42h1.99l-.29,3.22h0c0,1.05-.81,2.1-2.44,2.9-3.25,1.6-8.61,1.6-11.97,0-1.68-.8-2.52-1.85-2.52-2.9Z"/>
              <g class="cls-4">
                <path d="m106.07,58.99l-.29-3.22h2.04c.23-.15.49-.29.77-.42,3.36-1.6,8.72-1.6,11.97,0,.27.13.51.28.74.42h1.99l-.29,3.22h0c0,1.05-.81,2.1-2.44,2.9-3.25,1.6-8.61,1.6-11.97,0-1.68-.8-2.52-1.85-2.52-2.9Z"/>
              </g>
              <path class="cls-22" d="m108.38,52.78c3.48-1.65,9.02-1.65,12.38,0,3.36,1.65,3.36,4.34,0,5.99-3.36,1.65-8.9,1.65-12.38,0-3.48-1.65-3.48-4.34,0-5.99Z"/>
            </g>
          </g>
        </g>
      </g>
      <g>
        <path class="cls-22" d="m122.13,64.44l-.02.31v.24s-.5,6.29-.5,6.29c0,.43-.29.85-.85,1.24-.05.03-.1.07-.15.1-.26.15-.55.29-.89.43-1.32.52-3.06.8-4.83.84-.25,0-.5,0-.75,0-1.65-.03-3.28-.27-4.57-.73-.46-.16-.84-.35-1.16-.54-.05-.03-.1-.06-.15-.1-.56-.38-.84-.81-.85-1.24l-.48-6.29-.02-.27s0,.02,0,.04c.12.67.88,1.31,2.27,1.81,1.49.53,3.41.79,5.33.78,1.98-.01,3.96-.31,5.44-.89,1.43-.57,2.15-1.28,2.17-2Z"/>
        <path class="cls-17" d="m122.13,64.44l-.02.31v.24s-.5,6.29-.5,6.29c0,.43-.29.85-.85,1.24-.05.03-.1.07-.15.1-.26.15-.55.29-.89.43-1.32.52-3.06.8-4.83.84-.25,0-.5,0-.75,0-1.65-.03-3.28-.27-4.57-.73-.46-.16-.84-.35-1.16-.54-.05-.03-.1-.06-.15-.1-.56-.38-.84-.81-.85-1.24l-.48-6.29-.02-.27s0,.02,0,.04c.12.67.88,1.31,2.27,1.81,1.49.53,3.41.79,5.33.78,1.98-.01,3.96-.31,5.44-.89,1.43-.57,2.15-1.28,2.17-2Z"/>
      </g>
      <g>
        <path class="cls-26" d="m117.04,71.55c.25-.35.39-.77.59-1.15.4-.75.99-1.26,1.74-1.56.1-.04.23,0,.27.1.39.77.17,1.86-.61,2.66-.77.79-1.85,1.04-2.63.69-.04-.02-.06-.11-.02-.13.25-.15.47-.35.66-.61Z"/>
        <path class="cls-26" d="m118.95,68.64c-.4.16-.78.41-1.1.69-.34.3-.6.69-.79,1.1-.29.63-.56,1.02-.99,1.35-.09.07-.24.05-.3-.04-.52-.77-.33-1.97.51-2.83.8-.82,1.91-1.06,2.7-.65.16.08.14.32-.02.39Z"/>
      </g>
      <g>
        <path class="cls-22" d="m107.44,55.11h0s.53-2.63.53-2.63l4.41-.05c1.43-.22,2.97-.24,4.38-.05l4.28-.05.59,2.62h0c.29.95-.36,1.96-1.96,2.71-2.73,1.28-7.26,1.33-10.12.11-1.67-.71-2.37-1.7-2.09-2.66Z"/>
        <path class="cls-30" d="m107.44,55.11h0s.53-2.63.53-2.63l4.41-.05c1.43-.22,2.97-.24,4.38-.05l4.28-.05.59,2.62h0c.29.95-.36,1.96-1.96,2.71-2.73,1.28-7.26,1.33-10.12.11-1.67-.71-2.37-1.7-2.09-2.66Z"/>
        <path class="cls-22" d="m109.86,50.78c2.6-1.12,6.76-1.16,9.29-.1,2.54,1.06,2.55,2.82.04,3.94-2.51,1.12-6.67,1.16-9.29.1-2.62-1.06-2.64-2.82-.04-3.94Z"/>
        <path class="cls-22" d="m108.83,52.77s.07.18.29.37c.21.17.55.39,1.08.61,1.16.46,2.75.73,4.38.71,1.63-.02,3.19-.31,4.29-.8.52-.23.84-.46,1.03-.64.21-.2.27-.34.27-.38,0-.07-.23-.53-1.32-.98-1.11-.46-2.68-.72-4.31-.7-1.63.02-3.22.31-4.36.8-1.08.46-1.34.92-1.35,1.01Z"/>
        <g class="cls-1">
          <path d="m108.83,52.77s.07.18.29.37c.21.17.55.39,1.08.61,1.16.46,2.75.73,4.38.71,1.63-.02,3.19-.31,4.29-.8.52-.23.84-.46,1.03-.64.21-.2.27-.34.27-.38,0-.07-.23-.53-1.32-.98-1.11-.46-2.68-.72-4.31-.7-1.63.02-3.22.31-4.36.8-1.08.46-1.34.92-1.35,1.01Z"/>
        </g>
        <path class="cls-22" d="m109.13,53.14c.21.17.55.39,1.08.61,1.16.46,2.75.73,4.38.71,1.63-.02,3.19-.31,4.29-.8.52-.23.84-.46,1.03-.64-.19-.17-.52-.4-1.04-.61-1.11-.46-2.68-.72-4.31-.7-1.63.02-3.22.31-4.36.8-.53.23-.86.45-1.06.63Z"/>
        <g class="cls-4">
          <path d="m109.13,53.14c.21.17.55.39,1.08.61,1.16.46,2.75.73,4.38.71,1.63-.02,3.19-.31,4.29-.8.52-.23.84-.46,1.03-.64-.19-.17-.52-.4-1.04-.61-1.11-.46-2.68-.72-4.31-.7-1.63.02-3.22.31-4.36.8-.53.23-.86.45-1.06.63Z"/>
        </g>
        <g class="cls-1">
          <path d="m111.74,53.17c-.38-.24-.85-.34-1.03-.21-.19.12-.03.42.35.67.38.25.85.34,1.03.21.19-.13.03-.43-.35-.67Z"/>
        </g>
      </g>
    </g>
  </g>
  <g id="Laptop">
    <path id="Shadow-3" data-name="Shadow" class="cls-24" d="m45.54,106.57l31.98,18.46c.73.42,1.9.42,2.63,0l47.59-27.48c.73-.42.73-1.1,0-1.52l-31.98-18.46c-.73-.42-1.9-.42-2.63,0l-47.59,27.48c-.73.42-.73,1.1,0,1.52Z"/>
    <g>
      <g>
        <path class="cls-22" d="m48.09,105.28c0,.74.56,1.22,1.24,1.61l28.09,16.22c.69.4,1.8.4,2.48,0l45.32-26.16c.69-.4,1.24-.9,1.24-1.65,0-.74-.56-1.2-1.24-1.6l-28.09-16.22c-.69-.4-1.8-.4-2.48,0l-45.32,26.16c-.69.4-1.24.89-1.24,1.63Z"/>
        <path class="cls-16" d="m48.09,105.28c0,.74.56,1.22,1.24,1.61l28.09,16.22c.69.4,1.8.4,2.48,0l45.32-26.16c.69-.4,1.24-.9,1.24-1.65,0-.74-.56-1.2-1.24-1.6l-28.09-16.22c-.69-.4-1.8-.4-2.48,0l-45.32,26.16c-.69.4-1.24.89-1.24,1.63Z"/>
        <path class="cls-22" d="m49.33,105.09l28.09,16.22c.69.4,1.8.4,2.48,0l45.32-26.16c.69-.4.69-1.04,0-1.43l-28.09-16.22c-.69-.4-1.8-.4-2.48,0l-45.32,26.16c-.69.4-.69,1.04,0,1.43Z"/>
        <path class="cls-13" d="m49.33,105.09l28.09,16.22c.69.4,1.8.4,2.48,0l45.32-26.16c.69-.4.69-1.04,0-1.43l-28.09-16.22c-.69-.4-1.8-.4-2.48,0l-45.32,26.16c-.69.4-.69,1.04,0,1.43Z"/>
        <path class="cls-22" d="m78.66,121.6v1.81c-.45,0-.9-.1-1.24-.3l-28.09-16.22c-.68-.4-1.24-.87-1.24-1.61,0-.7.5-1.18,1.14-1.58-.53.38-.54,1.01.1,1.38l28.09,16.22c.34.2.79.3,1.24.3Z"/>
      </g>
      <path class="cls-22" d="m53.16,103.86l41.64-24.04c.32-.19.85-.19,1.17,0l1.52.85c.32.19.32.49,0,.68l-41.65,24.04c-.32.19-.85.19-1.17,0l-1.51-.85c-.32-.19-.32-.49,0-.68Z"/>
      <path class="cls-15" d="m53.16,103.86l41.64-24.04c.32-.19.85-.19,1.17,0l1.52.85c.32.19.32.49,0,.68l-41.65,24.04c-.32.19-.85.19-1.17,0l-1.51-.85c-.32-.19-.32-.49,0-.68Z"/>
      <g>
        <path class="cls-22" d="m57.25,106.28l41.64-24.04c.32-.19.8-.21,1.07-.06l10.84,6.26c.27.15.22.43-.1.62l-41.59,24.01c-.32.19-.8.21-1.07.06l-10.88-6.23c-.27-.15-.22-.43.1-.62Z"/>
        <path class="cls-16" d="m57.25,106.28l41.64-24.04c.32-.19.8-.21,1.07-.06l10.84,6.26c.27.15.22.43-.1.62l-41.59,24.01c-.32.19-.8.21-1.07.06l-10.88-6.23c-.27-.15-.22-.43.1-.62Z"/>
        <path class="cls-20" d="m93.33,92.33l1.3-.75c.06-.03.06-.08.01-.11l-1.25-.72s-.13-.03-.19,0l-1.3.75c-.06.03-.06.08-.01.11l1.25.72s.13.03.19,0Zm-1.9-2.6l-1.3.75c-.06.03-.06.08-.01.11l1.25.72s.13.03.19,0l1.3-.75c.06-.03.06-.08.01-.11l-1.25-.72s-.13-.03-.19,0Zm-4.21,2.43l-2.21,1.27c-.06.03-.06.08-.01.11l1.25.72s.13.03.19,0l2.21-1.27c.06-.03.06-.08.01-.11l-1.25-.72s-.13-.03-.19,0Zm2.31-1.33l-1.3.75c-.06.03-.06.08-.01.11l1.25.72s.13.03.19,0l1.3-.75c.06-.03.06-.08.01-.11l-1.25-.72s-.13-.03-.19,0Zm-5.12,2.95l-1.3.75c-.06.03-.06.08-.01.11l1.25.72s.13.03.19,0l1.3-.75c.06-.03.06-.08.01-.11l-1.25-.72s-.13-.03-.19,0Zm-1.91,1.1l-1.3.75c-.06.03-.06.08-.01.11l1.25.72s.13.03.19,0l1.3-.75c.06-.03.06-.08.01-.11l-1.25-.72s-.13-.03-.19,0Zm4.89,2.94l1.3-.75c.06-.03.06-.08.01-.11l-1.25-.72s-.13-.03-.19,0l-1.3.75c-.06.03-.06.08-.01.11l1.25.72s.13.03.19,0Zm-1.91,1.1l1.3-.75c.06-.03.06-.08.01-.11l-1.25-.72s-.13-.03-.19,0l-1.3.75c-.06.03-.06.08-.01.11l1.25.72s.13.03.19,0Zm-1.91,1.1l1.3-.75c.06-.03.06-.08.01-.11l-1.25-.72s-.13-.03-.19,0l-1.3.75c-.06.03-.06.08-.01.11l1.25.72s.13.03.19,0Zm-1.91,1.1l1.3-.75c.06-.03.06-.08.01-.11l-1.25-.72s-.13-.03-.19,0l-1.3.75c-.06.03-.06.08-.01.11l1.25.72s.13.03.19,0Zm9.75-7.69l1.3-.75c.06-.03.06-.08.01-.11l-1.25-.72s-.13-.03-.19,0l-1.3.75c-.06.03-.06.08-.01.11l1.25.72s.13.03.19,0Zm-2.13,3.29l2.91-1.68c.06-.03.06-.08.01-.11l-3.03-1.75s-.13-.03-.19,0l-1.5.87c-.06.03-.06.08-.01.11l1.6.93s.04.08-.01.11l-1.2.69c-.06.03-.06.08-.01.11l1.25.72s.13.03.19,0Zm-8.7-.74l-1.3.75c-.06.03-.06.08-.01.11l1.25.72s.13.03.19,0l1.3-.75c.06-.03.06-.08.01-.11l-1.25-.72s-.13-.03-.19,0Zm-1.91,1.1l-1.3.75c-.06.03-.06.08-.01.11l1.25.72s.13.03.19,0l1.3-.75c.06-.03.06-.08.01-.11l-1.25-.72s-.13-.03-.19,0Zm-10.55,11.75s.13.03.19,0l1.3-.75c.06-.03.06-.08.01-.11l-1.25-.72s-.13-.03-.19,0l-1.3.75c-.06.03-.06.08-.01.11l1.25.72Zm-4.7-2.95l-1.3.75c-.06.03-.06.08-.01.11l1.25.72s.13.03.19,0l1.3-.75c.06-.03.06-.08.01-.11l-1.25-.72s-.13-.03-.19,0Zm2.42,2.21s.13.03.19,0l1.3-.75c.06-.03.06-.08.01-.11l-1.25-.72s-.13-.03-.19,0l-1.3.75c-.06.03-.06.08-.01.11l1.25.72Zm5.26,1.18l1.3-.75c.06-.03.06-.08.01-.11l-1.25-.72s-.13-.03-.19,0l-1.3.75c-.06.03-.06.08-.01.11l1.25.72s.13.03.19,0Zm-2.09,1.11s.13.03.19,0l1.3-.75c.06-.03.06-.08.01-.11l-1.25-.72s-.13-.03-.19,0l-1.3.75c-.06.03-.06.08-.01.11l1.25.72Zm-3.67-5.6l-1.3.75c-.06.03-.06.08-.01.11l1.25.72s.13.03.19,0l1.3-.75c.06-.03.06-.08.01-.11l-1.25-.72s-.13-.03-.19,0Zm9.53-5.5l-1.3.75c-.06.03-.06.08-.01.11l1.25.72s.13.03.19,0l1.3-.75c.06-.03.06-.08.01-.11l-1.25-.72s-.13-.03-.19,0Zm-7.62,4.4l-1.3.75c-.06.03-.06.08-.01.11l1.25.72s.13.03.19,0l1.3-.75c.06-.03.06-.08.01-.11l-1.25-.72s-.13-.03-.19,0Zm9.53-5.5l-1.3.75c-.06.03-.06.08-.01.11l1.25.72s.13.03.19,0l1.3-.75c.06-.03.06-.08.01-.11l-1.25-.72s-.13-.03-.19,0Zm-3.81,2.2l-1.3.75c-.06.03-.06.08-.01.11l1.25.72s.13.03.19,0l1.3-.75c.06-.03.06-.08.01-.11l-1.25-.72s-.13-.03-.19,0Zm-1.91,1.1l-1.3.75c-.06.03-.06.08-.01.11l1.25.72s.13.03.19,0l1.3-.75c.06-.03.06-.08.01-.11l-1.25-.72s-.13-.03-.19,0Zm-1.91,1.1l-1.3.75c-.06.03-.06.08-.01.11l1.25.72s.13.03.19,0l1.3-.75c.06-.03.06-.08.01-.11l-1.25-.72s-.13-.03-.19,0Zm8.7.74l1.3-.75c.06-.03.06-.08.01-.11l-1.25-.72s-.13-.03-.19,0l-1.3.75c-.06.03-.06.08-.01.11l1.25.72s.13.03.19,0Zm17.78-16.03l-1.3.75c-.06.03-.06.08-.01.11l1.25.72s.13.03.19,0l1.3-.75c.06-.03.06-.08.01-.11l-1.25-.72s-.13-.03-.19,0Zm-2.31,1.33l-1.3.75c-.06.03-.06.08-.01.11l1.25.72s.13.03.19,0l1.3-.75c.06-.03.06-.08.01-.11l-1.25-.72s-.13-.03-.19,0Zm4.21-2.43l-1.3.75c-.06.03-.06.08-.01.11l1.25.72s.13.03.19,0l1.3-.75c.06-.03.06-.08.01-.11l-1.25-.72s-.13-.03-.19,0Zm-10.53,9.78l1.3-.75c.06-.03.06-.08.01-.11l-1.25-.72s-.13-.03-.19,0l-1.3.75c-.06.03-.06.08-.01.11l1.25.72s.13.03.19,0Zm12.63-10.89s-.13-.03-.19,0l-1.3.75c-.06.03-.06.08-.01.11l1.25.72s.13.03.19,0l1.3-.75c.06-.03.06-.08.01-.11l-1.25-.72Zm-19.87,17.13l1.3-.75c.06-.03.06-.08.01-.11l-1.25-.72s-.13-.03-.19,0l-1.3.75c-.06.03-.06.08-.01.11l1.25.72s.13.03.19,0Zm23.37-13.49l1.3-.75c.06-.03.06-.08.01-.11l-1.25-.72s-.13-.03-.19,0l-1.3.75c-.06.03-.06.08-.01.11l1.25.72s.13.03.19,0Zm-3.69.07l1.3-.75c.06-.03.06-.08.01-.11l-1.25-.72s-.13-.03-.19,0l-1.3.75c-.06.03-.06.08-.01.11l1.25.72s.13.03.19,0Zm1.97-2.68s-.13-.03-.19,0l-1.3.75c-.06.03-.06.08-.01.11l1.25.72s.13.03.19,0l1.3-.75c.06-.03.06-.08.01-.11l-1.25-.72Zm.4-.23l3.03,1.75s.13.03.19,0l1.3-.75c.06-.03.06-.08.01-.11l-3.03-1.75s-.13-.03-.19,0l-1.3.75c-.06.03-.06.08-.01.11Zm-4.4,2.44l-1.3.75c-.06.03-.06.08-.01.11l1.25.72s.13.03.19,0l1.3-.75c.06-.03.06-.08.01-.11l-1.25-.72s-.13-.03-.19,0Zm-14.34,8.28l-1.3.75c-.06.03-.06.08-.01.11l1.25.72s.13.03.19,0l1.3-.75c.06-.03.06-.08.01-.11l-1.25-.72s-.13-.03-.19,0Zm17.96-6.77s.13.03.19,0l1.3-.75c.06-.03.06-.08.01-.11l-1.25-.72s-.13-.03-.19,0l-1.3.75c-.06.03-.06.08-.01.11l1.25.72Zm-16.06,5.67l-1.3.75c-.06.03-.06.08-.01.11l1.25.72s.13.03.19,0l1.3-.75c.06-.03.06-.08.01-.11l-1.25-.72s-.13-.03-.19,0Zm-14.93,12.22s.13.03.19,0l1.3-.75c.06-.03.06-.08.01-.11l-1.25-.72s-.13-.03-.19,0l-1.3.75c-.06.03-.06.08-.01.11l1.25.72Zm-2.22-2.32l-1.3.75c-.06.03-.06.08-.01.11l1.25.72s.13.03.19,0l1.3-.75c.06-.03.06-.08.01-.11l-1.25-.72s-.13-.03-.19,0Zm4.31,1.21l1.3-.75c.06-.03.06-.08.01-.11l-1.25-.72s-.13-.03-.19,0l-1.3.75c-.06.03-.06.08-.01.11l1.25.72s.13.03.19,0Zm1.91-1.1l1.3-.75c.06-.03.06-.08.01-.11l-1.25-.72s-.13-.03-.19,0l-1.3.75c-.06.03-.06.08-.01.11l1.25.72s.13.03.19,0Zm1.91-1.1l1.3-.75c.06-.03.06-.08.01-.11l-1.25-.72s-.13-.03-.19,0l-1.3.75c-.06.03-.06.08-.01.11l1.25.72s.13.03.19,0Zm-6.22-.11l-1.3.75c-.06.03-.06.08-.01.11l1.25.72s.13.03.19,0l1.3-.75c.06-.03.06-.08.01-.11l-1.25-.72s-.13-.03-.19,0Zm1.91-1.1l-1.3.75c-.06.03-.06.08-.01.11l1.25.72s.13.03.19,0l1.3-.75c.06-.03.06-.08.01-.11l-1.25-.72s-.13-.03-.19,0Zm7.62-4.4l-1.3.75c-.06.03-.06.08-.01.11l1.25.72s.13.03.19,0l1.3-.75c.06-.03.06-.08.01-.11l-1.25-.72s-.13-.03-.19,0Zm-1.91,1.1l-1.3.75c-.06.03-.06.08-.01.11l1.25.72s.13.03.19,0l1.3-.75c.06-.03.06-.08.01-.11l-1.25-.72s-.13-.03-.19,0Zm3.81-2.2l-1.3.75c-.06.03-.06.08-.01.11l1.25.72s.13.03.19,0l1.3-.75c.06-.03.06-.08.01-.11l-1.25-.72s-.13-.03-.19,0Zm-7.62,4.4l-1.3.75c-.06.03-.06.08-.01.11l1.25.72s.13.03.19,0l1.3-.75c.06-.03.06-.08.01-.11l-1.25-.72s-.13-.03-.19,0Zm1.91-1.1l-1.3.75c-.06.03-.06.08-.01.11l1.25.72s.13.03.19,0l1.3-.75c.06-.03.06-.08.01-.11l-1.25-.72s-.13-.03-.19,0Zm-2.43,7.17l1.3-.75c.06-.03.06-.08.01-.11l-1.25-.72s-.13-.03-.19,0l-1.3.75c-.06.03-.06.08-.01.11l1.25.72s.13.03.19,0Zm-10.05-.47l-1.25-.72s-.13-.03-.19,0l-1.3.75c-.06.03-.06.08-.01.11l1.25.72s.13.03.19,0l1.3-.75c.06-.03.06-.08.01-.11Zm2.48.62l-1.25-.72s-.13-.03-.19,0l-2.01,1.16c-.06.03-.06.08-.01.11l1.25.72s.13.03.19,0l2.01-1.16c.06-.03.06-.08.01-.11Zm-4.35-2.05l-1.25-.72s-.13-.03-.19,0l-1.6.93c-.06.03-.06.08-.01.11l1.25.72s.13.03.19,0l1.6-.93c.06-.03.06-.08.01-.11Zm1.23-.71s.13.03.19,0l1.3-.75c.06-.03.06-.08.01-.11l-1.25-.72s-.13-.03-.19,0l-1.3.75c-.06.03-.06.08-.01.11l1.25.72Zm5.4,3.5l-1.25-.72s-.13-.03-.19,0l-2.51,1.45c-.06.03-.06.08-.01.11l1.25.72s.13.03.19,0l2.51-1.45c.06-.03.06-.08.01-.11Zm.88,1.55l-1.25-.72s-.13-.03-.19,0l-1.6.93c-.06.03-.06.08-.01.11l1.25.72s.13.03.19,0l1.6-.93c.06-.03.06-.08.01-.11Zm7.89-13.23s.13.03.19,0l1.3-.75c.06-.03.06-.08.01-.11l-1.25-.72s-.13-.03-.19,0l-1.3.75c-.06.03-.06.08-.01.11l1.25.72Zm-3.81,2.2s.13.03.19,0l1.3-.75c.06-.03.06-.08.01-.11l-1.25-.72s-.13-.03-.19,0l-1.3.75c-.06.03-.06.08-.01.11l1.25.72Zm-8.45,4.88s.13.03.19,0l1.3-.75c.06-.03.06-.08.01-.11l-1.25-.72s-.13-.03-.19,0l-1.3.75c-.06.03-.06.08-.01.11l1.25.72Zm10.36-5.98s.13.03.19,0l1.3-.75c.06-.03.06-.08.01-.11l-1.25-.72s-.13-.03-.19,0l-1.3.75c-.06.03-.06.08-.01.11l1.25.72Zm-3.81,2.2s.13.03.19,0l1.3-.75c.06-.03.06-.08.01-.11l-1.25-.72s-.13-.03-.19,0l-1.3.75c-.06.03-.06.08-.01.11l1.25.72Zm-1.24,10s-.13-.03-.19,0l-2.01,1.16c-.06.03-.06.08-.01.11l1.25.72s.13.03.19,0l2.01-1.16c.06-.03.06-.08.01-.11l-1.25-.72Zm-1.5-8.42s.13.03.19,0l1.3-.75c.06-.03.06-.08.01-.11l-1.25-.72s-.13-.03-.19,0l-1.3.75c-.06.03-.06.08-.01.11l1.25.72Zm-1.91,1.1s.13.03.19,0l1.3-.75c.06-.03.06-.08.01-.11l-1.25-.72s-.13-.03-.19,0l-1.3.75c-.06.03-.06.08-.01.11l1.25.72Zm38.71-13.06s-.13-.03-.19,0l-3.21,1.85c-.06.03-.06.08-.01.11l1.25.72s.13.03.19,0l3.21-1.85c.06-.03.06-.08.01-.11l-1.25-.72Zm-4.21,2.43s-.13-.03-.19,0l-1.3.75c-.06.03-.06.08-.01.11l1.25.72s.13.03.19,0l1.3-.75c.06-.03.06-.08.01-.11l-1.25-.72Zm-25.72,14.33l1.3-.75c.06-.03.06-.08.01-.11l-1.25-.72s-.13-.03-.19,0l-1.3.75c-.06.03-.06.08-.01.11l1.25.72s.13.03.19,0Zm21.91-12.13s-.13-.03-.19,0l-1.3.75c-.06.03-.06.08-.01.11l1.25.72s.13.03.19,0l1.3-.75c.06-.03.06-.08.01-.11l-1.25-.72Zm9.93-5.73s-.13-.03-.19,0l-1.3.75c-.06.03-.06.08-.01.11l1.25.72s.13.03.19,0l1.3-.75c.06-.03.06-.08.01-.11l-1.25-.72Zm3.15-.38l-3.03-1.75s-.13-.03-.19,0l-1.3.75c-.06.03-.06.08-.01.11l3.03,1.75s.13.03.19,0l1.3-.75c.06-.03.06-.08.01-.11Zm-20.2,10.22s-.13-.03-.19,0l-1.6.93c-.06.03-.06.08-.01.11l1.25.72s.13.03.19,0l1.6-.93c.06-.03.06-.08.01-.11l-1.25-.72Zm4.81-2.78s-.13-.03-.19,0l-2.01,1.16c-.06.03-.06.08-.01.11l1.25.72s.13.03.19,0l2.01-1.16c.06-.03.06-.08.01-.11l-1.25-.72Zm-9.23,5.33s-.13-.03-.19,0l-10.73,6.2c-.06.03-.06.08-.01.11l1.25.72s.13.03.19,0l10.73-6.2c.06-.03.06-.08.01-.11l-1.25-.72Zm-11.33,6.54s-.13-.03-.19,0l-1.6.93c-.06.03-.06.08-.01.11l1.25.72s.13.03.19,0l1.6-.93c.06-.03.06-.08.01-.11l-1.25-.72Zm13.54-7.82s-.13-.03-.19,0l-1.6.93c-.06.03-.06.08-.01.11l1.25.72s.13.03.19,0l1.6-.93c.06-.03.06-.08.01-.11l-1.25-.72Zm-15.75,9.09s-.13-.03-.19,0l-1.6.93c-.06.03-.06.08-.01.11l1.25.72s.13.03.19,0l1.6-.93c.06-.03.06-.08.01-.11l-1.25-.72Zm20.16-11.64s-.13-.03-.19,0l-1.6.93c-.06.03-.06.08-.01.11l1.25.72s.13.03.19,0l1.6-.93c.06-.03.06-.08.01-.11l-1.25-.72Zm6.82-3.94s-.13-.03-.19,0l-1.3.75c-.06.03-.06.08-.01.11l1.25.72s.13.03.19,0l1.3-.75c.06-.03.06-.08.01-.11l-1.25-.72Zm4.27-2.98l1.3-.75c.06-.03.06-.08.01-.11l-1.25-.72s-.13-.03-.19,0l-1.3.75c-.06.03-.06.08-.01.11l1.25.72s.13.03.19,0Zm-7.78.37l1.3-.75c.06-.03.06-.08.01-.11l-1.25-.72s-.13-.03-.19,0l-1.3.75c-.06.03-.06.08-.01.11l1.25.72s.13.03.19,0Zm-5.06,7.04l3.81-2.2c.06-.03.06-.08.01-.11l-1.25-.72s-.13-.03-.19,0l-3.81,2.2c-.06.03-.06.08-.01.11l1.25.72s.13.03.19,0Zm10.74-6.31s.13.03.19,0l1.3-.75c.06-.03.06-.08.01-.11l-1.25-.72s-.13-.03-.19,0l-1.3.75c-.06.03-.06.08-.01.11l1.25.72Zm-1.59-1.04l1.3-.75c.06-.03.06-.08.01-.11l-1.25-.72s-.13-.03-.19,0l-1.3.75c-.06.03-.06.08-.01.11l1.25.72s.13.03.19,0Zm-11.06,8.44l1.3-.75c.06-.03.06-.08.01-.11l-1.25-.72s-.13-.03-.19,0l-1.3.75c-.06.03-.06.08-.01.11l1.25.72s.13.03.19,0Zm8.44-4.97s.13.03.19,0l1.3-.75c.06-.03.06-.08.01-.11l-1.25-.72s-.13-.03-.19,0l-1.3.75c-.06.03-.06.08-.01.11l1.25.72Zm-17.96,10.47l1.3-.75c.06-.03.06-.08.01-.11l-1.25-.72s-.13-.03-.19,0l-1.3.75c-.06.03-.06.08-.01.11l1.25.72s.13.03.19,0Zm1.91-1.1l1.3-.75c.06-.03.06-.08.01-.11l-1.25-.72s-.13-.03-.19,0l-1.3.75c-.06.03-.06.08-.01.11l1.25.72s.13.03.19,0Zm-3.81,2.2l1.3-.75c.06-.03.06-.08.01-.11l-1.25-.72s-.13-.03-.19,0l-1.3.75c-.06.03-.06.08-.01.11l1.25.72s.13.03.19,0Zm7.62-4.4l1.3-.75c.06-.03.06-.08.01-.11l-1.25-.72s-.13-.03-.19,0l-1.3.75c-.06.03-.06.08-.01.11l1.25.72s.13.03.19,0Zm-1.91,1.1l1.3-.75c.06-.03.06-.08.01-.11l-1.25-.72s-.13-.03-.19,0l-1.3.75c-.06.03-.06.08-.01.11l1.25.72s.13.03.19,0Zm3.81-2.2l1.3-.75c.06-.03.06-.08.01-.11l-1.25-.72s-.13-.03-.19,0l-1.3.75c-.06.03-.06.08-.01.11l1.25.72s.13.03.19,0Zm10.4-15.31s.13.03.19,0l1.3-.75c.06-.03.06-.08.01-.11l-.33-.19s-.13-.03-.19,0l-1.3.75c-.06.03-.06.08-.01.11l.33.19Zm-9.47,6s.13.03.19,0l1.3-.75c.06-.03.06-.08.01-.11l-1.25-.72s-.13-.03-.19,0l-1.3.75c-.06.03-.06.08-.01.11l1.25.72Zm3.81-2.2s.13.03.19,0l1.3-.75c.06-.03.06-.08.01-.11l-1.25-.72s-.13-.03-.19,0l-1.3.75c-.06.03-.06.08-.01.11l1.25.72Zm-6.14,3.54s.13.03.19,0l1.3-.75c.06-.03.06-.08.01-.11l-1.25-.72s-.13-.03-.19,0l-1.3.75c-.06.03-.06.08-.01.11l1.25.72Zm4.23-2.44s.13.03.19,0l1.3-.75c.06-.03.06-.08.01-.11l-1.25-.72s-.13-.03-.19,0l-1.3.75c-.06.03-.06.08-.01.11l1.25.72Zm-8.04,4.64s.13.03.19,0l1.3-.75c.06-.03.06-.08.01-.11l-1.25-.72s-.13-.03-.19,0l-1.3.75c-.06.03-.06.08-.01.11l1.25.72Zm1.91-1.1s.13.03.19,0l1.3-.75c.06-.03.06-.08.01-.11l-1.25-.72s-.13-.03-.19,0l-1.3.75c-.06.03-.06.08-.01.11l1.25.72Zm9.89-6.24s.13.03.19,0l1.3-.75c.06-.03.06-.08.01-.11l-.33-.19s-.13-.03-.19,0l-1.3.75c-.06.03-.06.08-.01.11l.33.19Zm5.72-3.3s.13.03.19,0l1.3-.75c.06-.03.06-.08.01-.11l-.33-.19s-.13-.03-.19,0l-1.3.75c-.06.03-.06.08-.01.11l.33.19Zm2.62,1.51s.13.03.19,0l1.3-.75c.06-.03.06-.08.01-.11l-1.25-.72s-.13-.03-.19,0l-1.3.75c-.06.03-.06.08-.01.11l1.25.72Zm3.63,4.18l1.3-.75c.06-.03.06-.08.01-.11l-1.25-.72s-.13-.03-.19,0l-1.3.75c-.06.03-.06.08-.01.11l1.25.72s.13.03.19,0Zm-10.06-3.49s.13.03.19,0l1.3-.75c.06-.03.06-.08.01-.11l-.33-.19s-.13-.03-.19,0l-1.3.75c-.06.03-.06.08-.01.11l.33.19Zm-15.61,9.54s.13.03.19,0l1.3-.75c.06-.03.06-.08.01-.11l-1.25-.72s-.13-.03-.19,0l-1.3.75c-.06.03-.06.08-.01.11l1.25.72Z"/>
      </g>
      <g id="Tuch_Pad" data-name="Tuch Pad">
        <polygon class="cls-22" points="84.71 106.65 84.99 106.81 92.52 111.16 105.91 103.43 106.19 103.27 98.38 98.76 84.71 106.65"/>
        <polygon class="cls-22" points="105.74 103.53 98.38 99.28 85.16 106.91 92.52 111.16 105.74 103.53"/>
        <polygon class="cls-16" points="105.74 103.53 98.38 99.28 85.16 106.91 92.52 111.16 105.74 103.53"/>
      </g>
    </g>
    <g>
      <path class="cls-22" d="m47.55,103.84c-.54-.25-.69-.68-.74-1.44l-2.44-35.63c-.05-.76.46-1.7,1.15-2.1l45.32-26.16c.69-.4,1.19-.61,1.82-.18.66.45.65.67.7,1.43l2.43,35.63c.05.76-.46,1.7-1.15,2.1l-45.32,26.16c-.69.4-1.07.51-1.77.19Z"/>
      <path class="cls-15" d="m47.55,103.84c-.54-.25-.69-.68-.74-1.44l-2.44-35.63c-.05-.76.46-1.7,1.15-2.1l45.32-26.16c.69-.4,1.19-.61,1.82-.18.66.45.65.67.7,1.43l2.43,35.63c.05.76-.46,1.7-1.15,2.1l-45.32,26.16c-.69.4-1.07.51-1.77.19Z"/>
      <path class="cls-22" d="m93.35,39.77c-.05-.76-.65-1.06-1.34-.66l-45.32,26.16c-.34.2-.64.53-.85.91l-1.18-.59h0c.21-.38.51-.71.85-.91l45.31-26.16c.69-.4,1.19-.61,1.82-.18.67.46.65.67.7,1.43Z"/>
      <path class="cls-16" d="m93.35,39.77c-.05-.76-.65-1.06-1.34-.66l-45.32,26.16c-.34.2-.64.53-.85.91l-1.18-.59h0c.21-.38.51-.71.85-.91l45.31-26.16c.69-.4,1.19-.61,1.82-.18.67.46.65.67.7,1.43Z"/>
      <path class="cls-22" d="m49.23,103.71c-.62.37-1.02.41-1.68.14-.51-.21-.69-.68-.74-1.44l-2.44-35.63c-.03-.38.09-.81.3-1.18l1.18.59h0c-.21.38-.32.8-.3,1.19l2.44,35.63c.05.71.66,1.06,1.24.71Z"/>
      <path class="cls-22" d="m47.49,66.63l43.61-25.17c.41-.24.77-.06.8.4l2.27,33.23c.03.46-.28,1.02-.69,1.26l-43.61,25.17c-.41.24-.77.06-.8-.4l-2.27-33.23c-.03-.46.28-1.02.69-1.26Z"/>
      <path class="cls-11" d="m47.49,66.63c-.41.24-.72.8-.69,1.26l2.23,32.68,43.11-24.88c.41-.24.72-.8.69-1.26l-2.23-32.68-43.11,24.88Z"/>
    </g>
  </g>
  <g id="Window">
    <g id="Window-2" data-name="Window">
      <path class="cls-28" d="m95.81,44.79s0-.05-.02-.08c0,0,0-.01,0-.02,0-.03-.02-.05-.03-.07-.01-.04-.03-.07-.06-.1,0-.02-.02-.03-.03-.04,0-.01-.02-.02-.03-.03-.02-.02-.04-.04-.06-.05,0,0,0,0,0,0-.02-.02-.05-.03-.08-.04-.16-.07-.37-.04-.59.08l-42.91,24.69c-.47.27-.82.92-.76,1.83l2.11,30.88c-.03-.39-.03-.39-.03-.38v.18c.03.22.17.4.36.49.01,0,.03.01.04.02.02,0,.03.02.05.02.02.01.05.02.08.02.04,0,.08.01.11.01.09,0,.19-.03.29-.08h.02s0-.01,0-.01l.81-.47,42.07-24.22c.47-.27.82-.92.79-1.44l-2.12-31.08s0-.07-.01-.1Z"/>
      <g>
        <path class="cls-22" d="m95.5,44.36c-.16-.07-.37-.04-.59.08l-42.91,24.69c-.47.27-.82.92-.79,1.44l.11,1.59-1.17-.59-.11-1.57c-.04-.52.32-1.17.79-1.44l42.91-24.69c.24-.14.47-.15.64-.06.17.09.93.46,1.12.55Z"/>
        <path class="cls-22" d="m95.83,44.89c-.04-.52-.45-.72-.92-.45l-42.91,24.69c-.47.27-.82.92-.79,1.44l.11,1.59,44.61-25.67-.11-1.6Z"/>
        <g class="cls-4">
          <path class="cls-11" d="m94.91,44.44l-42.91,24.69c-.23.14-.44.36-.58.62l-1.17-.58c.14-.26.34-.48.57-.61l42.91-24.69c.24-.14.47-.15.64-.06.16.09.93.46,1.12.55-.16-.07-.37-.04-.59.08Z"/>
        </g>
        <path class="cls-31" d="m50.15,71.57l-.11-1.58c-.02-.27.07-.56.21-.83l1.17.58c-.15.26-.23.55-.21.82l.11,1.59-1.17-.59Z"/>
      </g>
      <g>
        <path class="cls-11" d="m92.45,46.65c-.18.1-.31.4-.29.67.02.26.18.4.36.29.18-.1.31-.4.29-.67-.02-.27-.18-.4-.36-.29Z"/>
        <path class="cls-11" d="m93.62,45.97c-.18.1-.31.4-.29.67.02.26.18.4.36.29.18-.1.31-.4.29-.67-.02-.27-.18-.4-.36-.29Z"/>
        <path class="cls-11" d="m94.79,45.3c-.18.1-.31.4-.29.67.02.26.18.4.36.29.18-.1.31-.4.29-.67-.02-.27-.18-.4-.36-.29Z"/>
      </g>
      <path class="cls-29" d="m53.68,102.13l-.05-.02-.97-.48c-.26-.13-.45-.36-.51-.63,0-.04-.01-.08-.02-.12l-2-29.31,1.17.59,2.01,29.47c.01.2.14.37.31.46,0,0,.02.01.03.02,0,0,0,0,0,0h0Z"/>
    </g>
    <g id="Code" class="cls-1">
      <g>
        <g class="cls-2">
          <path class="cls-11" d="m54.98,89l1.16-.67c.12-.07.22-.02.23.11l.03.41c0,.13-.08.29-.2.36l-1.16.67c-.12.07-.22.02-.23-.11l-.03-.41c0-.13.08-.29.19-.36Z"/>
          <path class="cls-11" d="m55.09,90.64l1.16-.67c.12-.07.22-.02.23.11l.03.41c0,.13-.08.29-.2.36l-1.16.67c-.12.07-.22.02-.23-.11l-.03-.41c0-.13.08-.29.19-.36Z"/>
          <path class="cls-11" d="m55.21,92.27l1.16-.67c.12-.07.22-.02.23.11l.03.41c0,.13-.08.29-.2.36l-1.16.67c-.12.07-.22.02-.23-.11l-.03-.41c0-.13.08-.29.19-.36Z"/>
          <path class="cls-11" d="m55.32,93.91l1.16-.67c.12-.07.22-.02.23.11l.03.41c0,.13-.08.29-.2.36l-1.16.67c-.12.07-.22.02-.23-.11l-.03-.41c0-.13.08-.29.19-.36Z"/>
        </g>
        <g class="cls-2">
          <path class="cls-11" d="m54.43,80.89l1.16-.67c.12-.07.22-.02.23.11l.03.41c0,.13-.08.29-.2.36l-1.16.67c-.12.07-.22.02-.23-.11l-.03-.41c0-.13.08-.29.19-.36Z"/>
          <path class="cls-11" d="m54.54,82.53l1.16-.67c.12-.07.22-.02.23.11l.03.41c0,.13-.08.29-.2.36l-1.16.67c-.12.07-.22.02-.23-.11l-.03-.41c0-.13.08-.29.19-.36Z"/>
          <path class="cls-11" d="m54.65,84.16l1.16-.67c.12-.07.22-.02.23.11l.03.41c0,.13-.08.29-.2.36l-1.16.67c-.12.07-.22.02-.23-.11l-.03-.41c0-.13.08-.29.19-.36Z"/>
          <path class="cls-11" d="m54.76,85.8l1.16-.67c.12-.07.22-.02.23.11l.03.41c0,.13-.08.29-.2.36l-1.16.67c-.12.07-.22.02-.23-.11l-.03-.41c0-.13.08-.29.19-.36Z"/>
          <path class="cls-11" d="m55.54,97.11l1.16-.67c.12-.07.22-.02.23.11l.03.41c0,.13-.08.29-.2.36l-1.16.67c-.12.07-.22.02-.23-.11l-.03-.41c0-.13.08-.29.19-.36Z"/>
          <path class="cls-11" d="m55.65,98.75l1.16-.67c.12-.07.22-.02.23.11l.03.41c0,.13-.08.29-.2.36l-1.16.67c-.12.07-.22.02-.23-.11l-.03-.41c0-.13.08-.29.19-.36Z"/>
        </g>
        <g class="cls-2">
          <path class="cls-11" d="m53.88,72.78l1.16-.67c.12-.07.22-.02.23.11l.03.41c0,.13-.08.29-.2.36l-1.16.67c-.12.07-.22.02-.23-.11l-.03-.41c0-.13.08-.29.19-.36Z"/>
          <path class="cls-11" d="m53.99,74.42l1.16-.67c.12-.07.22-.02.23.11l.03.41c0,.13-.08.29-.2.36l-1.16.67c-.12.07-.22.02-.23-.11l-.03-.41c0-.13.08-.29.2-.36Z"/>
          <path class="cls-11" d="m54.1,76.05l1.16-.67c.12-.07.22-.02.23.11l.03.41c0,.13-.08.29-.2.36l-1.16.67c-.12.07-.22.02-.23-.11l-.03-.41c0-.13.08-.29.19-.36Z"/>
          <path class="cls-11" d="m54.21,77.69l1.16-.67c.12-.07.22-.02.23.11l.03.41c0,.13-.08.29-.2.36l-1.16.67c-.12.07-.22.02-.23-.11l-.03-.41c0-.13.08-.29.2-.36Z"/>
        </g>
      </g>
      <g>
        <path class="cls-26" d="m94.3,63.44l-8.42,4.86c-.31.18-.55.61-.52.95l.83,12.2c.02.35.3.48.61.3l8.42-4.86c.31-.18.55-.61.52-.95l-.83-12.2c-.02-.35-.3-.48-.61-.3Z"/>
        <g>
          <g>
            <path class="cls-22" d="m94.12,72.73l-.78.45c-.16.09-.28.3-.27.46.01.16.15.22.31.13l.77-.45c.16-.09.28-.3.27-.46-.01-.16-.15-.22-.31-.13Z"/>
            <path class="cls-5" d="m94.12,72.73l-.78.45c-.16.09-.28.3-.27.46.01.16.15.22.31.13l.77-.45c.16-.09.28-.3.27-.46-.01-.16-.15-.22-.31-.13Z"/>
          </g>
          <g>
            <path class="cls-22" d="m93.6,65.07l-.77.45c-.16.09-.28.3-.27.46.01.16.15.22.31.13l.78-.45c.16-.09.28-.3.27-.46-.01-.16-.15-.22-.31-.13Z"/>
            <path class="cls-5" d="m93.6,65.07l-.77.45c-.16.09-.28.3-.27.46.01.16.15.22.31.13l.78-.45c.16-.09.28-.3.27-.46-.01-.16-.15-.22-.31-.13Z"/>
          </g>
          <g>
            <path class="cls-22" d="m92.62,67.23l-.78.45c-.16.09-.28.3-.27.46.01.16.15.22.31.13l.77-.45c.16-.09.28-.3.27-.46-.01-.16-.15-.22-.31-.13Z"/>
            <path class="cls-5" d="m92.62,67.23l-.78.45c-.16.09-.28.3-.27.46.01.16.15.22.31.13l.77-.45c.16-.09.28-.3.27-.46-.01-.16-.15-.22-.31-.13Z"/>
          </g>
          <g>
            <path class="cls-22" d="m92.72,68.76l-.78.45c-.16.09-.28.3-.27.46.01.16.15.22.31.13l.77-.45c.16-.09.28-.3.27-.46-.01-.16-.15-.22-.31-.13Z"/>
            <path class="cls-5" d="m92.72,68.76l-.78.45c-.16.09-.28.3-.27.46.01.16.15.22.31.13l.77-.45c.16-.09.28-.3.27-.46-.01-.16-.15-.22-.31-.13Z"/>
          </g>
          <g>
            <path class="cls-22" d="m93.91,69.67l-.77.45c-.16.09-.28.3-.27.46.01.16.15.22.31.13l.77-.45c.16-.09.28-.3.27-.46-.01-.16-.15-.22-.31-.13Z"/>
            <path class="cls-5" d="m93.91,69.67l-.77.45c-.16.09-.28.3-.27.46.01.16.15.22.31.13l.77-.45c.16-.09.28-.3.27-.46-.01-.16-.15-.22-.31-.13Z"/>
          </g>
          <g>
            <path class="cls-22" d="m92.93,71.83l-.77.45c-.16.09-.28.3-.27.46.01.16.15.22.31.13l.78-.45c.16-.09.28-.3.27-.46-.01-.16-.15-.22-.31-.13Z"/>
            <path class="cls-5" d="m92.93,71.83l-.77.45c-.16.09-.28.3-.27.46.01.16.15.22.31.13l.78-.45c.16-.09.28-.3.27-.46-.01-.16-.15-.22-.31-.13Z"/>
          </g>
        </g>
        <g>
          <g>
            <path class="cls-22" d="m91.48,66.3l-4.73,2.73c-.16.09-.28.3-.27.46.01.16.15.22.31.13l4.73-2.73c.16-.09.28-.3.27-.46-.01-.16-.15-.22-.31-.13Z"/>
            <path class="cls-14" d="m91.48,66.3l-4.73,2.73c-.16.09-.28.3-.27.46.01.16.15.22.31.13l4.73-2.73c.16-.09.28-.3.27-.46-.01-.16-.15-.22-.31-.13Z"/>
          </g>
          <g>
            <path class="cls-22" d="m92,73.96l-4.73,2.73c-.16.09-.28.3-.27.46.01.16.15.22.31.13l4.73-2.73c.16-.09.28-.3.27-.46-.01-.16-.15-.22-.31-.13Z"/>
            <path class="cls-14" d="m92,73.96l-4.73,2.73c-.16.09-.28.3-.27.46.01.16.15.22.31.13l4.73-2.73c.16-.09.28-.3.27-.46-.01-.16-.15-.22-.31-.13Z"/>
          </g>
          <g>
            <path class="cls-22" d="m90.49,68.46l-3.64,2.11c-.16.09-.28.3-.27.46.01.16.15.22.31.13l3.64-2.11c.16-.09.28-.3.27-.46-.01-.16-.15-.22-.31-.13Z"/>
            <path class="cls-14" d="m90.49,68.46l-3.64,2.11c-.16.09-.28.3-.27.46.01.16.15.22.31.13l3.64-2.11c.16-.09.28-.3.27-.46-.01-.16-.15-.22-.31-.13Z"/>
          </g>
          <g>
            <path class="cls-22" d="m90.6,69.99l-3.64,2.11c-.16.09-.28.3-.27.46.01.16.15.22.31.13l3.64-2.11c.16-.09.28-.3.27-.46-.01-.16-.15-.22-.31-.13Z"/>
            <path class="cls-14" d="m90.6,69.99l-3.64,2.11c-.16.09-.28.3-.27.46.01.16.15.22.31.13l3.64-2.11c.16-.09.28-.3.27-.46-.01-.16-.15-.22-.31-.13Z"/>
          </g>
          <g>
            <path class="cls-22" d="m91.79,70.9l-4.73,2.73c-.16.09-.28.3-.27.46.01.16.15.22.31.13l4.73-2.73c.16-.09.28-.3.27-.46-.01-.16-.15-.22-.31-.13Z"/>
            <path class="cls-14" d="m91.79,70.9l-4.73,2.73c-.16.09-.28.3-.27.46.01.16.15.22.31.13l4.73-2.73c.16-.09.28-.3.27-.46-.01-.16-.15-.22-.31-.13Z"/>
          </g>
          <g>
            <path class="cls-22" d="m90.81,73.05l-3.64,2.11c-.16.09-.28.3-.27.46s.15.22.31.13l3.64-2.11c.16-.09.28-.3.27-.46-.01-.16-.15-.22-.31-.13Z"/>
            <path class="cls-14" d="m90.81,73.05l-3.64,2.11c-.16.09-.28.3-.27.46s.15.22.31.13l3.64-2.11c.16-.09.28-.3.27-.46-.01-.16-.15-.22-.31-.13Z"/>
          </g>
          <g>
            <path class="cls-22" d="m94.33,75.81l-.77.45c-.16.09-.28.3-.27.46s.15.22.31.13l.78-.45c.16-.09.28-.3.27-.46-.01-.16-.15-.22-.31-.13Z"/>
            <path class="cls-5" d="m94.33,75.81l-.77.45c-.16.09-.28.3-.27.46s.15.22.31.13l.78-.45c.16-.09.28-.3.27-.46-.01-.16-.15-.22-.31-.13Z"/>
          </g>
          <g>
            <path class="cls-22" d="m93.14,74.91l-.78.45c-.16.09-.28.3-.27.46s.15.22.31.13l.77-.45c.16-.09.28-.3.27-.46-.01-.16-.15-.22-.31-.13Z"/>
            <path class="cls-5" d="m93.14,74.91l-.78.45c-.16.09-.28.3-.27.46s.15.22.31.13l.77-.45c.16-.09.28-.3.27-.46-.01-.16-.15-.22-.31-.13Z"/>
          </g>
          <g>
            <path class="cls-22" d="m92.21,77.04l-4.73,2.73c-.16.09-.28.3-.27.46.01.16.15.22.31.13l4.73-2.73c.16-.09.28-.3.27-.46-.01-.16-.15-.22-.31-.13Z"/>
            <path class="cls-14" d="m92.21,77.04l-4.73,2.73c-.16.09-.28.3-.27.46.01.16.15.22.31.13l4.73-2.73c.16-.09.28-.3.27-.46-.01-.16-.15-.22-.31-.13Z"/>
          </g>
          <g>
            <path class="cls-22" d="m91.02,76.13l-3.64,2.11c-.16.09-.28.3-.27.46s.15.22.31.13l3.64-2.11c.16-.09.28-.3.27-.46-.01-.16-.15-.22-.31-.13Z"/>
            <path class="cls-14" d="m91.02,76.13l-3.64,2.11c-.16.09-.28.3-.27.46s.15.22.31.13l3.64-2.11c.16-.09.28-.3.27-.46-.01-.16-.15-.22-.31-.13Z"/>
          </g>
        </g>
      </g>
      <g>
        <path class="cls-26" d="m93.45,50.89l-8.42,4.86c-.31.18-.55.61-.52.95l.64,9.35c.02.35.3.48.61.3l8.42-4.86c.31-.18.55-.61.52-.96l-.64-9.35c-.02-.35-.3-.48-.61-.3Z"/>
        <g>
          <g>
            <path class="cls-22" d="m93.27,60.18l-.78.45c-.16.09-.28.3-.27.46.01.16.15.22.31.13l.77-.45c.16-.09.28-.3.27-.46-.01-.16-.15-.22-.31-.13Z"/>
            <path class="cls-5" d="m93.27,60.18l-.78.45c-.16.09-.28.3-.27.46.01.16.15.22.31.13l.77-.45c.16-.09.28-.3.27-.46-.01-.16-.15-.22-.31-.13Z"/>
          </g>
          <g>
            <path class="cls-22" d="m92.74,52.52l-.77.45c-.16.09-.28.3-.27.46s.15.22.31.13l.78-.45c.16-.09.28-.3.27-.46-.01-.16-.15-.22-.31-.13Z"/>
            <path class="cls-5" d="m92.74,52.52l-.77.45c-.16.09-.28.3-.27.46s.15.22.31.13l.78-.45c.16-.09.28-.3.27-.46-.01-.16-.15-.22-.31-.13Z"/>
          </g>
          <g>
            <path class="cls-22" d="m91.76,54.68l-.78.45c-.16.09-.28.3-.27.46.01.16.15.22.31.13l.77-.45c.16-.09.28-.3.27-.46-.01-.16-.15-.22-.31-.13Z"/>
            <path class="cls-5" d="m91.76,54.68l-.78.45c-.16.09-.28.3-.27.46.01.16.15.22.31.13l.77-.45c.16-.09.28-.3.27-.46-.01-.16-.15-.22-.31-.13Z"/>
          </g>
          <g>
            <path class="cls-22" d="m91.86,56.21l-.78.45c-.16.09-.28.3-.27.46s.15.22.31.13l.77-.45c.16-.09.28-.3.27-.46-.01-.16-.15-.22-.31-.13Z"/>
            <path class="cls-5" d="m91.86,56.21l-.78.45c-.16.09-.28.3-.27.46s.15.22.31.13l.77-.45c.16-.09.28-.3.27-.46-.01-.16-.15-.22-.31-.13Z"/>
          </g>
          <g>
            <path class="cls-22" d="m93.06,57.12l-.78.45c-.16.09-.28.3-.27.46.01.16.15.22.31.13l.77-.45c.16-.09.28-.3.27-.46-.01-.16-.15-.22-.31-.13Z"/>
            <path class="cls-5" d="m93.06,57.12l-.78.45c-.16.09-.28.3-.27.46.01.16.15.22.31.13l.77-.45c.16-.09.28-.3.27-.46-.01-.16-.15-.22-.31-.13Z"/>
          </g>
          <g>
            <path class="cls-22" d="m92.07,59.28l-.77.45c-.16.09-.28.3-.27.46.01.16.15.22.31.13l.78-.45c.16-.09.28-.3.27-.46-.01-.16-.15-.22-.31-.13Z"/>
            <path class="cls-5" d="m92.07,59.28l-.77.45c-.16.09-.28.3-.27.46.01.16.15.22.31.13l.78-.45c.16-.09.28-.3.27-.46-.01-.16-.15-.22-.31-.13Z"/>
          </g>
        </g>
        <g>
          <g>
            <path class="cls-22" d="m90.62,53.75l-4.73,2.73c-.16.09-.28.3-.27.46.01.16.15.22.31.13l4.73-2.73c.16-.09.28-.3.27-.46-.01-.16-.15-.22-.31-.13Z"/>
            <path class="cls-14" d="m90.62,53.75l-4.73,2.73c-.16.09-.28.3-.27.46.01.16.15.22.31.13l4.73-2.73c.16-.09.28-.3.27-.46-.01-.16-.15-.22-.31-.13Z"/>
          </g>
          <g>
            <path class="cls-22" d="m91.14,61.41l-4.73,2.73c-.16.09-.28.3-.27.46.01.16.15.22.31.13l4.73-2.73c.16-.09.28-.3.27-.46-.01-.16-.15-.22-.31-.13Z"/>
            <path class="cls-14" d="m91.14,61.41l-4.73,2.73c-.16.09-.28.3-.27.46.01.16.15.22.31.13l4.73-2.73c.16-.09.28-.3.27-.46-.01-.16-.15-.22-.31-.13Z"/>
          </g>
          <g>
            <path class="cls-22" d="m89.64,55.91l-3.64,2.11c-.16.09-.28.3-.27.46.01.16.15.22.31.13l3.64-2.11c.16-.09.28-.3.27-.46-.01-.16-.15-.22-.31-.13Z"/>
            <path class="cls-14" d="m89.64,55.91l-3.64,2.11c-.16.09-.28.3-.27.46.01.16.15.22.31.13l3.64-2.11c.16-.09.28-.3.27-.46-.01-.16-.15-.22-.31-.13Z"/>
          </g>
          <g>
            <path class="cls-22" d="m89.74,57.44l-3.64,2.11c-.16.09-.28.3-.27.46.01.16.15.22.31.13l3.64-2.11c.16-.09.28-.3.27-.46-.01-.16-.15-.22-.31-.13Z"/>
            <path class="cls-14" d="m89.74,57.44l-3.64,2.11c-.16.09-.28.3-.27.46.01.16.15.22.31.13l3.64-2.11c.16-.09.28-.3.27-.46-.01-.16-.15-.22-.31-.13Z"/>
          </g>
          <g>
            <path class="cls-22" d="m90.94,58.35l-4.73,2.73c-.16.09-.28.3-.27.46.01.16.15.22.31.13l4.73-2.73c.16-.09.28-.3.27-.46s-.15-.22-.31-.13Z"/>
            <path class="cls-14" d="m90.94,58.35l-4.73,2.73c-.16.09-.28.3-.27.46.01.16.15.22.31.13l4.73-2.73c.16-.09.28-.3.27-.46s-.15-.22-.31-.13Z"/>
          </g>
          <g>
            <path class="cls-22" d="m89.95,60.5l-3.64,2.11c-.16.09-.28.3-.27.46.01.16.15.22.31.13l3.64-2.11c.16-.09.28-.3.27-.46-.01-.16-.15-.22-.31-.13Z"/>
            <path class="cls-14" d="m89.95,60.5l-3.64,2.11c-.16.09-.28.3-.27.46.01.16.15.22.31.13l3.64-2.11c.16-.09.28-.3.27-.46-.01-.16-.15-.22-.31-.13Z"/>
          </g>
        </g>
      </g>
    </g>
    <g>
      <path class="cls-22" d="m56.99,71.23l8.43-4.87c.12-.07.22-.02.23.1,0,.12-.08.28-.2.35l-8.43,4.87c-.12.07-.22.02-.23-.1s.08-.28.2-.35Z"/>
      <path class="cls-22" d="m57.34,76.61l24.81-14.31c.12-.07.22-.02.23.1,0,.12-.08.28-.2.35l-24.81,14.31c-.12.07-.22.02-.23-.1,0-.12.08-.28.2-.35Z"/>
      <path class="cls-22" d="m66.24,65.88l15.68-9.02c.12-.07.22-.02.23.1,0,.12-.08.28-.2.35l-15.68,9.02c-.12.07-.22.02-.23-.1,0-.12.08-.28.2-.35Z"/>
      <g>
        <path class="cls-22" d="m57.07,72.51l4.27-2.47c.12-.07.22-.02.23.1,0,.12-.08.28-.2.35l-4.27,2.47c-.12.07-.22.02-.23-.1,0-.12.08-.28.2-.35Z"/>
        <path class="cls-5" d="m57.07,72.51l4.27-2.47c.12-.07.22-.02.23.1,0,.12-.08.28-.2.35l-4.27,2.47c-.12.07-.22.02-.23-.1,0-.12.08-.28.2-.35Z"/>
      </g>
      <g>
        <path class="cls-22" d="m57.16,73.78l2.56-1.48c.12-.07.22-.02.23.1,0,.12-.08.28-.2.35l-2.56,1.48c-.12.07-.22.02-.23-.1,0-.12.08-.28.2-.35Z"/>
        <path class="cls-5" d="m57.16,73.78l2.56-1.48c.12-.07.22-.02.23.1,0,.12-.08.28-.2.35l-2.56,1.48c-.12.07-.22.02-.23-.1,0-.12.08-.28.2-.35Z"/>
      </g>
      <g>
        <path class="cls-22" d="m62.17,69.56l14.85-8.56c.12-.07.22-.02.23.1,0,.12-.08.28-.2.35l-14.85,8.56c-.12.07-.22.02-.23-.1,0-.12.08-.28.2-.35Z"/>
        <path class="cls-5" d="m62.17,69.56l14.85-8.56c.12-.07.22-.02.23.1,0,.12-.08.28-.2.35l-14.85,8.56c-.12.07-.22.02-.23-.1,0-.12.08-.28.2-.35Z"/>
      </g>
      <path class="cls-19" d="m59.8,79.52l22.71-13.12c.12-.07.22-.02.23.1s-.08.28-.2.35l-22.71,13.12c-.12.07-.22.02-.23-.1,0-.12.08-.28.2-.35Z"/>
      <path class="cls-19" d="m59.72,78.25l22.71-13.13c.12-.07.22-.02.23.1s-.08.28-.2.35l-22.71,13.13c-.12.07-.22.02-.23-.1,0-.12.08-.28.2-.35Z"/>
      <g>
        <path class="cls-22" d="m60.41,71.91l4.22-2.45c.12-.07.22-.02.23.1,0,.12-.08.28-.2.35l-4.22,2.45c-.12.07-.22.02-.23-.1,0-.12.08-.28.2-.35Z"/>
        <path class="cls-5" d="m60.41,71.91l4.22-2.45c.12-.07.22-.02.23.1,0,.12-.08.28-.2.35l-4.22,2.45c-.12.07-.22.02-.23-.1,0-.12.08-.28.2-.35Z"/>
      </g>
      <g>
        <path class="cls-22" d="m65.46,68.98l16.51-9.46c.12-.07.22-.02.23.1s-.08.28-.2.35l-16.51,9.46c-.12.07-.22.02-.23-.1,0-.12.08-.28.2-.35Z"/>
        <path class="cls-5" d="m65.46,68.98l16.51-9.46c.12-.07.22-.02.23.1s-.08.28-.2.35l-16.51,9.46c-.12.07-.22.02-.23-.1,0-.12.08-.28.2-.35Z"/>
      </g>
      <g>
        <path class="cls-22" d="m57.24,75.12l7.48-4.3c.12-.07.22-.02.23.1,0,.12-.08.28-.2.35l-7.48,4.3c-.12.07-.22.02-.23-.1,0-.12.08-.28.2-.35Z"/>
        <path class="cls-5" d="m57.24,75.12l7.48-4.3c.12-.07.22-.02.23.1,0,.12-.08.28-.2.35l-7.48,4.3c-.12.07-.22.02-.23-.1,0-.12.08-.28.2-.35Z"/>
      </g>
      <g>
        <path class="cls-22" d="m65.55,70.35l16.51-9.46c.12-.07.22-.02.23.1,0,.12-.08.28-.2.35l-16.51,9.46c-.12.07-.22.02-.23-.1,0-.12.08-.28.2-.35Z"/>
        <path class="cls-5" d="m65.55,70.35l16.51-9.46c.12-.07.22-.02.23.1,0,.12-.08.28-.2.35l-16.51,9.46c-.12.07-.22.02-.23-.1,0-.12.08-.28.2-.35Z"/>
      </g>
      <path class="cls-8" d="m59.89,80.81l22.71-13.09c.12-.07.22-.02.23.1,0,.12-.08.28-.2.35l-22.71,13.09c-.12.07-.22.02-.23-.1,0-.12.08-.28.2-.35Z"/>
      <path class="cls-8" d="m59.98,82.08l22.71-13.09c.12-.07.22-.02.23.1,0,.12-.08.28-.2.35l-22.71,13.09c-.12.07-.22.02-.23-.1s.08-.28.2-.35Z"/>
      <path class="cls-8" d="m60.06,83.36l22.71-13.09c.12-.07.22-.02.23.1,0,.12-.08.28-.2.35l-22.71,13.09c-.12.07-.22.02-.23-.1,0-.12.08-.28.2-.35Z"/>
      <path class="cls-22" d="m60.18,85.05l22.71-13.09c.12-.07.22-.02.23.1s-.08.28-.2.35l-22.71,13.09c-.12.07-.22.02-.23-.1s.08-.28.2-.35Z"/>
      <g>
        <path class="cls-22" d="m58,86.29l.99-.57c.12-.07.22-.02.23.1s-.08.28-.2.35l-.99.57c-.12.07-.22.02-.23-.1,0-.12.08-.28.2-.35Z"/>
        <path class="cls-5" d="m58,86.29l.99-.57c.12-.07.22-.02.23.1s-.08.28-.2.35l-.99.57c-.12.07-.22.02-.23-.1,0-.12.08-.28.2-.35Z"/>
        <g>
          <path class="cls-22" d="m57.53,79.33l.99-.57c.12-.07.22-.02.23.1,0,.12-.08.28-.2.35l-.99.57c-.12.07-.22.02-.23-.1s.08-.28.2-.35Z"/>
          <path class="cls-5" d="m57.53,79.33l.99-.57c.12-.07.22-.02.23.1,0,.12-.08.28-.2.35l-.99.57c-.12.07-.22.02-.23-.1s.08-.28.2-.35Z"/>
        </g>
        <g>
          <path class="cls-22" d="m57.71,82.07l.99-.57c.12-.07.22-.02.23.1,0,.12-.08.28-.2.35l-.99.57c-.12.07-.22.02-.23-.1s.08-.28.2-.35Z"/>
          <path class="cls-5" d="m57.71,82.07l.99-.57c.12-.07.22-.02.23.1,0,.12-.08.28-.2.35l-.99.57c-.12.07-.22.02-.23-.1s.08-.28.2-.35Z"/>
        </g>
        <g>
          <path class="cls-22" d="m57.8,83.34l.99-.57c.12-.07.22-.02.23.1s-.08.28-.2.35l-.99.57c-.12.07-.22.02-.23-.1s.08-.28.2-.35Z"/>
          <path class="cls-5" d="m57.8,83.34l.99-.57c.12-.07.22-.02.23.1s-.08.28-.2.35l-.99.57c-.12.07-.22.02-.23-.1s.08-.28.2-.35Z"/>
        </g>
        <g>
          <path class="cls-22" d="m57.89,84.62l.99-.57c.12-.07.22-.02.23.1,0,.12-.08.28-.2.35l-.99.57c-.12.07-.22.02-.23-.1,0-.12.08-.28.2-.35Z"/>
          <path class="cls-5" d="m57.89,84.62l.99-.57c.12-.07.22-.02.23.1,0,.12-.08.28-.2.35l-.99.57c-.12.07-.22.02-.23-.1,0-.12.08-.28.2-.35Z"/>
        </g>
      </g>
      <g>
        <path class="cls-22" d="m58.08,87.44l.99-.57c.12-.07.22-.02.23.1s-.08.28-.2.35l-.99.57c-.12.07-.22.02-.23-.1,0-.12.08-.28.2-.35Z"/>
        <path class="cls-5" d="m58.08,87.44l.99-.57c.12-.07.22-.02.23.1s-.08.28-.2.35l-.99.57c-.12.07-.22.02-.23-.1,0-.12.08-.28.2-.35Z"/>
      </g>
      <path class="cls-19" d="m60.26,86.21l22.71-13.13c.12-.07.22-.02.23.1,0,.12-.08.28-.2.35l-22.71,13.13c-.12.07-.22.02-.23-.1,0-.12.08-.28.2-.35Z"/>
      <path class="cls-22" d="m60.93,94.47l6.1-3.52c.12-.07.22-.02.23.1s-.08.28-.2.35l-6.1,3.52c-.12.07-.22.02-.23-.1s.08-.28.2-.35Z"/>
      <g>
        <path class="cls-22" d="m58.65,95.78l.99-.57c.12-.07.22-.02.23.1,0,.12-.08.28-.2.35l-.99.57c-.12.07-.22.02-.23-.1,0-.12.08-.28.2-.35Z"/>
        <path class="cls-5" d="m58.65,95.78l.99-.57c.12-.07.22-.02.23.1,0,.12-.08.28-.2.35l-.99.57c-.12.07-.22.02-.23-.1,0-.12.08-.28.2-.35Z"/>
      </g>
      <g>
        <path class="cls-22" d="m58.73,96.93l.99-.57c.12-.07.22-.02.23.1,0,.12-.08.28-.2.35l-.99.57c-.12.07-.22.02-.23-.1,0-.12.08-.28.2-.35Z"/>
        <path class="cls-5" d="m58.73,96.93l.99-.57c.12-.07.22-.02.23.1,0,.12-.08.28-.2.35l-.99.57c-.12.07-.22.02-.23-.1,0-.12.08-.28.2-.35Z"/>
      </g>
      <path class="cls-19" d="m61,95.57l22.52-13c.12-.07.22-.02.23.1,0,.12-.08.28-.2.35l-22.52,13c-.12.07-.22.02-.23-.1,0-.12.08-.28.2-.35Z"/>
      <path class="cls-22" d="m60.48,88.92l22.68-13.06c.12-.07.22-.02.23.1,0,.12-.08.28-.2.35l-22.68,13.06c-.12.07-.22.02-.23-.1s.08-.28.2-.35Z"/>
      <g>
        <path class="cls-22" d="m58.26,90.18l.99-.57c.12-.07.22-.02.23.1,0,.12-.08.28-.2.35l-.99.57c-.12.07-.22.02-.23-.1s.08-.28.2-.35Z"/>
        <path class="cls-5" d="m58.26,90.18l.99-.57c.12-.07.22-.02.23.1,0,.12-.08.28-.2.35l-.99.57c-.12.07-.22.02-.23-.1s.08-.28.2-.35Z"/>
      </g>
      <path class="cls-22" d="m60.57,90.17l22.68-13.06c.12-.07.22-.02.23.1,0,.12-.08.28-.2.35l-22.68,13.06c-.12.07-.22.02-.23-.1s.08-.28.2-.35Z"/>
      <g>
        <path class="cls-22" d="m58.35,91.45l.99-.57c.12-.07.22-.02.23.1s-.08.28-.2.35l-.99.57c-.12.07-.22.02-.23-.1s.08-.28.2-.35Z"/>
        <path class="cls-5" d="m58.35,91.45l.99-.57c.12-.07.22-.02.23.1s-.08.28-.2.35l-.99.57c-.12.07-.22.02-.23-.1s.08-.28.2-.35Z"/>
      </g>
      <path class="cls-8" d="m60.66,91.45l22.68-13.06c.12-.07.22-.02.23.1s-.08.28-.2.35l-22.68,13.06c-.12.07-.22.02-.23-.1,0-.12.08-.28.2-.35Z"/>
      <g>
        <path class="cls-22" d="m58.44,92.73l.99-.57c.12-.07.22-.02.23.1s-.08.28-.2.35l-.99.57c-.12.07-.22.02-.23-.1,0-.12.08-.28.2-.35Z"/>
        <path class="cls-5" d="m58.44,92.73l.99-.57c.12-.07.22-.02.23.1s-.08.28-.2.35l-.99.57c-.12.07-.22.02-.23-.1,0-.12.08-.28.2-.35Z"/>
      </g>
    </g>
  </g>
  <g id="Text_Box" data-name="Text Box">
    <path id="Shadow-4" data-name="Shadow" class="cls-24" d="m33.51,62.23l-13.43,7.74c-.18.11-.33.36-.33.58v7.5c0,.21.15.3.33.19l13.43-7.74c.18-.11.33-.36.33-.58v-7.5c0-.21-.15-.3-.33-.19Z"/>
    <g id="Box-2" data-name="Box">
      <g id="Speech_Bubble" data-name="Speech Bubble">
        <g id="Speach_Bubble" data-name="Speach Bubble">
          <g>
            <path class="cls-22" d="m35.07,63.02l-13.43,7.74c-.18.11-.33.36-.33.58v7.5c0,.21.15.47.34.57l1.33.75c.19.1.48.1.67,0l13.43-7.74c.18-.11.33-.36.33-.58v-7.5c0-.21-.15-.47-.34-.57l-1.33-.75c-.19-.1-.48-.1-.67,0Z"/>
            <path class="cls-33" d="m35.07,63.02l-13.43,7.74c-.18.11-.33.36-.33.58v7.5c0,.21.15.47.34.57l1.33.75c.19.1.48.1.67,0l13.43-7.74c.18-.11.33-.36.33-.58v-7.5c0-.21-.15-.47-.34-.57l-1.33-.75c-.19-.1-.48-.1-.67,0Z"/>
            <path class="cls-22" d="m37.39,64.28c-.03-.17-.16-.23-.33-.13l-13.43,7.74c-.09.05-.18.14-.24.25l-1.99-1.14c.06-.1.14-.19.23-.24l13.43-7.74c.18-.11.48-.11.67,0l1.33.75c.17.1.31.32.33.51Z"/>
            <path class="cls-22" d="m37.07,64.15l-13.43,7.74c-.18.11-.33.36-.33.58v7.5c0,.21.15.3.33.19l13.43-7.74c.18-.11.33-.36.33-.58v-7.5c0-.21-.15-.3-.33-.19Z"/>
            <g class="cls-4">
              <path d="m37.07,64.15l-13.43,7.74c-.18.11-.33.36-.33.58v7.5c0,.21.15.3.33.19l13.43-7.74c.18-.11.33-.36.33-.58v-7.5c0-.21-.15-.3-.33-.19Z"/>
            </g>
          </g>
        </g>
      </g>
    </g>
    <g>
      <path class="cls-9" d="m26.62,73.81c0,.06,0,.14,0,.24,0,.1,0,.21,0,.32s0,.21,0,.32c0,.1,0,.18,0,.24,0,.1.02.19.04.27.02.08.05.14.09.19.04.05.1.07.16.07.07,0,.15-.02.24-.08.1-.06.18-.12.24-.19.06-.07.11-.14.15-.22.04-.07.07-.15.09-.22.02-.07.04-.14.05-.2.01-.08.03-.14.05-.18.02-.04.05-.07.1-.1l.56-.32s.05-.01.07,0c.02.02.03.05.03.09,0,.23-.04.46-.11.7-.07.24-.16.46-.28.68-.12.21-.26.41-.42.59-.16.18-.34.32-.53.43-.21.12-.39.18-.55.18-.16,0-.3-.05-.41-.15-.11-.1-.2-.24-.26-.42-.06-.18-.1-.39-.1-.63,0-.18,0-.37,0-.58s0-.41,0-.6c0-.25.04-.5.1-.75.06-.25.15-.5.26-.72.11-.23.25-.44.41-.63.16-.19.35-.34.55-.46.19-.11.36-.17.53-.17.16,0,.3.03.42.1.12.08.21.19.28.35.07.16.1.35.11.57,0,.04,0,.08-.03.12-.02.04-.04.07-.07.08l-.56.32s-.08.03-.1.01c-.02-.02-.03-.06-.05-.12-.01-.05-.03-.09-.05-.14-.02-.05-.05-.09-.09-.12-.04-.03-.09-.04-.15-.04-.06,0-.14.03-.24.09-.1.06-.18.12-.24.2-.07.08-.12.17-.16.26-.04.1-.07.19-.09.3-.02.1-.03.21-.04.31Z"/>
      <path class="cls-9" d="m30.27,69.88c.18-.11.35-.16.5-.17.15,0,.29.02.4.08.11.06.2.15.26.27.06.12.1.25.1.39,0,.04,0,.08-.03.12-.02.04-.04.07-.06.08l-.56.32s-.07.03-.1.03c-.02,0-.05-.02-.07-.04,0,0-.02-.02-.04-.04-.02-.02-.05-.04-.08-.05-.03-.01-.08-.02-.13-.01-.05,0-.11.03-.19.07-.05.03-.11.07-.16.11-.05.04-.09.08-.13.13-.04.05-.07.1-.09.16-.02.06-.04.12-.04.19s.01.11.04.14c.03.03.07.04.14.04.06,0,.15-.01.26-.04.11-.03.24-.06.39-.1.16-.04.29-.06.41-.05.12,0,.22.04.29.11.08.07.14.16.18.29.04.13.06.3.06.5,0,.22-.03.44-.1.66-.07.21-.16.42-.28.61-.12.19-.26.37-.42.53-.16.16-.34.29-.53.4-.19.11-.37.18-.53.19-.16.01-.3-.01-.41-.07-.12-.06-.21-.16-.27-.28-.07-.12-.1-.27-.1-.44,0-.04,0-.08.03-.12.02-.04.04-.07.06-.08l.56-.32s.07-.03.09-.03c.02,0,.05.01.07.03.01.01.03.03.05.06.02.03.05.05.09.07.04.02.09.03.15.02.06,0,.13-.03.22-.08.15-.09.28-.19.38-.3.1-.11.15-.23.15-.36,0-.07-.02-.11-.06-.13-.04-.02-.09-.03-.17-.03-.07,0-.17.02-.29.06-.12.03-.25.07-.41.1-.29.07-.51.04-.65-.11-.14-.15-.2-.41-.2-.79,0-.19.03-.39.08-.59.06-.2.14-.4.24-.6.11-.19.23-.37.38-.54.15-.16.32-.3.5-.41Z"/>
      <path class="cls-9" d="m33.37,68.09c.18-.11.35-.16.5-.17.15,0,.29.02.4.08.11.06.2.15.26.27.06.12.1.25.1.39,0,.04,0,.08-.03.12-.02.04-.04.07-.06.08l-.56.32s-.07.03-.1.03c-.02,0-.05-.02-.08-.04,0,0-.02-.02-.04-.04-.02-.02-.04-.04-.08-.05-.03-.01-.08-.02-.13-.01-.05,0-.11.03-.19.07-.05.03-.11.07-.16.11-.05.04-.09.08-.13.13-.04.05-.07.1-.09.16-.02.06-.04.12-.04.19s.01.11.04.14c.03.03.07.04.14.04.06,0,.15-.01.26-.04.11-.03.24-.06.39-.1.16-.04.29-.06.41-.05.12,0,.22.04.29.11.08.07.14.16.18.29.04.13.06.3.06.5,0,.22-.03.44-.1.66-.07.21-.16.42-.28.61-.12.19-.26.37-.42.53-.16.16-.34.29-.53.41-.19.11-.37.18-.53.19-.16.01-.3-.01-.41-.07-.12-.06-.21-.16-.27-.28-.07-.12-.1-.27-.1-.44,0-.04,0-.08.03-.12.02-.04.04-.07.06-.08l.56-.32s.07-.03.09-.03c.02,0,.05.01.07.03.01.01.03.03.05.06.02.03.05.05.09.07.04.02.09.03.15.02.06,0,.13-.03.22-.08.15-.09.28-.19.38-.3.1-.11.15-.23.15-.36,0-.07-.02-.11-.06-.13-.04-.02-.09-.03-.17-.03-.07,0-.17.02-.29.06-.12.03-.25.07-.41.1-.29.07-.51.04-.65-.11-.14-.15-.2-.41-.2-.79,0-.19.03-.39.08-.59.06-.2.14-.4.24-.6.11-.19.23-.37.38-.54.15-.16.32-.3.5-.41Z"/>
    </g>
  </g>
  <g id="Text_Box-2" data-name="Text Box">
    <path id="Shadow-5" data-name="Shadow" class="cls-24" d="m33.51,77.81l-13.43,7.74c-.18.11-.33.36-.33.58v7.5c0,.21.15.3.33.19l13.43-7.74c.18-.11.33-.36.33-.58v-7.5c0-.21-.15-.3-.33-.19Z"/>
    <g id="Box-3" data-name="Box">
      <g id="Speech_Bubble-2" data-name="Speech Bubble">
        <g id="Speach_Bubble-2" data-name="Speach Bubble">
          <g>
            <path class="cls-22" d="m35.07,78.6l-13.43,7.74c-.18.11-.33.36-.33.58v7.5c0,.21.15.47.34.57l1.33.75c.19.1.48.1.67,0l13.43-7.74c.18-.11.33-.36.33-.58v-7.5c0-.21-.15-.47-.34-.57l-1.33-.75c-.19-.1-.48-.1-.67,0Z"/>
            <path class="cls-33" d="m35.07,78.6l-13.43,7.74c-.18.11-.33.36-.33.58v7.5c0,.21.15.47.34.57l1.33.75c.19.1.48.1.67,0l13.43-7.74c.18-.11.33-.36.33-.58v-7.5c0-.21-.15-.47-.34-.57l-1.33-.75c-.19-.1-.48-.1-.67,0Z"/>
            <path class="cls-22" d="m37.39,79.87c-.03-.17-.16-.23-.33-.13l-13.43,7.74c-.09.05-.18.14-.24.25l-1.99-1.14c.06-.1.14-.19.23-.24l13.43-7.74c.18-.11.48-.11.67,0l1.33.75c.17.1.31.32.33.51Z"/>
            <path class="cls-22" d="m37.07,79.73l-13.43,7.74c-.18.11-.33.36-.33.58v7.5c0,.21.15.3.33.19l13.43-7.74c.18-.11.33-.36.33-.58v-7.5c0-.21-.15-.3-.33-.19Z"/>
            <g class="cls-4">
              <path d="m37.07,79.73l-13.43,7.74c-.18.11-.33.36-.33.58v7.5c0,.21.15.3.33.19l13.43-7.74c.18-.11.33-.36.33-.58v-7.5c0-.21-.15-.3-.33-.19Z"/>
            </g>
          </g>
        </g>
      </g>
    </g>
    <g>
      <path class="cls-9" d="m26.68,87.6s.06-.02.08,0c.02.02.03.06.03.11v4.27s-.01.1-.03.15c-.02.05-.05.08-.08.1l-.56.32s-.06.02-.08,0c-.02-.02-.03-.06-.03-.11v-1.62l-.95.55v1.62s-.01.1-.03.15c-.02.05-.05.08-.08.1l-.56.32s-.06.02-.08,0c-.02-.02-.03-.06-.03-.11v-4.27s.01-.1.03-.15c.02-.05.05-.08.08-.1l.56-.32s.06-.02.08,0c.02.02.03.06.03.11v1.59l.95-.55v-1.59s.01-.1.03-.15c.02-.05.05-.08.08-.1l.56-.32Z"/>
      <path class="cls-9" d="m29.82,85.79s.06-.02.08,0c.02.02.03.06.03.11v.7s-.01.1-.03.15c-.02.05-.05.08-.08.1l-.75.44v3.39s-.01.1-.03.15c-.02.05-.05.08-.08.1l-.56.32s-.06.02-.08,0c-.02-.02-.03-.06-.03-.11v-3.39l-.75.44s-.06.02-.08,0c-.02-.02-.03-.06-.03-.11v-.7s.01-.1.03-.15c.02-.05.05-.08.08-.1l2.3-1.33Z"/>
      <path class="cls-9" d="m31.79,88.11s-.04-.05-.06-.08l-.4-.86v2.19s-.01.1-.03.15c-.02.05-.05.08-.08.1l-.56.32s-.06.02-.08,0c-.02-.02-.03-.06-.03-.11v-4.27s.01-.1.03-.15c.02-.05.05-.08.08-.1l.5-.29c.06-.03.1-.03.13,0,.03.03.05.06.06.07l.69,1.43.69-2.23s.03-.07.06-.14c.03-.07.07-.11.13-.15l.5-.29s.06-.02.08,0c.02.02.03.06.03.11v4.27s-.01.1-.03.15c-.02.05-.05.08-.08.1l-.56.32s-.06.02-.08,0c-.02-.02-.03-.06-.03-.11v-2.19l-.4,1.32s-.03.09-.06.14c-.02.05-.06.09-.1.11l-.27.16s-.08.03-.1,0Z"/>
      <path class="cls-9" d="m36.44,85.54s.06-.02.08,0c.02.02.03.06.03.11v.7s-.01.1-.03.15c-.02.05-.05.08-.08.1l-1.99,1.15s-.06.02-.08,0c-.02-.02-.03-.06-.03-.11v-4.27s.01-.1.03-.15c.02-.05.05-.08.08-.1l.56-.32s.06-.02.08,0c.02.02.03.06.03.11v3.39l1.31-.76Z"/>
    </g>
  </g>
  <g id="Text_Box-3" data-name="Text Box">
    <path id="Shadow-6" data-name="Shadow" class="cls-24" d="m33.51,93.39l-13.43,7.74c-.18.11-.33.36-.33.58v7.5c0,.21.15.3.33.19l13.43-7.74c.18-.11.33-.36.33-.58v-7.5c0-.21-.15-.3-.33-.19Z"/>
    <g id="Box-4" data-name="Box">
      <g id="Speech_Bubble-3" data-name="Speech Bubble">
        <g id="Speach_Bubble-3" data-name="Speach Bubble">
          <g>
            <path class="cls-22" d="m35.07,94.19l-13.43,7.74c-.18.11-.33.36-.33.58v7.5c0,.21.15.47.34.57l1.33.75c.19.1.48.1.67,0l13.43-7.74c.18-.11.33-.36.33-.58v-7.5c0-.21-.15-.47-.34-.57l-1.33-.75c-.19-.1-.48-.1-.67,0Z"/>
            <path class="cls-33" d="m35.07,94.19l-13.43,7.74c-.18.11-.33.36-.33.58v7.5c0,.21.15.47.34.57l1.33.75c.19.1.48.1.67,0l13.43-7.74c.18-.11.33-.36.33-.58v-7.5c0-.21-.15-.47-.34-.57l-1.33-.75c-.19-.1-.48-.1-.67,0Z"/>
            <path class="cls-22" d="m37.39,95.45c-.03-.17-.16-.23-.33-.13l-13.43,7.74c-.09.05-.18.14-.24.25l-1.99-1.14c.06-.1.14-.19.23-.24l13.43-7.74c.18-.11.48-.11.67,0l1.33.75c.17.1.31.32.33.51Z"/>
            <path class="cls-22" d="m37.07,95.32l-13.43,7.74c-.18.11-.33.36-.33.58v7.5c0,.21.15.3.33.19l13.43-7.74c.18-.11.33-.36.33-.58v-7.5c0-.21-.15-.3-.33-.19Z"/>
            <g class="cls-4">
              <path d="m37.07,95.32l-13.43,7.74c-.18.11-.33.36-.33.58v7.5c0,.21.15.3.33.19l13.43-7.74c.18-.11.33-.36.33-.58v-7.5c0-.21-.15-.3-.33-.19Z"/>
            </g>
          </g>
        </g>
      </g>
    </g>
    <g>
      <path class="cls-9" d="m26.88,104.83c0,.06,0,.14,0,.24,0,.1,0,.21,0,.32s0,.21,0,.32c0,.1,0,.18,0,.24,0,.1.02.19.04.27.02.08.05.14.09.19.04.05.1.07.16.07.07,0,.15-.02.24-.08.1-.06.18-.12.24-.19.06-.07.11-.14.15-.22.04-.07.07-.15.09-.22.02-.07.04-.14.05-.2.01-.08.03-.14.05-.18.02-.04.05-.07.1-.1l.56-.32s.05-.01.07,0c.02.02.03.05.03.09,0,.23-.04.46-.11.7-.07.24-.16.46-.28.68-.12.21-.26.41-.42.59-.16.18-.34.32-.53.43-.21.12-.39.18-.55.18-.16,0-.3-.05-.41-.15-.11-.1-.2-.24-.26-.42-.06-.18-.1-.39-.1-.63,0-.18,0-.37,0-.58s0-.41,0-.6c0-.25.04-.5.1-.75.06-.25.15-.5.26-.72.11-.23.25-.44.41-.63.16-.19.35-.34.55-.46.19-.11.36-.17.53-.17.16,0,.3.03.42.1.12.08.21.19.28.35.07.16.1.35.11.57,0,.04,0,.08-.03.12-.02.04-.04.07-.07.08l-.56.32s-.08.03-.1.01c-.02-.02-.03-.06-.05-.12-.01-.05-.03-.09-.05-.14-.02-.05-.05-.09-.09-.12-.04-.03-.09-.04-.15-.04-.06,0-.14.03-.24.09-.1.06-.18.12-.24.2-.07.08-.12.17-.16.26-.04.1-.07.19-.09.3-.02.1-.03.21-.04.31Z"/>
      <path class="cls-9" d="m30.82,103.95v1.09s-.01.1-.03.15c-.02.05-.05.08-.08.1l-.54.31s-.06.02-.08,0c-.02-.02-.03-.06-.03-.11v-1.09l-.67.38s-.06.02-.08,0c-.02-.02-.03-.06-.03-.11v-.67s.01-.1.03-.15c.02-.05.05-.08.08-.1l.67-.38v-1.09s.01-.1.03-.15c.02-.05.05-.08.08-.1l.54-.31s.06-.02.08,0c.02.02.03.06.03.11v1.09l.66-.38s.06-.02.08,0c.02.02.03.06.03.11v.67s-.01.1-.03.15c-.02.05-.05.08-.08.1l-.66.38Z"/>
      <path class="cls-9" d="m33.66,102.31v1.09s-.01.1-.03.15c-.02.05-.05.08-.08.1l-.54.31s-.06.02-.08,0c-.02-.02-.03-.06-.03-.11v-1.09l-.66.38s-.06.02-.08,0c-.02-.02-.03-.06-.03-.11v-.67s.01-.1.03-.15c.02-.05.05-.08.08-.1l.66-.38v-1.09s.01-.1.03-.15c.02-.05.05-.08.08-.1l.54-.31s.06-.02.08,0c.02.02.03.06.03.11v1.09l.66-.38s.06-.02.08,0c.02.02.03.06.03.11v.67s-.01.1-.03.15c-.02.05-.05.08-.08.1l-.66.38Z"/>
    </g>
  </g>
  <g id="Character">
    <g>
      <path class="cls-25" d="m129.01,108.34s-5.23-3.17-8.06-4.77c-2.24-1.27-4.25-2.83-6.43-2.83-2.41,0-4.03-.7-5.68-1.65-1.35-.77-2.23-1.24-3.43-1.94s-2.39-1.36-3.28-2.1c-.64-.53-2.44-1.84-2.72-2.66-.28-.82.86-1.49,2.18-1.16,1.32.33,3.1,1.63,4.64,1.93s2.02.32,2.12-.7c.1-1.01-.93-2.72-1.6-3.4s-2.17-1.55-3.32-2.04-3.09-1.44-3.09-1.44c0,0-1.64-.4-2.53-.77-.89-.37-1.61-1.04-1.56-2.06-.92-.9-.39-1.79.19-1.76.59.03,3.08.48,4.83.83,1.75.36,4.18,1.01,5.02,1.27s3.56,1.68,5.13,2.45c1.57.77,1.74,1.03,2.19,1.53.39.42,1.92,2.1,3.58,3.76,1.8,1.8,2.69,2.4,4.08,2.85,2.12.68,10.3,3.73,12.64,4.07,1.54,2.43-1.48,8.82-4.92,10.58Z"/>
      <path class="cls-23" d="m100.52,85.68c-.84.45-1.48.88-1.85,1.18-.68.55.34,1.8,2.56,1.42,2.22-.38,3.26-.74,3.26-.74l-3.97-1.86Z"/>
      <path class="cls-23" d="m96.26,82.77c.03-.55.58-.77,1.5-.58.92.19,4.42,1.04,5.64,1.32,1.22.29,2.08.61,3.58,1.47,1.5.86,4.32,2.91,4.32,2.91,0,0-1.01-1.09-2.89-2.39s-2.59-1.79-4.53-2.28c-1.94-.49-5.6-1.35-6.36-1.47s-1.43.15-1.27,1.02Z"/>
    </g>
    <g id="Top">
      <g id="Character-2" data-name="Character">
        <path class="cls-26" d="m162.59,88.81c6.52-.96,12.54.82,14.25,7.82,1.26,5.15-6.1,20.97-9.92,30.36,0,0-14.76-.6-16.03-11.51l11.7-26.68Z"/>
        <g>
          <g>
            <path class="cls-23" d="m135.25,65.12s-4.95,5.97-4.59,6.51c.35.54,3.1,1.8,3.1,1.8l1.49-8.31Z"/>
            <path class="cls-25" d="m138.41,54.45c-2.62.9-3.52,3.1-4.01,7.4-.2,1.8.59,4.58-.02,6.46-1.72,5.25-.62,14.17.8,15.84.96,1.13,7.08,2.98,10.1,2.49,3.78-.61,12.15-3.31,16.6-8.62,5.23-6.24,7.29-15.19,2.72-19.39-6.43-5.91-23.39-5.14-26.18-4.18Z"/>
            <path class="cls-25" d="m159.71,86.79l-.28-4.84-14.99,2.64.33,3.36c.18,1.88.33,3.83-.91,4.56-2.23,1.31-5.92,3.33-8.41,4.84,0,0,10.84,1.32,19.01-.02,8.17-1.35,7-8.4,7-8.4-.41.01-1.65.17-1.76-2.14Z"/>
            <path class="cls-23" d="m135.46,84.4c1.22.87,4.8,2.4,9.21,2.39l-.21-2.19s-2.25.56-5.3.48c-2.19-.06-3.67-.67-3.7-.68Z"/>
          </g>
          <path class="cls-29" d="m133.42,55.43c-.42.57-.69,1.24-.75,1.94-.09,1.19.49,2.44,1.51,3.05,1.02.62,2.46.52,3.33-.29-.26,1.19,0,2.53.87,3.38.87.85,2.37,1.06,3.32.31-.3.63-.55,1.49,0,1.92.14.11.3.17.47.21.49.12,1.01.08,1.48-.09-.5.59-.82,1.33-.63,2.07.06.24,1.26,1.74,1.32,1.56,0,0,1.53-4.21,5.11-3.31,3.61.9,3.65,5.61,1.07,8.22-2.56,2.59-4.59,1.34-4.62,1.32.02.75-.09,4.83,3.26,7.17,2.05,1.44,7.45,1.75,10.3.04,1.05-1.88,2.81-4.28,4.17-6.38,4.55-7.05,6.05-11.4,5.26-15.37-.54-2.71-1.75-4.26-3.8-4.77-.11-2.57-.48-4.56-3.25-6.93-4.34-3.73-9.36-4.06-13.25-3.88-1.34.06-2.69.3-4.02.11-1.15-.16-2.23-.64-3.38-.84-1.14-.2-2.45-.07-3.25.77-.83.89-.83,2.29-.53,3.47-.94.06-1.88.27-2.68.77-.79.5-1.42,1.32-1.53,2.25-.1.93.4,1.94,1.27,2.29-.41.27-.78.61-1.07,1.01Z"/>
        </g>
        <g>
          <path class="cls-9" d="m128.89,164.48c0-3.41.03-6.08.04-8.35.05-7.66.07-10.83-.3-22.63-.65-20.7,1.7-32.81,7.17-37.01,1.08-.48,1.96-.88,2.71-1.21,2.62-1.17,3.47-1.56,5.33-2.21.82.36,3.04,1.14,6.73,1.14.78,0,1.58-.04,2.4-.1,5.67-.48,8.37-3.29,8.92-4.7.18-.02.42-.04.67-.07.93.2,2.61.9,4.22,1.77l.32.17c1.62.84,4.64,2.41,5.9,8.56,2.47,12.05-.08,23.13-1.94,31.22-.41,1.78-.8,3.46-1.1,5.01l-.33,1.66c-1.49,7.54-2.48,12.56-2.18,20.42l-24.62,14.58-13.93-8.23Z"/>
          <path class="cls-24" d="m162.53,89.86c.76.18,2.27.77,4,1.7.1.05.21.11.32.17,1.54.8,4.42,2.3,5.63,8.2,2.45,11.94.02,22.51-1.94,31-.41,1.79-.8,3.47-1.1,5.02l-.33,1.66c-1.48,7.48-2.47,12.49-2.2,20.22l-24.09,14.26-13.41-7.92c0-3.26.03-5.84.04-8.05.05-7.67.07-10.84-.3-22.65-.64-20.46,1.63-32.42,6.92-36.54,1.06-.47,1.93-.86,2.66-1.19,2.51-1.12,3.38-1.52,5.09-2.12,1.05.43,3.24,1.1,6.75,1.1.79,0,1.61-.04,2.45-.11,5.22-.44,8.35-2.94,9.24-4.74.09,0,.18-.02.27-.03m.06-1.05c-.58.06-1.11.12-1.11.12.04.81-2.49,4.14-8.54,4.66-.84.07-1.63.1-2.36.1-3.51,0-5.74-.71-6.7-1.18-2.58.9-3.26,1.28-8.33,3.53-5.22,3.95-8.13,14.9-7.42,37.48.48,15.44.3,16.23.26,31.26l14.45,8.54,25.15-14.89c-.37-8.54.8-13.68,2.48-22.26,1.7-8.67,6.07-21.66,3.04-36.43-1.4-6.83-5-8.28-6.48-9.08-1.74-.94-3.5-1.65-4.44-1.84h0Z"/>
        </g>
      </g>
      <g>
        <g id="Hand">
          <path class="cls-25" d="m104.57,119.82c-5.71-3.67-9.86-7.01-10.69-8.4-.93-1.56-1.99-4.92-2.54-7.43-.31-1.42-.55-2.42-1.46-3.88-.9-1.46-1.65-2.32-1.94-2.6s-1.3.4-1.26,1.54.75,2.07.88,2.85c.13.78-.44,2.86-.44,2.86,0,0-1.6-1.61-3.1-2.95-1.5-1.33-2.2-1.84-3.88-2.64-1.55-.74-2.65-1.2-3.01-1.33-.36-.13-2.42-.77-3.43-.96-1-.19-1.01.77-.48,1.5.52.73,3.56,2.16,3.56,2.16,0,0-1.65-.4-2.33-.63-.68-.22-.97-.29-1.93-.29s-2.06-.03-2.81.03c-1.13.09-.91,1.52.29,2.09,1.19.56,3.08.81,3.77,1.04.68.22,2.64,1.19,3.04,1.49.4.31,2.31,1.94,2.39,2.15.08.21-.94-.36-2.49-1.08-1.55-.73-3.8-1.82-4.44-2.05-.65-.23-3.27-.91-4.09-1.03-.82-.11-.96,1.03-.32,2.04.64,1.01,3.01,1.63,3.8,2.05.78.41,2.98,1.72,4.18,2.46,1.2.74,2,1.31,1.87,1.75s-1.09.29-2.49.05c-1.39-.23-3.12-.67-4.23-.95-1.11-.28-2.62-.8-3.06-.25s-.2,1.5.78,1.93c.97.43,2.81.97,4.03,1.35s3.41.91,4.2,1.17,2.03,1.07,2.8,1.93c.78.86,2.39,3.22,4.42,4.39s3.67,1.63,5.16,3.23c1.43,1.54,6.07,7.01,6.07,7.01,0,0,3.23-1.2,5.7-3.59,3.34-3.23,3.47-7.01,3.47-7.01Z"/>
          <path class="cls-23" d="m88.18,104.56c-.41-.9-.61-2.14-.61-2.14h0c-.06.93-.45,2.34-.45,2.34.83.83,1.63,2.13,1.99,2.72-.05-1.01-.53-2.03-.94-2.93Z"/>
          <path class="cls-23" d="m76.78,100.54c1.06.5,1.49.71,2.19,1.24.71.53,3.3,2.54,3.3,2.54,0,0-.73-.85-1.54-1.54-.9-.77-1.5-1.25-2.24-1.6-.74-.35-1.71-.63-1.71-.63Z"/>
        </g>
        <path class="cls-25" d="m110.13,123.74s5.59-7.83,10.6-15.12c4.51-6.56,10.41-10.09,14.65-11.95,7.78,6.83-.13,25.37-.13,25.37-5.05,5.72-12.86,15.05-15.26,17.73-4.48,4.99-7.64,7.08-13.27,2.27-3.03-2.59-5.32-4.72-8.9-8.81-3.71-4.24-7.56-8.87-7.56-8.87l7.95-8.95,11.93,8.34Z"/>
        <path class="cls-23" d="m110.13,123.74c-2.01,2.32-3.07,4.93-2.43,9.14-1.69-2.62-1.8-6.82,1.08-10.08l1.35.93Z"/>
        <path class="cls-26" d="m135.53,96.04c-5.64,2.49-9.23,3.48-15.18,12.35-4.16,6.21-9.47,13.74-9.47,13.74,0,0-.05,3.35,4.95,8.04,5,4.69,8.89,4.89,8.89,4.89l10.73-12.69s9.6-18.32.08-26.34Z"/>
      </g>
    </g>
    <g>
      <path class="cls-22" d="m183.45,92.78c-.39-.26-1.96-1.33-2.37-1.6-1.38-.92-3.37-.83-5.64.48l-20.35,11.73c-4.57,2.63-8.55,9.19-8.89,14.66l-3.49,55.19,2.39,1.38,36.91-21.58,3.45-54.64c.17-2.75-.6-4.7-2-5.62Z"/>
      <path class="cls-30" d="m183.45,92.78c-.39-.26-1.96-1.33-2.37-1.6-1.38-.92-3.37-.83-5.64.48l-20.35,11.73c-4.57,2.63-8.55,9.19-8.89,14.66l-3.49,55.19,2.39,1.38,36.91-21.58,3.45-54.64c.17-2.75-.6-4.7-2-5.62Z"/>
      <path class="cls-22" d="m183.27,132.88l2.18-34.47c.17-2.75-.6-4.7-2-5.62-.39-.26-1.96-1.33-2.37-1.6-1.38-.92-3.37-.83-5.64.48l-20.35,11.73c-2.33,1.34-4.5,3.71-6.12,6.43l34.31,23.06Z"/>
      <path class="cls-12" d="m183.27,132.88l2.18-34.47c.17-2.75-.6-4.7-2-5.62-.39-.26-1.96-1.33-2.37-1.6-1.38-.92-3.37-.83-5.64.48l-20.35,11.73c-2.33,1.34-4.5,3.71-6.12,6.43l34.31,23.06Z"/>
      <g>
        <path class="cls-28" d="m183.45,92.79c-1.38-.92-3.37-.83-5.64.48l-20.35,11.73c-4.57,2.63-8.55,9.19-8.89,14.66l-3.48,54.96,3.28,1.89,36.89-21.29,3.45-54.64c.17-2.7-.58-4.62-1.92-5.56-.56-.39-2.78-1.87-3.34-2.23Z"/>
        <path class="cls-27" d="m151.34,111.42c-1.56,2.62-2.6,5.56-2.77,8.24l-3.48,54.96,3.28,1.89,36.89-21.29,1.27-20.16-35.19-23.65Z"/>
        <path class="cls-29" d="m148.37,176.51l3.46-54.68c.35-5.47,4.33-12.03,8.89-14.66l20.35-11.73c4.57-2.63,7.99-.33,7.64,5.14l-3.45,54.64-36.89,21.29Z"/>
      </g>
    </g>
    <g>
      <path class="cls-22" d="m119.8,149.78l29.19,16.86-11.14,6.43-33.42-19.3,6.91-3.99c2.62-1.51,5.85-1.51,8.47,0Z"/>
      <path class="cls-12" d="m119.8,149.78l29.19,16.86-11.14,6.43-33.42-19.3,6.91-3.99c2.62-1.51,5.85-1.51,8.47,0Z"/>
      <polygon class="cls-22" points="104.43 156.77 104.43 153.78 137.85 173.08 137.85 176.07 104.43 156.77"/>
      <polygon class="cls-32" points="104.43 156.77 104.43 153.78 137.85 173.08 137.85 176.07 104.43 156.77"/>
      <polygon class="cls-22" points="148.99 166.64 148.79 169.75 137.85 176.07 137.85 173.08 148.99 166.64"/>
      <polygon class="cls-31" points="148.99 166.64 148.79 169.75 137.85 176.07 137.85 173.08 148.99 166.64"/>
    </g>
  </g>
  <g id="Speech_Bubble-4" data-name="Speech Bubble">
    <g id="Speech_Bubble-5" data-name="Speech Bubble">
      <path class="cls-11" d="m165.41,24.57c0,3.21-1.24,6.13-3.27,8.31l-1.01.96c-2.12,1.81-4.86,2.91-7.86,2.92-6.7.01-12.17-5.43-12.18-12.13,0-3,1.08-5.75,2.88-7.87l.96-1.01c2.17-2.04,5.09-3.3,8.29-3.31,6.7-.01,12.17,5.43,12.18,12.13Z"/>
      <path class="cls-28" d="m153.22,11.41c-7.27.02-13.18,5.95-13.16,13.22.01,6.52,4.79,11.94,11.02,12.98l1.49,3.82c.25.65,1.18.65,1.43,0l1.47-3.82c6.23-1.06,10.98-6.5,10.96-13.02-.02-7.27-5.94-13.18-13.22-13.16Zm12.19,13.16c0,3.21-1.24,6.13-3.27,8.31l-1.01.96c-2.12,1.81-4.86,2.91-7.86,2.92-6.7.01-12.17-5.43-12.18-12.13,0-3,1.08-5.75,2.88-7.87l.96-1.01c2.17-2.04,5.09-3.3,8.29-3.31,6.7-.01,12.17,5.43,12.18,12.13Z"/>
      <path class="cls-15" d="m165.41,24.57c0,3.21-1.24,6.13-3.27,8.31l-1.01.96c-2.12,1.81-4.86,2.91-7.86,2.92-6.7.01-12.17-5.43-12.18-12.13,0-3,1.08-5.75,2.88-7.87l.96-1.01c2.17-2.04,5.09-3.3,8.29-3.31,6.7-.01,12.17,5.43,12.18,12.13Z"/>
    </g>
    <g id="Check">
      <path class="cls-22" d="m151.38,32.19c-.53,0-1.04-.22-1.41-.61l-4.37-4.66c-.73-.78-.69-2,.09-2.72.78-.73,2-.69,2.72.09l2.84,3.03,6.71-8.5c.66-.84,1.87-.98,2.71-.32.84.66.98,1.87.32,2.71l-8.1,10.26c-.35.44-.87.71-1.43.73-.03,0-.05,0-.08,0Z"/>
    </g>
  </g>
</svg>