<svg xmlns="http://www.w3.org/2000/svg" width="100%" height="100%" viewBox="0 0 154 55.476">
  <g id="Group_4" data-name="Group 4" transform="translate(97.023 487.25)">
    <g id="Group_1" data-name="Group 1" transform="translate(-97.023 -487.25)">
      <path id="Path_1" data-name="Path 1" d="M302.17,250.1a8.731,8.731,0,1,0,0-17.463Z" transform="translate(-255.672 -218.797)" fill="#f4dd4b"/>
      <path id="Path_2" data-name="Path 2" d="M109.83,200.967a6.99,6.99,0,0,0,.691-3.03V183.709l-6.46,13.912h-.1l-6.452-14.132a6.989,6.989,0,0,0-6.358-4.087H87.186v31.1h0a24.441,24.441,0,1,1,34.976-34.148h1.151a11.74,11.74,0,0,1,3.63.575,27.74,27.74,0,1,0-32.768,42.1v-3.594h0V193.847l7.343,15.176a2.464,2.464,0,0,0,4.438-.005Z" transform="translate(-76.816 -165.565)" fill="#f4dd4b"/>
      <path id="Path_3" data-name="Path 3" d="M254.46,232.633v27.8h6.99v-20.81a6.99,6.99,0,0,0-6.989-6.989Z" transform="translate(-217.807 -218.795)" fill="#f4dd4b"/>
      <path id="Path_4" data-name="Path 4" d="M207.721,315.428a24.455,24.455,0,0,1-30.94,17.921v3.427a27.749,27.749,0,0,0,34.729-24.224A11.846,11.846,0,0,1,207.721,315.428Z" transform="translate(-156.155 -282.223)" fill="#f4dd4b"/>
    </g>

  </g>
</svg>
