<?xml version="1.0" encoding="UTF-8"?>
<svg id="Layer_1" data-name="Layer 1" xmlns="http://www.w3.org/2000/svg" viewBox="0 0 58 24">
  <defs>
    <style>
      .cls-1 {
        fill: #e2e8f0;
      }

      .cls-2 {
        fill: none;
        opacity: .7;
        stroke: #e2e8f0;
        stroke-linejoin: round;
        stroke-width: 3.3px;
      }
    </style>
  </defs>
  <g>
    <path class="cls-1" d="m27.14,11.97c0-1.93,0-3.86,0-5.79,0-.13,0-.27.01-.4.01-.24.16-.37.39-.37.62,0,1.24-.01,1.86,0,.3,0,.45.18.45.48,0,3.66,0,7.32,0,10.99,0,.44-.03.89-.05,1.33,0,.31-.24.37-.47.38-.59.02-1.19.02-1.78,0-.28,0-.4-.17-.4-.48,0-1-.01-2-.01-3,0-1.05,0-2.09,0-3.14h0Z"/>
    <path class="cls-1" d="m57.51,17.82c-.55-.78-1.09-1.57-1.64-2.36-.17-.23-.33-.46-.5-.68-.46-.67-.92-1.33-1.38-2-.13-.21-.26-.42-.39-.63-.07-.1-.13-.21-.2-.31,1.26-1.86,2.51-3.7,3.76-5.55.09-.14.18-.3.22-.46.04-.18,0-.34-.25-.36-.15-.01-.3-.05-.45-.05-.43,0-.86.02-1.29-.01-.4-.03-.65.13-.86.44-.66.97-1.33,1.95-1.99,2.92-.23.33-.46.66-.71,1.02-.16-.19-.29-.34-.41-.49-.15-.21-.31-.42-.46-.64-.67-.99-1.34-1.99-2.02-2.98-.14-.2-.35-.27-.6-.26-.56.01-1.13-.01-1.69.01-.18,0-.41.09-.51.23-.06.08.04.33.12.47,1.22,1.82,2.44,3.63,3.68,5.44.16.23.16.38,0,.6-1.16,1.65-2.3,3.31-3.45,4.97-.19.27-.4.54-.57.82-.23.38-.07.65.38.65.55,0,1.11,0,1.66,0,.34,0,.6-.13.79-.41.51-.74,1.04-1.48,1.56-2.22.42-.59.84-1.18,1.25-1.77.1-.14.18-.15.28,0,.14.2.29.4.44.6.79,1.12,1.58,2.24,2.36,3.37.22.32.49.44.87.43.44-.01.88-.02,1.32,0,.32.01.62-.03.88-.23v-.34c-.07-.07-.16-.13-.22-.21Z"/>
    <path class="cls-1" d="m44.02,5.91c-.02-.24-.08-.45-.39-.46-.65-.01-1.3-.04-1.94-.02-.11,0-.28.2-.29.32-.05.35-.03.7-.03,1.05-.01,1.21-.03,2.43-.03,3.64,0,.24-.08.28-.3.28-1.17-.01-2.33-.01-3.5,0-.53,0-1.07.02-1.6.03-.02,0-.04.01-.06.02-.02-.1-.04-.2-.04-.3,0-1.49,0-2.99,0-4.48,0-.43-.16-.58-.59-.58-.53,0-1.05,0-1.58,0-.36,0-.48.12-.48.48,0,4.05,0,8.1,0,12.16,0,.36.2.54.57.54.46,0,.92,0,1.38,0,.59,0,.7-.1.7-.7,0-1.3,0-2.61,0-3.91v-.85h5.49c.02.24.05.46.05.68,0,1.02-.01,2.03-.02,3.05,0,.43,0,.85.03,1.28.02.33.15.45.5.45.48,0,.96,0,1.43,0,.63,0,.71-.11.71-.7,0-3.83,0-7.67,0-11.5,0-.16,0-.32,0-.49Z"/>
  </g>
  <g>
    <circle class="cls-1" cx="21.63" cy="11.84" r="1.65"/>
    <circle class="cls-1" cx="11.7" cy="21.85" r="1.65"/>
    <circle class="cls-1" cx="1.92" cy="12.07" r="1.65"/>
    <circle class="cls-1" cx="11.94" cy="2.15" r="1.65"/>
    <circle class="cls-1" cx="6.87" cy="7.06" r="1.65"/>
    <path class="cls-2" d="m11.94,2.15v7.09c0,1.56-1.27,2.83-2.83,2.83H1.92"/>
    <path class="cls-2" d="m21.63,11.84h-7.09c-1.56,0-2.83,1.27-2.83,2.83v7.18"/>
  </g>
</svg>