<?xml version="1.0" encoding="UTF-8"?>
<svg id="Layer_1" data-name="Layer 1" xmlns="http://www.w3.org/2000/svg" xmlns:xlink="http://www.w3.org/1999/xlink" viewBox="0 0 97 24">
  <defs>
    <style>
      .cls-1 {
        fill: url(#linear-gradient);
      }

      .cls-2 {
        fill: #f6f39d;
      }

      .cls-3 {
        fill: #ebeff2;
      }

      .cls-4 {
        fill: #e9eef4;
      }

      .cls-5 {
        fill: #f5f187;
      }

      .cls-6 {
        fill: #fafcf9;
      }

      .cls-7 {
        fill: #edf2f7;
      }

      .cls-8 {
        fill: #e2e8f0;
      }

      .cls-9 {
        fill: #fff;
      }

      .cls-10 {
        fill: #dfe4ea;
      }

      .cls-11 {
        fill: #e1e3e5;
      }

      .cls-12 {
        fill: #87c042;
      }

      .cls-13 {
        fill: #88836f;
      }

      .cls-14 {
        fill: #4cb949;
      }
    </style>
    <linearGradient id="linear-gradient" x1="11.19" y1="16.13" x2="11.19" y2=".5" gradientUnits="userSpaceOnUse">
      <stop offset=".26" stop-color="#f3f9ff"/>
      <stop offset="1" stop-color="#e2e8f0"/>
    </linearGradient>
  </defs>
  <g>
    <path class="cls-8" d="m25.37,7.38c1.38,0,2.75,0,4.13,0,.79,0,1.58-.03,2.37-.07.34-.02.52.06.68.42,1.03,2.3,2.11,4.58,3.22,6.97.41-.91.79-1.75,1.17-2.58.68-1.49,1.36-2.98,2.06-4.45.07-.15.29-.33.45-.34.69-.04,1.38-.02,2.07,0,.11,0,.21.1.27.28-.18,0-.36,0-.53.03-.47.07-.74.33-.74.81,0,2.4,0,4.8,0,7.2,0,.53.34.88.88.93.14.01.28.01.43.02,0,.05,0,.11-.01.16h-4.13c.16-.13.24-.25.34-.28,1.04-.24,1.12-.23,1.14-1.2.05-1.96,0-3.93,0-5.89,0-.03-.04-.05-.13-.14-.13.22-.26.42-.35.63-1.01,2.23-2.02,4.46-3.04,6.69-.04.09-.17.21-.25.21-.09,0-.2-.13-.24-.23-.77-1.64-1.52-3.29-2.28-4.93-.38-.82-.75-1.63-1.23-2.43,0,.59,0,1.18,0,1.76,0,1.53,0,3.06.02,4.58,0,.76.26.98,1.04,1.04.09,0,.18.04.26.17h-3.49c.17-.13.26-.25.37-.28,1.11-.23,1.15-.26,1.16-1.41,0-1.49.01-2.98,0-4.48,0-.75-.04-1.51-.12-2.26-.02-.21-.21-.49-.4-.57-.57-.24-1.19-.27-1.79-.12-.44.1-.56.48-.57.86-.02,2.4-.02,4.81-.01,7.21,0,.44.39.8.91.87.15.02.3.02.46.03,0,.04,0,.09,0,.13h-4.27c.2-.13.29-.23.41-.26.29-.1.73-.08.86-.27.2-.29.26-.73.27-1.1.03-1.82.02-3.64,0-5.46,0-.39-.13-.79-.09-1.17.08-.74-.47-.71-.9-.85-.15-.05-.29-.1-.43-.15.02-.03.04-.06.05-.1Zm6.26,1.62l-.02-.02v.03s.02-.01.02-.01Zm7.52.14s.04-.02.04-.04c0-.01-.02-.03-.03-.04-.01.02-.03.04-.04.05.01,0,.02.01.04.02Z"/>
    <path class="cls-8" d="m75.22,16.82c-.77,0-1.55,0-2.32,0-.49,0-.98,0-1.47,0-.08,0-.16-.12-.24-.19.08-.05.15-.13.23-.14,1-.13,1.09-.24,1.09-1.24,0-2.06,0-4.11,0-6.17,0-1.18-.18-1.43-1.43-1.49.15-.13.23-.25.31-.25,1.38.02,2.75.04,4.13.08.44.01.9.05,1.32.16.99.27,1.64,1.03,1.65,1.85.03,1.46-.41,2.18-1.58,2.59-.19.07-.39.13-.65.21.67.94,1.3,1.83,1.95,2.71.55.76,1.15,1.46,2.16,1.62.07.01.14.07.19.24-.84,0-1.67,0-2.51,0-.05,0-.1-.12-.15-.19-1.01-1.38-2.02-2.75-3.02-4.13-.09-.13-.1-.33-.11-.39.58-.31,1.12-.55,1.61-.87.62-.4.73-1.41.4-2.18-.32-.75-.82-1.06-1.74-1.06-.36,0-.72,0-1.12,0-.01.16-.03.3-.03.44,0,2.36,0,4.73.02,7.09,0,.83.22,1.04,1.04,1.1.09,0,.18.04.27.06,0,.06,0,.11-.01.17Z"/>
    <path class="cls-8" d="m44.76,12.53c0,.99-.01,2.07,0,3.14,0,.53.37.86.91.91.13.01.27.03.41.16-.1.03-.19.07-.29.08-1.13,0-2.25,0-3.38,0-.13,0-.25-.1-.38-.16.12-.06.24-.17.36-.17.74-.03.94-.15.96-.91.05-1.34.03-2.69.04-4.03,0-.84,0-1.67,0-2.51,0-1.09-.13-1.24-1.2-1.43-.06-.01-.11-.07-.29-.19.25-.05.37-.09.49-.09,1.45.03,2.91-.04,4.34.11,2.15.23,3.08,2.05,2.17,3.84-.37.73-1.03,1.16-1.83,1.25-.74.08-1.51.02-2.33.02Zm0-.59c.17.05.29.08.41.11.74.16,1.42,0,1.96-.52.63-.61.6-1.94.23-2.62-.4-.75-1.32-1.14-2.25-.94-.14.03-.34.26-.35.4-.03,1.18-.02,2.36-.02,3.57Z"/>
    <path class="cls-8" d="m89.13,14.45c-.25.74-.49,1.49-.77,2.23-.03.08-.24.13-.37.13-2.22,0-4.44,0-6.66,0-.11,0-.21-.11-.32-.16.1-.06.2-.16.31-.17.83-.06,1-.14,1.01-.91.04-2.31.05-4.62,0-6.92-.02-.82-.1-.99-1.13-1.02-.07,0-.13-.03-.23-.16.11-.05.23-.14.34-.14,2.31,0,4.62,0,6.95,0,.06.62.12,1.21.15,1.82,0,.11-.13.22-.23.39-.07-.22-.13-.33-.14-.45-.1-.86-.66-1.18-1.44-1.2-.94-.02-1.88,0-2.87,0,0,.58,0,1.12,0,1.67,0,2.02.01,4.04,0,6.06,0,.49.16.69.66.67.64-.03,1.28-.05,1.91,0,1.08.09,1.75-.46,2.24-1.34.11-.2.27-.38.41-.56.05.03.11.06.16.09Z"/>
    <path class="cls-8" d="m96.74,14.55c-.23.66-.44,1.33-.69,1.98-.05.13-.28.27-.42.27-2.2.02-4.4.01-6.6,0-.12,0-.24-.12-.36-.18.13-.05.25-.15.38-.15.72-.03.94-.22.94-.95.01-2.27.04-4.55-.01-6.82-.02-.87-.03-.98-1.33-1.23.11-.05.23-.15.34-.15,2.31,0,4.62,0,7.01,0v2.1c-.12-.12-.29-.21-.33-.35-.26-.94-.38-1.11-1.36-1.19-.95-.07-1.92-.02-2.92-.02,0,.48,0,.91,0,1.35,0,2.13.02,4.26.01,6.38,0,.48.18.69.67.66.58-.03,1.17-.05,1.74,0,1.18.11,1.92-.46,2.45-1.43.08-.15.25-.25.37-.38.04.03.07.07.11.1Z"/>
    <path class="cls-8" d="m63.01,14.62c-.88,1.44-2.04,2.32-3.85,2.43-2.77.17-4.74-2.25-4.7-4.74.02-1.41.39-2.65,1.29-3.69.74-.85,1.72-1.37,2.89-1.43.99-.05,1.96,0,2.85.5.25.14.52.09.66-.24.06-.14.18-.26.37-.5.09,1.24.17,2.32.25,3.39-.05.02-.1.03-.16.05-.09-.18-.2-.36-.27-.55-.37-1.01-.98-1.75-2.07-2.03-2.1-.56-3.53.55-4.03,2.59-.3,1.21-.34,2.44.07,3.67.45,1.37,1.77,2.33,3.14,2.32,1.34-.01,2.27-.58,3.01-1.61.1-.14.29-.2.43-.3.03.05.07.1.1.15Z"/>
    <path class="cls-8" d="m46.2,16.76c.12-.13.19-.26.27-.28.52-.09.82-.43,1.01-.87.78-1.77,1.55-3.54,2.31-5.32.46-1.06.9-2.12,1.4-3.28.14.14.29.24.34.37,1.03,2.44,2.04,4.88,3.08,7.32.21.5.47,1.01.81,1.43.21.26.61.37.91.66-1.21,0-2.43,0-3.64,0-.03,0-.06-.15-.08-.23.04-.03.07-.07.09-.08.83-.07.99-.28.69-1.05-.76-1.91-1.55-3.81-2.33-5.71-.04-.1-.08-.19-.15-.36-.41.95-.81,1.85-1.19,2.76-.5,1.17-.99,2.35-1.47,3.53-.17.43.03.73.49.82.18.04.35.1.52.15,0,.04-.02.09-.02.13h-3.04Z"/>
    <path class="cls-8" d="m66.27,7.97c-1.39-.02-2.88-.38-3.07,1.79-.04-.06-.09-.12-.13-.18v-2.25h7.75c.03.74.07,1.49.1,2.23-.05.01-.11.03-.16.04-.26-.6-.36-1.37-1.11-1.53-.64-.13-1.31-.12-2.02-.17,0,1.04,0,2,0,2.96-.01,1.59-.04,3.18-.05,4.77,0,.47.38.86.92.94.13.02.26.03.39.17h-4.02s-.03-.07-.04-.1c.14-.06.27-.16.42-.17.78-.07,1.01-.25,1.02-1.05.02-2.47,0-4.94,0-7.46Z"/>
    <path class="cls-8" d="m95.18,10.27v3.4c-.55-.55-.35-1.73-1.48-1.43v-.53c.34-.2.71-.33.94-.59.21-.23.26-.61.38-.92.05.02.11.04.16.06Z"/>
    <path class="cls-8" d="m87.54,10.25v3.4c-.16-.18-.27-.25-.29-.34-.12-.58-.25-1.13-1.03-1.14-.08,0-.16-.34-.2-.44.4-.24.78-.37,1.02-.64.2-.23.24-.6.35-.91.05.02.1.04.16.06Z"/>
    <polygon class="cls-8" points="31.63 9 31.6 9.01 31.6 8.98 31.63 9"/>
    <path class="cls-8" d="m39.14,9.14s-.02-.01-.04-.02c.01-.02.03-.04.04-.05.01.01.03.03.03.04,0,.01-.02.02-.04.04Z"/>
  </g>
  <path class="cls-8" d="m.38,10.54c.16.41.3.77.44,1.12.49,1.18,1.05,2.32,1.91,3.28.43.48.92.9,1.53,1.13.17.07.35.12.52.16.92.23,1.64.74,2.17,1.54.68,1.03,1.49,1.95,2.39,2.8.07.07.16.13.23.2.07.07.14.15.21.23-.09.07-.17.16-.28.2-.49.19-.98.15-1.4-.17-.71-.54-1.4-1.1-2.11-1.65-.19-.15-.4-.29-.6-.43-.03.02-.06.04-.08.05.03.18.04.37.1.54.25.64.6,1.2,1.28,1.48,1.02.42,2.03.86,3.03,1.31.33.15.63.38.95.58.07.04.14.11.17.18.05.1.07.21.1.32-.1.03-.2.08-.3.07-.94-.06-1.86-.21-2.76-.48-1.33-.4-2.54-1-3.64-1.83-1.47-1.12-2.52-2.54-3.16-4.27-.32-.85-.52-1.73-.66-2.63-.14-.96-.17-1.92-.15-2.88,0-.26.07-.52.11-.85Z"/>
  <path class="cls-8" d="m16.95,18.9c-.28.21-.51.37-.72.53-.6.48-1.2.96-1.8,1.44-.35.28-.74.47-1.2.42-.2-.02-.41-.1-.6-.18-.13-.06-.16-.16-.02-.27,1.02-.81,1.87-1.78,2.58-2.86.62-.94,1.43-1.56,2.52-1.82.66-.16,1.2-.53,1.66-1.01.96-1,1.59-2.21,2.09-3.49.14-.37.28-.74.42-1.11.03,0,.06,0,.09,0,0,.72,0,1.43,0,2.15,0,.31-.02.62-.05.93-.06.5-.11.99-.2,1.48-.26,1.36-.74,2.64-1.52,3.8-1.09,1.61-2.56,2.75-4.32,3.54-1.07.48-2.2.79-3.37.92-.37.04-.75.07-1.13.11-.07-.26.05-.43.22-.54.39-.26.78-.54,1.2-.73.92-.43,1.86-.81,2.81-1.2.83-.34,1.19-1.02,1.37-1.83.01-.06,0-.13-.02-.28Z"/>
  <path class="cls-8" d="m13.77,19.08c-.22.29-.45.58-.85.63-.23.03-.28.25-.4.38.01-.11.02-.22.03-.33-.02,0-.04-.02-.06-.02-.03.05-.05.1-.08.15-.14-.01-.28-.03-.42-.04-.03,0-.06,0-.08,0-.08.08-.16.17-.24.25-.06-.04-.11-.07-.17-.11-.17.07-.18.21-.16.36.02.13.04.26.07.39-.06-.07-.11-.13-.15-.19-.02-.14-.05-.27-.05-.41,0-.2-.08-.25-.26-.15-.12,0-.25-.02-.36.01-.17.06-.39-.08-.51.15-.33-.21-.67-.41-1-.62.06-.02.13-.04.19-.05.05,0,.1,0,.16,0,.02,0,.04,0,.06,0,.03-.02.07-.04.1-.05.05-.05.12-.1.14-.16.05-.15.07-.32.1-.47h.07c.02.2.04.39.06.61.07-.04.12-.05.12-.07.05-.3.09-.6.13-.91h.03v.7h0c-.07.09-.11.17.05.2l.1-.19c.07-.19.16-.37.2-.56.16-.79.3-1.59.45-2.39,0-.12,0-.24.03-.35.12-.58.05-.78-.45-1.11-.15-.1-.31-.2-.48-.28-.48-.21-.97-.42-1.45-.62-.08-.05-.18-.1-.25-.17-.12-.11-.22-.24-.33-.36.12.06.23.11.35.17q.5.25.51-.27h0c.05.08.1.15.14.23.01.23.14.38.35.42.56.11,1.09.3,1.57.66-.11-.37-.2-.72-.31-1.07-.07-.22-.15-.43-.23-.65-.01-.11-.02-.21-.04-.32-.05-.26-.11-.53-.17-.79-.02-.28-.06-.55-.04-.83.03-.37-.09-.61-.42-.75,0,0,0-.02,0-.05.14.05.27.09.34.12.12-.48.23-.95.34-1.42h.02s.02,0,.02,0c-.01.16-.04.31-.04.47,0,.43.02.87.06,1.3.02.27.11.54.16.83.21-.07.38-.13.55-.18-.1.13-.23.21-.34.31-.07.06-.09.17-.13.26.11.34.22.68.33,1.02.11.33.22.65.34,1.01.21-.22.37-.41.55-.6-.12-.09-.22-.17-.33-.25.12,0,.23.02.32.07.14.07.24.04.32-.08.51-.34,1.01-.71,1.3-1.28.04-.06.09-.12.15-.21,0,.1,0,.15,0,.21-.12.23-.23.47-.36.72h.48c-.09.06-.19.07-.28.09-.21.05-.44.04-.56.27-.03.02-.06.05-.09.07-.09.09-.19.17-.28.26-.32.35-.64.69-.95,1.04-.04.05-.07.14-.05.21.18.65.36,1.3.54,1.95.2.91.33,1.83.3,2.76.22.03.41.05.6.07.02,0,.04,0,.06,0,.2,0,.4,0,.59,0Z"/>
  <path class="cls-4" d="m11.04,16.19c-.15.8-.29,1.59-.45,2.39-.04.19-.13.37-.2.56.02-.34.04-.68.05-1.02-.04.03-.04.06-.05.09-.05.31-.1.61-.15.92v-.7h-.03c-.04.3-.08.6-.13.91,0,.02-.05.03-.12.07-.02-.22-.04-.41-.06-.61h-.07c-.03.16-.05.32-.1.47-.02.06-.09.11-.14.16-.04-.42-.07-.84-.1-1.17v1.22s-.04,0-.06,0c-.02-.15-.04-.3-.06-.45-.03-.24-.06-.47-.09-.71-.02,0-.03,0-.05,0,.02.15.04.3.06.47-.05-.04-.07-.06-.15-.13.04.14.07.22.09.3,0,.05,0,.1,0,.15v.06c.02.1.03.2.04.3-.07.02-.13.04-.19.05-.03-.03-.07-.07-.1-.1-.03-.22-.06-.45-.09-.67-.01,0-.02,0-.03,0,0,.17-.02.35-.03.52-.4-.54-.85-1.06-1.2-1.63-.4-.64-.89-1.12-1.58-1.42-.59-.26-1.15-.6-1.72-.9.13.01.27.03.4.04.1.02.19.04.29.06.65.12,1.31.24,1.96.34.27.05.55.07.83.1.29.04.59.09.88.12.78.07,1.57.13,2.36.2Zm-2.25,2.42s0,.01,0,.02c0,0,.02,0,.02,0,0,0,0-.01,0-.02,0,0,0,0-.01,0Z"/>
  <path class="cls-4" d="m13.11,19.08c-.19-.02-.38-.04-.6-.07.03-.94-.1-1.85-.3-2.76.45,0,.91.01,1.36,0,.36-.01.71-.07,1.06-.1.39-.03.78-.07,1.16-.1.27-.05.54-.1.81-.15.15-.01.3-.02.45-.03-.3.15-.59.32-.89.46-.6.27-1.02.72-1.36,1.26-.27.43-.56.85-.84,1.27-.06.09-.13.16-.2.24-.2,0-.4,0-.59,0,.03-.37.07-.74.1-1.11-.02,0-.04,0-.05,0-.04.37-.07.75-.11,1.12Z"/>
  <path class="cls-10" d="m10.08,20.15c.11-.23.34-.09.51-.15.11-.04.24-.01.36-.01.06.28.13.56.19.84.01,0,.03,0,.04,0,.02-.09.05-.19.07-.28.05.06.09.12.15.19-.02-.13-.04-.26-.07-.39-.03-.16-.01-.29.16-.36-.09.27-.07.54.03.8h.1c.01-.23.03-.46.04-.69.08-.08.16-.17.24-.25.02.27.04.53.06.8h.03v-.8c.14.01.28.03.42.04.01.04.03.07.04.11-.07.22-.15.43-.19.66-.06.35.08.66.31.93-.48.32-.95.63-1.38.91-.44-.29-.9-.59-1.38-.91.26-.29.37-.64.31-1.04-.02-.13-.03-.26-.05-.39Zm.24.74c.3-.21.32-.67.08-.8-.03.25-.05.49-.08.8Zm.49.03s.05-.02.07-.02c0-.14.02-.28.02-.42,0-.15.01-.3-.23-.42.05.33.1.59.14.86Z"/>
  <path class="cls-10" d="m8.82,19.29c0-.17.02-.35.03-.52.01,0,.02,0,.03,0,.03.22.06.45.09.67-.05-.05-.1-.09-.15-.14Z"/>
  <path class="cls-4" d="m12.46,19.99s-.03-.07-.04-.11c.03-.05.05-.1.08-.15.02,0,.04.02.06.02-.01.11-.02.22-.03.33-.02-.03-.04-.06-.06-.09Z"/>
  <path class="cls-9" d="m11.04,16.19c-.79-.07-1.57-.13-2.36-.2-.3-.03-.59-.08-.88-.12.06-.28.12-.57.17-.85.03,0,.08.02.1,0,.12-.09.22-.22.4-.11,0,0,.06-.08.08-.13.04-.07.07-.15.1-.23.02-.04.06-.11.06-.12-.19-.12-.08-.32-.14-.48.04-.04.07-.09.11-.13.48.21.97.41,1.45.62.17.08.33.17.48.28.49.33.56.53.45,1.11-.02.11-.02.23-.03.35Z"/>
  <path class="cls-9" d="m14.64,16.13c-.35.04-.71.09-1.06.1-.45.02-.91,0-1.36,0-.18-.65-.37-1.3-.54-1.95-.02-.06,0-.16.05-.21.31-.35.63-.7.95-1.04.08.04.17.08.25.12.07.23.01.36-.19.39-.13.02-.2.04-.22.19-.02.16.06.2.18.25.21.09.24.22.13.42-.03.06-.07.12-.13.22.11.06.23.17.32.15.36-.07.35-.08.5.26.03.06.11.13.17.13.07,0,.18-.04.22-.1.19-.31.27-.33.56-.11.05.39.11.78.16,1.18Z"/>
  <path class="cls-9" d="m9.12,13.43c.06-.04.11-.08.17-.13.22-.13.31.02.38.22.16-.09.28-.31.49-.17.02-.05.08-.11.07-.13-.07-.16.03-.21.13-.27.04-.03.07-.1.1-.15.02,0,.03,0,.05-.01.08.22.17.43.23.65.11.35.2.7.31,1.07-.48-.35-1-.55-1.57-.66-.22-.04-.34-.19-.35-.42Z"/>
  <path class="cls-9" d="m11.13,12.76c.41-.04.82-.01,1.2.15-.08.12-.19.15-.32.08-.09-.05-.2-.07-.32-.07.1.08.21.16.33.25-.17.19-.34.37-.55.6-.12-.36-.23-.69-.34-1.01Z"/>
  <path class="cls-4" d="m11.67,20.09c-.01.23-.03.46-.04.69h-.1c-.11-.27-.12-.53-.03-.81.06.04.11.07.17.11Z"/>
  <path class="cls-4" d="m11.26,20.55c-.02.09-.05.19-.07.28-.01,0-.03,0-.04,0-.06-.28-.13-.56-.19-.84.17-.1.25-.05.26.15,0,.14.03.27.05.41Z"/>
  <path class="cls-10" d="m9.49,19.48v-1.22c.03.32.06.74.1,1.17-.03.02-.07.04-.1.05Z"/>
  <path class="cls-10" d="m10.24,19.13c.05-.31.1-.61.15-.92,0-.03.01-.06.05-.09-.02.34-.04.68-.05,1.02-.03.06-.07.13-.1.19-.02-.07-.03-.14-.05-.2h0Z"/>
  <path class="cls-10" d="m13.11,19.08c.04-.37.07-.75.11-1.12.02,0,.04,0,.05,0-.03.37-.07.74-.1,1.11-.02,0-.04,0-.06,0Z"/>
  <path class="cls-4" d="m11.99,19.84v.79h-.03c-.02-.26-.04-.53-.06-.8.03,0,.06,0,.08,0Z"/>
  <path class="cls-10" d="m9.27,19.48c-.01-.1-.02-.2-.03-.3.04-.05.09-.1.13-.15.02.15.04.3.06.45-.05,0-.1,0-.16,0Z"/>
  <path class="cls-7" d="m12.93,13.16c-.08-.04-.17-.08-.25-.12.09-.09.19-.17.28-.26.01.02.03.03.04.05-.03.11-.05.22-.08.33Z"/>
  <path class="cls-4" d="m10.24,19.13c.02.07.03.14.05.2-.16-.03-.12-.11-.05-.2Z"/>
  <path class="cls-7" d="m12.96,12.79s.06-.05.09-.07c.01.01.02.03.04.04-.03.02-.05.05-.08.07-.01-.02-.03-.03-.04-.05Z"/>
  <path class="cls-9" d="m4.51,4.7c.02.1.04.2.06.31-.12-.2-.28-.18-.45-.11.04-.06.08-.12.12-.18-.06-.04-.12-.08-.19-.12,0-.02.02-.04.03-.07.14.06.29.11.43.17Z"/>
  <path class="cls-10" d="m9.37,19.03c-.04.05-.09.1-.13.15,0-.02,0-.04,0-.06,0-.05,0-.1,0-.15-.03-.08-.05-.16-.09-.3.07.07.1.09.15.13-.02-.18-.04-.32-.06-.47.02,0,.03,0,.05,0,.03.24.06.47.09.71Z"/>
  <path class="cls-12" d="m9.23,18.98s0,.1,0,.15c0-.05,0-.1,0-.15Z"/>
  <path class="cls-10" d="m8.79,18.61s.01,0,.01,0c0,0,0,.01,0,.02,0,0-.02,0-.02,0,0,0,0-.01,0-.02Z"/>
  <path class="cls-9" d="m4.68,6.21c-.27-.1-.54-.19-.81-.29.17-.04.33-.07.5-.11.31-.02.59.06.85.24.07.05.21.01.32.01.08.02.16.03.24.05-.05.1-.09.17-.09.18.12.23.21.41.3.59-.16-.07-.21,0-.2.16-.11-.11-.23-.22-.34-.33-.08-.01-.17-.06-.24-.04-.24.08-.48.17-.72.26h-.01c-.05-.04-.11-.07-.16-.1.17-.11.3-.18.41-.27.22-.18.22-.22-.04-.36Z"/>
  <path class="cls-9" d="m6.2,5.7c-.04-.05-.08-.1-.12-.16-.13-.2-.28-.27-.5-.12-.07.05-.17.07-.26.08.27-.26.27-.26.08-.36-.11-.04-.22-.08-.32-.12v-.06c.2.02.41.04.61.05.1,0,.19,0,.29,0,0,.06,0,.12.02.18.07.15.14.29.22.43,0,.03-.01.06-.02.09Z"/>
  <path class="cls-8" d="m4.17,12.31c-.24-.03-.34-.18-.22-.37.1-.16.13-.3-.03-.44-.05-.02-.1-.03-.14-.06-.06-.06-.16-.14-.15-.2.01-.08.1-.19.17-.22.32-.12.36-.16.26-.48-.04-.14,0-.24.11-.28.07-.03.18-.02.25.01.23.12.39.09.48-.15.09-.24.27-.14.42-.14.07.38.18.5.43.42.12-.04.25-.13.31.04.03.1.02.24-.02.33-.08.18-.06.32.11.4.23.09.27.24.21.45-.17.03-.36.02-.43.23-.02.06-.04.15-.01.2.16.24,0,.34-.18.44-.04-.03-.09-.05-.13-.08-.25-.16-.38-.13-.48.14-.06.14-.14.16-.27.15-.13,0-.18-.06-.21-.19-.06-.3-.18-.33-.5-.2Zm.84-1.49c-.29,0-.55.24-.54.5,0,.27.26.52.52.52.33,0,.55-.21.55-.52,0-.31-.21-.5-.53-.5Z"/>
  <path class="cls-8" d="m7.48,9.06c-.04.07-.07.18-.13.2-.25.08-.3.22-.19.45.02.04.02.08.04.12,0,0,0,0,0,0-.04.02-.07.04-.11.05h0s-.04.03-.05.05h0c-.07-.03-.14-.07-.21-.07-.1,0-.28,0-.3.05-.09.2-.22.19-.38.16-.05-.33-.05-.32-.39-.29-.08,0-.16-.06-.24-.1.02-.07.04-.14.07-.21.07-.15.04-.24-.11-.33-.09-.05-.14-.15-.23-.25q.5-.21.36-.57s0-.03,0-.04c.02-.02.04-.04.05-.05h0s.04-.03.05-.05h0c.06.01.13.01.19.04.28.12.32.1.43-.18h.22c.08.11.14.18.2.26.06.02.14.06.18.04.2-.11.27.03.35.15-.18.32-.18.32.11.52.03.02.05.06.07.1Zm-1.07-.41c-.26,0-.43.16-.43.38,0,.21.19.38.42.38.24,0,.4-.15.39-.39,0-.26-.12-.38-.39-.38Z"/>
  <path class="cls-8" d="m6.9,11.83c.27-.34.23-.52-.15-.69-.06-.03-.15-.11-.14-.15.03-.11.08-.27.16-.3.48-.19.48-.19.29-.68-.01-.03,0-.07,0-.1h0s.04-.03.05-.05h0s.07-.03.11-.05c0,0,0,0,0,0,.1-.08.19-.1.31-.01.26.18.43.15.55-.13.11-.25.3-.14.48-.17.03.09.05.17.07.24.06.24.21.32.45.23.14-.05.25-.09.37.05.14.16.05.25-.03.37-.13.21-.08.38.15.48.08.03.15.07.24.11-.03.23-.03.43-.34.47-.08.01-.13.24-.19.37.02.12.03.25.05.37-.08.05-.15.11-.18.13-.22-.05-.4-.1-.58-.12-.05,0-.12.08-.17.14-.09.09-.16.26-.26.28-.19.03-.28-.12-.31-.3,0-.01-.02-.02-.03-.03-.07-.22-.19-.27-.41-.18-.27.11-.39.03-.45-.28Zm1.87-.78c0-.41-.2-.59-.62-.58-.31,0-.55.25-.54.56,0,.35.26.61.59.61.35,0,.57-.23.57-.58Z"/>
  <path class="cls-8" d="m6.96,12.5c0,.21.07.29.29.22.17-.05.29.07.22.2-.14.24-.01.33.19.39,0,.13,0,.24-.18.28-.05.01-.09.17-.12.26-.02.06,0,.17-.03.19-.06.03-.14,0-.22,0-.09.01-.18.02-.26.06-.09.04-.16.1-.28.18-.05-.38-.25-.36-.48-.28-.02-.09-.07-.19-.04-.26.08-.16.04-.24-.11-.32-.05-.03-.08-.11-.11-.16.04-.03.07-.09.11-.1.18-.06.23-.16.19-.34-.04-.16.08-.25.22-.17.14.07.24.08.31-.07.07-.16.17-.15.3-.07Zm-.2.51c-.19,0-.37.15-.37.33,0,.17.19.38.34.38.17,0,.36-.18.37-.35.01-.18-.15-.35-.33-.36Z"/>
  <path class="cls-8" d="m14.25,11.63c-.06-.03-.13-.05-.17-.1-.06-.05-.15-.14-.13-.19.03-.1.1-.21.18-.28.05-.05.18-.02.23-.06.12-.1.24-.23.14-.4-.14-.23-.09-.38.15-.48.1.04.2.07.29.13.14.08.41.04.45-.12.06-.25.23-.27.43-.27.05.07.11.14.14.21.09.31.21.39.51.27.13-.05.22-.05.32.07.12.13.08.23,0,.35-.14.22-.12.39.05.48.1.06.21.1.3.14v.26c0,.2-.19.13-.28.2-.06.05-.12.1-.19.14q-.12.19.04.54c-.14.2-.29.31-.53.12-.07-.05-.21,0-.32,0-.06.08-.12.17-.19.24-.08.07-.2.18-.28.17-.09-.01-.2-.15-.22-.24-.07-.29-.23-.4-.49-.28-.14.07-.23.07-.34-.06-.12-.14-.09-.23,0-.35.13-.18.14-.35-.07-.48Zm.69-.2c0,.32.28.61.57.61.34,0,.65-.27.64-.61-.01-.39-.31-.62-.62-.62-.33,0-.6.28-.59.61Z"/>
  <path class="cls-8" d="m14.7,14.42c0,.06-.01.12,0,.17.09.25.05.32-.22.37-.29-.22-.38-.19-.56.11-.04.06-.15.1-.22.1-.06,0-.15-.07-.17-.13-.15-.34-.14-.33-.5-.26-.09.02-.21-.09-.32-.15.06-.11.09-.17.13-.22.11-.2.08-.33-.13-.42-.12-.05-.2-.09-.18-.25.02-.14.09-.17.22-.19.21-.03.26-.16.19-.39.03-.11.05-.22.08-.33.03-.02.05-.05.08-.07.06.02.13.04.18.07.22.14.35.09.47-.15.03-.06.15-.12.22-.12.06,0,.16.07.19.14.13.32.16.34.48.25.23-.06.27.1.3.27-.22.3-.2.37.11.55.06.04.11.16.11.24,0,.06-.1.11-.16.17-.09.08-.19.16-.28.25Zm-.36-.58c0-.26-.23-.47-.53-.48-.22-.01-.48.24-.48.49,0,.25.23.52.47.52.31,0,.53-.22.54-.53Z"/>
  <path class="cls-4" d="m10.32,20.89c.03-.3.05-.55.08-.8.24.13.22.59-.08.8Z"/>
  <path class="cls-4" d="m10.81,20.92c-.04-.27-.09-.53-.14-.86.24.12.24.27.23.42,0,.14-.01.28-.02.42-.02,0-.05.02-.07.02Z"/>
  <path class="cls-8" d="m7.22,8.01c.06-.14.11-.29.19-.42.15-.26.05-.55-.23-.65-.11-.04-.21-.08-.32-.12-.04-.51-.03-.52.45-.65.08-.02.17-.09.22-.16.22-.26.05-.48-.07-.71.14-.34.38-.43.66-.25.34.22.59.14.75-.25.11-.24.43-.33.64-.17.03.02.02.08.03.12.04.13.04.29.12.38.13.15.32.27.54.14.26-.16.45-.11.6.14.02,0,.03,0,.05,0h0c-.02.1-.03.2-.05.3-.3.39-.26.63.18.83.18.08.27.19.24.39-.01.08,0,.17,0,.25-.21.07-.45.1-.61.23-.25.21-.12.49,0,.73-.07.34-.33.47-.61.29-.38-.24-.65-.15-.81.27-.02.06-.04.13-.06.19-.31.12-.52.03-.61-.25-.07-.47-.28-.6-.72-.42-.21.09-.37.07-.49-.14-.02-.03-.06-.06-.09-.08Zm2.61-1.3c.07-.46-.38-.82-.78-.8-.48.02-.84.34-.84.8,0,.47.35.83.81.83.51,0,.81-.31.81-.83Z"/>
  <path class="cls-8" d="m11.91,5.55c.14-.12.26-.16.44-.03.21.15.37.04.51-.34.11.01.22.03.35.04.02.06.05.13.07.2.06.21.19.29.39.23.12-.04.23-.13.35.03.13.16.05.26-.03.38-.01.02-.02.05-.03.07.06.11.09.3.17.33.24.08.24.24.21.43-.08.03-.16.08-.25.1-.21.04-.28.2-.23.36.08.22.04.37-.14.5-.02,0-.04,0-.07,0-.14-.12-.29-.28-.48-.14-.1.07-.14.23-.21.35-.05,0-.1.01-.15.02-.16,0-.24-.07-.27-.24-.05-.26-.19-.32-.43-.23-.23.09-.33.03-.4-.26.24-.32.21-.46-.12-.62-.17-.08-.18-.27-.03-.44.39-.04.47-.16.35-.54-.02-.05,0-.12,0-.18Zm1.52,1.06c0-.34-.2-.55-.54-.55-.3,0-.54.24-.53.55,0,.28.28.58.53.57.31-.01.55-.26.54-.57Z"/>
  <path class="cls-8" d="m10.84,5.36c0-.16.12-.36-.13-.45.03-.06.07-.11.1-.17.04-.08.11-.15.11-.23,0-.14.05-.16.18-.16.13,0,.25-.09.38-.1.14-.01.13.3.35.18.03-.01.12.03.12.04,0,.18,0,.36.13.5,0,.01,0,.07-.01.07-.24.06-.15.27-.19.42-.25-.13-.41.16-.65.15.03-.38-.22-.17-.36-.21,0,0,0,0,0,0,0-.02,0-.03-.01-.05Zm.5-.16c.22-.03.33-.11.33-.28,0-.17-.09-.26-.26-.27-.18,0-.29.13-.28.28,0,.09.14.18.22.27Z"/>
  <path class="cls-8" d="m14.59,7.08c.08.03.17.04.25.08.22.12.39.07.5-.15.04-.07.11-.13.16-.19.18,0,.29.07.33.26.01.06.07.12.11.17.1.01.21.05.31.03.12-.02.22-.08.33.05.1.12.08.21,0,.33-.14.2-.09.42.13.49.2.07.23.18.21.35-.08.05-.15.13-.23.15-.23.06-.33.21-.25.44.04.12.11.22-.03.33-.15.12-.25.07-.38-.01-.21-.13-.4-.04-.46.19-.05.16-.18.16-.32.16-.16,0-.15-.11-.18-.22-.07-.28-.19-.34-.47-.23-.11.04-.19.07-.28-.05-.09-.11-.12-.2-.03-.33.15-.23.1-.41-.15-.51-.13-.05-.18-.11-.17-.26,0-.14.06-.22.2-.23.25-.05.39-.22.3-.4-.11-.21-.06-.34.11-.46Zm.84.65c-.29,0-.53.25-.54.54,0,.31.25.58.52.58.34,0,.61-.25.59-.55-.03-.37-.18-.53-.58-.57Z"/>
  <path class="cls-8" d="m7.98,15.02c.01-.3-.28-.14-.4-.26.02-.06.05-.13.1-.24-.02,0-.07-.02-.09-.05-.04-.05-.05-.11-.07-.17.3.05.01-.48.37-.38.04.01.1.02.14,0,.21-.12.21-.12.33.08.08-.01.16-.02.24-.03.05.15-.06.36.14.48,0,0-.04.07-.06.12-.03.07-.06.15-.1.23-.02.05-.08.13-.08.13-.18-.11-.28.02-.4.11-.02.02-.06,0-.1,0Zm.14-.28c.12-.16.24-.25.23-.33-.01-.09-.15-.24-.22-.23-.1.02-.22.13-.25.23-.02.06.11.17.23.32Z"/>
  <path class="cls-8" d="m7.96,13.16s.07.07.1.1c-.04-.02-.08-.03-.12-.05,0-.02.01-.04.02-.05h0Z"/>
  <path class="cls-14" d="m8.06,13.26s.04.04.05.05c-.02-.02-.04-.04-.05-.05Z"/>
  <path class="cls-8" d="m11.4,8.7c.09-.07.17-.15.26-.22.07.03.14.06.2.09.27.16.42.11.56-.17.03-.07.1-.12.15-.18.09.01.18.02.28.04.02.06.05.12.07.18.08.31.21.39.5.27.12-.05.22-.07.32.06.1.13.09.22,0,.35-.05.09-.04.22-.05.33.13.09.26.17.39.26h0c.03.25.04.46-.32.47-.17,0-.26.3-.18.46.06.11.13.22-.02.32-.12.09-.2.16-.36.04-.23-.18-.41-.12-.54.14-.04.07-.08.14-.13.22-.11-.02-.23-.04-.35-.06,0-.06-.01-.13-.03-.19-.04-.24-.23-.39-.45-.28-.27.14-.36-.02-.48-.19q.23-.6-.27-.83c-.06-.25,0-.4.29-.43.21-.02.31-.26.23-.47-.03-.08-.06-.15-.09-.23Zm1.11,1.67c.41,0,.59-.25.62-.6.02-.32-.26-.57-.61-.57-.31,0-.6.27-.61.58,0,.29.3.59.6.59Z"/>
  <path class="cls-8" d="m12.17,11.64c0,.12.01.25.02.37,0,0,.02,0,.03-.01-.04.12-.08.24-.12.36-.01.03-.05.08-.08.08-.16.03-.33.05-.49.07,0-.15-.08-.19-.22-.14-.01,0-.07-.16-.09-.25q-.23-.19.04-.38c.03-.13-.04-.36.24-.22.02.01.08-.02.1-.05.1-.14.15-.11.25.02.06.08.21.1.32.15Zm-.31.51c-.02-.18.09-.39-.16-.4-.08,0-.23.13-.23.21,0,.28.21.16.4.19Z"/>
  <path class="cls-8" d="m13.22,11.63c-.01.17-.02.34-.03.55h-.63c-.04-.18-.07-.3-.11-.45.02-.02.07-.06.11-.1.01-.09-.05-.24.16-.17.05.02.12-.06.2-.09.1.08.21.17.31.26Zm-.12.19c-.11-.08-.17-.17-.24-.17-.05,0-.17.11-.16.14.02.07.09.15.16.18.04.01.12-.07.23-.15Z"/>
  <path class="cls-8" d="m8.98,13.21s-.06,0-.1,0c.03-.02.05-.04.08-.07,0,.02.01.05.02.07,0,0,0,0,0,0Z"/>
  <path class="cls-14" d="m7.96,13.15s-.03,0-.04-.01c.01,0,.02.01.04.02,0,0,0,0,0,0Z"/>
  <path class="cls-8" d="m5.98,6.88c.08-.05.16-.09.18-.1.18.06.31.11.43.15.03.13.07.25.09.38,0,.04-.02.09-.04.13-.03.07-.06.14-.1.2-.02.05-.05.11-.09.12-.12.04-.25.05-.36.07-.13-.06-.27-.13-.41-.2,0-.12-.02-.25-.03-.37-.02,0-.05,0-.07,0,.06-.07.13-.15.19-.22-.01-.15.04-.23.2-.16Zm.11.64s.08,0,.11,0c.05-.06.12-.12.14-.19.03-.12-.01-.26-.17-.24-.08,0-.2.1-.21.17-.01.08.08.17.13.25Z"/>
  <path class="cls-6" d="m5.01,10.83c.32,0,.53.19.53.5,0,.31-.22.51-.55.52-.27,0-.52-.25-.52-.52,0-.25.25-.49.54-.5Zm.03.2c-.25,0-.36.09-.37.3,0,.16.17.36.31.36.21,0,.34-.14.35-.36.01-.22-.08-.31-.29-.3Z"/>
  <path class="cls-6" d="m6.41,8.65c.27,0,.38.11.39.38,0,.23-.16.39-.39.39-.23,0-.41-.17-.42-.38,0-.23.17-.39.43-.38Zm.23.36c.04-.2-.15-.25-.24-.23-.1.02-.23.17-.24.27,0,.08.15.24.24.24.12,0,.28-.08.24-.28Z"/>
  <path class="cls-3" d="m5.74,8.15c.19-.13.36-.29.61-.15-.11.29-.15.3-.43.18-.06-.02-.12-.02-.19-.03Z"/>
  <path class="cls-2" d="m7.2,9.81s-.07.04-.11.05c.04-.02.07-.04.11-.05Z"/>
  <path class="cls-5" d="m5.63,8.25s.04-.04.05-.05c-.02.02-.04.04-.05.05Z"/>
  <path class="cls-5" d="m5.69,8.2s.04-.04.05-.05c-.02.02-.04.04-.05.05Z"/>
  <path class="cls-2" d="m7.1,9.86s-.04.04-.05.05c.02-.02.04-.04.05-.05Z"/>
  <path class="cls-6" d="m8.77,11.06c0,.35-.22.57-.57.58-.33,0-.59-.26-.59-.61,0-.31.23-.55.54-.56.43,0,.62.17.62.58Zm-.2,0c0-.26-.1-.37-.35-.37-.24,0-.4.13-.41.34,0,.23.16.41.37.42.23,0,.38-.14.39-.38Z"/>
  <path class="cls-6" d="m6.76,13c.18,0,.34.18.33.36,0,.17-.2.34-.37.35-.15,0-.34-.21-.34-.38,0-.18.18-.34.37-.33Zm0,.05c-.11.14-.22.23-.21.29.02.09.13.15.2.22.06-.07.17-.13.18-.21.01-.06-.08-.15-.18-.3Z"/>
  <path class="cls-6" d="m14.95,11.43c0-.34.26-.6.59-.61.31,0,.61.23.62.62.01.33-.3.61-.64.61-.3,0-.57-.29-.57-.61Zm.59-.4c-.21,0-.39.19-.39.41,0,.18.21.41.37.4.25-.01.44-.22.43-.45,0-.19-.2-.36-.42-.35Z"/>
  <path class="cls-6" d="m14.34,13.84c0,.31-.23.53-.54.53-.24,0-.48-.27-.47-.52,0-.25.26-.5.48-.49.3.02.53.23.53.48Zm-.5-.28c-.2,0-.37.15-.36.31,0,.13.23.35.34.35.18-.01.31-.17.32-.38,0-.21-.11-.28-.3-.28Z"/>
  <path class="cls-13" d="m4.48,6.94s-.02.02-.03.03c0-.01.01-.03.02-.04,0,0,.01,0,.01,0Z"/>
  <path class="cls-6" d="m9.84,6.72c0,.52-.3.83-.81.83-.46,0-.81-.36-.81-.83,0-.46.36-.78.84-.8.4-.01.85.35.78.8Zm-.79-.49c-.31,0-.57.22-.58.5,0,.26.3.57.56.57.31,0,.55-.25.55-.56,0-.34-.18-.5-.54-.5Z"/>
  <path class="cls-11" d="m4.12,4.9h0c.04-.06.08-.12.12-.18-.06-.04-.12-.08-.19-.12,0-.02.02-.04.03-.07.14.06.29.11.43.17.02.1.04.2.06.31-.12-.2-.28-.18-.45-.11Z"/>
  <path class="cls-11" d="m12.49,3.38c.06-.05.15-.07.24-.08-.09.02-.18.03-.24.08Z"/>
  <path class="cls-11" d="m13.73,1.42h0c.11.02.23.04.34.04-.11,0-.22-.02-.34-.04Z"/>
  <path class="cls-11" d="m14.6,3.39c-.12.04-.24.09-.37.11.13-.02.25-.08.37-.11.02,0,.03,0,.05,0-.02,0-.03,0-.05,0Z"/>
  <path class="cls-11" d="m16.16,2.93c-.04.05-.06.12-.11.16.05-.04.08-.1.11-.16.1.04.22.05.3.12-.08-.06-.2-.08-.3-.12Z"/>
  <path class="cls-11" d="m16.46,6.31c-.07-.08-.13-.16-.2-.25.07.08.13.17.2.25.24.02.32.05.34.2-.02-.16-.1-.18-.34-.2Z"/>
  <path class="cls-6" d="m13.43,6.61c0,.31-.24.56-.54.57-.25,0-.53-.29-.53-.57,0-.31.23-.55.53-.55.33,0,.54.21.54.55Zm-.2.01c0-.26-.08-.35-.31-.35-.22,0-.42.17-.4.36.03.18.15.32.34.35.18.03.36-.16.36-.35Z"/>
  <path class="cls-1" d="m21.72,8.75c-.26-.69-.48-1.39-.78-2.07-.4-.9-.96-1.7-1.6-2.44-1.2-1.38-2.63-2.43-4.35-3.07-.97-.38-1.99-.6-3.03-.65-.82-.04-1.66,0-2.48.1-.91.12-1.8.4-2.64.8-.93.4-1.77.94-2.53,1.61-.41.4-.85.79-1.23,1.22-.68.77-1.25,1.62-1.66,2.57-.2.53-.41,1.06-.61,1.58-.06.24-.12.47-.18.71-.23.35.04.62.13.92.12.32.25.63.37.95.1.24.2.47.3.71.24.51.47,1.01.71,1.52.17.29.34.57.51.86.32.42.73.73,1.19.98.16.1.32.2.47.29.14.01.27.03.4.04.31-.32.61-.64.93-.96.14-.14.3-.28.45-.42-.02-.09-.07-.19-.04-.26.08-.16.04-.24-.11-.32-.05-.03-.08-.11-.11-.16.04-.04.07-.09.11-.1.18-.06.23-.16.19-.34-.04-.16.08-.25.22-.17.14.07.24.08.31-.07.07-.16.17-.15.3-.07,0,.21.07.29.29.22.17-.05.29.07.22.2-.14.24-.01.33.19.39.1-.03.19-.07.29-.1,0-.02.01-.03.02-.05.03.03.07.07.1.1h0s0,0,0,0c-.04-.02-.08-.03-.12-.05-.1.03-.19.07-.29.1,0,.13,0,.24-.18.28-.05.01-.09.17-.12.26-.02.06,0,.17-.03.19-.06.03-.14,0-.22,0-.09.01-.18.02-.26.06-.09.04-.16.1-.28.18-.05-.38-.25-.36-.48-.28-.15.14-.3.27-.45.42-.31.32-.62.64-.93.96.1.02.19.04.29.06.65.12,1.31.24,1.96.34.27.05.55.07.83.1.06-.28.12-.57.17-.85.01-.3-.28-.14-.4-.26.02-.06.05-.13.1-.24-.02,0-.07-.02-.09-.05-.04-.05-.05-.11-.07-.17.3.05.01-.48.37-.38.04.01.1.02.14,0,.21-.12.21-.12.33.08.08-.01.16-.02.24-.03.04-.04.07-.09.11-.13-.08-.05-.18-.1-.25-.17-.12-.11-.22-.24-.33-.36.12.06.23.11.35.17.49.25.5.25.51-.27.05.07.09.15.14.22.06-.04.11-.08.17-.13-.02-.06-.08-.14-.06-.17.07-.13.06-.21-.09-.27-.03-.01-.01-.14-.02-.21.23-.01.21-.16.17-.32,0-.02.03-.05.05-.08-.02-.02-.03-.03-.05-.05-.08.05-.15.11-.18.13-.22-.05-.4-.1-.58-.12-.05,0-.12.08-.17.14-.09.09-.16.26-.26.28-.19.03-.28-.12-.31-.3,0-.01-.02-.02-.03-.03-.07-.22-.19-.27-.41-.18-.27.11-.39.03-.45-.28.27-.34.23-.52-.15-.69-.06-.03-.15-.11-.14-.15.03-.11.08-.27.16-.3.48-.19.48-.19.29-.68-.01-.03,0-.07,0-.1-.07-.02-.14-.07-.21-.07-.1,0-.28,0-.3.05-.09.2-.22.19-.38.16-.05-.33-.05-.32-.39-.29-.08,0-.16-.06-.24-.1.02-.07.04-.14.07-.21.07-.15.04-.24-.11-.33-.09-.05-.14-.15-.23-.25q.5-.21.36-.57s0-.03,0-.04c.02-.02.04-.04.05-.05,0,0,0,0,0,0,.02-.02.04-.04.05-.05.18-.13.36-.28.61-.15h.22c.08.11.14.18.2.26.15-.08.3-.16.45-.25.06-.14.11-.29.19-.42.15-.26.05-.55-.23-.65-.11-.04-.21-.08-.32-.12-.04-.51-.03-.52.45-.65.08-.02.17-.09.22-.16.22-.26.05-.48-.07-.71-.41.11-.83.21-1.24.32,0,.03-.01.06-.02.09-.04-.05-.08-.1-.12-.16-.13-.2-.28-.27-.5-.12-.07.05-.17.07-.26.08.27-.26.27-.26.08-.36-.22.11-.44.21-.64.33.2-.13.43-.22.64-.33-.11-.04-.22-.08-.32-.12v-.06c.2.02.41.04.61.05.1,0,.19,0,.29,0,.03-.03.05-.06.08-.09-.03.03-.05.06-.08.09,0,.06,0,.12.02.18.07.15.14.29.22.43.41-.11.83-.21,1.24-.32.14-.34.38-.43.66-.25.34.22.59.14.75-.25.11-.24.43-.33.64-.17.03.02.02.08.03.12.04.13.04.29.12.38.13.15.32.27.54.14.26-.16.45-.11.6.14.02,0,.03,0,.05,0-.02.1-.03.2-.05.3-.3.39-.26.63.18.83.18.08.27.19.24.39-.01.08,0,.17,0,.25-.21.07-.45.1-.61.23-.25.21-.12.49,0,.73-.07.34-.33.47-.61.29-.38-.24-.65-.15-.81.27-.02.06-.04.13-.06.19-.31.12-.52.03-.61-.25-.24,0-.37,0-.46.07.1-.07.22-.07.46-.07-.07-.47-.28-.6-.72-.42-.21.09-.37.07-.49-.14-.02-.03-.06-.06-.09-.08-.15.08-.3.16-.45.25.06.02.14.06.18.04.2-.11.27.03.35.15-.18.32-.18.32.11.52.03.02.05.06.07.1-.04.07-.07.18-.13.2-.25.08-.3.22-.19.45.02.04.02.08.04.12.1-.08.19-.1.31-.01.26.18.43.15.55-.13.11-.25.3-.14.48-.17.03.09.05.17.07.24.06.24.21.32.45.23.14-.05.24-.09.37.05.14.16.05.25-.03.37-.13.21-.08.38.15.48.08.03.15.07.24.11-.03.23-.03.43-.34.47-.08.01-.13.24-.19.37-.02.01-.05.03-.07.07-.06.1-.01.26.07.34.06.06.12.06.29.08.29.04.59.09.66.26.02.06,0,.08.03.13.06.1.2.13.32.13-.28-1.17-.32-1.71-.29-1.99.03-.37-.09-.61-.42-.75,0,0,0-.02,0-.05.14.05.27.09.34.12.12-.48.23-.95.34-1.42h.02s.02,0,.02,0c-.01.16-.04.31-.04.47,0,.43.02.87.06,1.3.02.27.1.54.16.83.21-.07.38-.13.55-.18-.1.13-.23.21-.34.31-.07.06-.09.17-.13.26h0c.11.34.22.68.33,1.02.41-.04.82-.01,1.2.15.51-.34,1.01-.71,1.3-1.28.04-.06.09-.12.15-.21,0,.1,0,.15,0,.21-.12.23-.23.47-.36.72h.48c-.09.06-.19.07-.28.09-.21.05-.44.04-.56.27.01.01.02.03.04.04.06.02.13.04.18.07.22.14.35.09.47-.15.03-.06.15-.12.22-.12.06,0,.16.07.19.14.13.32.16.34.48.25.23-.06.27.1.3.27,0,0,0,0,0,0-.22.3-.2.37.11.55.06.04.11.16.11.24,0,.06-.1.11-.16.17-.09.08-.19.16-.28.25,0,.06-.01.12,0,.17.09.25.05.32-.22.37.05.39.11.78.16,1.18.39-.03.78-.07,1.16-.1.27-.05.54-.1.81-.15.15-.01.3-.02.45-.03.17-.08.34-.17.51-.25.3-.17.61-.34.91-.51.24-.17.48-.34.72-.5.19-.2.37-.4.56-.61.15-.24.31-.47.46-.71.25-.54.5-1.08.76-1.62.15-.39.3-.78.45-1.17h0c.04-.07.08-.14.11-.21.21-.49.46-.97.17-1.51Zm-12.76,4.38s.01.05.02.07c-.03,0-.06,0-.09,0l.08-.07Zm-3.63-3.15c.07.38.18.5.43.42.12-.04.25-.13.31.04.03.1.02.24-.02.33-.08.18-.06.32.11.4.23.09.27.24.21.45-.17.03-.36.02-.43.23-.02.06-.04.15-.01.2.16.24,0,.34-.18.44-.04-.03-.09-.05-.13-.08-.25-.16-.38-.13-.48.14-.06.14-.14.16-.27.15-.13,0-.18-.06-.21-.19-.06-.3-.18-.33-.5-.2-.24-.03-.34-.18-.22-.37.1-.16.13-.3-.03-.44-.05-.02-.1-.03-.14-.06-.06-.06-.16-.14-.15-.2.01-.08.1-.19.17-.22.32-.12.36-.16.26-.48-.05-.14,0-.24.11-.28.07-.03.18-.02.25.01.23.12.39.09.48-.15.09-.24.27-.14.42-.14Zm-.11-3.93c.07.05.21.01.32.01.13-.08.26-.17.4-.24-.14.08-.27.16-.4.24.08.02.16.03.24.05-.05.1-.09.17-.09.18.12.23.21.41.3.59.08-.05.16-.09.18-.1.18.06.31.11.43.15.03.13.07.25.09.38,0,.04-.02.09-.04.13-.03.07-.06.14-.1.2-.02.05-.05.11-.09.12-.12.04-.25.05-.36.07-.13-.06-.27-.13-.41-.2,0-.12-.02-.25-.03-.37-.02,0-.05,0-.07,0,.06-.07.13-.15.19-.22-.11-.11-.23-.22-.34-.33-.08-.01-.17-.06-.24-.04-.24.08-.48.17-.72.26,0,0-.02.02-.03.03,0-.01.01-.03.02-.04-.05-.03-.11-.06-.16-.09.17-.11.3-.18.41-.27.22-.18.22-.22-.04-.36-.27-.1-.54-.19-.81-.29-.12.08-.25.16-.37.24.12-.08.25-.16.37-.24l.5-.11c.31-.02.59.06.85.24Zm10.12.96c.04-.07.11-.13.16-.19.18,0,.29.07.33.26.01.06.07.12.11.17.05-.03.11-.05.17-.08-.05.03-.12.05-.17.08.1.01.21.05.31.03.12-.02.22-.08.33.05.1.12.08.21,0,.33-.14.2-.09.42.13.49.2.07.23.18.21.35-.08.05-.15.13-.23.15-.23.06-.33.21-.25.44.04.11.11.22-.03.33-.15.12-.25.07-.38-.01-.21-.13-.4-.04-.46.19-.05.16-.18.16-.32.16-.16,0-.15-.11-.18-.22-.07-.28-.19-.34-.47-.23-.11.04-.19.07-.28-.05-.09-.11-.12-.2-.03-.33.15-.23.1-.41-.15-.51-.13-.05-.18-.11-.17-.26,0-.14.06-.22.2-.23.25-.05.39-.22.3-.4-.11-.21-.06-.34.11-.46.08.03.17.04.25.08.22.12.39.07.5-.15Zm-3-1.49c.21.15.37.04.51-.34.11.01.22.03.35.04.02.06.05.13.07.2.06.21.19.29.39.23.12-.04.23-.13.35.03.13.16.05.26-.03.38-.01.02-.02.05-.03.07.3.02.6.03.9.05-.3-.02-.6-.03-.9-.05.06.11.09.3.17.33.24.08.24.24.21.43,0,0,0,0,0,0-.08.03-.16.08-.25.1-.21.04-.28.2-.23.36.08.22.04.37-.14.5-.02,0-.04,0-.07,0-.14-.12-.29-.28-.48-.14-.1.07-.14.23-.21.35-.05,0-.1.01-.15.02-.16,0-.24-.07-.27-.24-.05-.26-.19-.32-.43-.23-.23.09-.33.03-.4-.26.24-.32.21-.46-.12-.62-.17-.08-.18-.27-.03-.44.39-.04.47-.16.35-.54-.02-.05,0-.12,0-.18.14-.12.26-.16.44-.03Zm-1.14.1c.03-.38-.22-.17-.36-.21,0-.02,0-.03-.01-.05,0-.16.12-.36-.13-.45.03-.06.07-.11.09-.17.04-.08.11-.15.11-.23,0-.14.05-.16.18-.16.13,0,.25-.09.38-.1.14-.01.13.3.35.18.03-.01.12.03.12.04,0,.18,0,.36.13.5,0,.01,0,.07-.01.07-.24.06-.15.27-.19.42-.25-.13-.41.16-.65.15Zm.88,6.74s-.05.08-.08.08c-.16.03-.33.05-.49.07,0-.15-.08-.19-.22-.14-.01,0-.07-.16-.09-.25q-.23-.19.04-.38c.03-.13-.04-.36.24-.22.02.01.08-.02.1-.05.1-.14.15-.11.25.02.06.08.21.1.32.15,0,.12.01.25.02.37,0,0,.02,0,.03-.01-.04.12-.08.24-.12.36Zm1.09-.17h-.63c-.04-.18-.07-.3-.11-.45.02-.02.07-.06.11-.1.01-.09-.05-.24.16-.17.05.02.12-.06.2-.09.1.08.21.17.31.26-.01.17-.02.34-.03.55Zm.58-1.99c-.17,0-.26.3-.18.46.06.11.13.22-.02.32-.12.09-.2.16-.36.04-.23-.18-.41-.12-.54.14-.04.07-.08.14-.13.22-.11-.02-.23-.04-.35-.06,0-.06-.01-.13-.03-.19-.04-.24-.23-.39-.45-.28-.27.14-.36-.02-.48-.19q.23-.6-.27-.83c-.06-.25,0-.4.29-.43.21-.02.31-.26.23-.47-.03-.08-.06-.15-.08-.23l.26-.22c.07.03.14.06.2.09.27.16.42.11.56-.17.03-.07.1-.12.15-.18.09.01.18.02.28.04.02.06.05.12.07.18.08.31.21.39.5.27.12-.05.22-.07.32.06.1.13.09.22,0,.35-.05.09-.04.22-.05.33.19,0,.33.06.39.26,0,0,0,0,0,0,.03.25.04.47-.32.47Zm2.9,1.79q-.11.19.04.54c-.14.2-.29.31-.53.12-.07-.05-.21,0-.32,0h0c-.06.08-.12.17-.19.24-.08.07-.2.18-.28.17-.09-.01-.2-.15-.22-.24-.07-.29-.23-.4-.49-.28-.15.07-.23.07-.34-.06-.12-.14-.09-.23,0-.35.13-.18.14-.35-.07-.48-.06-.03-.13-.05-.17-.1-.06-.05-.15-.14-.13-.19.03-.1.1-.21.18-.28.05-.05.18-.02.23-.06.12-.1.24-.23.14-.4-.14-.23-.09-.38.15-.48.1.04.2.07.29.13.14.08.41.04.45-.12.06-.25.23-.27.43-.27.05.07.11.14.14.21.09.31.21.39.51.27.13-.05.22-.05.32.07.12.13.08.23,0,.35-.14.22-.12.39.05.48.1.06.21.1.3.14v.26c0,.2-.19.13-.28.2-.06.05-.12.1-.19.14.37.48.7.98,1,1.5-.3-.52-.64-1.02-1-1.5Z"/>
  <path class="cls-6" d="m11.33,5.2c-.08-.09-.21-.18-.22-.27,0-.15.1-.28.28-.28.17,0,.26.1.26.27,0,.17-.1.25-.33.28Zm.08-.52c-.1.11-.15.17-.21.23.06.05.11.13.17.13.06,0,.17-.07.17-.1,0-.07-.07-.14-.13-.26Z"/>
  <path class="cls-6" d="m15.43,7.73c.4.04.56.2.58.57.02.3-.26.54-.59.55-.27,0-.52-.27-.52-.58,0-.29.25-.54.54-.54Zm.38.55c0-.22-.11-.34-.33-.34-.23,0-.37.12-.38.33,0,.2.16.38.36.38.21,0,.36-.15.36-.37Z"/>
  <path class="cls-6" d="m8.12,14.74c-.12-.16-.25-.26-.23-.32.03-.1.15-.21.25-.23.06-.01.2.14.22.23,0,.08-.11.17-.23.33Zm-.02-.54c-.06.1-.12.17-.11.21.01.05.1.09.16.1.04,0,.12-.09.11-.12-.02-.06-.08-.11-.16-.2Z"/>
  <path class="cls-6" d="m12.51,10.37c-.3,0-.61-.31-.6-.59,0-.31.3-.58.61-.58.34,0,.63.25.61.57-.02.35-.21.61-.62.6Zm.42-.58c0-.2-.17-.38-.38-.39-.23,0-.44.18-.43.39,0,.19.2.37.4.37.22,0,.41-.16.41-.38Z"/>
  <path class="cls-7" d="m13.69,9.46c.19,0,.33.06.39.26-.13-.09-.26-.17-.39-.26Z"/>
  <path class="cls-6" d="m11.86,12.14c-.18-.03-.4.09-.4-.19,0-.08.15-.21.23-.21.26.01.14.22.16.4Z"/>
  <path class="cls-6" d="m13.09,11.82c-.11.07-.19.16-.23.15-.07-.02-.14-.11-.16-.18,0-.04.1-.15.16-.14.07,0,.13.09.24.17Z"/>
  <path class="cls-6" d="m9.55,12.94c-.14-.12-.07-.24.04-.3.08-.05.25-.08.3-.03.07.07.13.25.09.32-.05.08-.21.08-.32.12.01-.01.02-.02.03-.04.13-.01.23-.06.19-.21-.01-.05-.07-.09-.11-.13-.06.08-.12.16-.18.25-.01.01-.03.03-.04.04Z"/>
  <path class="cls-6" d="m9.65,13.04s-.07-.07-.11-.1c.01-.01.03-.03.04-.04.03.03.07.07.1.1-.01.01-.02.03-.03.04Z"/>
  <path class="cls-6" d="m6.09,7.52c-.05-.09-.14-.18-.13-.25.01-.07.13-.16.21-.17.16-.02.19.11.17.24-.02.07-.09.13-.14.19-.04,0-.08,0-.11,0Z"/>
  <path class="cls-8" d="m5.04,11.03c.21-.01.31.08.29.3-.01.22-.14.36-.35.36-.14,0-.31-.2-.31-.36,0-.21.11-.3.37-.3Z"/>
  <path class="cls-8" d="m6.64,9.01c.04.2-.11.29-.24.28-.09,0-.25-.16-.24-.24,0-.1.14-.24.24-.27.09-.02.28.03.24.23Z"/>
  <path class="cls-8" d="m8.57,11.05c0,.24-.16.39-.39.38-.22,0-.38-.19-.37-.42,0-.2.17-.34.41-.34.25,0,.35.11.35.37Z"/>
  <path class="cls-8" d="m6.76,13.05c.09.15.19.23.18.3-.02.08-.12.14-.18.21-.07-.07-.18-.14-.2-.22-.01-.05.1-.14.21-.29Z"/>
  <path class="cls-8" d="m15.54,11.03c.22,0,.41.16.42.35.01.23-.19.44-.43.45-.16,0-.37-.22-.37-.4,0-.21.18-.4.39-.41Z"/>
  <path class="cls-8" d="m13.84,13.56c.19,0,.3.06.3.28,0,.21-.13.37-.32.38-.12,0-.34-.22-.34-.35,0-.16.17-.31.36-.31Z"/>
  <path class="cls-8" d="m9.04,6.22c.36,0,.54.17.54.5,0,.31-.24.55-.55.56-.27,0-.57-.3-.56-.57,0-.28.26-.5.58-.5Z"/>
  <path class="cls-8" d="m13.23,6.63c0,.19-.18.38-.36.35-.19-.03-.31-.16-.34-.35-.03-.19.18-.36.4-.36.23,0,.31.1.31.35Z"/>
  <path class="cls-8" d="m11.41,4.68c.06.12.13.19.13.26,0,.04-.11.11-.17.1-.06,0-.11-.08-.17-.13.06-.06.11-.12.21-.23Z"/>
  <path class="cls-8" d="m15.81,8.28c0,.22-.15.37-.36.37-.2,0-.37-.17-.36-.38,0-.21.15-.33.38-.33.23,0,.34.12.33.34Z"/>
  <path class="cls-8" d="m8.1,14.2c.08.09.14.14.16.2,0,.03-.07.12-.11.12-.06,0-.15-.05-.16-.1-.01-.05.06-.11.11-.21Z"/>
  <path class="cls-8" d="m12.93,9.79c0,.22-.19.38-.41.38-.2,0-.4-.18-.4-.37,0-.21.2-.4.43-.39.21,0,.39.18.38.39Z"/>
  <path class="cls-8" d="m9.69,13s-.07-.07-.1-.1c.06-.08.12-.16.18-.25.04.04.1.08.11.13.03.15-.06.2-.19.21Z"/>
  <path class="cls-8" d="m9.34,12.26c.15,0,.33.12.42-.11.09.06.17.11.26.17,0,.02-.01.04-.02.06.06-.01.13-.06.18-.04.06.02.14.13.13.14-.14.2.04.24.15.32-.03.05-.05.12-.1.15-.1.07-.21.12-.13.27.01.03-.04.09-.07.13-.22-.14-.33.08-.49.17-.06-.2-.15-.35-.38-.22-.02-.06-.08-.14-.06-.17.07-.13.06-.21-.09-.27-.03-.01-.01-.14-.02-.21.23-.01.21-.16.17-.32,0-.02.03-.05.05-.08Zm.2.68s.07.07.11.1c.11-.04.28-.05.32-.12.04-.07-.02-.25-.09-.32-.05-.05-.22-.02-.3.03-.11.07-.17.18-.04.3Z"/>
</svg>