<?xml version="1.0" encoding="UTF-8"?>
<svg id="Layer_1" data-name="Layer 1" xmlns="http://www.w3.org/2000/svg" viewBox="0 0 55 24">
  <defs>
    <style>
      .cls-1 {
        fill: #e2e8f0;
      }
    </style>
  </defs>
  <g id="Group_83779" data-name="Group 83779">
    <g id="Group_83774" data-name="Group 83774">
      <path id="Path_165341" data-name="Path 165341" class="cls-1" d="m54.3,3.53h-.22v-.94h0s0,.02,0,.02c-.08.29-.15.59-.23.89,0,.02-.02.03-.03.03h-.21c-.08-.32-.16-.63-.24-.94h0v.94h-.23v-1.22h.35s.02,0,.02.02h0c.07.26.14.52.21.78,0,0,0,.02.01.02l.22-.82h.37v1.22Z"/>
      <path id="Path_165342" data-name="Path 165342" class="cls-1" d="m52.6,3.53h-.25v-1.01h-.34s-.02,0-.02-.02v-.18h.97v.2h-.36v1.01Z"/>
    </g>
    <g id="Group_83775" data-name="Group 83775">
      <g id="Group_83764" data-name="Group 83764">
        <path id="Path_165343" data-name="Path 165343" class="cls-1" d="m9.89,21.94v.05c0,.17.02.29.05.36.03.07.1.1.21.1s.17-.04.21-.12c.02-.05.03-.12.03-.23v-1.57h.47v1.56c0,.19-.03.34-.09.45-.11.19-.31.28-.59.28s-.47-.08-.57-.23c-.1-.15-.15-.36-.15-.62v-.05h.44Z"/>
        <path id="Path_165344" data-name="Path 165344" class="cls-1" d="m12.94,22.59c-.14.17-.35.26-.64.26s-.5-.09-.64-.26c-.28-.37-.28-.88,0-1.24.14-.17.35-.26.64-.26s.5.09.64.26c.28.37.28.88,0,1.24m-.35-.24c.07-.09.1-.22.1-.38s-.03-.29-.1-.38c-.07-.09-.17-.13-.29-.13s-.22.05-.29.13c-.07.09-.1.22-.1.38s.03.29.1.38c.07.09.17.13.29.13s.22-.05.29-.13"/>
        <path id="Path_165345" data-name="Path 165345" class="cls-1" d="m13.77,23.11h.06s.08,0,.12,0c.03,0,.07-.02.1-.03.03-.03.06-.07.07-.11.02-.03.02-.06.03-.1l-.61-1.73h.48l.36,1.22.34-1.22h.46l-.57,1.63c-.11.31-.2.51-.26.58-.06.08-.19.11-.38.11h-.09s-.06,0-.1,0v-.35Z"/>
        <path id="Path_165346" data-name="Path 165346" class="cls-1" d="m18.16,22.59c-.14.17-.35.26-.64.26s-.5-.09-.64-.26c-.28-.37-.28-.88,0-1.24.14-.17.35-.26.64-.26s.5.09.64.26c.28.37.28.88,0,1.24m-.35-.24c.07-.09.1-.22.1-.38s-.03-.29-.1-.38c-.07-.09-.17-.13-.29-.13s-.22.05-.29.13c-.07.09-.1.22-.1.38s.03.29.1.38c.07.09.17.13.29.13.13,0,.22-.05.29-.13"/>
        <path id="Path_165347" data-name="Path 165347" class="cls-1" d="m19.61,20.53s.05,0,.09,0v.35s-.06,0-.12,0-.1.01-.12.04c-.02.02-.03.06-.03.09v.14h.28v.31h-.28v1.33h-.43v-1.34h-.24v-.31h.24v-.11c0-.18.03-.3.09-.36.06-.1.21-.15.45-.15.03,0,.06,0,.08,0"/>
        <path id="Path_165348" data-name="Path 165348" class="cls-1" d="m22.84,20.55h.67v2.24h-.43v-1.87l-.42,1.88h-.45l-.42-1.88v1.88h-.43v-2.24h.68l.41,1.76.4-1.76Z"/>
        <path id="Path_165349" data-name="Path 165349" class="cls-1" d="m24.81,21.78c.06,0,.12-.02.17-.04.06-.03.09-.07.09-.12,0-.07-.02-.11-.07-.14-.07-.03-.14-.04-.21-.04-.1,0-.18.02-.22.08-.03.04-.06.1-.06.15h-.42c0-.13.05-.25.12-.36.11-.15.31-.22.59-.22.17,0,.33.03.48.11.14.07.21.21.21.41v.76c0,.05,0,.12,0,.19,0,.04,0,.08.02.12.02.02.04.04.06.05v.06h-.47s-.02-.06-.03-.09c0-.03,0-.06-.01-.1-.06.06-.13.12-.21.17-.1.06-.21.08-.32.08-.13,0-.27-.04-.37-.13-.1-.09-.15-.21-.15-.36,0-.2.08-.35.24-.44.09-.05.21-.09.38-.11l.16-.02Zm.27.2s-.06.03-.08.04c-.04.01-.08.02-.12.03l-.1.02c-.07,0-.13.03-.2.06-.07.04-.11.11-.1.18,0,.07.02.13.06.16.04.03.1.05.15.05.09,0,.18-.03.26-.08.08-.06.12-.15.12-.3v-.16Z"/>
        <path id="Path_165350" data-name="Path 165350" class="cls-1" d="m27.46,21.23c.11.09.16.24.16.44v1.11h-.44v-1.01c0-.07,0-.14-.03-.2-.04-.09-.12-.13-.24-.13-.15,0-.25.06-.3.19-.03.08-.05.17-.04.25v.89h-.43v-1.65h.42v.24c.04-.07.09-.13.16-.18.1-.07.22-.1.34-.1.17,0,.31.04.42.13"/>
        <path id="Path_165351" data-name="Path 165351" class="cls-1" d="m28.93,21.78c.06,0,.12-.02.17-.04.06-.03.09-.07.09-.12,0-.07-.02-.11-.07-.14-.07-.03-.14-.04-.21-.04-.1,0-.18.02-.22.08-.03.04-.06.1-.06.15h-.42c0-.13.05-.25.12-.36.11-.15.31-.22.59-.22.17,0,.33.03.48.11.14.07.21.21.21.41v.76c0,.05,0,.12,0,.19,0,.04,0,.08.02.12.02.02.04.04.06.05v.06h-.47s-.02-.06-.03-.09c0-.03,0-.06-.01-.1-.06.06-.13.12-.21.17-.1.06-.21.08-.32.08-.13,0-.27-.04-.37-.13-.1-.09-.15-.21-.15-.36,0-.2.08-.35.24-.44.09-.05.21-.09.38-.11l.16-.02Zm.26.2s-.06.03-.08.04c-.04.01-.08.02-.12.03l-.1.02c-.07,0-.13.03-.2.06-.07.04-.11.11-.1.18,0,.07.02.13.06.16.04.03.1.05.15.05.09,0,.18-.03.26-.08.08-.06.12-.15.12-.3v-.16Z"/>
        <path id="Path_165352" data-name="Path 165352" class="cls-1" d="m31.07,21.13c.11.05.2.13.25.24v-.24h.42v1.57c0,.21-.04.37-.11.48-.12.19-.36.28-.71.28-.21,0-.38-.04-.52-.13-.13-.08-.21-.22-.22-.37h.47s.03.08.06.11c.05.04.13.06.24.06.16,0,.26-.05.31-.16.03-.07.05-.18.05-.34v-.11c-.03.06-.08.12-.13.16-.09.06-.2.1-.34.1-.21,0-.38-.07-.51-.22s-.19-.35-.19-.61.06-.45.18-.62c.12-.17.29-.25.52-.25.07,0,.14.01.21.04m.15,1.19c.07-.08.1-.2.1-.36,0-.16-.03-.28-.1-.36-.06-.08-.16-.13-.27-.12-.15,0-.25.07-.31.21-.03.09-.05.18-.05.28,0,.09.02.17.05.26.05.13.17.22.32.21.09,0,.19-.04.25-.12"/>
        <path id="Path_165353" data-name="Path 165353" class="cls-1" d="m32.84,20.94h-.44v-.4h.44v.4Zm-.44.2h.44v1.65h-.44v-1.65Z"/>
        <path id="Path_165354" data-name="Path 165354" class="cls-1" d="m34.83,21.23c.11.09.16.24.16.44v1.11h-.44v-1.01c0-.07,0-.14-.03-.2-.04-.09-.12-.13-.24-.13-.15,0-.25.06-.3.19-.03.08-.05.17-.04.25v.89h-.43v-1.65h.42v.24c.04-.07.09-.13.16-.18.1-.07.22-.1.34-.1.17,0,.31.04.42.13"/>
        <path id="Path_165355" data-name="Path 165355" class="cls-1" d="m36.46,21.13c.11.05.2.13.25.24v-.24h.42v1.57c0,.21-.04.37-.11.48-.12.19-.36.28-.71.28-.21,0-.38-.04-.52-.13-.13-.08-.21-.22-.22-.37h.47s.03.08.06.11c.05.04.13.06.24.06.16,0,.26-.05.31-.16.03-.07.05-.18.05-.34v-.11c-.03.06-.08.12-.13.16-.09.06-.2.1-.34.1-.21,0-.38-.07-.51-.22s-.19-.35-.19-.61.06-.45.18-.62.29-.25.52-.25c.07,0,.14.01.21.04m.15,1.19c.07-.08.1-.2.1-.36,0-.16-.03-.28-.1-.36-.06-.08-.16-.13-.27-.12-.15,0-.25.07-.31.21-.03.09-.05.18-.05.28,0,.09.02.17.05.26.05.13.17.22.32.21.09,0,.19-.04.25-.12"/>
        <path id="Path_165356" data-name="Path 165356" class="cls-1" d="m38.93,20.56h1.6v.39h-1.13v.51h.99v.39h-.99v.94h-.47v-2.23h0Z"/>
        <path id="Path_165357" data-name="Path 165357" class="cls-1" d="m41.49,20.94h-.44v-.4h.44v.4Zm-.44.2h.44v1.65h-.44v-1.65Z"/>
        <path id="Path_165358" data-name="Path 165358" class="cls-1" d="m43.48,21.23c.11.09.16.24.16.44v1.11h-.44v-1.01c0-.07,0-.14-.03-.2-.04-.09-.12-.13-.24-.13-.15,0-.25.06-.3.19-.03.08-.05.17-.04.25v.89h-.43v-1.65h.42v.24c.04-.07.09-.13.16-.18.1-.07.22-.1.34-.1.17,0,.31.04.42.13"/>
        <path id="Path_165359" data-name="Path 165359" class="cls-1" d="m44.95,21.78c.06,0,.12-.02.17-.04.06-.03.09-.07.09-.12,0-.07-.02-.11-.07-.14-.07-.03-.14-.04-.21-.04-.1,0-.18.02-.22.08-.03.04-.06.1-.06.15h-.42c0-.13.05-.25.12-.36.11-.15.31-.22.59-.22.17,0,.33.03.48.11.14.07.21.21.21.41v.76c0,.05,0,.12,0,.19,0,.04,0,.08.02.12.02.02.04.04.06.05v.06h-.47s-.02-.06-.03-.09c0-.03,0-.06-.01-.1-.06.06-.13.12-.21.17-.1.06-.21.08-.32.08-.13,0-.27-.04-.37-.13-.1-.09-.15-.21-.15-.36,0-.2.08-.35.24-.44.09-.05.21-.09.38-.11l.16-.02Zm.26.2s-.06.03-.08.04c-.04.01-.08.02-.12.03l-.1.02c-.07,0-.13.03-.2.06-.07.04-.11.11-.1.18,0,.07.02.13.06.16.04.03.1.05.15.05.09,0,.18-.03.26-.08.08-.06.12-.15.13-.3v-.16Z"/>
        <path id="Path_165360" data-name="Path 165360" class="cls-1" d="m47.6,21.23c.11.09.16.24.16.44v1.11h-.44v-1.01c0-.07,0-.14-.03-.2-.04-.09-.12-.13-.24-.13-.15,0-.25.06-.3.19-.03.08-.05.17-.04.25v.89h-.43v-1.65h.42v.24c.04-.07.09-.13.16-.18.1-.07.22-.1.34-.1.17,0,.31.04.42.13"/>
        <path id="Path_165361" data-name="Path 165361" class="cls-1" d="m49.4,21.73c0-.06-.03-.12-.06-.17-.05-.07-.13-.1-.23-.1-.15,0-.25.07-.3.22-.03.1-.05.2-.04.31,0,.1.01.2.04.29.05.14.15.21.29.21.1,0,.17-.03.22-.08.05-.06.07-.13.08-.21h.44c-.01.13-.06.26-.14.37-.13.19-.34.28-.6.28s-.46-.08-.59-.24c-.13-.16-.19-.36-.19-.61,0-.28.07-.51.21-.66.14-.16.33-.24.58-.24.21,0,.38.05.51.14.13.09.21.26.24.49h-.44Z"/>
        <path id="Path_165362" data-name="Path 165362" class="cls-1" d="m51.47,21.17c.12.05.21.14.28.25.07.1.11.22.13.34.01.11.02.22.02.33h-1.2c0,.17.06.28.17.35.07.04.16.06.24.06.14.01.27-.06.33-.19h.44c-.01.1-.06.2-.16.3-.15.16-.36.24-.62.24-.21,0-.42-.07-.58-.2-.17-.13-.25-.36-.25-.66,0-.29.08-.51.23-.66s.35-.23.59-.23c.13,0,.27.02.39.07m-.65.37c-.06.07-.1.16-.12.26h.74c0-.11-.05-.2-.12-.26-.07-.06-.16-.09-.26-.09-.11,0-.19.03-.25.09"/>
      </g>
      <path id="Path_165371" data-name="Path 165371" class="cls-1" d="m30.48.5s.07.02.1.02c.68.02,1.35.15,2,.36.08.02.15.05.25.07-.24.94-.47,1.87-.71,2.81-.14-.01-.27-.03-.4-.04-.32-.03-.65-.07-.97-.04-.65.07-1.13.48-1.28,1.02-.08.26-.08.53,0,.79.02.08.07.15.13.2.16.15.36.24.58.24.3,0,.59,0,.89,0h.48s0,0,.01.01,0,0,0,0c0,.02,0,.05,0,.07,0,.99,0,1.98,0,2.97,0,.02,0,.03-.01.04-.03,0-.06,0-.09.01-.33,0-.67,0-1,0-.09,0-.17-.02-.25-.02-.11,0-.22,0-.33.01-.23.03-.38.17-.43.39-.03.14-.05.29-.04.43,0,1.5.01,3,.02,4.5,0,1.3,0,2.61,0,3.91v.12s-.01.02-.02.02c0,0,0,0,0,0-.02,0-.04,0-.06,0h-3.96s-.03,0-.05,0c-.01,0-.02-.01-.03-.02v-7.95c0-.3-.01-.61-.02-.91,0-.05-.01-.1-.02-.14-.04-.16-.14-.27-.3-.3-.17-.03-.34-.05-.51-.06-.27-.02-.54-.03-.82-.04,0-.04-.01-.08-.02-.12,0-.59-.01-1.17,0-1.76,0-.2.02-.4.05-.61,0-.06.04-.13.08-.17.21-.23.47-.38.79-.39.1,0,.19-.02.29-.03.21-.05.37-.17.43-.38.04-.13.07-.27.09-.4.06-.54.15-1.07.32-1.59.2-.6.49-1.16.91-1.64.45-.5.99-.86,1.62-1.1.45-.17.91-.27,1.39-.3.1,0,.2-.02.3-.02.03,0,.06-.02.09-.02h.54Z"/>
      <path id="Path_165373" data-name="Path 165373" class="cls-1" d="m40.09,5.95s.07,0,.1,0c.81,0,1.61,0,2.41,0,.13,0,.26.01.39.01.09,0,.17.04.22.11.12.13.21.29.26.46.08.27.15.54.22.81.02.06.03.12.06.2.05-.03.09-.06.12-.08.53-.37,1.06-.74,1.6-1.1.55-.37,1.15-.63,1.81-.75,1.05-.19,2.03-.02,2.9.63.59.44,1,1.03,1.27,1.71.17.44.27.9.32,1.37.11.88.13,1.76.14,2.64,0,2.12,0,4.24,0,6.36v.12c-.1.02-3.95.03-4.08,0-.01-.15-.03-.3-.03-.46,0-.56-.02-1.13-.02-1.69,0-1.8-.01-3.61-.02-5.41,0-.29-.01-.58-.09-.86-.1-.36-.32-.63-.66-.8-.54-.26-1.09-.28-1.64-.04-.21.09-.4.21-.58.35-.33.25-.5.59-.59.98-.02.1-.03.21-.03.32,0,2.48-.02,4.97-.02,7.45v.17c-.09.03-3.87.04-4.06.02,0,0,0,0,0,0s0,0,0,0c0-.02,0-.04,0-.06V5.99s0-.03.02-.05"/>
      <path id="Path_165374" data-name="Path 165374" class="cls-1" d="m9.42,12.65c0-.87.13-1.73.45-2.54.59-1.46,1.56-2.58,2.94-3.34.59-.32,1.22-.54,1.88-.64,1.02-.17,2.07-.08,3.05.27,1.02.36,1.93.98,2.64,1.79.82.94,1.32,2.03,1.49,3.27.19,1.3.09,2.59-.38,3.83-.43,1.14-1.12,2.08-2.11,2.81-.84.62-1.79,1-2.83,1.14-.35.05-.7.07-1.04.07-.7,0-1.4-.14-2.04-.42-1.83-.8-3.08-2.13-3.75-4.01-.17-.47-.24-.95-.28-1.44-.02-.26-.03-.52-.04-.78m4.38-.03h.01v.26c0,.45.04.9.13,1.34.07.32.16.64.33.93.21.35.5.59.9.69.32.08.65.08.96,0,.31-.07.59-.24.79-.47.12-.14.21-.29.29-.45.14-.32.24-.65.28-.99.13-.87.12-1.75-.02-2.61-.06-.39-.17-.76-.38-1.1-.22-.37-.53-.64-.96-.74-.29-.07-.58-.05-.87,0-.46.08-.8.32-1.03.73-.11.21-.2.43-.26.66-.1.38-.14.77-.17,1.15-.02.2-.02.4-.02.59"/>
      <path id="Path_165375" data-name="Path 165375" class="cls-1" d="m33.98,6h3.99s0,0,0,0,0,0,0,0c0,0,0,.02,0,.02v12.35s0,.05,0,.07c0,0,0,0-.01,0s0,0,0,0c-.01,0-.02,0-.04,0h-3.89s-.04,0-.06,0h-.01s0-.02,0-.02c0-.04,0-.08,0-.12,0-4.1,0-8.2,0-12.3,0-.01,0-.02.01-.04"/>
      <path id="Path_165376" data-name="Path 165376" class="cls-1" d="m36.04,1.52c.36,0,.72.09,1.04.28.45.27.7.67.78,1.19.08.53-.06,1-.41,1.4-.28.31-.65.51-1.06.58-.8.13-1.46-.12-1.96-.76-.66-.83-.33-2.17.79-2.57.25-.09.49-.13.84-.13"/>
    </g>
    <g id="Group_83776" data-name="Group 83776">
      <path id="Path_165372" data-name="Path 165372" class="cls-1" d="m.7,22.55s.03-.05.04-.07c.07-.26.14-.52.21-.79.04-.17.06-.34.1-.51.03-.13.07-.27.13-.39.13-.3.38-.46.7-.5.12-.02.24-.02.36-.02.15,0,.29-.02.42-.1.28-.16.51-.39.67-.66.14-.22.18-.47.2-.73.01-.21.02-.43.02-.65,0-3.99,0-7.97,0-11.96v-.17c.11-.03,3.93-.04,4.06,0,.04.24.08.47.08.72,0,2.04,0,4.09,0,6.13,0,1.64,0,3.27-.01,4.91,0,.36,0,.73-.02,1.1-.04.81-.2,1.59-.6,2.3-.69,1.24-1.75,1.99-3.15,2.26-.49.09-.99.09-1.48.06-.46-.04-.92-.12-1.37-.22-.09-.02-.16-.06-.2-.14-.05-.09-.08-.19-.12-.29-.02-.04-.03-.07-.05-.11v-.17"/>
      <path id="Path_165377" data-name="Path 165377" class="cls-1" d="m5.58,1.52c.34,0,.68.08.98.25.52.29.79.74.84,1.33.05.5-.09.93-.43,1.3-.28.3-.65.5-1.05.57-.8.14-1.46-.12-1.96-.75-.65-.82-.35-2.2.83-2.59.24-.08.46-.11.79-.11"/>
    </g>
  </g>
</svg>