<?xml version="1.0" encoding="UTF-8"?>
<svg xmlns="http://www.w3.org/2000/svg" viewBox="0 0 200 200">
  <defs>
    <style>
      .cls-1, .cls-2, .cls-3 {
        opacity: .1;
      }

      .cls-1, .cls-4, .cls-5, .cls-6, .cls-7 {
        fill: #fde052;
      }

      .cls-2, .cls-8, .cls-9, .cls-10, .cls-11, .cls-12, .cls-13, .cls-14, .cls-15, .cls-16, .cls-17, .cls-18, .cls-19 {
        fill: #fff;
      }

      .cls-20 {
        isolation: isolate;
      }

      .cls-20, .cls-21 {
        fill: none;
      }

      .cls-22 {
        fill: #ebebeb;
      }

      .cls-23 {
        fill: #f28f8f;
      }

      .cls-24 {
        fill: #ffa8a7;
      }

      .cls-25 {
        fill: #fafafa;
      }

      .cls-26 {
        fill: #e0e0e0;
      }

      .cls-27 {
        fill: #b16668;
      }

      .cls-28 {
        fill: #37474f;
      }

      .cls-29, .cls-30 {
        fill: #455a64;
      }

      .cls-31 {
        fill: #263238;
      }

      .cls-9, .cls-10, .cls-11 {
        mix-blend-mode: lighten;
      }

      .cls-9, .cls-13 {
        opacity: .6;
      }

      .cls-10, .cls-14 {
        opacity: .5;
      }

      .cls-11, .cls-32 {
        opacity: .3;
      }

      .cls-5, .cls-33, .cls-21 {
        opacity: .15;
      }

      .cls-6, .cls-12 {
        opacity: .2;
      }

      .cls-30 {
        mix-blend-mode: multiply;
        opacity: .05;
      }

      .cls-15 {
        opacity: .9;
      }

      .cls-7 {
        opacity: .76;
      }

      .cls-16 {
        opacity: .8;
      }

      .cls-17 {
        opacity: .7;
      }

      .cls-18, .cls-34 {
        opacity: .4;
      }

      .cls-34 {
        fill: #f5f5f5;
      }

      .cls-19 {
        opacity: .35;
      }
    </style>
  </defs>
  <g class="cls-20">
    <g id="Desk">
      <g>
        <ellipse id="Floor-2" data-name="Floor" class="cls-34" cx="99.25" cy="145.55" rx="94.25" ry="43.01"/>
        <g id="Clouds">
          <path class="cls-22" d="m73.09,29.66l-3.36,1.94c.02-.15.03-.3.03-.44v-.97c0-1.73-1.22-2.43-2.72-1.57-.61.35-1.17.91-1.62,1.56-.25-2.18-1.95-2.99-4.03-1.79-2.24,1.3-4.06,4.45-4.06,7.04v1.46c0,.67.12,1.24.34,1.69l-2.79,1.61c-.83.48-1.51,1.65-1.51,2.61s.67,1.35,1.51.87l18.2-10.51c.83-.48,1.51-1.65,1.51-2.61s-.67-1.35-1.51-.87Z"/>
          <path class="cls-22" d="m27.41,30.04l2.09-1.61v-4.61c0-3.65,2.91-7.89,6.08-9.72h0c3.16-1.83,5.73-.35,5.73,3.31v.67c.72-1.12,1.64-2.07,2.66-2.66h0c2.28-1.31,4.12-.25,4.12,2.38v.3l2.92-1.68c1.5-.87,2.71-.16,2.71,1.57s-1.22,3.84-2.71,4.7l-23.6,13.62c-1.5.87-2.72.16-2.72-1.57s1.22-3.84,2.72-4.7Z"/>
        </g>
        <path id="Shadow" class="cls-26" d="m188.17,150.02c0-.11-.01-.21-.02-.31,0-.03-.01-.06-.01-.08-.01-.08-.02-.15-.04-.22,0-.03-.02-.05-.02-.08-.02-.07-.04-.15-.06-.22,0-.02-.02-.04-.03-.07-.03-.07-.06-.15-.09-.22,0-.02-.02-.03-.02-.05-.04-.08-.08-.15-.12-.22,0-.01-.01-.02-.02-.03-.05-.08-.1-.15-.15-.23,0,0,0-.01-.01-.02-.06-.08-.12-.15-.19-.22,0,0,0,0,0,0-.26-.27-.56-.5-.9-.67h0s0,0,0,0c-.1-.05-.19-.09-.29-.12,0,0-.02,0-.02,0-.09-.03-.18-.06-.28-.08-.02,0-.04,0-.05-.01-.09-.02-.17-.03-.26-.05-.02,0-.05,0-.07-.01-.11-.01-.22-.02-.33-.02-.53,0-1.02.14-1.45.37-.01-.04-.03-.08-.04-.12-.01-.04-.03-.07-.04-.11-.05-.12-.1-.25-.15-.36-.01-.03-.03-.05-.04-.08-.06-.13-.13-.25-.2-.37-.01-.02-.02-.03-.03-.05-.08-.13-.17-.25-.26-.37,0,0-.01-.02-.02-.03-.1-.13-.2-.25-.31-.37,0,0,0,0,0,0-.42-.45-.93-.83-1.49-1.1h0s0,0,0,0c-.16-.08-.32-.14-.49-.2-.01,0-.03,0-.04-.01-.15-.05-.3-.1-.46-.14-.03,0-.06-.02-.09-.02-.14-.03-.29-.06-.44-.08-.04,0-.08-.01-.12-.02-.18-.02-.36-.03-.55-.03-2.4,0-4.42,1.7-4.9,3.96-.45-.39-.96-.72-1.5-.98h0s0,0,0,0c-.21-.1-.42-.19-.64-.27-.04-.01-.07-.03-.11-.04-.14-.05-.28-.09-.42-.13-.11-.03-.22-.06-.34-.08-.08-.02-.15-.03-.23-.05-.17-.03-.34-.06-.52-.08-.04,0-.09,0-.13-.01-.2-.02-.41-.03-.61-.03-3.35,0-6.15,2.4-6.77,5.58-.09-.14-.18-.27-.28-.4-.02-.03-.05-.06-.07-.1-.16-.2-.32-.4-.49-.59,0,0-.02-.02-.03-.03-.19-.21-.39-.4-.6-.59h0s0,0,0,0c-.79-.7-1.72-1.25-2.73-1.62-.04-.02-.09-.03-.13-.05-.17-.06-.34-.11-.52-.16-.14-.04-.28-.07-.42-.11-.09-.02-.19-.04-.28-.06-.21-.04-.43-.07-.65-.1-.05,0-.11,0-.16-.01-.25-.02-.51-.04-.76-.04-4.57,0-8.31,3.58-8.55,8.1,0,0-.01-.01-.02-.02,0,0,0,0-.01-.01-.66-.71-1.45-1.29-2.33-1.72h0s0,0,0,0c-.24-.11-.48-.21-.72-.3-.04-.01-.08-.03-.12-.04-.16-.05-.32-.1-.48-.15-.12-.03-.25-.07-.38-.1-.09-.02-.17-.04-.26-.05-.19-.04-.39-.07-.59-.09-.05,0-.1,0-.15-.01-.23-.02-.46-.03-.7-.03-4.24,0-7.71,3.39-7.82,7.61,0,.07,0,.14,0,.22s0,.14,0,.22c0,.06.02.12.03.17-.02,0-.04-.01-.06-.02-.02,0-.03,0-.05-.01-.09-.02-.17-.03-.26-.05-.02,0-.05,0-.07-.01-.11-.01-.22-.02-.33-.02-.5,0-.98.12-1.4.34-.11-4.01-3.4-7.23-7.44-7.23-.22,0-.44.01-.66.03-.05,0-.09,0-.14.01-.19.02-.38.05-.56.08-.08.02-.16.03-.25.05-.12.03-.24.06-.36.09-.15.04-.31.09-.46.14-.04.01-.08.03-.12.04-.24.09-.47.18-.69.29,0,0,0,0,0,0h0c-.11.05-.22.1-.33.16,0-.06,0-.12,0-.19-.12-4.63-3.92-8.33-8.57-8.33-.26,0-.51.02-.76.04-.05,0-.11,0-.16.01-.22.02-.43.06-.65.1-.1.02-.19.04-.28.06-.14.03-.28.07-.42.1-.02,0-.04,0-.05.01-.45-3.59-3.51-6.36-7.22-6.36-.22,0-.43.01-.65.03-.05,0-.09,0-.14.01-.19.02-.37.05-.55.08-.08.01-.16.03-.24.05-.12.03-.24.06-.35.09-.15.04-.3.09-.44.14-.04.01-.08.03-.12.04-.23.08-.45.18-.67.28,0,0,0,0,0,0h0c-.6.29-1.15.66-1.65,1.09h0s0,0,0,0c-.18.16-.35.33-.52.5,0,0,0,0-.01.01-.16.17-.31.35-.45.53,0,.01-.02.02-.03.04-.13.18-.26.36-.37.54-.02.02-.03.05-.05.07-.11.18-.2.36-.29.54-.02.04-.04.08-.06.12-.07.15-.13.3-.19.45,0,0,0,0,0,0-.21,0-.41.01-.61.03-.04,0-.09,0-.13.01-.17.02-.34.04-.51.08-.27-2.51-2.4-4.46-4.98-4.46-.19,0-.37.01-.55.03-.04,0-.08.01-.11.02-.15.02-.29.04-.44.08-.03,0-.06.01-.09.02-.16.04-.31.08-.46.14-.01,0-.03,0-.04.01-.17.06-.33.13-.49.2,0,0,0,0,0,0,0,0,0,0,0,0-.57.27-1.07.65-1.49,1.1,0,0,0,0,0,0-.11.12-.21.24-.31.37,0,0-.01.02-.02.03-.09.12-.18.25-.26.38-.01.02-.02.03-.03.05-.07.12-.14.25-.2.37-.01.03-.03.05-.04.08-.06.12-.11.24-.15.36-.01.04-.03.07-.04.11-.01.04-.03.08-.04.12-.43-.24-.93-.37-1.45-.37-.11,0-.22,0-.33.02-.02,0-.05,0-.07.01-.09.01-.18.03-.26.05-.02,0-.03,0-.05.01-.09.02-.19.05-.28.08,0,0-.02,0-.02,0-.1.04-.2.08-.29.12,0,0,0,0,0,0h0c-.25.12-.48.27-.69.46,0,0,0,0,0,0,0,0,0,0,0,0-.08.07-.15.14-.21.21,0,0,0,0,0,0-.07.07-.13.14-.19.22,0,0,0,.01-.01.02-.05.07-.11.15-.15.23,0,.01-.01.02-.02.03-.04.07-.08.15-.12.22,0,.02-.02.03-.02.05-.03.07-.06.15-.09.22,0,.02-.02.04-.03.07-.02.07-.05.14-.07.22,0,.03-.02.05-.02.08-.02.07-.03.15-.04.22,0,.03-.01.06-.01.08-.01.1-.02.21-.02.31,0,.03,0,.06,0,.08s0,.06,0,.08c.03.42.33.83.88,1.15.75.44,1.81.59,2.78.47,0,0,0,0-.01,0,.16-.02.31-.05.46-.08.05-.01.1-.03.15-.04.12-.03.23-.06.34-.1.05-.02.09-.03.14-.05.15-.06.29-.12.42-.2.07-.04.14-.08.2-.13,0,0,.01,0,.02-.01.05-.04.11-.08.15-.12,0,0,0,0,0,0,.03-.03.06-.06.09-.09.02.01.04.03.07.04,1.03.59,2.4.87,3.74.84-.05.1-.1.2-.15.3-.02.04-.04.07-.06.11-.08.16-.15.33-.21.5-.02.05-.04.1-.06.15-.06.16-.1.33-.15.49-.02.06-.04.12-.05.18-.04.17-.07.34-.1.51,0,.06-.02.12-.03.19-.03.24-.05.47-.06.72,0,.07,0,.13,0,.19s0,.13,0,.19c.08.96.75,1.89,2.01,2.63,1.71.99,4.1,1.35,6.31,1.08,0,0,0,0,0,0,0,0,0,0,0,0,.29-.04.58-.08.87-.14.04,0,.08-.02.12-.02.29-.06.57-.13.85-.22,0,0,.01,0,.02,0,.25-.08.5-.17.74-.27.06-.02.12-.05.18-.07.24-.11.48-.22.7-.35.16-.09.31-.19.45-.29.02-.02.04-.03.07-.05.12-.08.23-.17.33-.25,0,0,.01-.01.02-.02.24-.2.44-.42.6-.63,0,0,0,0,0,0h0c.33-.44.52-.91.56-1.38,0-.07,0-.13,0-.19,0-.02,0-.04,0-.06.46,0,.91-.03,1.36-.09,0,0,0,0,0,0,0,0,0,0,0,0,.04,0,.07-.01.11-.02-.06.14-.11.28-.16.43-.02.07-.04.13-.06.2-.07.21-.13.42-.18.64-.01.05-.02.09-.03.14-.05.24-.1.48-.13.72,0,.02,0,.05,0,.08-.03.26-.05.53-.06.8,0,.08,0,.16,0,.24s0,.16,0,.24c.1,1.19.93,2.35,2.5,3.26,2.13,1.23,5.09,1.67,7.83,1.34,0,0,0,0,0,0,.02,0,.03,0,.05,0,.31-.04.61-.09.91-.15.1-.02.21-.04.31-.06.12-.03.23-.05.35-.08.13-.03.26-.07.39-.1.09-.02.18-.05.26-.07.21-.06.41-.13.61-.21.07-.03.14-.05.21-.08.09-.04.19-.07.28-.11,0,.02-.01.04-.02.06-.06.17-.11.35-.16.53-.02.07-.04.13-.06.2-.04.18-.07.36-.1.55-.01.07-.03.14-.04.2-.03.25-.05.51-.06.77,0,.07,0,.14,0,.21s0,.14,0,.21c.08,1.03.81,2.04,2.17,2.83,2.09,1.21,5.12,1.54,7.73,1.01.04,0,.08-.02.12-.03.31-.07.62-.14.92-.23,0,0,.01,0,.02,0,.27-.09.54-.18.8-.29.06-.03.13-.05.19-.08.26-.12.51-.24.75-.38.17-.1.33-.2.49-.31.02-.02.04-.03.06-.05,0,0,0,0,.01,0,.03.17.11.34.23.5h0s0,0,0,0c.07.1.16.19.26.28,0,0,0,0,0,0,.04.04.09.08.15.11,0,0,.02.01.03.02.06.04.13.09.2.13.13.08.28.14.42.2.05.02.09.03.14.05.11.04.22.07.34.1.05.01.1.03.15.04.15.03.31.06.46.08,0,0,0,0-.01,0,.97.12,2.02-.04,2.78-.47.55-.32.85-.73.88-1.15,0-.03,0-.06,0-.08s0-.06,0-.08c0-.02,0-.03,0-.05,0,0,.01,0,.02.01.17.1.35.19.53.28.06.03.11.05.17.08.13.06.27.12.4.17.06.03.13.05.19.07.18.07.37.13.55.19.08.02.16.05.24.07.12.03.23.07.35.09.11.03.21.05.32.07.09.02.19.04.28.06.27.05.53.1.81.13.02,0,.05,0,.07.01,0,0,0,0,0,0,2.5.3,5.2-.11,7.14-1.22,1.43-.83,2.19-1.89,2.28-2.98,0-.07,0-.14,0-.22s0-.14,0-.22c0-.27-.03-.54-.06-.81,0-.07-.03-.14-.04-.21-.03-.16-.05-.32-.08-.47.02.01.03.03.05.04.17.12.36.24.56.36.19.11.38.21.58.3.06.03.12.06.19.09.14.07.29.13.44.19.07.03.14.06.21.08.2.07.4.14.61.21.09.03.18.05.27.08.13.04.25.07.38.1.12.03.23.06.35.08.1.02.21.04.31.06,2.99.58,6.41.18,8.79-1.19,1.57-.91,2.4-2.07,2.5-3.26,0-.08,0-.16,0-.24s0-.16,0-.24c0-.23-.02-.46-.05-.68,0,0,0,0,.01,0,.02.01.03.02.05.04.14.1.29.19.45.29.22.13.46.24.7.35.06.03.12.05.18.07.24.1.48.19.74.27,0,0,0,0,.01,0,.28.09.56.16.85.22.04,0,.08.02.11.02,2.43.49,5.23.18,7.18-.94,1.26-.73,1.94-1.67,2.01-2.63,0-.07,0-.13,0-.19s0-.13,0-.19c0-.24-.03-.48-.06-.72,0-.06-.02-.12-.03-.19-.03-.17-.06-.34-.1-.51-.01-.05-.03-.09-.04-.14.11.04.23.08.35.12,0,0,0,0,.01,0,.2.06.41.11.62.16.03,0,.06.01.08.02,1.76.36,3.8.13,5.21-.68.02-.01.04-.03.07-.04.08.07.16.15.26.22,0,0,0,0,.01,0,.06.04.13.09.2.13.13.08.28.14.42.2.05.02.09.03.14.05.11.04.22.07.34.1.05.01.1.03.15.04.15.03.31.06.46.08,0,0,0,0-.01,0,.97.12,2.02-.04,2.78-.47.55-.32.85-.73.88-1.15,0-.03,0-.06,0-.08s0-.06,0-.08Z"/>
        <ellipse id="Shadow-2" data-name="Shadow" class="cls-26" cx="58.89" cy="159.33" rx="20.84" ry="12.03"/>
        <g id="Plants-2" data-name="Plants">
          <g>
            <path class="cls-4" d="m182.37,133.29l-3.92-2.08s-.3-6,.17-10.75c.66-6.68,5.62-14.44,10.77-12.55,5.15,1.89-2.36,8.69-4.03,14.36-1.67,5.67-2.99,11.02-2.99,11.02Z"/>
            <path class="cls-32" d="m182.37,133.29l-3.92-2.08s-.3-6,.17-10.75c.66-6.68,5.62-14.44,10.77-12.55,5.15,1.89-2.36,8.69-4.03,14.36-1.67,5.67-2.99,11.02-2.99,11.02Z"/>
            <path class="cls-8" d="m180.45,132.59h0c.1,0,.17-.08.17-.18-.5-14.85,6.89-22.31,6.96-22.39.07-.07.07-.18,0-.25-.07-.07-.18-.07-.25,0-.08.07-7.57,7.65-7.06,22.65,0,.09.08.17.17.17Z"/>
          </g>
          <g>
            <path class="cls-4" d="m184.38,134.47l-2.04-1.18s-.64-4.73,1.27-9.9c1.89-5.13,6.78-7.93,9.02-7.16,2.74.93,2.76,3.56,1.76,5.29-1.18,2.04-8.53,7.19-10.01,12.96Z"/>
            <path class="cls-3" d="m184.38,134.47l-2.04-1.18s-.64-4.73,1.27-9.9c1.89-5.13,6.78-7.93,9.02-7.16,2.74.93,2.76,3.56,1.76,5.29-1.18,2.04-8.53,7.19-10.01,12.96Z"/>
            <path class="cls-8" d="m183.31,134.03h0c.1,0,.17-.08.17-.17-.04-9.39,8.77-15.73,8.86-15.79.08-.06.1-.16.04-.24-.05-.08-.16-.1-.24-.04-.09.06-9.05,6.51-9.01,16.08,0,.1.08.17.17.17Z"/>
          </g>
        </g>
        <g id="Plants-3" data-name="Plants">
          <g>
            <path class="cls-4" d="m18.35,133.14l2.55-1.46s1.22-6.74.31-12.54c-1.29-8.15-6.83-10.96-8.85-10.15-2.01.81-2.49,3.22,1.15,7.93,2.15,2.78,4.91,8.65,4.84,16.21Z"/>
            <g class="cls-21">
              <path d="m18.35,133.14l2.55-1.46s1.22-6.74.31-12.54c-1.29-8.15-6.83-10.96-8.85-10.15-2.01.81-2.49,3.22,1.15,7.93,2.15,2.78,4.91,8.65,4.84,16.21Z"/>
            </g>
            <path class="cls-8" d="m19.27,129.9s-.02,0-.03,0c-.1-.01-.17-.11-.16-.2,1.05-7.63-2.01-15.99-5.46-19.35-.07-.07-.07-.19,0-.26.07-.07.19-.07.26,0,3.51,3.43,6.64,11.92,5.57,19.66-.01.09-.09.16-.18.16Z"/>
          </g>
          <g>
            <path class="cls-4" d="m11.27,137.23c-.4.23-1.23-.27-1.55-.49-.54-.37-.99-.88-1.28-1.47-.34-.68-.43-1.41-.32-2.16.06-.39.16-.77.27-1.15.11-.37.21-.74.32-1.12.11-.37.21-.75.16-1.13-.1-.76-.78-1.3-1.39-1.76-.68-.51-1.39-1.18-1.39-2.1,0-.71.37-1.37.81-1.93s.96-1.05,1.36-1.64c.29-.42.51-.92.46-1.43-.03-.32-.16-.61-.31-.89-.32-.6-.75-1.15-.98-1.79-.22-.64-.19-1.44.31-1.9.41-.38,1.02-.43,1.58-.39.52.03,1.02.27,1.47.52,1.46.81,2.29,2.54,3.84,3.17.6.24,1.25.29,1.88.46.62.16,1.26.48,1.55,1.06.57,1.14-.49,2.54-.09,3.74.35,1.07,1.39,1.48,1.97,2.44.25.42.31.91.27,1.4-.07.83-.19,1.44-.59,2.36-.33.76-1.3,2.13-1.3,2.13-.02.02-7.02,4.05-7.08,4.09Z"/>
            <path class="cls-8" d="m15.41,135.02h0c-.1,0-.18-.09-.18-.19.3-7.22-3.1-15.19-5.58-17.51-.07-.07-.08-.18,0-.26.07-.07.18-.08.26,0,2.52,2.36,6,10.47,5.69,17.79,0,.1-.08.17-.18.17Z"/>
            <path class="cls-8" d="m14.33,126.49s-.04,0-.05,0c-2.32-.72-5.21-.84-5.24-.84-.1,0-.18-.09-.17-.19,0-.1.08-.18.19-.17.03,0,2.97.13,5.33.86.1.03.15.13.12.23-.02.08-.1.13-.17.13Z"/>
          </g>
        </g>
        <g id="Button">
          <g>
            <path class="cls-29" d="m9.75,82.5c0-6.97,4.89-15.44,10.93-18.92,3.02-1.74,5.76-1.91,7.73-.76.03.02,1.36.78,1.36.78,0,0,1.83,2.86,1.83,6.28,0,6.97-4.89,15.44-10.93,18.92-2.98,1.72-6.36,1.55-6.36,1.55,0,0-1.34-.77-1.37-.79-1.98-1.14-3.2-3.59-3.2-7.07Z"/>
            <path class="cls-3" d="m24.06,86.22l-13.78-7.95c-.35,1.43-.54,2.86-.54,4.23,0,3.48,1.22,5.93,3.2,7.07.02.01,1.37.79,1.37.79,0,0,3.38.17,6.36-1.55,1.18-.68,2.32-1.56,3.39-2.58Z"/>
            <ellipse class="cls-28" cx="22.04" cy="76.98" rx="15.45" ry="8.92" transform="translate(-55.64 57.57) rotate(-60)"/>
          </g>
          <g>
            <path class="cls-4" d="m13.14,82.25c0-5.75,4.04-12.74,9.01-15.61,2.49-1.44,4.75-1.57,6.38-.63.02.01,4.65,2.69,4.65,2.69,0,0,1.51,2.36,1.51,5.18,0,5.75-4.04,12.74-9.01,15.61-2.46,1.42-5.25,1.28-5.25,1.28,0,0-4.64-2.68-4.66-2.69-1.63-.94-2.64-2.96-2.64-5.84Z"/>
            <path class="cls-33" d="m15.74,73.44c-1.61,2.81-2.6,5.96-2.6,8.81s1.01,4.89,2.64,5.84c.02.01,4.66,2.69,4.66,2.69,0,0,2.79.14,5.25-1.28,2.47-1.42,4.7-3.86,6.33-6.66l-16.28-9.4Z"/>
            <path class="cls-18" d="m34.7,73.88c0,2.9-1.03,6.11-2.68,8.96l-16.28-9.4c1.63-2.86,3.9-5.35,6.41-6.8,2.49-1.44,4.75-1.57,6.38-.63.02.01,4.65,2.69,4.65,2.69,0,0,1.51,2.36,1.51,5.18Z"/>
            <path class="cls-7" d="m13.33,80.02c.36-2.21,1.21-4.49,2.41-6.58l16.28,9.4c-1.21,2.08-2.76,3.97-4.5,5.38l-14.19-8.19Z"/>
            <path class="cls-4" d="m17.8,84.94c0-5.75,4.04-12.74,9.01-15.61,4.98-2.87,9.01-.54,9.01,5.2,0,5.75-4.04,12.74-9.01,15.61-4.98,2.87-9.01.54-9.01-5.2Z"/>
          </g>
          <g>
            <path class="cls-25" d="m19.47,86.73s-.04-.1-.04-.2v-4.69c0-.16.09-.29.28-.4l.19-.11c.19-.11.28-.08.28.08v4.01l.72-.42c.05-.03.09-.02.11.03.02.05.03.13.03.26v.23c0,.13-.01.23-.03.3-.02.07-.06.12-.11.15l-1.3.75c-.06.04-.11.04-.14,0Z"/>
            <path class="cls-25" d="m21.25,85.63s0-.09.01-.14l.74-5.17c.02-.15.12-.28.3-.38l.31-.18c.18-.1.28-.09.3.04l.74,4.31c0,.07,0,.11,0,.13,0,.11-.07.2-.21.28l-.26.15c-.15.09-.24.09-.26,0l-.13-.84-.74.42-.13.98c-.01.11-.09.21-.23.29l-.25.15c-.15.09-.23.08-.23-.03Zm1.49-2.67l-.22-1.45c-.02-.17-.04-.34-.06-.53h-.02c-.02.22-.04.42-.06.61l-.21,1.7.57-.33Z"/>
            <path class="cls-25" d="m24.36,83.62c-.21-.16-.31-.49-.31-.99v-3.46c0-.16.09-.29.28-.4l.19-.11c.19-.11.28-.08.28.08v3.39c0,.2.04.35.11.43.07.08.17.09.3.02.12-.07.22-.19.3-.37.08-.17.11-.36.11-.56v-3.39c0-.16.09-.29.28-.4l.19-.11c.19-.11.28-.08.28.08v3.46c0,.5-.1.95-.31,1.35-.2.4-.49.7-.85.91-.36.21-.65.24-.86.08Z"/>
            <path class="cls-25" d="m27,82.23v-4.77c0-.16.09-.29.28-.4l.13-.07c.06-.04.12-.05.15-.05.04,0,.07.04.1.11l.87,1.92c.05.1.1.26.16.49l.02-.03c-.03-.24-.04-.43-.04-.57v-2.38c0-.16.09-.29.28-.4l.12-.07c.19-.11.28-.08.28.08v4.77c0,.16-.09.29-.28.4l-.09.05c-.06.04-.12.05-.16.05s-.08-.04-.1-.11l-.92-2c-.03-.06-.07-.19-.13-.4l-.02.04c.03.21.04.37.04.48v2.45c0,.16-.09.29-.28.4l-.12.07c-.19.11-.28.08-.28-.08Z"/>
            <path class="cls-25" d="m30.2,80.02c-.2-.31-.31-.93-.31-1.86s.11-1.62.32-2.18c.21-.56.55-.97.99-1.23.15-.09.29-.14.42-.16.1-.01.15.07.15.23,0,.19-.02.37-.07.54-.04.17-.1.26-.16.26-.1.01-.21.04-.31.1-.19.11-.34.33-.43.66-.1.33-.14.77-.14,1.33s.05.94.14,1.16c.1.22.25.27.46.15.06-.04.11-.07.15-.11.04-.04.1-.09.16-.16,0-.01.02-.02.04-.03.06-.04.11,0,.14.1.03.11.05.26.05.46,0,.07,0,.14-.03.21-.02.06-.06.13-.11.19-.05.06-.13.13-.22.2-.09.07-.18.14-.28.2-.45.26-.78.24-.98-.08Z"/>
            <path class="cls-25" d="m32.33,79.15v-4.77c0-.16.09-.29.28-.4l.2-.12c.18-.11.28-.08.28.08v1.84l.83-.48v-1.84c0-.16.09-.29.28-.4l.2-.11c.19-.11.28-.08.28.08v4.77c0,.16-.09.29-.28.4l-.2.11c-.19.11-.28.08-.28-.08v-1.94l-.83.48v1.94c0,.16-.09.29-.28.4l-.2.12c-.19.11-.28.08-.28-.08Z"/>
          </g>
        </g>
        <g id="Rocket">
          <g>
            <path class="cls-4" d="m156.71,150.67c0,5.49-10.86,9.95-24.26,9.95s-24.26-4.45-24.26-9.95,10.86-9.95,24.26-9.95,24.26,4.45,24.26,9.95Z"/>
            <path class="cls-4" d="m156.71,150.67c0,5.49-10.86,9.95-24.26,9.95s-24.26-4.45-24.26-9.95,10.86-9.95,24.26-9.95,24.26,4.45,24.26,9.95Z"/>
            <ellipse class="cls-15" cx="132.45" cy="150.67" rx="26.25" ry="10.76"/>
            <g>
              <path class="cls-4" d="m107.74,141.85c.15-5.82,4.92-10.48,10.78-10.48s10.63,4.67,10.78,10.48c0,.1,0,.2,0,.3s0,.2,0,.3c-.12,1.49-1.17,2.96-3.15,4.1-4.21,2.43-11.04,2.43-15.25,0-1.97-1.15-3.02-2.61-3.14-4.1,0-.1,0-.2,0-.3s0-.2,0-.3Z"/>
              <path class="cls-16" d="m107.74,141.85c.15-5.82,4.92-10.48,10.78-10.48s10.63,4.67,10.78,10.48c0,.1,0,.2,0,.3s0,.2,0,.3c-.12,1.49-1.17,2.96-3.15,4.1-4.21,2.43-11.04,2.43-15.25,0-1.97-1.15-3.02-2.61-3.14-4.1,0-.1,0-.2,0-.3s0-.2,0-.3Z"/>
              <path class="cls-11" d="m113.84,132.44h0c1.42-.68,3-1.08,4.68-1.08,5.85,0,10.63,4.67,10.78,10.48,0,.1,0,.2,0,.3s0,.2,0,.3c-.12,1.49-1.17,2.96-3.15,4.1-1.54.89-3.43,1.45-5.41,1.69,2.8-.48,4.61-3.6,3.75-7.05-1-4-5.04-9.78-10.64-8.75Z"/>
              <path class="cls-1" d="m107.74,142.45c0-.1,0-.2,0-.3s0-.2,0-.3c.08-3.11,1.48-5.88,3.66-7.79-1.17,1.2-3.78,5.74-.95,9.2,1.86,2.28,10.7,5.52,17.97,1.35-.53.7-1.29,1.36-2.29,1.94-4.21,2.43-11.04,2.43-15.25,0-1.97-1.15-3.02-2.61-3.14-4.1Z"/>
              <path class="cls-10" d="m118.63,133.8c-.48,1.1.44,2.57,2.07,3.28,1.63.71,3.34.4,3.82-.7.48-1.1-.44-2.57-2.07-3.28-1.63-.71-3.34-.4-3.82.7Z"/>
              <path class="cls-10" d="m124.87,138.27c-.25.57.11,1.29.81,1.59.7.31,1.47.09,1.73-.48.25-.57-.11-1.29-.81-1.59-.7-.31-1.47-.09-1.73.48Z"/>
            </g>
            <g>
              <path class="cls-4" d="m152.8,141.68c-.13-4.94-4.18-8.9-9.15-8.9s-9.02,3.96-9.15,8.9c0,.09,0,.17,0,.26s0,.17,0,.26c.1,1.27,1,2.51,2.68,3.48,3.57,2.06,9.37,2.06,12.95,0,1.67-.97,2.57-2.22,2.67-3.48,0-.09,0-.17,0-.26s0-.17,0-.26Z"/>
              <path class="cls-16" d="m152.8,141.68c-.13-4.94-4.18-8.9-9.15-8.9s-9.02,3.96-9.15,8.9c0,.09,0,.17,0,.26s0,.17,0,.26c.1,1.27,1,2.51,2.68,3.48,3.57,2.06,9.37,2.06,12.95,0,1.67-.97,2.57-2.22,2.67-3.48,0-.09,0-.17,0-.26s0-.17,0-.26Z"/>
              <path class="cls-11" d="m147.63,133.69h0c-1.2-.58-2.55-.91-3.97-.91-4.97,0-9.02,3.96-9.15,8.9,0,.09,0,.17,0,.26s0,.17,0,.26c.1,1.27,1,2.51,2.68,3.48,1.31.75,2.91,1.23,4.59,1.43-2.37-.41-3.91-3.06-3.18-5.99.85-3.4,4.28-8.31,9.03-7.43Z"/>
              <path class="cls-1" d="m152.8,142.19c0-.09,0-.17,0-.26s0-.17,0-.26c-.07-2.64-1.26-4.99-3.11-6.62.99,1.02,3.21,4.88.8,7.81-1.58,1.93-9.09,4.69-15.26,1.15.45.6,1.09,1.16,1.94,1.65,3.57,2.06,9.37,2.06,12.95,0,1.67-.97,2.57-2.22,2.67-3.48Z"/>
              <path class="cls-10" d="m143.56,134.84c.41.93-.38,2.18-1.76,2.79-1.38.61-2.83.34-3.24-.59-.41-.93.38-2.18,1.76-2.79,1.38-.61,2.83-.34,3.24.59Z"/>
              <path class="cls-10" d="m138.26,138.64c.21.49-.1,1.09-.69,1.35-.6.26-1.25.08-1.47-.41-.21-.49.1-1.09.69-1.35.6-.26,1.25-.08,1.46.41Z"/>
            </g>
            <g>
              <path class="cls-4" d="m161.74,142.74c-.08-3.27-2.76-5.89-6.05-5.89s-5.97,2.62-6.05,5.89c0,.06,0,.11,0,.17s0,.11,0,.17c.07.84.66,1.66,1.77,2.3,2.36,1.37,6.2,1.37,8.57,0,1.11-.64,1.7-1.47,1.77-2.3,0-.06,0-.11,0-.17s0-.11,0-.17Z"/>
              <path class="cls-15" d="m161.74,142.74c-.08-3.27-2.76-5.89-6.05-5.89s-5.97,2.62-6.05,5.89c0,.06,0,.11,0,.17s0,.11,0,.17c.07.84.66,1.66,1.77,2.3,2.36,1.37,6.2,1.37,8.57,0,1.11-.64,1.7-1.47,1.77-2.3,0-.06,0-.11,0-.17s0-.11,0-.17Z"/>
              <path class="cls-10" d="m158.32,137.45h0c-.8-.38-1.68-.6-2.63-.6-3.28,0-5.97,2.62-6.05,5.89,0,.06,0,.11,0,.17s0,.11,0,.17c.07.84.66,1.66,1.77,2.3.86.5,1.92.81,3.04.95-1.57-.27-2.59-2.02-2.1-3.96.56-2.25,2.83-5.49,5.97-4.91Z"/>
              <path class="cls-1" d="m161.74,143.08c0-.06,0-.11,0-.17s0-.11,0-.17c-.05-1.74-.83-3.3-2.05-4.37.66.68,2.12,3.22.53,5.17-1.05,1.28-6.01,3.1-10.09.76.3.39.72.77,1.28,1.09,2.36,1.37,6.2,1.37,8.57,0,1.11-.64,1.7-1.47,1.77-2.3Z"/>
              <path class="cls-10" d="m155.63,138.22c.27.62-.25,1.44-1.16,1.84-.91.4-1.87.23-2.14-.39-.27-.62.25-1.44,1.16-1.84.91-.4,1.87-.23,2.14.39Z"/>
              <path class="cls-10" d="m152.12,140.73c.14.32-.06.72-.46.9-.39.17-.83.05-.97-.27-.14-.32.06-.72.46-.9.39-.17.83-.05.97.27Z"/>
            </g>
            <g>
              <path class="cls-4" d="m174.64,145.37c-.11-4.44-3.75-8-8.22-8s-8.11,3.56-8.22,8c0,.08,0,.15,0,.23s0,.15,0,.23c.09,1.14.9,2.26,2.41,3.13,3.21,1.86,8.42,1.86,11.64,0,1.5-.87,2.31-1.99,2.4-3.13,0-.08,0-.15,0-.23s0-.15,0-.23Z"/>
              <path class="cls-17" d="m174.64,145.37c-.11-4.44-3.75-8-8.22-8s-8.11,3.56-8.22,8c0,.08,0,.15,0,.23s0,.15,0,.23c.09,1.14.9,2.26,2.41,3.13,3.21,1.86,8.42,1.86,11.64,0,1.5-.87,2.31-1.99,2.4-3.13,0-.08,0-.15,0-.23s0-.15,0-.23Z"/>
              <path class="cls-11" d="m169.99,138.19h0c-1.08-.52-2.29-.82-3.57-.82-4.46,0-8.11,3.56-8.22,8,0,.08,0,.15,0,.23s0,.15,0,.23c.09,1.14.9,2.26,2.41,3.13,1.17.68,2.61,1.11,4.13,1.29-2.13-.37-3.52-2.75-2.86-5.38.76-3.05,3.85-7.46,8.12-6.67Z"/>
              <path class="cls-1" d="m174.64,145.83c0-.08,0-.15,0-.23s0-.15,0-.23c-.06-2.37-1.13-4.48-2.79-5.94.89.92,2.88,4.38.72,7.02-1.42,1.74-8.16,4.21-13.72,1.03.4.54.98,1.04,1.75,1.48,3.21,1.86,8.42,1.86,11.64,0,1.5-.87,2.31-1.99,2.4-3.13Z"/>
              <path class="cls-10" d="m166.33,139.22c.37.84-.34,1.96-1.58,2.51-1.24.55-2.55.31-2.91-.53-.37-.84.34-1.96,1.58-2.51s2.55-.31,2.91.53Z"/>
              <path class="cls-10" d="m161.57,142.64c.19.44-.09.98-.62,1.22-.54.24-1.12.07-1.32-.37-.19-.44.09-.98.62-1.22.54-.24,1.12-.07,1.32.37Z"/>
            </g>
          </g>
          <g>
            <path class="cls-4" d="m142.3,114.05c0,3-1.35,5.68-3.47,7.49-1.44,1.22-2.33,2.98-2.33,4.87v23.55c0,.6-.39,1.2-1.18,1.65-.44.25-.94.43-1.48.54-.89.18-1.87.18-2.75,0-.54-.11-1.05-.3-1.48-.54-.79-.46-1.18-1.05-1.18-1.65v-23.6c0-1.87-.89-3.61-2.32-4.82-2.15-1.82-3.51-4.54-3.48-7.58.04-5.14,4.16-9.47,9.29-9.75,5.68-.31,10.38,4.21,10.38,9.83Z"/>
            <path class="cls-14" d="m142.3,114.05c0,3-1.35,5.68-3.47,7.49-1.44,1.22-2.33,2.98-2.33,4.87v23.55c0,.6-.39,1.2-1.18,1.65-.44.25-.94.43-1.48.54-.89.18-1.87.18-2.75,0-.54-.11-1.05-.3-1.48-.54-.79-.46-1.18-1.05-1.18-1.65v-23.6c0-1.87-.89-3.61-2.32-4.82-2.15-1.82-3.51-4.54-3.48-7.58.04-5.14,4.16-9.47,9.29-9.75,5.68-.31,10.38,4.21,10.38,9.83Z"/>
            <path class="cls-4" d="m137.95,114.05c0,1.85-.92,3.48-2.31,4.47-1.17.83-1.8,2.22-1.8,3.65v28.38c0,.76-.6,1.41-1.36,1.41,0,0-.02,0-.03,0-.76,0-1.36-.65-1.36-1.41v-28.45c0-1.41-.65-2.76-1.8-3.58-1.43-1.02-2.36-2.71-2.31-4.62.08-2.84,2.42-5.22,5.27-5.33,3.13-.12,5.71,2.38,5.71,5.49Z"/>
            <path class="cls-17" d="m137.95,114.05c0,1.85-.92,3.48-2.31,4.47-1.17.83-1.8,2.22-1.8,3.65v28.38c0,.76-.6,1.41-1.36,1.41,0,0-.02,0-.03,0-.76,0-1.36-.65-1.36-1.41v-28.45c0-1.41-.65-2.76-1.8-3.58-1.43-1.02-2.36-2.71-2.31-4.62.08-2.84,2.42-5.22,5.27-5.33,3.13-.12,5.71,2.38,5.71,5.49Z"/>
            <circle class="cls-16" cx="137.44" cy="118.75" r="2.08"/>
            <path class="cls-17" d="m135,112.58c0-.87.7-1.57,1.57-1.57s1.57.7,1.57,1.57-.7,1.57-1.57,1.57-1.57-.7-1.57-1.57Z"/>
            <path class="cls-16" d="m132,110.08c0-.43.35-.78.78-.78s.78.35.78.78-.35.78-.78.78-.78-.35-.78-.78Z"/>
            <path class="cls-17" d="m125.8,111.01c0-1.16.94-2.11,2.11-2.11s2.11.94,2.11,2.11-.94,2.11-2.11,2.11-2.11-.94-2.11-2.11Z"/>
            <path class="cls-16" d="m125.45,114.82c0,.55.44.99.99.99s.99-.44.99-.99-.44-.99-.99-.99-.99.44-.99.99Z"/>
            <path class="cls-17" d="m125.55,118.59c0-1.06.86-1.92,1.92-1.92s1.92.86,1.92,1.92-.86,1.92-1.92,1.92-1.92-.86-1.92-1.92Z"/>
            <path class="cls-17" d="m130.32,121.4c0-.73.59-1.32,1.32-1.32s1.32.59,1.32,1.32-.59,1.32-1.32,1.32-1.32-.59-1.32-1.32Z"/>
            <path class="cls-17" d="m123.57,112.58c0-.37.3-.67.67-.67s.67.3.67.67-.3.67-.67.67-.67-.3-.67-.67Z"/>
            <path class="cls-16" d="m138.23,109.79c0-.49.4-.89.89-.89s.89.4.89.89-.4.89-.89.89-.89-.4-.89-.89Z"/>
            <path class="cls-17" d="m139.11,114.15c0-.49.4-.89.89-.89s.89.4.89.89-.4.89-.89.89-.89-.4-.89-.89Z"/>
            <path class="cls-16" d="m130.75,115.04c0-.49.4-.89.89-.89s.89.4.89.89-.4.89-.89.89-.89-.4-.89-.89Z"/>
          </g>
          <g>
            <g>
              <path class="cls-4" d="m183.93,146.8c-.07-2.71-2.29-4.88-5.01-4.88s-4.94,2.17-5.01,4.88c0,.05,0,.09,0,.14s0,.09,0,.14c.06.69.55,1.38,1.47,1.91,1.96,1.13,5.13,1.13,7.09,0,.92-.53,1.41-1.21,1.46-1.91,0-.05,0-.09,0-.14s0-.09,0-.14Z"/>
              <path class="cls-14" d="m183.93,146.8c-.07-2.71-2.29-4.88-5.01-4.88s-4.94,2.17-5.01,4.88c0,.05,0,.09,0,.14s0,.09,0,.14c.06.69.55,1.38,1.47,1.91,1.96,1.13,5.13,1.13,7.09,0,.92-.53,1.41-1.21,1.46-1.91,0-.05,0-.09,0-.14s0-.09,0-.14Z"/>
              <path class="cls-10" d="m181.09,142.42h0c-.66-.32-1.4-.5-2.18-.5-2.72,0-4.94,2.17-5.01,4.88,0,.05,0,.09,0,.14s0,.09,0,.14c.06.69.55,1.38,1.47,1.91.71.41,1.59.67,2.52.78-1.3-.22-2.14-1.68-1.74-3.28.46-1.86,2.34-4.55,4.95-4.07Z"/>
              <path class="cls-6" d="m183.93,147.08s0-.09,0-.14,0-.09,0-.14c-.04-1.44-.69-2.73-1.7-3.62.54.56,1.76,2.67.44,4.28-.87,1.06-4.98,2.57-8.36.63.24.33.6.63,1.06.9,1.96,1.13,5.13,1.13,7.09,0,.92-.53,1.41-1.21,1.46-1.91Z"/>
              <path class="cls-10" d="m178.86,143.05c.22.51-.21,1.19-.96,1.53-.76.33-1.55.19-1.78-.32-.22-.51.21-1.19.96-1.53.76-.33,1.55-.19,1.78.32Z"/>
              <path class="cls-10" d="m175.96,145.13c.12.27-.05.6-.38.74-.33.14-.69.04-.8-.22-.12-.27.05-.6.38-.74.33-.14.69-.04.8.22Z"/>
            </g>
            <g>
              <path class="cls-4" d="m176.42,150.92c-.1-3.73-3.15-6.72-6.9-6.72s-6.81,2.99-6.9,6.72c0,.07,0,.13,0,.19s0,.13,0,.19c.08.96.75,1.89,2.02,2.63,2.69,1.56,7.07,1.56,9.77,0,1.26-.73,1.94-1.67,2.01-2.63,0-.07,0-.13,0-.19s0-.13,0-.19Z"/>
              <path class="cls-13" d="m176.42,150.92c-.1-3.73-3.15-6.72-6.9-6.72s-6.81,2.99-6.9,6.72c0,.07,0,.13,0,.19s0,.13,0,.19c.08.96.75,1.89,2.02,2.63,2.69,1.56,7.07,1.56,9.77,0,1.26-.73,1.94-1.67,2.01-2.63,0-.07,0-.13,0-.19s0-.13,0-.19Z"/>
              <path class="cls-10" d="m172.51,144.9h0c-.91-.44-1.92-.69-3-.69-3.75,0-6.81,2.99-6.9,6.72,0,.07,0,.13,0,.19s0,.13,0,.19c.08.96.75,1.89,2.02,2.63.98.57,2.19.93,3.46,1.08-1.79-.31-2.95-2.31-2.4-4.52.64-2.56,3.23-6.26,6.81-5.6Z"/>
              <path class="cls-1" d="m176.42,151.31c0-.07,0-.13,0-.19s0-.13,0-.19c-.05-1.99-.95-3.76-2.34-4.99.75.77,2.42,3.68.61,5.89-1.19,1.46-6.85,3.54-11.51.86.34.45.82.87,1.47,1.24,2.69,1.56,7.07,1.56,9.77,0,1.26-.73,1.94-1.67,2.01-2.63Z"/>
              <path class="cls-11" d="m169.45,145.76c.31.7-.28,1.65-1.33,2.1-1.04.46-2.14.26-2.45-.45-.31-.7.28-1.65,1.33-2.1s2.14-.26,2.45.45Z"/>
              <path class="cls-11" d="m165.45,148.63c.16.37-.07.82-.52,1.02-.45.2-.94.06-1.1-.31-.16-.37.07-.82.52-1.02.45-.2.94-.06,1.1.31Z"/>
            </g>
            <g>
              <path class="cls-4" d="m164.17,154.28c-.12-4.63-3.91-8.33-8.57-8.33s-8.45,3.71-8.57,8.33c0,.08,0,.16,0,.24s0,.16,0,.24c.1,1.19.93,2.35,2.51,3.26,3.34,1.93,8.77,1.93,12.12,0,1.57-.91,2.4-2.07,2.5-3.26,0-.08,0-.16,0-.24s0-.16,0-.24Z"/>
              <path class="cls-16" d="m164.17,154.28c-.12-4.63-3.91-8.33-8.57-8.33s-8.45,3.71-8.57,8.33c0,.08,0,.16,0,.24s0,.16,0,.24c.1,1.19.93,2.35,2.51,3.26,3.34,1.93,8.77,1.93,12.12,0,1.57-.91,2.4-2.07,2.5-3.26,0-.08,0-.16,0-.24s0-.16,0-.24Z"/>
              <path class="cls-11" d="m159.33,146.81h0c-1.13-.54-2.38-.86-3.72-.86-4.65,0-8.45,3.71-8.57,8.33,0,.08,0,.16,0,.24s0,.16,0,.24c.1,1.19.93,2.35,2.51,3.26,1.22.71,2.72,1.15,4.3,1.34-2.22-.38-3.66-2.87-2.98-5.61.79-3.18,4.01-7.77,8.46-6.95Z"/>
              <path class="cls-1" d="m164.17,154.76c0-.08,0-.16,0-.24s0-.16,0-.24c-.06-2.47-1.18-4.67-2.91-6.19.93.96,3,4.56.75,7.31-1.48,1.81-8.5,4.39-14.29,1.07.42.56,1.02,1.08,1.82,1.54,3.34,1.93,8.77,1.93,12.12,0,1.57-.91,2.4-2.07,2.5-3.26Z"/>
              <path class="cls-11" d="m155.52,147.88c.38.87-.35,2.04-1.65,2.61-1.29.57-2.65.32-3.03-.55-.38-.87.35-2.04,1.65-2.61,1.29-.57,2.65-.32,3.04.55Z"/>
              <path class="cls-11" d="m150.56,151.44c.2.45-.09,1.02-.65,1.27-.56.24-1.17.07-1.37-.38-.2-.45.09-1.02.65-1.27.56-.24,1.17-.07,1.37.38Z"/>
            </g>
            <g>
              <path class="cls-4" d="m133.51,152.6c-.1-3.87-3.27-6.97-7.17-6.97s-7.07,3.1-7.17,6.97c0,.07,0,.13,0,.2s0,.13,0,.2c.08.99.78,1.97,2.1,2.73,2.8,1.62,7.34,1.62,10.15,0,1.31-.76,2.01-1.74,2.09-2.73,0-.07,0-.13,0-.2s0-.13,0-.2Z"/>
              <path class="cls-16" d="m133.51,152.6c-.1-3.87-3.27-6.97-7.17-6.97s-7.07,3.1-7.17,6.97c0,.07,0,.13,0,.2s0,.13,0,.2c.08.99.78,1.97,2.1,2.73,2.8,1.62,7.34,1.62,10.15,0,1.31-.76,2.01-1.74,2.09-2.73,0-.07,0-.13,0-.2s0-.13,0-.2Z"/>
              <path class="cls-11" d="m129.45,146.35h0c-.94-.45-1.99-.72-3.11-.72-3.89,0-7.07,3.1-7.17,6.97,0,.07,0,.13,0,.2s0,.13,0,.2c.08.99.78,1.97,2.1,2.73,1.02.59,2.28.96,3.6,1.12-1.86-.32-3.06-2.4-2.49-4.69.66-2.66,3.35-6.5,7.07-5.82Z"/>
              <path class="cls-1" d="m133.51,153c0-.07,0-.13,0-.2s0-.13,0-.2c-.05-2.07-.99-3.91-2.43-5.18.78.8,2.51,3.82.63,6.12-1.24,1.51-7.12,3.67-11.95.9.35.47.86.91,1.52,1.29,2.8,1.62,7.34,1.62,10.15,0,1.31-.76,2.01-1.74,2.09-2.73Z"/>
              <path class="cls-11" d="m126.27,147.25c.32.73-.3,1.71-1.38,2.18s-2.22.27-2.54-.46.3-1.71,1.38-2.18c1.08-.47,2.22-.27,2.54.46Z"/>
              <path class="cls-11" d="m122.11,150.22c.17.38-.08.86-.54,1.06-.47.2-.98.06-1.15-.32-.17-.38.08-.86.54-1.06.47-.2.98-.06,1.15.32Z"/>
            </g>
            <g>
              <path class="cls-4" d="m145.42,154.09c-.09-3.4-2.87-6.12-6.29-6.12s-6.2,2.72-6.29,6.12c0,.06,0,.12,0,.18s0,.12,0,.18c.07.87.68,1.73,1.84,2.39,2.46,1.42,6.44,1.42,8.91,0,1.15-.67,1.76-1.52,1.84-2.39,0-.06,0-.12,0-.18s0-.12,0-.18Z"/>
              <path class="cls-16" d="m145.42,154.09c-.09-3.4-2.87-6.12-6.29-6.12s-6.2,2.72-6.29,6.12c0,.06,0,.12,0,.18s0,.12,0,.18c.07.87.68,1.73,1.84,2.39,2.46,1.42,6.44,1.42,8.91,0,1.15-.67,1.76-1.52,1.84-2.39,0-.06,0-.12,0-.18s0-.12,0-.18Z"/>
              <path class="cls-11" d="m141.86,148.6h0c-.83-.4-1.75-.63-2.73-.63-3.41,0-6.2,2.72-6.29,6.12,0,.06,0,.12,0,.18s0,.12,0,.18c.07.87.68,1.73,1.84,2.39.9.52,2,.85,3.16.99-1.63-.28-2.69-2.1-2.19-4.12.58-2.33,2.94-5.71,6.21-5.11Z"/>
              <path class="cls-1" d="m145.42,154.44c0-.06,0-.12,0-.18s0-.12,0-.18c-.05-1.81-.87-3.43-2.14-4.55.68.7,2.2,3.35.55,5.37-1.09,1.33-6.25,3.22-10.49.79.31.41.75.8,1.34,1.13,2.46,1.42,6.44,1.42,8.91,0,1.15-.67,1.76-1.52,1.84-2.39Z"/>
              <path class="cls-11" d="m139.07,149.39c.28.64-.26,1.5-1.21,1.92s-1.95.23-2.23-.41c-.28-.64.26-1.5,1.21-1.92.95-.42,1.95-.23,2.23.41Z"/>
              <path class="cls-11" d="m135.42,152c.15.33-.07.75-.48.93-.41.18-.86.05-1.01-.28-.15-.33.07-.75.48-.93.41-.18.86-.05,1.01.28Z"/>
            </g>
            <g>
              <path class="cls-4" d="m188.17,147.97c-.04-1.64-1.38-2.95-3.03-2.95s-2.99,1.31-3.03,2.95c0,.03,0,.06,0,.08s0,.06,0,.08c.03.42.33.83.89,1.15,1.18.68,3.1.68,4.29,0,.55-.32.85-.73.88-1.15,0-.03,0-.06,0-.08s0-.06,0-.08Z"/>
              <path class="cls-12" d="m188.17,147.97c-.04-1.64-1.38-2.95-3.03-2.95s-2.99,1.31-3.03,2.95c0,.03,0,.06,0,.08s0,.06,0,.08c.03.42.33.83.89,1.15,1.18.68,3.1.68,4.29,0,.55-.32.85-.73.88-1.15,0-.03,0-.06,0-.08s0-.06,0-.08Z"/>
              <path class="cls-10" d="m186.46,145.33h0c-.4-.19-.84-.3-1.31-.3-1.64,0-2.99,1.31-3.03,2.95,0,.03,0,.06,0,.08s0,.06,0,.08c.03.42.33.83.89,1.15.43.25.96.41,1.52.47-.79-.14-1.29-1.01-1.05-1.98.28-1.12,1.42-2.75,2.99-2.46Z"/>
              <path class="cls-30" d="m188.17,148.14s0-.06,0-.08,0-.06,0-.08c-.02-.87-.42-1.65-1.03-2.19.33.34,1.06,1.61.27,2.59-.52.64-3.01,1.55-5.05.38.15.2.36.38.64.55,1.18.68,3.1.68,4.29,0,.55-.32.85-.73.88-1.15Z"/>
              <path class="cls-11" d="m185.11,145.71c.14.31-.12.72-.58.92-.46.2-.94.11-1.07-.2-.14-.31.12-.72.58-.92.46-.2.94-.11,1.07.2Z"/>
              <path class="cls-11" d="m183.36,146.96c.07.16-.03.36-.23.45-.2.09-.41.03-.48-.13-.07-.16.03-.36.23-.45.2-.09.41-.03.48.13Z"/>
            </g>
            <g>
              <path class="cls-4" d="m84.21,144.24c.07-2.71,2.29-4.88,5.01-4.88s4.94,2.17,5.01,4.88c0,.05,0,.09,0,.14s0,.09,0,.14c-.06.69-.55,1.38-1.47,1.91-1.96,1.13-5.13,1.13-7.09,0-.92-.53-1.41-1.21-1.46-1.91,0-.05,0-.09,0-.14s0-.09,0-.14Z"/>
              <path class="cls-14" d="m84.21,144.24c.07-2.71,2.29-4.88,5.01-4.88s4.94,2.17,5.01,4.88c0,.05,0,.09,0,.14s0,.09,0,.14c-.06.69-.55,1.38-1.47,1.91-1.96,1.13-5.13,1.13-7.09,0-.92-.53-1.41-1.21-1.46-1.91,0-.05,0-.09,0-.14s0-.09,0-.14Z"/>
              <path class="cls-10" d="m87.05,139.86h0c.66-.32,1.4-.5,2.18-.5,2.72,0,4.94,2.17,5.01,4.88,0,.05,0,.09,0,.14s0,.09,0,.14c-.06.69-.55,1.38-1.47,1.91-.71.41-1.59.67-2.52.79,1.3-.22,2.14-1.68,1.74-3.28-.46-1.86-2.34-4.55-4.95-4.07Z"/>
              <path class="cls-6" d="m84.21,144.52s0-.09,0-.14,0-.09,0-.14c.04-1.44.69-2.73,1.7-3.62-.54.56-1.76,2.67-.44,4.28.87,1.06,4.98,2.57,8.36.63-.24.33-.6.63-1.06.9-1.96,1.13-5.13,1.13-7.09,0-.92-.53-1.41-1.21-1.46-1.91Z"/>
              <path class="cls-11" d="m89.28,140.49c-.22.51.21,1.19.96,1.53.76.33,1.55.19,1.78-.32.22-.51-.21-1.19-.96-1.53-.76-.33-1.55-.19-1.78.32Z"/>
              <path class="cls-11" d="m92.18,142.57c-.12.27.05.6.38.74.33.14.69.04.8-.22.12-.27-.05-.6-.38-.74-.33-.14-.69-.04-.8.22Z"/>
            </g>
            <g>
              <path class="cls-4" d="m94.96,146.15c.1-3.93,3.32-7.07,7.27-7.07s7.17,3.15,7.27,7.07c0,.07,0,.13,0,.2s0,.13,0,.2c-.08,1.01-.79,1.99-2.13,2.77-2.84,1.64-7.45,1.64-10.29,0-1.33-.77-2.04-1.76-2.12-2.77,0-.07,0-.13,0-.2s0-.13,0-.2Z"/>
              <path class="cls-17" d="m94.96,146.15c.1-3.93,3.32-7.07,7.27-7.07s7.17,3.15,7.27,7.07c0,.07,0,.13,0,.2s0,.13,0,.2c-.08,1.01-.79,1.99-2.13,2.77-2.84,1.64-7.45,1.64-10.29,0-1.33-.77-2.04-1.76-2.12-2.77,0-.07,0-.13,0-.2s0-.13,0-.2Z"/>
              <path class="cls-11" d="m99.08,139.81h0c.96-.46,2.02-.73,3.16-.73,3.95,0,7.17,3.15,7.27,7.07,0,.07,0,.13,0,.2s0,.13,0,.2c-.08,1.01-.79,1.99-2.13,2.77-1.04.6-2.31.98-3.65,1.14,1.89-.33,3.11-2.43,2.53-4.76-.67-2.7-3.4-6.6-7.18-5.9Z"/>
              <path class="cls-1" d="m94.96,146.56c0-.07,0-.13,0-.2s0-.13,0-.2c.05-2.1,1-3.96,2.47-5.26-.79.81-2.55,3.87-.64,6.21,1.26,1.54,7.22,3.73,12.13.91-.35.47-.87.92-1.54,1.31-2.84,1.64-7.45,1.64-10.29,0-1.33-.77-2.04-1.76-2.12-2.77Z"/>
              <path class="cls-10" d="m102.31,140.72c-.33.74.3,1.73,1.4,2.21,1.1.48,2.25.27,2.58-.47.33-.74-.3-1.73-1.4-2.21-1.1-.48-2.25-.27-2.58.47Z"/>
              <path class="cls-10" d="m106.52,143.74c-.17.39.08.87.55,1.08.47.21.99.06,1.16-.32.17-.39-.08-.87-.55-1.08-.47-.21-.99-.06-1.16.32Z"/>
            </g>
            <g>
              <path class="cls-4" d="m88.56,150.42c.1-3.73,3.15-6.72,6.9-6.72s6.81,2.99,6.9,6.72c0,.07,0,.13,0,.19s0,.13,0,.19c-.08.96-.75,1.89-2.02,2.63-2.69,1.56-7.07,1.56-9.77,0-1.26-.73-1.94-1.67-2.01-2.63,0-.07,0-.13,0-.19s0-.13,0-.19Z"/>
              <path class="cls-13" d="m88.56,150.42c.1-3.73,3.15-6.72,6.9-6.72s6.81,2.99,6.9,6.72c0,.07,0,.13,0,.19s0,.13,0,.19c-.08.96-.75,1.89-2.02,2.63-2.69,1.56-7.07,1.56-9.77,0-1.26-.73-1.94-1.67-2.01-2.63,0-.07,0-.13,0-.19s0-.13,0-.19Z"/>
              <path class="cls-10" d="m92.47,144.4h0c.91-.44,1.92-.69,3-.69,3.75,0,6.81,2.99,6.9,6.72,0,.07,0,.13,0,.19s0,.13,0,.19c-.08.96-.75,1.89-2.02,2.63-.98.57-2.19.93-3.46,1.08,1.79-.31,2.95-2.31,2.4-4.52-.64-2.56-3.23-6.26-6.81-5.6Z"/>
              <path class="cls-5" d="m88.56,150.81c0-.07,0-.13,0-.19s0-.13,0-.19c.05-1.99.95-3.76,2.34-4.99-.75.77-2.42,3.68-.61,5.89,1.19,1.46,6.85,3.54,11.51.86-.34.45-.82.87-1.47,1.24-2.69,1.56-7.07,1.56-9.77,0-1.26-.73-1.94-1.67-2.01-2.63Z"/>
              <path class="cls-11" d="m95.53,145.26c-.31.7.28,1.65,1.33,2.1,1.04.46,2.14.26,2.45-.45.31-.7-.28-1.65-1.33-2.1-1.04-.46-2.14-.26-2.45.45Z"/>
              <path class="cls-11" d="m99.53,148.13c-.16.37.07.82.52,1.02.45.2.94.06,1.1-.31.16-.37-.07-.82-.52-1.02-.45-.2-.94-.06-1.1.31Z"/>
            </g>
            <g>
              <path class="cls-4" d="m103.21,153.45c.12-4.63,3.91-8.33,8.57-8.33s8.45,3.71,8.57,8.33c0,.08,0,.16,0,.24s0,.16,0,.24c-.1,1.19-.93,2.35-2.51,3.26-3.34,1.93-8.77,1.93-12.12,0-1.57-.91-2.4-2.07-2.5-3.26,0-.08,0-.16,0-.24s0-.16,0-.24Z"/>
              <path class="cls-16" d="m103.21,153.45c.12-4.63,3.91-8.33,8.57-8.33s8.45,3.71,8.57,8.33c0,.08,0,.16,0,.24s0,.16,0,.24c-.1,1.19-.93,2.35-2.51,3.26-3.34,1.93-8.77,1.93-12.12,0-1.57-.91-2.4-2.07-2.5-3.26,0-.08,0-.16,0-.24s0-.16,0-.24Z"/>
              <path class="cls-11" d="m108.05,145.97h0c1.13-.54,2.38-.86,3.72-.86,4.65,0,8.45,3.71,8.57,8.33,0,.08,0,.16,0,.24s0,.16,0,.24c-.1,1.19-.93,2.35-2.51,3.26-1.22.71-2.72,1.15-4.3,1.34,2.22-.38,3.66-2.87,2.98-5.61-.79-3.18-4.01-7.77-8.46-6.95Z"/>
              <path class="cls-1" d="m103.21,153.93c0-.08,0-.16,0-.24s0-.16,0-.24c.06-2.47,1.18-4.67,2.91-6.19-.93.96-3,4.56-.75,7.31,1.48,1.81,8.5,4.39,14.29,1.07-.42.56-1.02,1.08-1.82,1.54-3.34,1.93-8.77,1.93-12.12,0-1.57-.91-2.4-2.07-2.5-3.26Z"/>
              <path class="cls-11" d="m111.86,147.05c-.38.87.35,2.04,1.65,2.61,1.29.57,2.65.32,3.03-.55.38-.87-.35-2.04-1.65-2.61-1.29-.57-2.65-.32-3.03.55Z"/>
              <path class="cls-11" d="m116.82,150.61c-.2.45.09,1.02.65,1.27.56.24,1.17.07,1.37-.38.2-.45-.09-1.02-.65-1.27-.56-.24-1.17-.07-1.37.38Z"/>
            </g>
            <g>
              <path class="cls-4" d="m149.12,159.12c-.11-4.22-3.57-7.61-7.82-7.61s-7.71,3.39-7.82,7.61c0,.07,0,.14,0,.22s0,.14,0,.22c.09,1.08.85,2.15,2.29,2.98,3.05,1.76,8.01,1.76,11.07,0,1.43-.83,2.19-1.89,2.28-2.98,0-.07,0-.14,0-.22s0-.14,0-.22Z"/>
              <path class="cls-15" d="m149.12,159.12c-.11-4.22-3.57-7.61-7.82-7.61s-7.71,3.39-7.82,7.61c0,.07,0,.14,0,.22s0,.14,0,.22c.09,1.08.85,2.15,2.29,2.98,3.05,1.76,8.01,1.76,11.07,0,1.43-.83,2.19-1.89,2.28-2.98,0-.07,0-.14,0-.22s0-.14,0-.22Z"/>
              <path class="cls-10" d="m144.7,152.3h0c-1.03-.5-2.18-.78-3.39-.78-4.24,0-7.71,3.39-7.82,7.61,0,.07,0,.14,0,.22s0,.14,0,.22c.09,1.08.85,2.15,2.29,2.98,1.12.64,2.49,1.05,3.93,1.22-2.03-.35-3.34-2.62-2.72-5.12.72-2.9,3.66-7.1,7.72-6.35Z"/>
              <path class="cls-1" d="m149.12,159.56c0-.07,0-.14,0-.22s0-.14,0-.22c-.06-2.25-1.08-4.26-2.66-5.65.85.87,2.74,4.17.69,6.68-1.35,1.65-7.76,4.01-13.04.98.38.51.93.99,1.66,1.41,3.05,1.76,8.01,1.76,11.07,0,1.43-.83,2.19-1.89,2.28-2.98Z"/>
              <path class="cls-10" d="m141.23,153.28c.35.8-.32,1.86-1.5,2.38-1.18.52-2.42.29-2.77-.51-.35-.8.32-1.86,1.5-2.38,1.18-.52,2.42-.29,2.77.51Z"/>
              <path class="cls-10" d="m136.69,156.52c.18.42-.08.93-.59,1.16-.51.22-1.07.07-1.25-.35-.18-.42.08-.93.59-1.16.51-.22,1.07-.07,1.25.35Z"/>
            </g>
            <g>
              <path class="cls-4" d="m116.46,159.97c.1-4.02,3.39-7.24,7.44-7.24s7.33,3.22,7.44,7.24c0,.07,0,.14,0,.21s0,.14,0,.21c-.08,1.03-.81,2.04-2.18,2.83-2.9,1.68-7.62,1.68-10.53,0-1.36-.79-2.09-1.8-2.17-2.83,0-.07,0-.14,0-.21s0-.14,0-.21Z"/>
              <path class="cls-15" d="m116.46,159.97c.1-4.02,3.39-7.24,7.44-7.24s7.33,3.22,7.44,7.24c0,.07,0,.14,0,.21s0,.14,0,.21c-.08,1.03-.81,2.04-2.18,2.83-2.9,1.68-7.62,1.68-10.53,0-1.36-.79-2.09-1.8-2.17-2.83,0-.07,0-.14,0-.21s0-.14,0-.21Z"/>
              <path class="cls-10" d="m120.67,153.48h0c.98-.47,2.07-.74,3.23-.74,4.04,0,7.33,3.22,7.44,7.24,0,.07,0,.14,0,.21s0,.14,0,.21c-.08,1.03-.81,2.04-2.18,2.83-1.06.61-2.36,1-3.73,1.16,1.93-.33,3.18-2.49,2.59-4.87-.69-2.76-3.48-6.75-7.34-6.04Z"/>
              <path class="cls-1" d="m116.46,160.39c0-.07,0-.14,0-.21s0-.14,0-.21c.06-2.14,1.02-4.05,2.53-5.38-.81.83-2.61,3.96-.65,6.35,1.29,1.57,7.38,3.81,12.4.93-.36.49-.89.94-1.58,1.34-2.9,1.68-7.62,1.68-10.53,0-1.36-.79-2.09-1.8-2.17-2.83Z"/>
              <path class="cls-10" d="m123.97,154.41c-.33.76.31,1.77,1.43,2.27,1.12.49,2.3.28,2.64-.48.33-.76-.31-1.77-1.43-2.27-1.12-.49-2.3-.28-2.64.48Z"/>
              <path class="cls-10" d="m128.28,157.5c-.17.39.08.89.56,1.1.48.21,1.02.06,1.19-.33.17-.39-.08-.89-.56-1.1-.48-.21-1.02-.06-1.19.33Z"/>
            </g>
            <g>
              <path class="cls-4" d="m135.76,162.57c-.04-1.64-1.38-2.95-3.03-2.95s-2.99,1.31-3.03,2.95c0,.03,0,.06,0,.08s0,.06,0,.08c.03.42.33.83.89,1.15,1.18.68,3.1.68,4.29,0,.55-.32.85-.73.88-1.15,0-.03,0-.06,0-.08s0-.06,0-.08Z"/>
              <path class="cls-15" d="m135.76,162.57c-.04-1.64-1.38-2.95-3.03-2.95s-2.99,1.31-3.03,2.95c0,.03,0,.06,0,.08s0,.06,0,.08c.03.42.33.83.89,1.15,1.18.68,3.1.68,4.29,0,.55-.32.85-.73.88-1.15,0-.03,0-.06,0-.08s0-.06,0-.08Z"/>
              <path class="cls-9" d="m134.05,159.93h0c-.4-.19-.84-.3-1.31-.3-1.64,0-2.99,1.31-3.03,2.95,0,.03,0,.06,0,.08s0,.06,0,.08c.03.42.33.83.89,1.15.43.25.96.41,1.52.47-.79-.14-1.29-1.01-1.05-1.98.28-1.12,1.42-2.75,2.99-2.46Z"/>
              <path class="cls-1" d="m135.76,162.74s0-.06,0-.08,0-.06,0-.08c-.02-.87-.42-1.65-1.03-2.19.33.34,1.06,1.61.27,2.59-.52.64-3.01,1.55-5.05.38.15.2.36.38.64.55,1.18.68,3.1.68,4.29,0,.55-.32.85-.73.88-1.15Z"/>
              <path class="cls-10" d="m132.7,160.31c.14.31-.12.72-.58.92-.46.2-.94.11-1.07-.2s.12-.72.58-.92c.46-.2.94-.11,1.07.2Z"/>
              <path class="cls-10" d="m130.95,161.57c.07.16-.03.36-.23.45s-.41.03-.48-.13.03-.36.23-.45c.2-.09.41-.03.48.13Z"/>
            </g>
            <g>
              <path class="cls-4" d="m79.97,145.42c.04-1.64,1.38-2.95,3.03-2.95s2.99,1.31,3.03,2.95c0,.03,0,.06,0,.08s0,.06,0,.08c-.03.42-.33.83-.89,1.15-1.18.68-3.1.68-4.29,0-.55-.32-.85-.73-.88-1.15,0-.03,0-.06,0-.08s0-.06,0-.08Z"/>
              <path class="cls-12" d="m79.97,145.42c.04-1.64,1.38-2.95,3.03-2.95s2.99,1.31,3.03,2.95c0,.03,0,.06,0,.08s0,.06,0,.08c-.03.42-.33.83-.89,1.15-1.18.68-3.1.68-4.29,0-.55-.32-.85-.73-.88-1.15,0-.03,0-.06,0-.08s0-.06,0-.08Z"/>
              <path class="cls-10" d="m81.68,142.77h0c.4-.19.84-.3,1.31-.3,1.64,0,2.99,1.31,3.03,2.95,0,.03,0,.06,0,.08s0,.06,0,.08c-.03.42-.33.83-.89,1.15-.43.25-.96.41-1.52.47.79-.14,1.29-1.01,1.05-1.98-.28-1.12-1.42-2.75-2.99-2.46Z"/>
              <path class="cls-30" d="m79.97,145.58s0-.06,0-.08,0-.06,0-.08c.02-.87.42-1.65,1.03-2.19-.33.34-1.06,1.61-.27,2.59.52.64,3.01,1.55,5.05.38-.15.2-.36.38-.64.55-1.18.68-3.1.68-4.29,0-.55-.32-.85-.73-.88-1.15Z"/>
              <path class="cls-11" d="m83.03,143.15c-.14.31.12.72.58.92.46.2.94.11,1.07-.2.14-.31-.12-.72-.58-.92-.46-.2-.94-.11-1.07.2Z"/>
              <path class="cls-11" d="m84.78,144.41c-.07.16.03.36.23.45.2.09.41.03.48-.13.07-.16-.03-.36-.23-.45-.2-.09-.41-.03-.48.13Z"/>
            </g>
          </g>
          <g>
            <path class="cls-31" d="m142.42,92.34l1.66-20.14,6.69,3.86c3.21,1.86,4.65,6.61,4.12,13.62l-.85,11.28-1.8-6.25c-.98-3.4-3.49-4.58-7.1-3.33l-2.73.94Z"/>
            <path class="cls-31" d="m122.49,92.34l-1.66-20.14-6.69,3.86c-3.21,1.86-4.65,6.61-4.12,13.62l.85,11.28,1.8-6.25c.98-3.4,3.49-4.58,7.1-3.33l2.73.94Z"/>
            <g>
              <path class="cls-28" d="m142.35,102.08h0l-1.26-5.55h-17.28l-1.26,5.55h0c-.33,1.68.62,3.43,2.85,4.71,3.89,2.25,10.19,2.25,14.08,0,2.23-1.29,3.18-3.03,2.85-4.71Z"/>
              <ellipse class="cls-29" cx="132.46" cy="97.21" rx="8.72" ry="5.03"/>
              <g>
                <path class="cls-31" d="m122.57,102.08c-.33,1.68.62,3.43,2.85,4.71,3.89,2.25,10.19,2.25,14.08,0,2.23-1.29,3.18-3.03,2.85-4.71l-.35-1.59c.35,1.52-.52,3.15-2.59,4.35-3.84,2.21-10.06,2.21-13.89,0-2.07-1.19-2.93-2.82-2.6-4.34l-.35,1.57Z"/>
                <path class="cls-31" d="m123.35,98.59c-.34,1.49.49,3.08,2.51,4.24,3.64,2.1,9.55,2.1,13.2,0,2-1.16,2.84-2.73,2.51-4.22l-.47-2.08c.35,1.5-.47,3.08-2.47,4.24-3.4,1.97-8.92,1.97-12.33,0-2-1.16-2.83-2.74-2.47-4.24l-.47,2.06Z"/>
                <path class="cls-2" d="m138.91,96.53h-1.31c.43,1.87,1.58,6.89,1.73,8.03.19,1.41-2.94,3.79-11.17,3.34,3.7,1.02,8.27.65,11.34-1.12.86-.5,1.53-1.07,2.01-1.67l-2.6-8.59Z"/>
              </g>
              <ellipse class="cls-29" cx="132.46" cy="97.21" rx="8.72" ry="5.03"/>
            </g>
            <g>
              <path class="cls-4" d="m149.83,56.33c0-21.51-9.09-40.1-15.84-44.4-.06-.04-.12-.08-.18-.12-.01,0-.02-.02-.03-.02h0c-.38-.22-.83-.35-1.31-.35s-.92.13-1.31.35h0s-.02.01-.03.02c-.06.04-.12.08-.18.12-6.76,4.3-15.84,22.89-15.84,44.4s5.8,39.04,6.36,40.74c.01.04.03.09.04.13h0s0,0,0,0c.42,1.2,1.44,2.35,3.05,3.28,4.37,2.52,11.46,2.52,15.83,0,1.67-.97,2.7-2.16,3.1-3.41.55-1.71,6.36-20.05,6.36-40.74Z"/>
              <path class="cls-29" d="m138.92,17.1c-1.68-2.4-3.37-4.17-4.94-5.17-.06-.04-.12-.08-.18-.12-.01,0-.02-.01-.03-.02h0c-.38-.22-.83-.35-1.3-.35s-.92.13-1.31.35h0s-.02.02-.03.02c-.06.04-.12.08-.18.12-1.57,1-3.27,2.77-4.95,5.18-.98,1.4-1.95,3.02-2.89,4.82.29,1.11,1.18,2.18,2.67,3.03,3.7,2.14,9.7,2.14,13.4,0,1.48-.85,2.37-1.92,2.67-3.03-.94-1.81-1.92-3.43-2.9-4.83Z"/>
              <path class="cls-33" d="m115.09,56.33c0,20.7,5.8,39.04,6.36,40.74.01.04.03.09.04.13h0s0,0,0,0c.42,1.2,1.44,2.35,3.05,3.28.74.43,1.57.78,2.44,1.06-2.83-10.17-6.15-27.45-6.15-44.69,0-23.83,5.87-40.72,10.11-44.92-6.76,4.3-15.84,22.89-15.84,44.4Z"/>
              <path class="cls-19" d="m149.83,56.33c0,20.7-5.8,39.04-6.36,40.74-.01.04-.03.09-.04.13h0s0,0,0,0c-.42,1.2-1.44,2.35-3.05,3.28,3.28-11.99,7.02-26.39,7.03-43.63,0-23.83-9.18-40.72-13.42-44.92,6.76,4.3,15.84,22.89,15.84,44.4Z"/>
            </g>
            <g>
              <path class="cls-29" d="m152.02,86.66l-6.28-11.59-1.66.96-2.89,18.22,2.73,2.2c3.61,2.92,6.11,6.98,7.1,11.52l1.8,8.33s.79-5.3,1.66-11.71c.78-5.74.76-12.37-2.46-17.93Z"/>
              <path class="cls-28" d="m141.19,94.25l2.89-18.22,6.28,11.59c3.21,5.57,3.83,11.98,3.31,18.38l-.85,10.3-1.8-8.33c-.98-4.54-3.49-8.6-7.1-11.52l-2.73-2.2Z"/>
            </g>
            <g>
              <path class="cls-29" d="m112.89,86.66l6.28-11.59,1.66.96,2.89,18.22-2.73,2.2c-3.61,2.92-6.11,6.98-7.1,11.52l-1.8,8.33s-.79-5.3-1.66-11.71c-.78-5.74-.76-12.37,2.46-17.93Z"/>
              <path class="cls-28" d="m123.72,94.25l-2.89-18.22-6.28,11.59c-3.21,5.57-3.83,11.98-3.31,18.38l.85,10.3,1.8-8.33c.98-4.54,3.49-8.6,7.1-11.52l2.73-2.2Z"/>
            </g>
            <g>
              <circle class="cls-28" cx="132.46" cy="44.87" r="7.61" transform="translate(76.81 173.18) rotate(-85.27)"/>
              <circle class="cls-4" cx="132.46" cy="44.87" r="6.04"/>
              <circle class="cls-17" cx="132.46" cy="44.87" r="6.04"/>
            </g>
            <g>
              <path class="cls-28" d="m137.88,63.1c0,3-2.43,5.42-5.42,5.42s-5.42-2.43-5.42-5.42,2.43-5.42,5.42-5.42,5.42,2.43,5.42,5.42Z"/>
              <circle class="cls-4" cx="132.46" cy="63.1" r="3.95" transform="translate(40.61 177.52) rotate(-76.72)"/>
              <circle class="cls-17" cx="132.46" cy="63.1" r="3.95" transform="translate(40.61 177.52) rotate(-76.72)"/>
            </g>
          </g>
        </g>
        <g id="Shine">
          <path class="cls-4" d="m108.76,36.71c-.02.13-.13.23-.26.22h-.24c-.64-.04-1.19.4-1.31,1.02l-.05.24c-.03.13-.15.22-.28.2-.13-.02-.23-.13-.22-.26v-.24h.01c.03-.64-.41-1.19-1.03-1.31l-.24-.05c-.13-.03-.22-.15-.2-.28h0c.02-.13.13-.23.26-.22h.24c.64.04,1.19-.4,1.31-1.02l.05-.24c.03-.13.15-.22.28-.2.13.02.23.13.22.26v.24c-.04.63.4,1.19,1.02,1.31l.24.05c.13.03.22.15.2.28h0Zm-1.99.42c.19-.25.44-.45.72-.57-.25-.19-.45-.44-.57-.72-.19.25-.44.45-.72.57.25.19.45.44.57.72Z"/>
          <path class="cls-4" d="m102.7,23.18c-.11.88-.91,1.51-1.79,1.41-.88-.11-1.51-.91-1.41-1.79.11-.88.91-1.51,1.79-1.41.88.11,1.51.91,1.41,1.79Zm-2.7-.32c-.07.61.36,1.16.97,1.23.61.07,1.16-.36,1.23-.97s-.36-1.16-.97-1.23c-.61-.07-1.16.36-1.23.97Z"/>
          <g>
            <path class="cls-4" d="m114.82,17.41c-.02.14-.14.24-.28.22l-.83-.1c-.14-.02-.24-.14-.22-.28.02-.14.14-.24.28-.22l.83.1c.14.02.24.14.22.28Z"/>
            <path class="cls-4" d="m115.26,17.97l-.1.83c-.02.14-.14.24-.28.22-.14-.02-.24-.14-.22-.28l.1-.83c.02-.14.14-.24.28-.22.14.02.24.14.22.28Z"/>
            <path class="cls-4" d="m116.7,17.64c-.02.14-.14.24-.28.22l-.83-.1c-.14-.02-.24-.14-.22-.28.02-.14.14-.24.28-.22l.83.1c.14.02.24.14.22.28Z"/>
            <path class="cls-4" d="m115.48,16.09l-.1.83c-.02.14-.14.24-.28.22-.14-.02-.24-.14-.22-.28l.1-.83c.02-.14.14-.24.28-.22.14.02.24.14.22.28Z"/>
          </g>
          <path class="cls-4" d="m158.29,36.5s0,0,0,0c.12.05.18.19.14.31l-.08.23h0c-.21.6.05,1.25.61,1.55l.22.11c.12.06.17.2.11.32-.05.12-.19.18-.31.14l-.23-.08c-.6-.21-1.25.05-1.55.61l-.11.22c-.06.12-.2.16-.32.11-.12-.05-.18-.19-.14-.31l.08-.23c.21-.6-.05-1.25-.61-1.55l-.22-.11c-.12-.06-.17-.2-.11-.32.05-.12.19-.18.31-.14l.23.08c.6.21,1.25-.05,1.55-.61l.11-.22c.06-.11.19-.16.31-.12Zm-.16,2.03c-.19-.25-.3-.55-.34-.86-.25.19-.55.3-.86.34.19.25.3.55.34.86.25-.19.55-.3.86-.34Z"/>
          <path class="cls-4" d="m152.59,20.99c.3.12.58.33.77.62.48.74.27,1.74-.47,2.23-.74.48-1.74.27-2.23-.47-.48-.74-.27-1.74.47-2.23.45-.29.99-.33,1.46-.15Zm-.98,2.54c.06.02.11.04.17.05.29.06.59,0,.83-.15.25-.16.42-.41.48-.7.06-.29,0-.59-.15-.83-.33-.51-1.02-.66-1.53-.33-.51.33-.66,1.02-.33,1.53.13.2.31.35.53.43Z"/>
          <g>
            <path class="cls-4" d="m165.64,25.61s0,0,0,0l.78.32c.13.05.19.2.14.33-.05.13-.19.19-.33.14l-.78-.32c-.13-.05-.19-.2-.14-.33.05-.13.2-.19.32-.14Z"/>
            <path class="cls-4" d="m165.68,24.18s0,0,0,0c.13.05.19.2.14.33l-.32.78c-.05.13-.21.19-.33.14-.13-.05-.19-.2-.14-.33l.32-.78c.05-.13.2-.19.32-.14Z"/>
            <path class="cls-4" d="m163.89,24.9s0,0,0,0l.78.32c.13.05.19.2.14.33-.05.13-.2.18-.33.14l-.78-.32c-.13-.05-.19-.2-.14-.33.05-.13.2-.19.32-.14Z"/>
            <path class="cls-4" d="m164.97,25.93s0,0,0,0c.13.05.19.2.14.33l-.32.78c-.05.13-.21.2-.33.14-.13-.05-.19-.2-.14-.33l.32-.78c.05-.13.2-.19.32-.14Z"/>
          </g>
        </g>
        <g id="Character">
          <g>
            <path class="cls-31" d="m65.13,164c.11.42.33,1.61,2.54,1.61s3.48-.91,3.91-2.03.19-1.96.15-2.94c-.04-.98.69-1.6.85-2.13.24-.78-.41-1.85-.41-1.85l-7.03,7.34Z"/>
            <path class="cls-31" d="m44.92,158.77c-.08.07-.07.76.19,1.05.18.2,1.75,1.15,3.55.77,1.8-.38,2.65-.93,3.64-1.63,1.01-.72,1.74-.87,2.83-.96,1.05-.09,1.81-.36,1.88-.64.12-.49.1-.8-.13-.77l-11.96,2.18Z"/>
            <path class="cls-24" d="m71.43,155.05c0,2.02-3.86,2.38-3.76.76l-1.35-4.71,4.36-.46.75,4.41Z"/>
            <path class="cls-29" d="m65.15,162.99c.14-.38.63-.97.83-1.33,1.06-1.86,1.6-3.92,1.47-6.07,0-.12-.02-.35.08-.43.11-.09.24,0,.37.03,0,0,0,0,0,0,0,0,0,0,0,0,.16.05.39.09.7.08.78-.02,1.61-.32,1.8-.32.15,0,.26.46.32.96.25-.21.29-.57.51-.8.12-.13.18-.14.15-.32-.02-.12-.04-.22-.06-.33.19-.09.46.65.7,1.2.28.64.62,1.36.45,2.08-.09.4-.29.76-.47,1.13-.3.64-.55,1.32-.52,2.03.01.31.08.61.08.92,0,1.08-.62,2.01-1.59,2.46-1.27.6-3.26.8-4.56.04-.45-.27-.41-.97-.26-1.35Z"/>
            <path class="cls-24" d="m55.87,153.41c-1.09.78-2.24.88-3.52.23l-.65-6.87h4.72l-.55,6.64Z"/>
            <path class="cls-31" d="m66.07,107.15c.87,8,2.03,25.34,2.03,25.34,0,0,1.31,2.41,1.82,6.26.63,4.76,1.37,14.56,1.37,14.56,0,0-2.23,1.45-4.4.75,0,0-4.96-15.04-5.95-19.73-.86-4.09-2.39-13.96-2.39-13.96l-1.91,12.9s.75,2.37.62,5.58c-.09,2.2-.96,11.36-.96,11.36-.72.68-3.48.77-4.4.18,0,0-1.32-14.76-1.52-17.07-.25-3.04-.72-26.35-.72-26.35l16.4.18Z"/>
            <path d="m58.56,120.37l-1.07-4.92s-2.38-.54-4.09-1.91c0,0,.62,1.57,3.24,2.77l1.09,4.61-.94,11.57,1.77-12.12Z"/>
            <path class="cls-29" d="m45.74,157.33c1.74-.83,3.43-1.76,4.47-2.64.29-.24.52-.45.7-.64.42-.5.61-1.52.8-1.66.06-.04.16,0,.29.07.07-.09.15-.12.22-.12l.03.25c.29.15.7.32,1.27.34,1.12.05,1.14-.18,1.21.18.02.09.03.23.03.4.58-.13,1.13-.3,1.15-.52l.07-.79c.58-.08.54,1,.79,2.17.2.94.46,1.62.23,2.33-.85.81-2.41.7-3.3.89-1.25.27-1.79,1.22-3.51,1.91-2.77,1.11-4.6.07-5.15-.4-.38-.61-.25-1.33.7-1.78Z"/>
          </g>
          <g>
            <path class="cls-24" d="m46.87,87.56c-2.74,2.58-5.72,5.93-5.72,5.93-.5-.15-4.95-2.39-6.13-3.2-.39-.27-.89-.59-1.13-1.01-.23-.4-.29-.98-.4-1.43-.2-.76-.39-1.54-.75-2.25-.43-.84-1.39-1.42-2.29-1.62-.38-.09-.77-.11-1.12-.28-.24-.11-.46-.28-.64-.48-.11-.12-.22-.25-.37-.31-.24-.09-.36.08-.42.28-.08.3-.03.62.08.9.17.47.49.86.73,1.29.36.66.7,1.55.67,2.32,0,.16-.07.48-.26.27-.25-.28-.49-.57-.79-.8s-.68-.38-1.05-.31c-.11.02-.22.07-.29.16-.09.13-.03.22.04.32.08.11.14.23.21.34.14.24.28.48.42.72.82,1.39,1.78,2.78,3.22,3.59.21.12.42.23.63.34.91.47,2.54,1.79,3.83,2.73,1.18.86,3.09,1.93,3.81,2.33,1.84,1.03,2.66,1.02,3.08.9s.88-.44,1.71-.97c1.86-1.18,8.76-7.14,8.76-7.14l1.47-6.56c-2.5-.17-3.56.41-7.31,3.94Z"/>
            <path class="cls-29" d="m54.2,83.52c-1.63-.21-3.24,0-5.37,1.86-2.72,2.4-7.72,7.87-7.72,7.87,0,0-2.36-1.09-4.92-2.42-.33.02-1.12.66-1.47,1.46-.37.83-.46,1.56-.37,2.22,0,0,3.59,2.44,5.83,3.57,1.94.99,2.61.34,4.08-.56,1.47-.9,8.28-5.84,8.28-5.84l1.65-8.16Z"/>
            <path class="cls-28" d="m41.11,93.26c-.94.82-1.29,2.25-1.29,2.25,0,0-.25-1.54.7-2.53l.58.27Z"/>
          </g>
          <path class="cls-28" d="m59.27,83.8c2.23.34,4.79.52,6.36.73,1.71.23,1.74,1.32,1.6,4.24-.2,4.19-1.3,9-1.48,12.54l.6,7.34c-2,2.14-11.6,3.08-16.72-.06,0,0-.14-15.34,0-17.81.24-4.34,2.75-7.11,4.35-7.23,0,0,1.46-.35,5.31.24Z"/>
          <g>
            <path class="cls-4" d="m56.29,88.71c.04,1.01.49,12.96.65,14.11.16,1.15-1.3,2.94-1.7,2.91s-1.84-1.41-2.02-2.69c.1-1.58,1.35-12.75,2.08-14.45l1,.12Z"/>
            <path class="cls-33" d="m55.24,88.73s.04-.1.05-.14l1,.12c0,.08,0,.21.02.38h0c-.41,0-.93-.21-1.07-.36Z"/>
            <path class="cls-4" d="m56.79,86.54c-.81.09-1.49-.13-1.49-.13,0,0-.27.56-.39,1.09,0,0,.05.53.38,1.09,0,0,.38.29,1,.12,0,0,.65-.45.87-.81-.08-.38-.24-1.21-.36-1.36Z"/>
          </g>
          <g>
            <g>
              <path class="cls-31" d="m54.53,70.31s-1.22.17-1.67,1.09c-.39.8-.25,2.74.27,4.85.52,2.11,1.01,3.39,1.32,3.97.31.58.94.75.94.75l-.06-2.51-.09-1.75s1.12-1.53,1.24-2.79c.16-1.61-.18-2.28-.18-2.28l-1.76-1.35Z"/>
              <path class="cls-31" d="m54.24,70.61l-1.73-.79c.25-.51.83-.75,1.31-.54.48.22.66.81.42,1.33Z"/>
              <path class="cls-31" d="m57.82,72.62c0,2.27,1.86,4.11,4.13,4.11s4.11-1.86,4.11-4.13c0-2.27-1.86-4.11-4.13-4.11-2.27,0-4.11,1.86-4.11,4.13Z"/>
              <path class="cls-24" d="m55.29,76.44c-.42.37-.76-.58-1.12-.95-.35-.37-1.51-.87-2.08.34-.58,1.24.53,2.92,1.39,3.32,1.26.59,1.83-.69,1.83-.69l.11,4.32c-.86,1.93.19,2.65.6,3.75.25-.97,2.91-.37,4.51-2.59v-1.71s1.41.2,2.1.09c1.15-.18,1.75-1.05,2.1-2.3.55-2,.78-5.37,0-9.26-1.29-1-5.76-.83-8.46.88.2,3.45-.58,4.42-1,4.78Z"/>
              <path class="cls-31" d="m65.39,68.02c-.04-.07-.09-.13-.17-.13-.06,0-.11.03-.16.07-.17.12-.55.44-1.02.69.1-.46.1-.94.02-1.4-.05-.28-.13-.94-.48-1.01-.21-.04-.39.13-.55.28-1.41,1.32-3.24.71-4.94.76-1.42.05-3.13.62-3.77,2-.29.63-.34,1.29.24,1.73.49.37,1.13.54,1.73.64,2.82.49,6.87,1.65,8.96-.98.31-.39.44-.83.44-1.38,0-.51-.11-.89-.28-1.26,0,0,0-.01,0-.02Z"/>
              <path class="cls-23" d="m60.55,82.23s-2.59-.52-3.49-.99c-.6-.32-1.1-.87-1.25-1.22,0,0,.17.76.71,1.45.66.84,4.01,1.44,4.01,1.44v-.68Z"/>
            </g>
            <g>
              <path class="cls-31" d="m59.93,75.66c0,.3-.23.53-.51.54-.28,0-.52-.24-.52-.53,0-.3.23-.53.51-.54.28,0,.52.24.52.53Z"/>
              <path class="cls-31" d="m59.73,73.74l-1.15.52c-.14-.33.01-.71.33-.85.32-.14.68,0,.82.34Z"/>
              <path class="cls-27" d="m60.12,78.91l1.64.61c-.16.47-.66.72-1.11.55-.45-.17-.69-.69-.53-1.16Z"/>
              <path class="cls-23" d="m60.65,80.06c.15.06.31.06.45.03-.02-.42-.37-.76-.79-.76-.08,0-.15.01-.22.04.05.31.26.58.56.69Z"/>
              <path class="cls-31" d="m64.63,74.07l-1.19-.44c.11-.34.47-.51.79-.39.33.12.51.49.4.83Z"/>
              <path class="cls-31" d="m64.18,75.49c0,.3-.23.53-.51.54-.28,0-.52-.24-.52-.53,0-.3.23-.53.51-.54.28,0,.52.24.52.53Z"/>
              <polygon class="cls-23" points="61.61 75.02 61.8 78.3 63.42 77.74 61.61 75.02"/>
            </g>
          </g>
          <g>
            <path class="cls-29" d="m60.55,82.36c.33.02.47.07.74.6.3.6.56,1.16.56,1.16,0,0,0,1.22-1.1,2.34-1.09,1.11-3.51,1.86-3.51,1.86,0,0-.2-1.12-.36-1.58-.34-1.01-.85-.21-.85-.21,0,0,.06-.4.28-.6.22-.19,1.6-.31,2.71-1.01,1.11-.7,1.52-1.93,1.52-1.93l.02-.65Z"/>
            <path class="cls-29" d="m56.03,86.54c0-.6-.17-.71-.29-.89-.31-.46-.31-.88-.31-1.35,0-.47,0-1.51,0-1.51-.38.05-.65.11-.89.7s-.66,1.78-.47,2.94c.19,1.16.7,1.55.7,1.55,0,0,.29-.98.47-1.44.18-.45.53-.57.8,0Z"/>
          </g>
          <path class="cls-24" d="m91.97,85.82c-.02-.07-.05-.14-.08-.21-.22-.41-.7-.33-1.07-.17-.21.09-.84.55-1.02.69-.77.57-1.61,1.04-2.48,1.41-.26.11-.6.23-.87.11.03-.26.14-.51.26-.74.12-.23.26-.46.33-.72.07-.26.07-.55-.07-.77-.08-.13-.22-.23-.36-.19-.06.02-.11.07-.16.12-.26.27-.52.55-.79.81-.24.24-.42.54-.61.83-.27.4-.47.8-.7,1.22-.46.85-.97,1.63-1.66,2.29-.82.78-4.98,4.27-5.76,4.95,0,0-4.61-5.13-6.04-6.85-2.67-3.2-3.73-3.9-5.42-4.09l.59,8.63s7.2,6.26,8.74,7.35c1.91,1.44,2.66,1.21,3.47.42.78-.76,2.15-2.15,2.86-2.98,1.07-1.25,2.12-2.51,3.21-3.74.27-.31.55-.61.84-.91.49-.51.7-.78,1.31-1.12.73-.41,1.62-.47,2.38-.82.77-.35,1.48-.83,2.09-1.42.43-.41.82-.88,1.01-1.45.25-.72.16-1.51.06-2.26-.02-.13-.03-.25-.07-.38Z"/>
          <path class="cls-29" d="m64.91,84.44c1.42.17,2.51.18,4.25,1.97,1.88,1.94,7.74,8.75,7.74,8.75l4.56-3.61s.03.87.83,1.78c.81.91,1.81,1.11,1.81,1.11,0,0-4.35,5.35-5.79,6.53-1.32,1.09-1.82.95-3.27-.04-1.67-1.14-8.98-7.36-8.98-7.36,0,0-3.74-4.57-1.14-9.13Z"/>
          <path class="cls-28" d="m76.9,95.16c-1.4,1.11-2.09,2.94-2.09,2.94,0,0-.19-1.9,1.59-3.51l.5.58Z"/>
        </g>
      </g>
    </g>
  </g>
</svg>