<?xml version="1.0" encoding="UTF-8"?>
<svg id="Desk" xmlns="http://www.w3.org/2000/svg" viewBox="0 0 200 200">
  <defs>
    <style>
      .cls-1 {
        opacity: .3;
      }

      .cls-1, .cls-2, .cls-3 {
        fill: none;
      }

      .cls-2 {
        opacity: .6;
      }

      .cls-3 {
        opacity: .8;
      }

      .cls-4 {
        fill: #ebebeb;
      }

      .cls-5 {
        fill: #f5f5f5;
      }

      .cls-6 {
        fill: #fff;
      }

      .cls-7 {
        fill: #ffbf9d;
      }

      .cls-8 {
        fill: #fafafa;
      }

      .cls-9 {
        fill: #ff9a6c;
      }

      .cls-10 {
        fill: #fde052;
      }

      .cls-11 {
        fill: #e0e0e0;
      }

      .cls-12 {
        fill: #455a64;
      }

      .cls-13 {
        fill: #263238;
      }
    </style>
  </defs>
  <path class="cls-5" d="m163.84,81.29c-5.3-7.72-17.67-9.21-24.66-2.98-.14-6.27-4.29-12.26-10.11-14.6-5.82-2.34-12.96-.89-17.4,3.53,1-3.51-2.68-6.93-6.32-7.12-3.64-.19-7.01,1.77-10.13,3.65s-6.51,3.82-10.15,3.57c-3.94-.27-7.21-3.01-10.9-4.44-9.01-3.48-20.41,2.7-22.41,12.15-9.97-4.03-22.77,2.57-25.28,13.02l146.03,1.71c-.98-4.15-4.49-7.59-8.66-8.5Z"/>
  <path class="cls-8" d="m157.97,34.3c.25-1.83-2.34-3.34-4.28-3.5-.93-.07-1.89.07-2.77-.24-1.9-.66-2.67-3.12-4.52-3.91-1.39-.59-2.99-.06-4.34.61-1.35.68-2.68,1.53-4.18,1.63-1.31.08-2.73-.4-3.88.24-.85.48-1.3,1.46-2.09,2.04-.77.57-1.77.69-2.73.74-.95.05-1.94.06-2.81.46-.87.4-1.59,1.32-1.41,2.26l33.01-.33Z"/>
  <path class="cls-8" d="m30.85,19.2c.14-1.02-1.3-1.87-2.39-1.95-.52-.04-1.06.04-1.55-.13-1.06-.37-1.49-1.74-2.52-2.18-.78-.33-1.67-.04-2.42.34s-1.49.85-2.33.91c-.73.05-1.52-.22-2.16.13-.48.27-.73.81-1.16,1.14-.43.32-.99.38-1.52.41s-1.08.03-1.57.26c-.49.22-.89.74-.79,1.26l18.42-.18Z"/>
  <path class="cls-4" d="m181.37,53.01c.29-2.11-2.69-3.84-4.92-4.02-1.07-.09-2.17.08-3.19-.28-2.19-.76-3.06-3.59-5.2-4.49-1.6-.67-3.44-.07-4.98.71s-3.08,1.76-4.81,1.87c-1.5.1-3.14-.46-4.46.27-.98.55-1.49,1.68-2.4,2.34-.88.65-2.04.79-3.14.85s-2.23.07-3.23.53c-1,.46-1.83,1.51-1.62,2.59l37.94-.37Z"/>
  <path class="cls-4" d="m177.28,16.82c.2-1.48-1.89-2.71-3.47-2.83-.75-.06-1.53.05-2.24-.19-1.54-.54-2.16-2.53-3.66-3.16-1.12-.47-2.42-.05-3.51.5-1.09.55-2.17,1.24-3.38,1.32-1.06.07-2.21-.32-3.14.19-.69.39-1.05,1.18-1.69,1.65-.62.46-1.43.56-2.21.6-.77.04-1.57.05-2.28.37-.7.32-1.29,1.07-1.14,1.83l26.71-.26Z"/>
  <path class="cls-4" d="m36.89,52.27c.15-1.1-1.41-2.01-2.58-2.11-.56-.05-1.14.04-1.67-.14-1.15-.4-1.6-1.88-2.72-2.35-.84-.35-1.8-.04-2.61.37-.81.41-1.61.92-2.52.98-.79.05-1.64-.24-2.33.14-.51.29-.78.88-1.26,1.23-.46.34-1.07.41-1.64.45s-1.17.04-1.69.28-.96.79-.85,1.36l19.87-.2Z"/>
  <path class="cls-5" d="m78.09,35.33c.32-2.33-2.97-4.25-5.45-4.45-1.18-.1-2.41.09-3.52-.3-2.42-.84-3.39-3.97-5.75-4.97-1.77-.75-3.8-.08-5.52.78-1.71.86-3.41,1.95-5.32,2.07-1.67.11-3.47-.51-4.93.3-1.09.61-1.65,1.86-2.65,2.6-.98.72-2.26.87-3.47.94-1.21.07-2.47.08-3.58.58s-2.02,1.68-1.79,2.87l41.99-.41Z"/>
  <g>
    <path class="cls-4" d="m10.85,119.1s-3.42.49-1.47,7.96c1.94,7.48,3.58,11.33,3.58,11.33,0,0,.26,1.69-1.1,1.65-1.37-.05-4.16-1.15-5.1.33-.98,1.53-.11,3.37,2.04,5.3,2.15,1.92,6.7,6.31,7.11,6.71.4.39.71,1.22-.23,1.34-.94.12-7.59-.64-7.76,2.53-.17,3.18,6.7,7.55,7.44,8.04.74.49.86.88.69,1.31-.16.43-2.38-.04-4.28-.17-1.9-.14-4.13.03-4.08,1.88.05,1.84,3.67,6.49,14.18,9.92l4.97,1.27,3.66-3.63c7.37-8.24,8.16-14.08,7.28-15.7-.88-1.62-2.89-.65-4.47.42-1.57,1.07-3.25,2.59-3.61,2.3-.36-.29-.45-.68-.06-1.48.39-.8,4.14-8.03,2.39-10.69-1.75-2.66-7.12,1.34-7.99,1.71-.87.37-1.02-.5-.87-1.04.15-.55,1.89-6.63,2.79-9.37.89-2.74.72-4.77-.9-5.6-1.56-.81-3.42,1.55-4.57,2.28-1.16.73-1.78-.87-1.78-.87,0,0-.52-4.15-2.59-11.6-2.08-7.44-5.35-6.1-5.35-6.1"/>
    <path class="cls-11" d="m26.84,179.72c-1.5-5.47-4.01-15.24-6.21-23.62-2.2-8.37-4.19-15.95-5.67-21.43-.74-2.73-1.34-4.95-1.75-6.49-.21-.76-.37-1.35-.48-1.76-.05-.2-.09-.35-.12-.46-.03-.1-.04-.16-.04-.16,0,0,.02.05.05.15.03.11.08.26.14.46.12.41.29,1,.5,1.76.44,1.53,1.05,3.74,1.8,6.47,1.5,5.47,3.52,13.05,5.71,21.42,2.2,8.38,4.69,18.15,6.17,23.63"/>
    <path class="cls-11" d="m10.59,142.06s.12.05.33.17c.21.12.5.3.86.53.72.46,1.69,1.12,2.76,1.87,1.05.74,1.99,1.41,2.72,1.93.33.23.6.42.83.58.2.14.3.22.3.22s-.12-.05-.33-.17c-.21-.12-.5-.3-.86-.54-.71-.47-1.68-1.14-2.75-1.89-1.05-.73-2-1.4-2.73-1.91-.33-.23-.61-.42-.83-.57-.2-.14-.3-.22-.29-.23Z"/>
    <path class="cls-11" d="m18.79,147.12s1.24-2.1,2.84-4.63c1.61-2.53,2.94-4.57,2.98-4.54.04.02-1.24,2.1-2.84,4.63-1.61,2.53-2.94,4.57-2.98,4.54Z"/>
    <path class="cls-11" d="m21.58,160.14s.09-.1.27-.26c.21-.18.47-.41.77-.68.65-.58,1.55-1.37,2.51-2.29.96-.92,1.8-1.77,2.4-2.4.28-.29.52-.54.72-.74.17-.17.27-.27.28-.26,0,0-.07.11-.23.3-.16.19-.39.45-.68.78-.58.65-1.41,1.52-2.37,2.44-.96.92-1.87,1.71-2.54,2.26-.34.28-.61.5-.81.64-.19.15-.3.22-.31.22Z"/>
    <path class="cls-11" d="m13.16,157.19s.12.02.34.08c.25.08.55.17.91.28.77.24,1.82.59,2.99.98,1.16.39,2.21.75,2.97,1.02.35.13.65.24.89.33.21.08.32.13.32.14,0,.01-.12-.02-.34-.08-.25-.08-.55-.17-.91-.28-.77-.24-1.82-.59-2.99-.98-1.16-.39-2.21-.75-2.97-1.02-.35-.13-.65-.24-.89-.33-.21-.08-.32-.13-.32-.14Z"/>
    <path class="cls-11" d="m14.17,169s.16.03.44.11c.3.09.7.21,1.17.35.98.3,2.34.74,3.84,1.22,1.5.49,2.85.93,3.82,1.27.47.16.85.3,1.15.4.27.1.42.16.42.17,0,.01-.16-.03-.44-.11-.3-.09-.7-.21-1.17-.35-.98-.3-2.34-.74-3.84-1.22-1.5-.49-2.85-.93-3.82-1.27-.47-.16-.85-.3-1.15-.4-.27-.1-.42-.16-.42-.17Z"/>
    <path class="cls-11" d="m24.77,172.36s.11-.13.34-.34c.24-.23.56-.53.95-.9.8-.76,1.9-1.81,3.09-3.01,1.19-1.2,2.23-2.31,2.98-3.11.36-.39.66-.71.89-.96.21-.23.33-.35.34-.34,0,0-.1.14-.29.38-.2.24-.49.58-.85.99-.73.83-1.76,1.95-2.95,3.15-1.19,1.2-2.3,2.24-3.12,2.98-.41.37-.75.66-.98.86-.24.2-.37.31-.38.3Z"/>
  </g>
  <g>
    <path class="cls-5" d="m168.9,180.12c-8.31-4.6-11.43-14.83-12.4-24.28-.16-1.58-.55-3.21-.03-4.69.51-1.47,2.02-2.64,3.42-2.16,1.16.4,1.82,1.69,2.58,2.73,1.01,1.38,2.39,2.45,3.92,3.04,1.01.39,2.21.55,3.06-.12,1.17-.92,1.06-2.81.84-4.38-.41-2.91-.82-5.82-1.23-8.73-.22-1.56-.44-3.16-.18-4.7.25-1.55,1.07-3.06,2.41-3.67,1.33-.61,3.17.01,3.67,1.5.21.62.18,1.3.3,1.94.13.64.51,1.32,1.11,1.42.61.1,1.13-.42,1.51-.94,1.3-1.79,2.05-3.96,2.73-6.11.68-2.15,1.33-4.35,2.47-6.26,1.14-1.91,2.85-3.53,4.92-3.95,2.08-.42,4.49.66,5.31,2.78.83,2.13-.07,4.53-1.14,6.49-1.58,2.91-3.56,5.57-5.86,7.86-.41.41-.86.86-.96,1.46-.18,1.09.88,1.99,1.89,2.2,1.14.24,2.31-.05,3.47-.06,1.16-.01,2.46.35,3.05,1.45.81,1.51-.21,3.36-1.29,4.63-2.17,2.53-4.74,4.66-7.58,6.24-1.02.57-2.1,1.09-2.86,2.02-.76.93-1.09,2.4-.42,3.43.67,1.03,2.06,1.2,3.16.82,1.1-.38,2.02-1.17,3.03-1.75,1.9-1.09,4.51-1.3,6.05.38,1.01,1.1,1.31,2.79,1.08,4.3-.23,1.51-.93,2.88-1.7,4.17-2.67,4.48-6.36,8.3-10.78,10.67-4.42,2.37-8.68,3.43-13.55,2.26"/>
    <path class="cls-11" d="m170.38,173.91c.66-4.93,1.8-10.26,3.17-15.79.35-1.38.69-2.75,1.03-4.09.34-1.34.68-2.67,1.09-3.95.8-2.56,1.76-4.95,2.73-7.2.97-2.24,1.97-4.33,2.92-6.28.95-1.94,1.87-3.74,2.78-5.33,1.8-3.2,3.54-5.59,4.8-7.17.63-.8,1.13-1.4,1.48-1.8.17-.19.3-.34.4-.45.09-.1.14-.15.14-.15,0,0-.04.06-.12.17-.09.12-.22.27-.38.47-.33.41-.83,1.03-1.44,1.83-1.23,1.61-2.94,4.01-4.71,7.21-.89,1.6-1.8,3.39-2.74,5.34-.94,1.95-1.93,4.04-2.9,6.28-.96,2.24-1.91,4.63-2.71,7.17-.4,1.27-.74,2.59-1.08,3.94-.34,1.34-.68,2.71-1.03,4.09-1.37,5.52-2.52,10.84-3.18,15.75"/>
    <path class="cls-11" d="m175.74,150.06s-.1-.22-.23-.65c-.13-.42-.31-1.04-.52-1.8-.42-1.53-.92-3.66-1.47-6-.55-2.35-1.09-4.47-1.52-5.98-.22-.76-.4-1.37-.53-1.79-.13-.42-.19-.66-.17-.67.02,0,.11.22.27.63.16.41.37,1.02.61,1.77.49,1.51,1.05,3.62,1.6,5.97.54,2.32,1.02,4.42,1.4,6.02.17.72.32,1.33.43,1.82.1.43.15.67.13.68Z"/>
    <path class="cls-11" d="m194.02,143.72s-.26.09-.74.2c-.48.11-1.17.27-2.01.5-1.69.44-4.01,1.13-6.54,2.01-2.52.89-4.78,1.79-6.39,2.5-.81.35-1.45.65-1.9.85-.45.21-.7.31-.71.29,0-.02.23-.16.66-.4.43-.24,1.07-.57,1.87-.94,1.59-.76,3.84-1.7,6.37-2.59,2.53-.88,4.87-1.54,6.58-1.93.85-.2,1.55-.33,2.04-.41.48-.08.75-.11.76-.09Z"/>
    <path class="cls-11" d="m170.56,173.51s-.06-.07-.16-.23c-.11-.18-.25-.41-.42-.68-.36-.59-.86-1.47-1.47-2.56-1.22-2.18-2.81-5.24-4.52-8.64-1.72-3.4-3.28-6.48-4.45-8.67-.57-1.07-1.04-1.95-1.4-2.6-.15-.28-.27-.52-.38-.71-.08-.16-.12-.25-.12-.26,0,0,.06.07.16.23.11.18.25.41.42.68.36.59.86,1.47,1.47,2.56,1.22,2.18,2.81,5.24,4.52,8.64,1.71,3.4,3.28,6.47,4.45,8.67.57,1.07,1.04,1.95,1.4,2.6.15.28.27.52.38.71.08.16.12.25.12.26Z"/>
    <path class="cls-11" d="m194.36,161.47s-.08.06-.23.14c-.19.1-.41.22-.69.36-.64.32-1.5.76-2.55,1.29-2.15,1.09-5.11,2.64-8.37,4.36-3.26,1.72-6.24,3.23-8.41,4.28-1.09.52-1.97.94-2.59,1.21-.29.12-.52.23-.71.31-.16.07-.25.1-.26.09,0,0,.08-.06.23-.14.19-.1.41-.21.69-.36.64-.32,1.5-.76,2.55-1.29,2.15-1.09,5.11-2.64,8.37-4.36,3.26-1.71,6.23-3.23,8.41-4.28,1.09-.52,1.97-.94,2.59-1.21.29-.12.52-.23.71-.31.16-.07.25-.1.26-.09Z"/>
  </g>
  <path class="cls-13" d="m193.98,189.42c0,.06-42.31.1-94.49.1s-94.5-.05-94.5-.1,42.3-.1,94.5-.1,94.49.05,94.49.1Z"/>
  <g>
    <g>
      <rect class="cls-12" x="22.21" y="86.02" width="153.01" height="101.18" rx="5.84" ry="5.84"/>
      <path class="cls-12" d="m16.23,180.67h165.78v1.87c0,3.85-3.13,6.98-6.98,6.98H23.21c-3.85,0-6.98-3.13-6.98-6.98v-1.87h0Z"/>
      <rect class="cls-13" x="26.32" y="90.04" width="144.37" height="85.45"/>
      <polygon class="cls-13" points="83.63 179.72 85.69 182.99 114.64 182.99 116.55 179.72 83.63 179.72"/>
    </g>
    <g>
      <rect class="cls-4" x="29.29" y="92.93" width="138.72" height="82.28" rx="1.31" ry="1.31"/>
      <polygon class="cls-8" points="167.86 175.34 29.14 175.34 29.29 99.08 167.86 99.08 167.86 175.34"/>
      <path class="cls-13" d="m40.67,96.11c0,.61-.5,1.11-1.11,1.11s-1.11-.5-1.11-1.11.5-1.11,1.11-1.11,1.11.5,1.11,1.11Z"/>
      <path class="cls-13" d="m33.95,96.11c0,.61-.5,1.11-1.11,1.11s-1.11-.5-1.11-1.11.5-1.11,1.11-1.11,1.11.5,1.11,1.11Z"/>
      <path class="cls-13" d="m37.18,96.11c0,.61-.5,1.11-1.11,1.11s-1.11-.5-1.11-1.11.5-1.11,1.11-1.11,1.11.5,1.11,1.11Z"/>
    </g>
    <path class="cls-13" d="m173.91,179.72c0,.05-33.96.1-75.84.1s-75.85-.04-75.85-.1,33.95-.1,75.85-.1,75.84.04,75.84.1Z"/>
  </g>
  <g>
    <g>
      <path class="cls-10" d="m153.25,131.91c-3.9,3.26-5.7,8.85-4.42,13.77-3.6-.72-7.52.47-10.13,3.05-2.6,2.59-3.81,6.5-3.12,10.11-3.97-2.73-10.04-1.71-12.9,2.18-.06-2.57-.16-5.27-1.51-7.45-1.35-2.18-4.41-3.53-6.57-2.14,1.63-1.85,1.87-4.78.58-6.87-1.3-2.09-4.03-3.18-6.41-2.55-.06-3.08-2.01-24.88-3.62-43.27h-13.65c-1.58,18.07-3.44,38.83-3.5,41.83-2.38-.63-5.11.45-6.41,2.55-1.3,2.09-1.05,5.02.58,6.87-2.16-1.39-5.22-.04-6.57,2.14-1.35,2.18-1.45,4.89-1.51,7.45-2.86-3.89-8.93-4.91-12.9-2.18.69-3.6-.51-7.52-3.12-10.11-2.6-2.59-6.53-3.77-10.13-3.05,1.27-4.93-.52-10.51-4.42-13.77-3.9-3.26-9.72-4.03-14.34-1.9v46.73h138.41v-45.29c-4.62-2.13-10.44-1.36-14.34,1.9Z"/>
      <g class="cls-3">
        <path class="cls-6" d="m153.25,131.91c-3.9,3.26-5.7,8.85-4.42,13.77-3.6-.72-7.52.47-10.13,3.05-2.6,2.59-3.81,6.5-3.12,10.11-3.97-2.73-10.04-1.71-12.9,2.18-.06-2.57-.16-5.27-1.51-7.45-1.35-2.18-4.41-3.53-6.57-2.14,1.63-1.85,1.87-4.78.58-6.87-1.3-2.09-4.03-3.18-6.41-2.55-.06-3.08-2.01-24.88-3.62-43.27h-13.65c-1.58,18.07-3.44,38.83-3.5,41.83-2.38-.63-5.11.45-6.41,2.55-1.3,2.09-1.05,5.02.58,6.87-2.16-1.39-5.22-.04-6.57,2.14-1.35,2.18-1.45,4.89-1.51,7.45-2.86-3.89-8.93-4.91-12.9-2.18.69-3.6-.51-7.52-3.12-10.11-2.6-2.59-6.53-3.77-10.13-3.05,1.27-4.93-.52-10.51-4.42-13.77-3.9-3.26-9.72-4.03-14.34-1.9v46.73h138.41v-45.29c-4.62-2.13-10.44-1.36-14.34,1.9Z"/>
      </g>
    </g>
    <path class="cls-10" d="m152.42,165.97c-4.95-3.33-11.3-4.5-17.11-3.16-5.81,1.34-11.01,5.17-14,10.33-1.2-1.65-2.82-2.97-4.64-3.89.13-.35.24-.7.32-1.06.82-3.58-.72-7.58-3.73-9.68-2.13-1.49-4.91-1.96-7.44-1.4l-4.1-58.37h-5.38v53.65c-3.33.51-5.65,4.45-4.47,7.61-2.32.34-4.42,1.9-5.41,4.02-.32.69-.37,2.15-.09,3.8-4.04.05-8.05,2.06-10.44,5.33-3-5.16-8.19-8.99-14-10.33-5.81-1.34-12.16-.17-17.11,3.16-1.41-6.81-9.03-11.66-15.79-10.04v19.45l62.45-.08c.41.12.85.18,1.32.18l15.27-.18,60.16.08v-19.45c-6.77-1.62-14.39,3.22-15.79,10.04Z"/>
    <g class="cls-2">
      <path class="cls-6" d="m152.42,165.97c-4.95-3.33-11.3-4.5-17.11-3.16-5.81,1.34-11.01,5.17-14,10.33-1.2-1.65-2.82-2.97-4.64-3.89.13-.35.24-.7.32-1.06.82-3.58-.72-7.58-3.73-9.68-2.13-1.49-4.91-1.96-7.44-1.4l-4.1-58.37h-5.38v53.65c-3.33.51-5.65,4.45-4.47,7.61-2.32.34-4.42,1.9-5.41,4.02-.32.69-.37,2.15-.09,3.8-4.04.05-8.05,2.06-10.44,5.33-3-5.16-8.19-8.99-14-10.33-5.81-1.34-12.16-.17-17.11,3.16-1.41-6.81-9.03-11.66-15.79-10.04v19.45l62.45-.08c.41.12.85.18,1.32.18l15.27-.18,60.16.08v-19.45c-6.77-1.62-14.39,3.22-15.79,10.04Z"/>
    </g>
  </g>
  <g>
    <g>
      <g>
        <path class="cls-10" d="m93.18,80.46c-3.08,1.46-4.47,5.68-2.87,8.69.63,1.19,1.66,2.23,1.8,3.57.21,2.05-1.73,3.66-2.33,5.63-.7,2.31.83,5.06,3.17,5.67,1.05.28,2.32.23,3.02,1.06.9,1.06.25,2.82,1.02,3.98.7,1.04,2.32,1.1,3.37.4,1.05-.69,1.62-1.9,2.04-3.09.41-1.19.72-2.43,1.44-3.47.78-1.14,1.98-1.91,2.94-2.91,2.29-2.41,2.99-6.02,2.48-9.3-.52-3.28-2.11-6.3-3.91-9.1"/>
        <g class="cls-1">
          <path class="cls-6" d="m93.18,80.46c-3.08,1.46-4.47,5.68-2.87,8.69.63,1.19,1.66,2.23,1.8,3.57.21,2.05-1.73,3.66-2.33,5.63-.7,2.31.83,5.06,3.17,5.67,1.05.28,2.32.23,3.02,1.06.9,1.06.25,2.82,1.02,3.98.7,1.04,2.32,1.1,3.37.4,1.05-.69,1.62-1.9,2.04-3.09.41-1.19.72-2.43,1.44-3.47.78-1.14,1.98-1.91,2.94-2.91,2.29-2.41,2.99-6.02,2.48-9.3-.52-3.28-2.11-6.3-3.91-9.1"/>
        </g>
      </g>
      <path class="cls-10" d="m95.88,82.2c-2.61,1.15-3.75,4.77-2.28,7.21.9,1.49,2.65,2.84,2.23,4.52-.29,1.15-1.52,1.85-1.87,2.97-.47,1.5.95,3.09,2.51,3.28,1.56.19,3.07-.65,4.25-1.68,4.09-3.6,5.09-10.66,2.54-15.48"/>
    </g>
    <path class="cls-10" d="m109.34,59.25s13.4,8.87,11.94,24.2l-12.32-5.53.38-18.67Z"/>
    <polygon class="cls-13" points="87.07 77.62 90.11 82.66 105.91 82.66 108.95 77.91 87.07 77.62"/>
    <path class="cls-10" d="m97.19,26.7c-6.24.42-11.06,5.67-10.93,11.93l.8,39.28h21.89l.73-39.3c.13-6.86-5.65-12.36-12.49-11.9Z"/>
    <g class="cls-3">
      <path class="cls-6" d="m97.19,26.7c-6.24.42-11.06,5.67-10.93,11.93l.8,39.28h21.89l.73-39.3c.13-6.86-5.65-12.36-12.49-11.9Z"/>
    </g>
    <path class="cls-10" d="m86.68,59.25s-13.4,8.87-11.94,24.2l12.32-5.53-.38-18.67Z"/>
    <path class="cls-10" d="m86.39,37.32c4.63-4.05,19.16-3.96,23.06-.67-1-14.58-12.14-20.04-12.14-20.04-11.39,7.88-10.92,20.7-10.92,20.7Z"/>
    <path class="cls-13" d="m97.31,16.62s.05.04.13.12c.09.08.21.2.38.35.17.16.37.35.61.58.12.11.25.24.39.37.13.14.27.29.41.45.29.32.62.67.97,1.06.33.41.69.85,1.07,1.33.18.25.36.51.55.78.18.27.39.54.57.84.36.59.76,1.21,1.1,1.91.71,1.37,1.36,2.94,1.81,4.7.23.88.4,1.8.53,2.76.07.48.1.97.17,1.46.06.49.05,1.01.05,1.51,0,4.07-.05,8.54-.1,13.24-.11,9.4-.24,17.9-.35,24.06-.05,3.08-.1,5.56-.13,7.29-.02.86-.03,1.52-.04,1.98,0,.22-.01.4-.01.52,0,.12,0,.18,0,.18,0,0,0-.06,0-.18,0-.12,0-.29,0-.52,0-.46.01-1.12.02-1.98.02-1.72.05-4.21.09-7.29.08-6.16.19-14.66.31-24.06.05-4.7.11-9.17.11-13.24,0-.51,0-1-.05-1.5-.07-.5-.1-.98-.17-1.46-.12-.95-.29-1.87-.52-2.75-.44-1.75-1.08-3.32-1.79-4.68-.34-.69-.73-1.31-1.08-1.9-.17-.3-.38-.56-.56-.84-.19-.27-.36-.53-.54-.78-.38-.48-.73-.92-1.06-1.33-.35-.39-.67-.74-.96-1.06-.14-.16-.28-.31-.41-.45-.14-.13-.26-.26-.38-.37-.24-.23-.44-.43-.6-.59-.16-.16-.28-.28-.37-.36-.08-.08-.12-.13-.12-.13Z"/>
    <g>
      <path class="cls-8" d="m98.43,40.45c2.9.64,4.69,3.68,4,6.8-.69,3.12-3.59,5.12-6.49,4.48-2.9-.64-4.69-3.68-4-6.8.69-3.12,3.59-5.12,6.49-4.48Z"/>
      <path class="cls-13" d="m98.43,40.45s-.03,0-.09,0c-.06,0-.15-.02-.26-.04-.06,0-.12-.02-.19-.03-.07,0-.15,0-.24-.01-.09,0-.18,0-.27-.01-.1,0-.2.01-.31.02-.22,0-.46.05-.73.09-.26.07-.54.13-.83.25-.58.23-1.21.6-1.78,1.14-.57.54-1.1,1.25-1.43,2.11-.08.22-.17.43-.22.67-.03.12-.07.23-.09.35-.02.12-.04.24-.06.36l-.03.18v.19c-.02.12-.03.25-.04.38,0,.13,0,.25,0,.38v.19s.03.19.03.19c.1,1.03.48,2.1,1.18,2.98.68.9,1.72,1.57,2.88,1.84,1.17.24,2.39.08,3.39-.45,1.01-.51,1.81-1.31,2.33-2.21l.1-.17.08-.17c.06-.12.11-.23.17-.34.04-.12.09-.24.13-.35l.07-.17.05-.18c.03-.12.06-.24.1-.35.03-.12.04-.24.07-.35.05-.23.06-.47.08-.7.06-.92-.12-1.79-.41-2.52-.29-.73-.7-1.33-1.13-1.78-.21-.23-.44-.41-.65-.58-.22-.15-.42-.3-.62-.39-.1-.05-.19-.1-.28-.15-.09-.04-.17-.07-.25-.1-.08-.03-.15-.06-.22-.09-.07-.02-.13-.04-.19-.06-.11-.03-.19-.06-.25-.08-.06-.02-.09-.03-.09-.03,0,0,.03,0,.09.02.06.02.15.04.26.07.06.02.12.03.19.05.07.03.14.05.22.09.08.03.17.06.26.1.09.04.18.09.28.14.2.09.4.24.63.39.21.17.45.35.66.58.44.45.86,1.05,1.16,1.79.3.74.49,1.61.43,2.55-.02.23-.03.47-.08.71-.02.12-.04.24-.07.36-.03.12-.06.24-.1.36l-.05.18-.07.18c-.04.12-.09.24-.13.36-.06.12-.11.23-.17.35l-.09.18-.1.17c-.53.91-1.34,1.74-2.37,2.26-1.02.54-2.27.71-3.47.46-1.19-.28-2.25-.96-2.95-1.88-.72-.91-1.1-1.99-1.2-3.04l-.02-.2v-.2c0-.13,0-.26,0-.39.01-.13.02-.26.03-.38v-.19s.05-.19.05-.19c.02-.12.04-.25.06-.37.03-.12.06-.24.09-.35.05-.24.15-.46.23-.68.34-.88.88-1.59,1.46-2.14.58-.54,1.22-.91,1.81-1.14.29-.12.58-.19.85-.25.27-.04.51-.09.74-.09.11,0,.22-.01.31-.01.1,0,.19.01.28.02.08,0,.16.01.24.02.07.01.13.02.19.03.11.02.2.04.26.05.06.01.09.02.09.02Z"/>
    </g>
    <path class="cls-13" d="m91.64,45.23c0,.07-1.24.03-2.72.3-1.49.26-2.63.72-2.66.65-.01-.03.26-.17.73-.35.47-.18,1.13-.38,1.89-.52.76-.13,1.45-.17,1.95-.17.5,0,.81.05.81.08Z"/>
    <path class="cls-13" d="m109.34,45.23s-.38-.02-.98-.09c-.6-.08-1.44-.17-2.36-.24-.92-.06-1.76-.09-2.37-.1-.61-.01-.98-.01-.99-.05,0-.03.37-.08.98-.11.61-.03,1.46-.03,2.39.03.93.07,1.77.19,2.37.3.6.12.96.22.96.25Z"/>
    <path class="cls-13" d="m109.46,67.7s-.08,0-.23,0c-.18-.01-.4-.03-.66-.05-.61-.05-1.43-.11-2.43-.19-2.05-.15-4.89-.28-8.03-.28-3.14,0-5.98.15-8.04.3-1,.08-1.82.14-2.43.19-.27.02-.49.04-.66.05-.15,0-.23.01-.23,0,0,0,.08-.02.23-.05.18-.02.39-.05.66-.09.57-.08,1.4-.17,2.43-.26,2.05-.19,4.9-.36,8.05-.36,3.15,0,5.99.16,8.05.35,1.03.09,1.86.18,2.43.26.27.04.48.07.66.09.15.02.23.04.23.05Z"/>
    <path class="cls-13" d="m92.22,50.86s-.14.05-.23.2c-.04.07-.07.18-.04.27.03.09.13.16.25.17.12,0,.23-.05.27-.13.05-.09.03-.2,0-.28-.07-.17-.2-.2-.2-.24-.01-.03.18-.06.33.16.07.1.12.26.05.44-.07.18-.28.29-.48.27-.2-.01-.39-.15-.43-.34-.04-.18.04-.33.12-.42.18-.19.37-.13.35-.11Z"/>
    <path class="cls-13" d="m96.99,53.44s-.14.05-.23.2c-.04.07-.07.18-.04.27.03.09.13.16.25.17.12,0,.23-.05.27-.13.05-.09.03-.2,0-.28-.07-.17-.2-.2-.2-.24-.01-.03.18-.06.33.16.07.1.12.26.05.44-.07.18-.28.29-.48.27-.2-.01-.39-.15-.43-.34-.04-.18.04-.33.12-.42.18-.19.37-.13.35-.11Z"/>
    <path class="cls-13" d="m102.26,51.24s-.14.05-.23.2c-.04.07-.07.18-.04.27.03.09.13.16.25.17.12,0,.23-.05.27-.13.05-.09.03-.2,0-.28-.07-.17-.2-.2-.2-.24-.01-.03.18-.06.33.16.07.1.12.26.05.44-.07.18-.28.29-.48.27-.2-.01-.39-.15-.43-.34-.04-.18.04-.33.12-.42.18-.19.37-.13.35-.11Z"/>
    <path class="cls-13" d="m103.97,47.31s-.14.05-.23.2c-.04.07-.07.18-.04.27.03.09.13.16.25.17.12,0,.23-.05.27-.13.05-.09.03-.2,0-.28-.07-.17-.2-.2-.2-.24-.01-.03.18-.06.33.16.07.1.12.26.05.44-.07.18-.28.29-.48.27-.2-.01-.39-.15-.43-.34-.04-.18.04-.33.12-.42.18-.19.37-.13.35-.11Z"/>
    <path class="cls-13" d="m90.48,46.93s-.14.05-.23.2c-.04.07-.07.18-.04.27.03.09.13.16.25.17.12,0,.23-.05.27-.13.05-.09.03-.2,0-.28-.07-.17-.2-.2-.2-.24-.01-.03.18-.06.33.16.07.1.12.26.05.44-.07.18-.28.29-.48.27-.2-.01-.39-.15-.43-.34-.04-.18.04-.33.12-.42.18-.19.37-.13.35-.11Z"/>
    <path class="cls-13" d="m102.25,41.53s.14-.05.23-.2c.04-.07.07-.18.04-.27-.03-.09-.13-.16-.25-.17-.12,0-.23.05-.27.13-.05.09-.03.2,0,.28.07.17.2.2.2.24.01.03-.18.06-.33-.16-.07-.1-.12-.26-.05-.44.07-.18.28-.29.48-.27.2.01.39.15.43.34.04.18-.04.33-.12.42-.18.19-.37.13-.35.11Z"/>
    <path class="cls-13" d="m96.99,39.2s.14-.05.23-.2c.04-.07.07-.18.04-.27-.03-.09-.13-.16-.25-.17-.12,0-.23.05-.27.13-.05.09-.03.2,0,.28.07.17.2.2.2.24.01.03-.18.06-.33-.16-.07-.1-.12-.26-.05-.44.07-.18.28-.29.48-.27.2.01.39.15.43.34.04.18-.04.33-.12.42-.18.19-.37.13-.35.11Z"/>
    <path class="cls-13" d="m91.78,41.53s.14-.05.23-.2c.04-.07.07-.18.04-.27-.03-.09-.13-.16-.25-.17-.12,0-.23.05-.27.13-.05.09-.03.2,0,.28.07.17.2.2.2.24.01.03-.18.06-.33-.16-.07-.1-.12-.26-.05-.44.07-.18.28-.29.48-.27.2.01.39.15.43.34.04.18-.04.33-.12.42-.18.19-.37.13-.35.11Z"/>
    <g>
      <path class="cls-10" d="m96.32,60.86l.47,23.45c.01.68.57,1.22,1.25,1.21h0c.67-.01,1.21-.55,1.21-1.22.05-4.22.2-18.46.23-23.48,0-.97-.85-1.71-1.81-1.56h0c-.79.12-1.36.8-1.35,1.6Z"/>
      <g class="cls-1">
        <path d="m96.32,60.86l.47,23.45c.01.68.57,1.22,1.25,1.21h0c.67-.01,1.21-.55,1.21-1.22.05-4.22.2-18.46.23-23.48,0-.97-.85-1.71-1.81-1.56h0c-.79.12-1.36.8-1.35,1.6Z"/>
      </g>
    </g>
    <path class="cls-6" d="m97.05,17.96c.07.08-.71.84-1.84,2.16-.57.66-1.21,1.47-1.87,2.41-.65.94-1.33,2.01-1.96,3.17-.62,1.17-1.14,2.32-1.56,3.39-.41,1.07-.74,2.05-.98,2.89-.48,1.67-.68,2.74-.78,2.73-.08,0-.04-1.11.32-2.84.18-.87.47-1.88.86-2.99.4-1.1.91-2.29,1.55-3.49.65-1.19,1.36-2.27,2.05-3.22.71-.93,1.4-1.74,2.02-2.36,1.24-1.26,2.14-1.9,2.19-1.84Z"/>
    <path class="cls-6" d="m86.17,61.58c.06.1-1.04.82-2.59,2.25-.19.18-.39.37-.6.57-.21.2-.4.43-.62.65-.44.44-.85.96-1.29,1.49-.85,1.1-1.71,2.36-2.47,3.78-.74,1.42-1.3,2.85-1.73,4.17-.19.67-.39,1.3-.5,1.91-.06.3-.14.59-.19.88-.05.28-.09.56-.13.82-.31,2.09-.28,3.41-.4,3.41-.05,0-.09-.33-.13-.93,0-.15-.02-.32-.03-.5,0-.18,0-.38,0-.59.02-.43.01-.92.08-1.45.03-.27.06-.55.09-.84.04-.29.1-.59.16-.9.1-.63.28-1.28.46-1.97.4-1.37.97-2.84,1.73-4.3.78-1.45,1.68-2.75,2.58-3.85.47-.54.91-1.06,1.37-1.49.23-.22.44-.44.66-.64.22-.19.44-.37.64-.55.4-.36.81-.63,1.15-.89.17-.12.33-.24.49-.34.15-.09.3-.18.43-.26.52-.3.81-.45.84-.41Z"/>
  </g>
  <g>
    <path class="cls-10" d="m68.92,138.06c-1.06-.61-1.68-1.91-1.48-3.12.2-1.21,1.2-2.24,2.4-2.48,1.1-.22,2.47.09,3.16-.79.63-.8.15-1.86.43-3.15.27-1.25,1.38-1.89,2.59-1.87,1.22.02,2.34.81,2.95,1.86.61,1.05.99,2.68.85,3.89-.33,2.77-1.81,4.19-3.64,5.37-1.84,1.17-5.33,1.44-7.26.29"/>
    <g class="cls-3">
      <path class="cls-6" d="m68.92,138.06c-1.06-.61-1.68-1.91-1.48-3.12.2-1.21,1.2-2.24,2.4-2.48,1.1-.22,2.47.09,3.16-.79.63-.8.15-1.86.43-3.15.27-1.25,1.38-1.89,2.59-1.87,1.22.02,2.34.81,2.95,1.86.61,1.05.99,2.68.85,3.89-.33,2.77-1.81,4.19-3.64,5.37-1.84,1.17-5.33,1.44-7.26.29"/>
    </g>
  </g>
  <g>
    <path class="cls-10" d="m113.89,115.85c.89-1.7,2.88-2.74,4.78-2.5,1.9.24,3.57,1.74,4.02,3.6.4,1.7,0,3.86,1.42,4.89,1.28.93,2.91.13,4.93.48,1.97.34,3.03,2.04,3.07,3.93.05,1.9-1.12,3.7-2.73,4.71s-4.12,1.71-6.01,1.56c-4.34-.34-6.65-2.57-8.59-5.36-1.94-2.8-2.57-8.22-.89-11.32"/>
    <g class="cls-3">
      <path class="cls-6" d="m113.89,115.85c.89-1.7,2.88-2.74,4.78-2.5,1.9.24,3.57,1.74,4.02,3.6.4,1.7,0,3.86,1.42,4.89,1.28.93,2.91.13,4.93.48,1.97.34,3.03,2.04,3.07,3.93.05,1.9-1.12,3.7-2.73,4.71s-4.12,1.71-6.01,1.56c-4.34-.34-6.65-2.57-8.59-5.36-1.94-2.8-2.57-8.22-.89-11.32"/>
    </g>
  </g>
  <g>
    <path class="cls-10" d="m81.5,110.17c-.74.32-1.63,1.41-1.58,2.63.06,1.6,1.72,2.94,3.29,2.66,1.57-.28,2.67-2.11,2.18-3.63-.49-1.52-2.45-2.36-3.89-1.66"/>
    <g class="cls-3">
      <path class="cls-6" d="m81.5,110.17c-.74.32-1.63,1.41-1.58,2.63.06,1.6,1.72,2.94,3.29,2.66,1.57-.28,2.67-2.11,2.18-3.63-.49-1.52-2.45-2.36-3.89-1.66"/>
    </g>
  </g>
  <g>
    <path class="cls-10" d="m124.12,143.79c-.37.16-.81.71-.79,1.32.03.8.86,1.47,1.65,1.33.79-.14,1.34-1.05,1.09-1.81s-1.23-1.18-1.95-.83"/>
    <g class="cls-3">
      <path class="cls-6" d="m124.12,143.79c-.37.16-.81.71-.79,1.32.03.8.86,1.47,1.65,1.33.79-.14,1.34-1.05,1.09-1.81s-1.23-1.18-1.95-.83"/>
    </g>
  </g>
  <g>
    <rect class="cls-10" x="80.12" y="132.82" width="40.74" height="16.94" rx="7.91" ry="7.91"/>
    <g>
      <path class="cls-6" d="m92.3,142.4l.28-.61c.3.22.74.37,1.16.37.48,0,.68-.16.68-.38,0-.66-2.04-.21-2.04-1.51,0-.6.48-1.09,1.48-1.09.44,0,.89.11,1.22.31l-.25.62c-.33-.19-.66-.28-.97-.28-.48,0-.67.18-.67.4,0,.65,2.04.2,2.04,1.49,0,.59-.49,1.09-1.49,1.09-.56,0-1.12-.17-1.43-.41Z"/>
      <path class="cls-6" d="m96.46,139.9h-1.12v-.66h3.06v.66h-1.12v2.85h-.81v-2.85Z"/>
      <path class="cls-6" d="m100.97,142h-1.63l-.31.75h-.83l1.57-3.52h.8l1.57,3.52h-.85l-.31-.75Zm-.26-.62l-.56-1.35-.56,1.35h1.11Z"/>
      <path class="cls-6" d="m104.74,142.75l-.68-.98h-.75v.98h-.81v-3.52h1.52c.94,0,1.53.49,1.53,1.28,0,.53-.27.91-.72,1.11l.79,1.13h-.87Zm-.76-2.85h-.66v1.23h.66c.5,0,.75-.23.75-.61s-.25-.61-.75-.61Z"/>
      <path class="cls-6" d="m106.87,139.9h-1.13v-.66h3.06v.66h-1.12v2.85h-.81v-2.85Z"/>
    </g>
  </g>
  <g>
    <g>
      <g>
        <path class="cls-10" d="m162.1,181.57l4.74,1.66-.05,4.56c-2.27.64-2.59,1.79-2.59,1.79l4.74-.11,4.12-8.39-3.26-2.13-6.1-2.67"/>
        <g class="cls-2">
          <polygon class="cls-6" points="173.06 181.07 168.94 189.46 164.2 189.57 164.72 188.85 168.57 188.55 172.37 180.62 173.06 181.07"/>
        </g>
      </g>
      <path class="cls-13" d="m166.77,185.7s.31-.11.67-.11c.37,0,.64.15.67.1.04-.04-.23-.31-.68-.31-.45,0-.72.28-.67.32Z"/>
      <path class="cls-13" d="m166.82,184.57s.25-.25.63-.33c.38-.09.68.08.71.03.02-.02-.04-.1-.18-.17-.13-.07-.35-.12-.58-.07-.23.05-.41.19-.5.31-.09.12-.11.22-.09.23Z"/>
      <path class="cls-13" d="m166.75,183.12c.05.02.21-.25.54-.37.33-.13.63-.02.65-.07.01-.02-.05-.09-.18-.14-.13-.05-.34-.06-.54.01-.21.08-.35.23-.42.35-.07.12-.07.21-.05.22Z"/>
      <path class="cls-13" d="m166.41,183.11c.06-.01.02-.31.16-.63.13-.32.37-.51.34-.56-.02-.05-.37.08-.54.48-.17.39-.02.74.03.72Z"/>
      <path class="cls-13" d="m165.85,182.58s.07-.24.11-.64c.02-.23.04-.46.06-.69,0-.13.04-.26,0-.44-.02-.09-.08-.18-.17-.24-.09-.06-.24-.05-.32.01-.16.13-.21.28-.27.42-.05.14-.08.29-.09.43-.02.28.04.53.13.72.17.39.41.53.42.51.03-.03-.16-.2-.28-.56-.06-.18-.1-.4-.07-.65.01-.12.04-.25.09-.37.05-.12.11-.26.19-.32.04-.02.07-.03.1,0,.03.02.07.06.08.11.03.1,0,.25,0,.38,0,.24-.01.47-.02.7,0,.4,0,.64.04.65Z"/>
      <path class="cls-13" d="m165.77,182.79s-.12-.22-.49-.34c-.35-.11-.97-.09-1.35.48-.02.05-.02.13.02.18.03.06.08.08.12.1.09.04.16.04.22.04.13.01.26.01.39,0,.25-.02.46-.09.63-.16.34-.15.5-.32.48-.34-.02-.03-.2.1-.53.2-.16.05-.36.1-.59.11-.11,0-.23,0-.35-.01-.06,0-.12-.01-.16-.03-.04-.02-.03-.02-.03-.03,0-.02.05-.07.09-.11.04-.04.09-.08.14-.11.1-.07.2-.11.3-.15.21-.07.41-.06.57-.03.33.07.5.22.52.2Z"/>
      <g class="cls-2">
        <path class="cls-6" d="m169.28,181.02c0,.31.26.56.57.55.31,0,.56-.26.55-.57,0-.31-.26-.56-.57-.55-.31,0-.56.26-.55.57Z"/>
      </g>
    </g>
    <g>
      <g>
        <path class="cls-10" d="m137.79,179.66l.06,6.21s-6.29,2.15-6.39,3.3l12.04.31.3-9.68-6.01-.14Z"/>
        <g class="cls-2">
          <path class="cls-6" d="m141.59,185.44c.23.07.39.34.33.57-.06.23-.33.39-.56.33-.23-.07-.43-.38-.34-.61.09-.23.41-.4.62-.28"/>
        </g>
        <g class="cls-2">
          <path class="cls-6" d="m143.5,189.47v-.98s-11.55.07-11.55.07c0,0-.54.22-.49.6l12.04.31Z"/>
        </g>
        <path class="cls-13" d="m137.66,185.8c0,.06.29.09.58.29.29.19.43.45.49.43.05-.01-.02-.36-.37-.6-.35-.23-.7-.17-.69-.12Z"/>
        <path class="cls-13" d="m136.38,186.29c-.01.06.24.16.43.42.2.25.24.52.3.52.06.01.1-.33-.14-.64-.24-.31-.59-.35-.59-.29Z"/>
        <path class="cls-13" d="m135.63,187.79c.05.01.14-.28,0-.6-.14-.33-.41-.46-.44-.41-.03.05.14.22.25.49.12.27.13.51.19.52Z"/>
        <path class="cls-13" d="m137.8,184.39c.02.05.3-.02.63.01.33.02.59.14.62.09.04-.04-.21-.27-.6-.3-.39-.03-.67.15-.64.19Z"/>
      </g>
      <g class="cls-1">
        <polygon points="137.8 180.89 137.81 182 143.73 182.09 143.76 181.1 137.8 180.89"/>
      </g>
      <path class="cls-13" d="m137.81,183.13s.23.07.6.01c.19-.03.4-.08.64-.18.12-.05.23-.11.35-.17.06-.03.12-.07.19-.14.07-.06.11-.21.03-.31-.06-.09-.17-.14-.25-.14-.09,0-.16.01-.23.03-.13.03-.26.07-.38.12-.23.1-.42.23-.57.35-.29.25-.39.47-.37.48.03.02.17-.16.46-.37.14-.1.33-.21.55-.29.11-.04.23-.07.35-.1.13-.03.24-.03.27.03.01.02.01.03-.01.07-.03.03-.08.07-.14.1-.11.07-.22.12-.32.17-.21.1-.42.16-.59.21-.35.09-.57.1-.57.13Z"/>
      <path class="cls-13" d="m137.88,183.22s.14-.2.17-.58c.01-.19,0-.42-.07-.66-.03-.12-.08-.25-.14-.37-.07-.12-.15-.28-.38-.31-.12,0-.22.08-.26.16-.04.08-.05.15-.07.22-.03.14-.03.28-.01.41.03.26.13.47.24.63.23.32.47.39.48.37.02-.03-.18-.15-.35-.45-.08-.15-.16-.35-.18-.57,0-.11,0-.23.02-.35.02-.13.07-.23.12-.22.06,0,.16.1.21.2.06.11.11.22.14.33.07.22.1.43.1.6,0,.35-.06.57-.03.58Z"/>
    </g>
    <g>
      <g>
        <polygon class="cls-13" points="165.77 176.5 151.91 171.34 166.49 169.3 167.22 162.2 139.97 164.58 136.12 170.12 137.13 177.07 163.68 183.82 165.77 176.5"/>
        <path class="cls-13" d="m136.38,181.47l-1.33-25.37c.07-2.47,1.42-4.73,3.56-5.97h0c1.77-1.02,3.89-1.24,5.83-.59l17.68,5.9,9.71,2.5s1.65,4.08.68,7.25c-.95,3.1-4.35,5.16-7.34,4.28-3.71-1.1-20.77-8.43-20.77-8.43v20.66l-8.02-.21Z"/>
        <path class="cls-12" d="m164.91,169.51s-.04,0-.11-.03c-.08-.03-.18-.07-.3-.12-.27-.11-.66-.27-1.16-.46-1.01-.41-2.46-1.01-4.25-1.73-3.59-1.48-8.54-3.52-14.01-5.78-.24-.1-.49-.2-.71-.3l.11-.08c0,5.74-.02,10.9-.03,14.64-.01,1.86-.02,3.36-.03,4.41,0,.51-.01.91-.02,1.2,0,.13,0,.23,0,.31,0,.07,0,.11,0,.11s0-.04,0-.11c0-.08,0-.18,0-.31,0-.28,0-.68-.02-1.2,0-1.05-.01-2.55-.03-4.41,0-3.74-.02-8.9-.03-14.64v-.12s.11.05.11.05c.23.09.47.19.71.3,5.46,2.27,10.4,4.33,13.99,5.83,1.78.75,3.22,1.36,4.23,1.78.49.21.88.38,1.15.49.12.06.22.1.3.13.07.03.1.05.1.05Z"/>
        <path class="cls-12" d="m148.58,169.54s.88.12,1.82.64c.94.52,1.54,1.17,1.51,1.2-.03.04-.66-.55-1.59-1.06-.92-.51-1.75-.74-1.74-.78Z"/>
      </g>
      <path class="cls-12" d="m142.87,157.58s.49.73.93,1.72c.44.99.7,1.83.66,1.84-.04.02-.37-.79-.81-1.77-.44-.98-.83-1.76-.78-1.78Z"/>
    </g>
    <polygon class="cls-7" points="142.9 146.4 139.78 145.81 136.49 149.17 137.1 151.3 140.93 149.89 142.9 146.4"/>
    <g>
      <path class="cls-7" d="m114.01,138.75l3.56-.79,5.72.9-.22,3.65s-1.77.26-2.42.05c-.64-.21-1.17-.03-1.17-.03,0,0,.35.72-.25.84-.6.12-1.58.37-1.77-.48,0,0-.46.07-.67-.49,0,0-.47.17-.67-.65-.21-.81-.09-2.03,1.52-2.42.08-.02.12-.21-.04-.21l-2.54.48s-1.69.06-1.05-.85Z"/>
      <path class="cls-9" d="m117.04,141.3s.23-.06.61-.11c.19-.02.4-.06.67-.06.13,0,.29.06.4.19.11.14.1.34.02.49-.17.31-.5.38-.73.45-.24.07-.47.12-.66.14-.38.05-.62.04-.62.02,0-.02.23-.05.6-.13.18-.04.4-.1.64-.17.12-.04.25-.07.36-.13.11-.06.22-.14.27-.25.06-.11.06-.24,0-.32-.07-.09-.18-.13-.29-.14-.23-.01-.47.02-.65.03-.38.02-.61.02-.62,0Z"/>
      <path class="cls-9" d="m117.65,140.51s-.18.13-.32.35c-.14.21-.15.42-.2.43-.04.01-.1-.25.07-.51.17-.26.44-.3.44-.26Z"/>
      <path class="cls-9" d="m118.63,141.81s.04-.01.09.01c.07.02.12.12.17.19.06.09.1.24.06.4-.04.17-.22.28-.37.32-.3.08-.57.15-.78.17-.21.02-.33,0-.33-.02,0-.02.12-.04.32-.09.19-.04.46-.13.75-.21.14-.04.25-.11.28-.21.04-.1.02-.22-.02-.3-.05-.1-.06-.17-.11-.2-.04-.03-.07-.05-.06-.06Z"/>
      <path class="cls-9" d="m118.87,142.43s.04-.07.15-.09c.11-.02.26.02.4.11.16.1.2.28.2.37,0,.11-.01.17-.03.17-.02,0-.04-.06-.07-.15-.03-.09-.08-.21-.18-.27-.12-.07-.23-.12-.32-.13-.08-.01-.14,0-.15-.02Z"/>
      <g>
        <path class="cls-7" d="m120.64,139.6l-1.61.64-1.51,1.07s0,.37.85.23c.86-.13,1.51-.59,1.51-.59,0,0,1.12.71,2.11.54"/>
        <path class="cls-9" d="m121.98,141.49s-.05.02-.16.04c-.1.01-.26.02-.46,0-.39-.04-.94-.19-1.53-.53h.07c-.5.32-1.14.61-1.89.63-.11,0-.22,0-.33-.05-.11-.04-.23-.12-.25-.29v-.04s.03-.02.03-.02c.56-.39,1.08-.75,1.52-1.06h0s0,0,0,0c.49-.19.9-.34,1.18-.44.28-.1.45-.15.45-.14s-.15.09-.42.21c-.28.12-.67.29-1.16.49h.01c-.44.31-.95.67-1.51,1.07l.03-.06s.07.12.15.14c.08.03.18.04.28.04.69-.02,1.34-.3,1.81-.59l.04-.02.04.02c.56.34,1.09.51,1.47.56.38.06.6.01.61.04Z"/>
      </g>
      <path class="cls-9" d="m118.3,139.52s-.19.04-.37-.08c-.19-.11-.27-.27-.24-.3.03-.03.16.07.32.17.16.1.31.16.3.21Z"/>
    </g>
    <g>
      <g>
        <path class="cls-10" d="m122.99,143.46l13.57,1.97c1.35.43,2.81.31,4.07-.34l12.09-6.2-3.62-7.98h0c-.51.19-1.11.42-1.36.58l-9.95,7.17-14.45-.51-.36,5.32Z"/>
        <g>
          <polygon class="cls-7" points="171.56 157.86 170.7 156.35 161.44 154.03 162.53 155.91 171.56 157.86"/>
          <path class="cls-10" d="m149.1,130.91c.01.32-1.36,10.37-1.36,12.42s3.93,4.28,3.93,4.28l4.3,9.13h15.32l-5.24-9.84-2.37-7.88c-.9-2.99-.81-4.53-3.03-6.71l-4.29-2.88-7.28,1.48Z"/>
          <path class="cls-10" d="m153.55,138.84l2.57,10.8-12.98-3.66-2.21,3.91,16.89,7.69c2.08.95,4.54.28,5.85-1.59h0c.8-1.13,1.06-2.56.71-3.9l-3.78-14.77c-.52-2.03-2.66-3.2-4.65-2.53h0c-1.7.57-2.72,2.3-2.41,4.06Z"/>
          <path class="cls-13" d="m151.91,148.12s-.29-.53-.39-.57c-.1-.05-.23-.12-.41-.22-.35-.2-.85-.5-1.42-.94-.56-.45-1.24-1.03-1.68-1.9-.42-.9-.39-2-.23-3.09.16-1.09.38-2.11.51-3.05.14-.94.24-1.79.3-2.5.06-.72.06-1.3.06-1.7,0-.4-.01-.62,0-.62,0,0,.01.05.03.16.01.11.03.26.04.46.02.4.03.99-.01,1.71-.04.72-.13,1.57-.26,2.52-.12.94-.35,1.97-.5,3.05-.15,1.07-.18,2.15.21,3,.41.84,1.07,1.42,1.61,1.88.56.45,1.05.76,1.38.98.34.21.77.84.77.85Z"/>
          <path class="cls-13" d="m157.07,130.15s-.08.1-.23.26c-.16.16-.39.39-.69.66-.59.55-1.43,1.29-2.39,2.06-.96.77-1.86,1.43-2.53,1.88-.33.23-.61.41-.8.53-.19.12-.3.18-.31.17,0,0,.09-.09.27-.22.21-.16.46-.35.77-.57.65-.48,1.53-1.15,2.49-1.92.96-.77,1.8-1.49,2.41-2.02.28-.24.52-.45.72-.62.17-.15.27-.22.28-.22Z"/>
          <path class="cls-13" d="m153.55,138.84s.03.07.06.21c.04.15.09.35.16.6.13.54.32,1.3.56,2.25.47,1.94,1.12,4.63,1.87,7.72l.03.13-.13-.04c-1.05-.3-2.16-.61-3.31-.93-3.75-1.07-7.16-2.03-9.66-2.75l.07-.03c-.69,1.19-1.25,2.16-1.64,2.85-.19.32-.34.58-.45.77-.05.08-.09.14-.12.2-.03.04-.04.07-.05.06,0,0,0-.03.03-.07.03-.06.06-.12.11-.21.1-.19.25-.45.43-.79.38-.69.93-1.67,1.6-2.87l.02-.04h.05c2.51.71,5.92,1.67,9.68,2.72,1.15.32,2.26.64,3.31.93l-.1.1c-.73-3.1-1.36-5.79-1.81-7.73-.22-.95-.39-1.72-.52-2.26-.05-.25-.1-.46-.13-.61-.03-.14-.04-.21-.04-.21Z"/>
          <path class="cls-13" d="m160.66,138.17s.03.06.06.19c.04.14.09.32.15.54.13.49.31,1.17.52,1.99.43,1.7,1.02,4.02,1.66,6.58.32,1.29.63,2.51.89,3.63.26,1.12.37,2.17.25,3.05-.12.87-.44,1.53-.72,1.93-.29.4-.52.55-.52.55-.01-.01.2-.18.47-.59.27-.4.56-1.05.66-1.91.11-.85-.01-1.89-.28-3-.28-1.12-.58-2.34-.9-3.62-.63-2.56-1.2-4.89-1.62-6.59-.2-.83-.36-1.51-.47-2-.05-.22-.09-.4-.12-.55-.03-.13-.04-.19-.03-.19Z"/>
          <g class="cls-1">
            <path d="m163.01,156.74c1.9.18,3-.91,3.21-2.39.11-.82-.16-1.63-.42-2.41-1.16-3.42-2.34-6.86-4.19-9.96.7,3.1,1.59,6.08,2.29,9.18.23,1.01.31,1.6.29,2.64s-.48,2.17-1.17,2.94"/>
          </g>
        </g>
      </g>
      <path class="cls-8" d="m147.43,141.2s-.33-.29-.77-.85c-.43-.56-.97-1.38-1.42-2.36-.45-.98-.73-1.93-.87-2.62-.14-.69-.17-1.13-.14-1.13.03,0,.11.42.29,1.1.18.68.47,1.6.91,2.56.45.97.96,1.79,1.35,2.36.4.57.67.91.65.93Z"/>
      <path class="cls-8" d="m143.71,143.4s-.26-.32-.61-.87c-.35-.55-.81-1.33-1.29-2.21-.48-.88-.88-1.69-1.15-2.28-.27-.59-.42-.97-.4-.98.03-.01.22.34.53.92.34.64.75,1.4,1.21,2.25.46.84.88,1.6,1.23,2.23.32.57.51.93.48.94Z"/>
      <path class="cls-8" d="m138.6,145.39c-.06,0-.34-1.43-.63-3.21-.29-1.78-.48-3.23-.42-3.24.06,0,.34,1.43.63,3.21.29,1.78.48,3.23.42,3.24Z"/>
      <path class="cls-8" d="m134.04,145.09s-.07-.35-.11-.92c-.03-.57-.05-1.35-.03-2.22.02-.87.08-1.65.14-2.22.06-.57.12-.91.15-.91.03,0,.02.35,0,.92-.02.57-.06,1.35-.08,2.21-.02.86-.02,1.65-.03,2.21,0,.57-.01.92-.04.92Z"/>
      <path class="cls-8" d="m129.48,138.45s.08.32.11.85c.04.53.06,1.26.05,2.07-.01.81-.07,1.54-.12,2.07-.06.53-.12.85-.14.85-.06,0,.03-1.31.06-2.92.03-1.61-.02-2.92.04-2.92Z"/>
      <path class="cls-8" d="m125.74,138.93c.06,0,0,1.1-.12,2.45-.12,1.35-.27,2.43-.32,2.43-.06,0,0-1.1.12-2.45.12-1.35.27-2.43.32-2.43Z"/>
      <path class="cls-8" d="m148.3,135.23c-.06.02-.3-.65-.71-1.41-.4-.77-.82-1.34-.77-1.38.04-.04.54.49.96,1.28.42.78.58,1.49.53,1.51Z"/>
      <path class="cls-8" d="m155.36,146.14s-.11.03-.31.04c-.2.01-.5,0-.86-.02-.73-.05-1.73-.23-2.77-.62-1.04-.39-1.91-.92-2.5-1.35-.29-.22-.52-.41-.66-.55-.15-.14-.22-.22-.21-.23.02-.03.36.26.96.66.59.4,1.46.89,2.48,1.28,1.02.38,2,.58,2.71.66.71.09,1.16.1,1.16.13Z"/>
      <path class="cls-8" d="m153.9,141.02s-.33,0-.84-.09c-.51-.09-1.21-.26-1.96-.52-.75-.26-1.41-.56-1.87-.8-.46-.24-.73-.42-.71-.44.03-.06,1.16.53,2.65,1.04,1.48.51,2.74.75,2.73.81Z"/>
      <path class="cls-8" d="m153.05,137.33s-1,.12-2.12-.34c-1.13-.45-1.81-1.19-1.77-1.22.04-.05.76.6,1.85,1.03,1.08.44,2.05.47,2.05.53Z"/>
      <path class="cls-8" d="m159.05,134.72s-.33-.18-.9-.34c-.56-.16-1.41-.23-2.25.08-.84.32-1.44.92-1.76,1.41-.33.49-.42.86-.46.85-.02,0,.03-.39.33-.93.3-.53.91-1.2,1.81-1.53.9-.33,1.8-.23,2.37-.03.58.2.87.47.86.48Z"/>
      <path class="cls-8" d="m159.75,139.64s-.24.18-.68.38c-.44.2-1.07.42-1.8.56-.72.14-1.39.18-1.87.17-.48-.01-.78-.06-.77-.09,0-.07,1.19,0,2.61-.29,1.42-.28,2.49-.8,2.52-.74Z"/>
      <path class="cls-8" d="m161.81,145.81c0,.06-1.26.23-2.82.38-1.56.15-2.83.23-2.84.17,0-.06,1.26-.23,2.82-.38,1.56-.15,2.83-.23,2.84-.17Z"/>
      <path class="cls-8" d="m163.62,154.37s-.12,0-.32-.06c-.2-.05-.49-.15-.84-.28-.7-.27-1.63-.74-2.58-1.37-.95-.63-1.76-1.27-2.34-1.75-.57-.48-.92-.79-.9-.81.02-.02.39.25.99.69.6.44,1.42,1.07,2.36,1.69.94.62,1.85,1.11,2.52,1.41.68.3,1.11.45,1.1.48Z"/>
      <path class="cls-8" d="m153.9,155.68s-.07-.35-.06-.91c0-.56.08-1.34.28-2.18.2-.84.5-1.57.75-2.07.25-.5.45-.79.47-.78.06.03-.63,1.25-1.02,2.9-.41,1.65-.36,3.04-.42,3.04Z"/>
      <path class="cls-8" d="m149.01,153.06s-.16-1.14.25-2.48c.41-1.34,1.14-2.23,1.18-2.2.06.04-.59.95-.98,2.26-.4,1.3-.39,2.42-.45,2.42Z"/>
      <path class="cls-8" d="m146.29,146.66s-.84.85-1.49,2.15c-.67,1.29-.79,2.49-.86,2.48-.02,0-.03-.3.06-.78.09-.48.28-1.13.61-1.79.34-.66.75-1.2,1.08-1.55.33-.35.58-.53.6-.51Z"/>
      <path class="cls-8" d="m164.29,141.06s-.39.55-1.14.84c-.75.3-1.41.22-1.41.17,0-.06.63-.08,1.33-.36.7-.27,1.17-.69,1.22-.65Z"/>
      <path class="cls-8" d="m162.46,135.43s-.2.55-.75.99c-.54.45-1.11.59-1.12.54-.02-.06.48-.28.99-.7.52-.42.83-.87.88-.83Z"/>
      <path class="cls-8" d="m155.91,131.69s.48.31.81.91c.33.6.39,1.16.33,1.17-.06.01-.2-.5-.52-1.07-.31-.57-.67-.97-.62-1.01Z"/>
      <path class="cls-8" d="m165.64,146.36s-.49.42-1.24.61c-.75.2-1.38.12-1.38.07,0-.06.61-.08,1.32-.27.72-.18,1.26-.46,1.29-.41Z"/>
      <path class="cls-8" d="m168.44,151.29c0,.06-.97.19-2.18.29-1.21.1-2.19.14-2.2.08,0-.06.97-.19,2.18-.29,1.21-.1,2.19-.14,2.2-.08Z"/>
      <path class="cls-8" d="m170.39,155.26c0,.06-1.45.07-3.23.02-1.78-.04-3.22-.13-3.22-.19,0-.06,1.45-.07,3.23-.02,1.78.04,3.22.13,3.22.19Z"/>
    </g>
    <g>
      <path class="cls-13" d="m156.2,115.48c.27,1.36,2.22,1.9,2.41,3.27.08.59-.2,1.17-.18,1.77.03.8.58,1.47.87,2.22.58,1.54-.08,3.36-1.31,4.45-1.23,1.09-2.93,1.53-4.58,1.56"/>
      <g>
        <path class="cls-13" d="m145.15,116.88c.17.73-.21,1.46-.61,2.08-.4.63-.85,1.29-.84,2.03.02,1.32,1.47,2.32,1.41,3.64-.03.71-.51,1.35-.5,2.05,0,.68.47,1.28,1,1.72.52.44,1.03.28,1.51.77.51.51,1.27,1,1.94,1.25,1.54.55,3.06-.84,3.71-1.15"/>
        <path class="cls-13" d="m156.6,116.22c-.09-.67-.78-1.09-1.44-1.23-.66-.15-1.36-.13-1.97-.41-.54-.25-.95-.71-1.43-1.07-1.18-.87-2.83-1.05-4.17-.44-1.33.6-2.3,1.95-2.43,3.41-.09.99.25,2.08,1.1,2.59.98.59,2.24.23,3.32-.17s2.3-.83,3.33-.32c.62.31,1.04.89,1.48,1.43.44.54.96,1.08,1.64,1.2.68.12,1.5-.4,1.42-1.09"/>
        <g>
          <g>
            <path class="cls-7" d="m156.83,130.41l-1.62-12.98c-.08-.58-.59-1-1.17-.97l-6.14-.57c-1.92.09-2.82,2.62-2.64,4.54.2,2.13.52,4.73,1.01,6.26,1,3.09,3.49,3.11,3.49,3.11,0,0,.46,4.56.65,5.69"/>
            <g>
              <path class="cls-13" d="m146.09,122.79c.03.22.23.37.46.35.23-.02.39-.22.36-.43-.03-.22-.23-.37-.46-.35-.23.02-.39.22-.36.43Z"/>
              <path class="cls-13" d="m145.98,121.99c.06.05.33-.23.77-.3.44-.07.79.1.83.04.02-.03-.05-.11-.2-.19-.15-.08-.4-.14-.68-.1-.27.04-.49.18-.6.3-.12.12-.15.23-.12.25Z"/>
            </g>
            <g>
              <path class="cls-13" d="m150.5,122.15c.03.22.23.37.46.35.23-.02.39-.22.36-.43-.03-.22-.23-.37-.46-.35-.23.02-.39.22-.36.43Z"/>
              <path class="cls-13" d="m150.29,121.41c.06.05.33-.23.77-.3.44-.07.79.1.83.04.02-.03-.05-.11-.2-.19-.15-.08-.4-.14-.68-.1-.27.04-.49.18-.6.3-.12.12-.15.23-.12.25Z"/>
            </g>
            <path class="cls-13" d="m149.21,124.89s-.28-.03-.73-.02c-.11,0-.22,0-.25-.07-.04-.08-.01-.2.02-.34.06-.29.13-.59.2-.9.27-1.28.45-2.33.4-2.34-.05-.01-.31,1.02-.58,2.3-.06.32-.13.62-.18.9-.02.13-.07.29.01.45.04.08.13.13.21.13.07.01.14,0,.19,0,.45-.05.72-.09.72-.11Z"/>
            <path class="cls-9" d="m149.75,129.8s2.12-.14,4.03-1.74c-.03.01-.86,2.44-3.94,2.59l-.09-.85Z"/>
            <path class="cls-9" d="m149.56,125.92c.12-.23.38-.39.66-.4.19,0,.4.05.54.19.14.14.2.35.12.52-.09.18-.33.26-.55.23-.22-.03-.42-.14-.61-.25-.05-.03-.11-.06-.14-.11-.04-.05-.05-.11-.02-.16"/>
            <path class="cls-13" d="m150.54,125c-.07,0,0,.48-.35.88-.35.4-.87.43-.86.49,0,.03.13.07.34.05.21-.03.51-.14.72-.38.22-.25.28-.54.27-.73-.01-.2-.08-.31-.12-.3Z"/>
          </g>
          <path class="cls-13" d="m149.9,120.21c.06.11.49-.01,1.01-.03.52-.03.96.06,1.01-.06.02-.06-.07-.16-.25-.25-.18-.09-.46-.16-.78-.14-.31.01-.59.11-.76.21-.18.11-.26.21-.23.27Z"/>
          <path class="cls-13" d="m145.94,120.7c.09.09.38-.06.74-.12.36-.07.68-.04.73-.15.02-.06-.04-.15-.19-.22-.15-.07-.38-.12-.63-.07-.25.05-.45.17-.56.29-.11.12-.14.23-.1.27Z"/>
        </g>
        <path class="cls-13" d="m157.01,127.15c-.84.31-.99-.12-1.74-.62-.75-.5-1.23-1.38-1.26-2.27-.02-.79.27-1.65-.12-2.34-.51-.92-1.92-1-2.44-1.91-.3-.53-.21-1.22-.54-1.74-.31-.48-.9-.7-1.46-.81-.56-.11-1.15-.15-1.66-.43-.5-.28-.88-.89-.67-1.42,2.41-.09,4.82.11,7.18.59.55.11,1.13.26,1.5.67.4.43.48,1.07.55,1.65.32,2.86.63,5.73.95,8.59"/>
      </g>
      <path class="cls-13" d="m157.98,120.38c-.06-1.06.64-2.12,1.64-2.47,1-.35,2.21.04,2.82.9.58.82.6,1.94.33,2.91-.32,1.16-1.16,2.3-2.35,2.43-1.12.13-2.17-.71-2.66-1.73-.49-1.02-.54-2.18-.58-3.31"/>
      <path class="cls-12" d="m159.29,124.62s.07-.06.14-.21c.07-.15.14-.38.14-.67,0-.29-.06-.64-.19-1-.12-.36-.31-.73-.47-1.13-.16-.4-.27-.8-.25-1.16,0-.36.13-.69.16-.98.04-.29-.01-.53-.09-.68-.07-.15-.15-.2-.16-.2,0,0,.05.07.11.22.06.14.09.37.04.64-.04.28-.17.59-.19.99-.02.39.09.81.25,1.22.16.41.35.78.48,1.12.13.35.2.68.21.95.03.56-.2.87-.17.88Z"/>
      <path class="cls-12" d="m158.73,120.81s.18.21.56.4c.38.19.98.36,1.64.26.66-.09,1.19-.41,1.5-.7.32-.29.44-.53.43-.54-.02-.02-.17.2-.49.46-.32.26-.83.55-1.46.64-.62.09-1.2-.05-1.58-.22-.38-.16-.59-.33-.6-.31Z"/>
      <path class="cls-12" d="m158.97,121.28s.1.2.35.45c.25.25.65.56,1.15.76.51.2,1,.27,1.36.26.36,0,.57-.07.57-.09,0-.02-.22,0-.56-.01-.34-.02-.82-.09-1.31-.29-.49-.2-.88-.47-1.14-.7-.26-.23-.4-.4-.41-.38Z"/>
      <path class="cls-12" d="m158.86,125.77s.01-.01.03-.04c.01-.03.04-.08.07-.14.05-.13.11-.32.12-.59.01-.26-.04-.59-.2-.93-.15-.34-.46-.68-.89-.87-.42-.21-.94-.31-1.31-.68-.19-.18-.3-.44-.29-.72,0-.28.08-.56.15-.86.15-.61.04-1.31-.34-1.88-.19-.28-.45-.53-.77-.7-.32-.17-.68-.23-1.03-.25-.36-.02-.7-.02-1.04-.06-.33-.04-.66-.14-.91-.33-.26-.18-.4-.47-.5-.77-.09-.3-.16-.61-.29-.9-.25-.57-.63-1.05-1.09-1.36-.46-.32-.98-.46-1.45-.45-.47,0-.89.16-1.19.38-.3.22-.5.49-.61.72-.11.24-.15.44-.16.58-.01.14,0,.21,0,.21.02,0-.02-.3.21-.76.12-.22.31-.48.61-.69.29-.21.7-.35,1.15-.34.45,0,.95.14,1.38.45.44.31.8.77,1.04,1.32.12.27.19.57.29.89.09.31.25.64.54.84.28.21.63.31.98.35.35.05.7.04,1.05.06.35.02.69.08.98.23.29.15.54.38.72.65.36.54.47,1.2.33,1.78-.06.3-.14.59-.14.89,0,.3.12.6.33.8.42.4.95.5,1.35.69.42.18.71.5.87.82.16.32.22.64.21.89,0,.51-.18.77-.16.77Z"/>
      <path class="cls-12" d="m157.25,116.96s.02-.05.02-.15c0-.1-.04-.25-.17-.4-.12-.15-.33-.29-.6-.35-.28-.06-.59,0-.91.11-.32.12-.64.3-1.01.43-.36.13-.8.21-1.17,0-.38-.2-.62-.62-.86-1.03-.24-.42-.55-.84-.94-1.19-.77-.7-1.73-1.11-2.64-1.17-.45-.03-.89.05-1.26.23-.37.18-.65.45-.83.75-.18.3-.24.62-.22.89.02.27.11.5.21.66.1.16.21.27.3.32.08.06.13.08.13.08.01-.01-.19-.1-.38-.43-.09-.16-.17-.38-.18-.64-.02-.26.05-.56.22-.84.17-.28.45-.53.8-.69.35-.17.77-.24,1.2-.21.87.06,1.81.47,2.55,1.15.38.34.67.74.91,1.15.24.41.49.85.92,1.08.21.11.44.15.66.14.22-.01.42-.07.61-.14.38-.14.69-.33,1.01-.45.31-.12.61-.18.86-.13.25.05.45.18.57.31.13.13.17.28.18.37.02.1,0,.15.01.15Z"/>
    </g>
  </g>
</svg>