<?xml version="1.0" encoding="UTF-8"?>
<svg id="Layer_1" data-name="Layer 1" xmlns="http://www.w3.org/2000/svg" viewBox="0 0 1665 1110">
  <defs>
    <style>
      .cls-1 {
        fill: #f4dd4b;
      }

      .cls-2 {
        fill: #fff;
      }

      .cls-3 {
        fill: #28324b;
      }
    </style>
  </defs>
  <rect id="BG" class="cls-3" width="1665" height="1110"/>
  <g>
    <g id="Group_1" data-name="Group 1">
      <path id="Path_1" data-name="Path 1" class="cls-1" d="m559.07,587.2c43.24.46,78.67-34.21,79.14-77.46.46-43.24-34.21-78.67-77.46-79.14-.56,0-1.12,0-1.68,0v156.59Z"/>
      <path id="Path_2" data-name="Path 2" class="cls-1" d="m438.16,623.97c4.08-8.48,6.2-17.76,6.2-27.17v-127.59l-57.93,124.75h-.86l-57.86-126.72c-10.19-22.32-32.47-36.64-57.01-36.64h-35.58v278.85h0c-40.87-41.16-63.7-96.89-63.44-154.89.37-120.98,100.03-219.48,221.01-218.49,58.96.42,115.24,24.65,156.07,67.18h10.32c11.05,0,22.04,1.74,32.55,5.15-46.6-63.81-120.77-101.63-199.78-101.89-135.8-.53-247.63,109.07-249.69,244.85-1.53,102.83,60.3,196.03,155.64,234.59v-32.23h0v-193.6l65.85,136.08c5.31,10.98,18.53,15.58,29.51,10.26,4.49-2.18,8.12-5.81,10.28-10.31l34.73-72.19Z"/>
      <path id="Path_3" data-name="Path 3" class="cls-1" d="m470.8,430.6v249.28h62.68v-186.6c0-34.61-28.06-62.67-62.68-62.68h0Z"/>
      <path id="Path_4" data-name="Path 4" class="cls-1" d="m604.52,604.26c-27.13,118.03-144.81,191.72-262.84,164.59-4.91-1.13-9.78-2.43-14.6-3.89v30.73c132.85,35.17,269.05-44.01,304.23-176.86,3.5-13.23,5.91-26.74,7.19-40.37-9.46,10.81-21.02,19.59-33.98,25.8h0Z"/>
    </g>
    <g id="Group_2" data-name="Group 2">
      <path id="Path_5" data-name="Path 5" class="cls-2" d="m763.53,397.44h13.98v56.94h16.18v-69.93h-30.17v12.99Z"/>
      <path id="Path_6" data-name="Path 6" class="cls-2" d="m871.97,399.79c-2.33-5.02-6.04-9.28-10.69-12.29-9.47-5.66-21.29-5.66-30.77,0-4.65,3.01-8.35,7.27-10.68,12.29-5.26,12.56-5.26,26.7,0,39.26,2.33,5.02,6.03,9.28,10.68,12.29,9.48,5.66,21.3,5.66,30.77,0,4.65-3.01,8.36-7.27,10.69-12.29,5.26-12.56,5.26-26.7,0-39.26Zm-14.18,32.51c-.86,2.86-2.52,5.41-4.8,7.34-4.19,3.13-9.95,3.13-14.14,0-2.31-1.92-4.01-4.47-4.9-7.34-2.39-8.42-2.39-17.35,0-25.77.89-2.87,2.59-5.42,4.9-7.34,4.19-3.13,9.95-3.13,14.14,0,2.27,1.93,3.94,4.48,4.8,7.34,2.33,8.43,2.33,17.33,0,25.77Z"/>
      <path id="Path_7" data-name="Path 7" class="cls-2" d="m949.79,399.79c-2.33-5.02-6.04-9.28-10.69-12.29-9.48-5.66-21.29-5.66-30.77,0-4.65,3.01-8.35,7.27-10.69,12.29-5.26,12.56-5.26,26.7,0,39.26,2.34,5.02,6.04,9.28,10.69,12.29,9.48,5.66,21.29,5.66,30.77,0,4.65-3.01,8.36-7.27,10.69-12.29,5.26-12.56,5.26-26.7,0-39.26Zm-14.18,32.51c-.86,2.86-2.53,5.41-4.8,7.34-4.2,3.14-9.95,3.14-14.14,0-2.31-1.92-4.01-4.47-4.9-7.34-2.4-8.42-2.4-17.35,0-25.77.89-2.87,2.59-5.42,4.9-7.34,4.19-3.13,9.94-3.13,14.14,0,2.27,1.93,3.94,4.48,4.8,7.34,2.32,8.43,2.32,17.33,0,25.77Z"/>
      <path id="Path_8" data-name="Path 8" class="cls-2" d="m1079.6,400.99c-3.3-5.26-8-9.48-13.59-12.19-6.26-3-13.13-4.49-20.08-4.35h-31.76v69.93h31.77c6.94.15,13.81-1.34,20.07-4.34,5.59-2.71,10.29-6.93,13.59-12.19,6.52-11.42,6.52-25.44,0-36.86Zm-14.33,29.97c-1.86,3.25-4.64,5.89-7.99,7.58-3.77,1.84-7.94,2.75-12.14,2.65h-14.68v-43.55h14.68c4.2-.1,8.37.81,12.14,2.65,3.34,1.68,6.12,4.3,7.99,7.54,3.8,7.24,3.8,15.89,0,23.13Z"/>
      <path id="Path_9" data-name="Path 9" class="cls-2" d="m1143.53,384.46h-15.98l-31.07,69.92h16.59l6.23-14.98h32.39l6.23,14.98h16.98l-31.37-69.92Zm-19.12,42.65l11.08-26.66,11.09,26.66h-22.17Z"/>
      <path id="Path_10" data-name="Path 10" class="cls-2" d="m1232.74,384.46l-18.72,30.96-18.64-30.96h-17.28l27.17,45.02v24.9h16.28v-24.94l26.97-44.99h-15.78Z"/>
      <path id="Path_11" data-name="Path 11" class="cls-2" d="m1308.46,419.07c-2.49-1.47-5.14-2.66-7.89-3.55-2.86-.93-5.76-1.71-8.7-2.35-2.93-.63-5.6-1.27-7.99-1.9-2.09-.49-4.06-1.39-5.79-2.65-1.43-1.05-2.25-2.73-2.2-4.5,0-1.44.47-2.85,1.35-3.99,1.11-1.34,2.58-2.33,4.24-2.85,2.49-.78,5.09-1.13,7.69-1.05,3.24.02,6.47.48,9.59,1.35,3.39.92,6.65,2.28,9.69,4.04l5.09-12.19c-3.48-2.12-7.27-3.67-11.24-4.59-4.26-1.06-8.64-1.6-13.04-1.6-5.62-.18-11.22.83-16.43,2.95-3.94,1.63-7.32,4.37-9.73,7.89-2.12,3.25-3.23,7.06-3.2,10.94-.12,3.18.62,6.34,2.15,9.14,1.41,2.41,3.41,4.44,5.79,5.9,2.5,1.53,5.19,2.74,7.99,3.6,2.9.9,5.78,1.67,8.64,2.3s5.51,1.3,7.94,2c2.09.54,4.07,1.46,5.84,2.7,1.43,1.02,2.25,2.69,2.2,4.44.02,1.41-.48,2.78-1.4,3.85-1.18,1.26-2.69,2.17-4.35,2.65-2.51.74-5.12,1.08-7.74,1-4.25,0-8.46-.7-12.49-2.05-3.78-1.19-7.35-2.96-10.59-5.24l-5.49,12.19c3.75,2.69,7.97,4.67,12.44,5.83,5.24,1.51,10.68,2.27,16.13,2.25,5.64.18,11.26-.84,16.48-3,3.96-1.64,7.37-4.38,9.84-7.89,2.14-3.19,3.27-6.95,3.25-10.79.28-6.07-2.84-11.79-8.09-14.84h0Z"/>
      <path id="Path_12" data-name="Path 12" class="cls-2" d="m1445.17,404.93c-1.86-4.34-4.6-8.25-8.04-11.48-3.51-3.29-7.64-5.86-12.14-7.55-4.88-1.8-10.04-2.7-15.23-2.64-5.21-.06-10.37.86-15.24,2.7-4.5,1.71-8.62,4.29-12.14,7.58-3.43,3.23-6.17,7.12-8.04,11.44-3.79,9.23-3.79,19.59,0,28.82,1.86,4.34,4.6,8.26,8.04,11.49,3.53,3.3,7.67,5.88,12.19,7.59,9.82,3.57,20.59,3.59,30.42.05,4.5-1.69,8.63-4.26,12.14-7.55,3.45-3.24,6.19-7.17,8.04-11.53,3.8-9.27,3.8-19.66,0-28.92Zm-15.19,23.53c-1.06,2.65-2.64,5.06-4.64,7.09-1.98,2.02-4.34,3.62-6.94,4.7-2.74,1.12-5.68,1.68-8.65,1.65-2.98.03-5.93-.53-8.7-1.65-2.61-1.07-4.97-2.67-6.94-4.7-1.97-2.04-3.54-4.45-4.6-7.09-2.2-5.83-2.2-12.26,0-18.08,1.06-2.64,2.63-5.05,4.6-7.09,1.97-2.04,4.33-3.64,6.94-4.7,2.77-1.12,5.72-1.68,8.7-1.65,2.97-.03,5.9.53,8.65,1.65,2.6,1.08,4.96,2.68,6.94,4.7,2,2.03,3.58,4.44,4.64,7.09,2.2,5.82,2.2,12.25,0,18.08Z"/>
      <path id="Path_13" data-name="Path 13" class="cls-2" d="m1523.04,397.44v-12.99h-52.85v69.93h16.28v-25.47h32.27v-12.99h-32.27v-18.48h36.57Z"/>
      <path id="Path_14" data-name="Path 14" class="cls-2" d="m892.16,641.03l-85.12-141.11h-43.51v227.3h49.03v-134.07l66.89,109.72h23.38l66.96-111.22.58,135.57h49.03v-227.3h-43.83l-83.41,141.11Z"/>
      <path id="Path_15" data-name="Path 15" class="cls-2" d="m1173.31,662.27l-69.13-162.35h-57.15l98.39,227.3h51.96l98.39-227.3h-52.28l-70.18,162.35Z"/>
      <path id="Path_16" data-name="Path 16" class="cls-2" d="m1511.02,538.24c-8.33-12.61-20.19-22.49-34.09-28.42-14.73-6.6-32.26-9.9-52.6-9.9h-98.4v227.3h52.93v-62.66h45.46c20.35,0,37.88-3.36,52.6-10.07,13.87-5.99,25.71-15.86,34.1-28.41,8.01-12.23,12.01-26.9,12.02-44,0-16.89-4.01-31.5-12.02-43.84Zm-53.25,73.06c-8.23,6.93-20.35,10.4-36.37,10.39h-42.54v-78.9h42.54c16.02,0,28.14,3.41,36.37,10.23,8.23,6.82,12.34,16.5,12.34,29.06s-4.11,22.29-12.34,29.22Z"/>
    </g>
  </g>
</svg>