<?xml version="1.0" encoding="UTF-8"?>
<svg id="Layer_1" data-name="Layer 1" xmlns="http://www.w3.org/2000/svg" viewBox="0 0 92 24">
  <defs>
    <style>
      .cls-1 {
        fill: #e2e8f0;
      }
    </style>
  </defs>
  <g>
    <path class="cls-1" d="m79.41,8.26c-.17.05-.16.19-.2.3-.78,2.67-1.56,5.34-2.32,8.02-.12.43-.37.55-.78.55-1.12-.01-2.23-.03-3.35,0-.58.01-.88-.21-1.04-.76-.83-2.85-1.68-5.7-2.54-8.54-.64-2.14-1.3-4.28-1.95-6.43-.24-.8-.18-.89.63-.89,1.12,0,2.23.01,3.35,0,.54-.01.79.2.92.72.71,2.73,1.45,5.46,2.19,8.18.05.19.06.5.29.51.26,0,.22-.3.27-.49.8-2.79,1.61-5.59,2.41-8.38.1-.35.32-.53.69-.53.97,0,1.94,0,2.91,0,.42,0,.59.24.69.6.76,2.7,1.53,5.39,2.31,8.09.09.3.06.81.43.79.25,0,.2-.53.28-.83.64-2.34,1.27-4.68,1.93-7.02.46-1.64.48-1.64,2.21-1.63.78,0,1.56,0,2.34,0,.47,0,.65.16.5.66-1.55,5.13-3.09,10.26-4.62,15.39-.13.42-.36.57-.77.57-1.09-.01-2.19-.04-3.28,0-.67.02-1-.25-1.16-.88-.67-2.55-1.35-5.09-2.16-7.6-.04-.13-.03-.29-.16-.39Z"/>
    <path class="cls-1" d="m36.08,8.9c0-2.51,0-5.02,0-7.53,0-.79.08-.86.87-.86,2.27,0,4.55-.01,6.82.01,1.18.01,2.36.14,3.46.6,1.6.67,2.6,1.85,2.89,3.54.33,1.97.26,3.89-1.25,5.46-.35.37-.76.67-1.23.86-.42.17-.53.33-.23.77,1.02,1.51,1.99,3.05,2.97,4.59.12.19.35.39.24.61-.13.28-.45.15-.69.15-1.26.01-2.53-.02-3.79.02-.59.02-.95-.21-1.19-.73-.61-1.31-1.34-2.56-2.07-3.81-.11-.18-.2-.37-.34-.53-.38-.46-.92-.39-1.41-.3-.51.1-.34.56-.34.89,0,1.3,0,2.59.03,3.89,0,.38-.11.56-.48.56-1.24,0-2.48,0-3.73,0-.38,0-.51-.21-.51-.56,0-2.55,0-5.1,0-7.65h-.03Zm6.51-4.21c-.44,0-.88,0-1.33,0-.31,0-.47.15-.47.46,0,.67,0,1.34,0,2.01,0,.3.13.49.45.48,1.03-.03,2.06.09,3.09-.1.74-.14,1.17-.62,1.19-1.33.02-.69-.4-1.22-1.11-1.4-.6-.16-1.21-.11-1.82-.12Z"/>
    <path class="cls-1" d="m52.96,8.81c0-2.59,0-5.19,0-7.78,0-.35.12-.51.46-.52.46,0,.93,0,1.39,0,3.33,0,6.65,0,9.98,0,.83,0,.88.06.88.9,0,.84-.02,1.67.01,2.51.02.58-.22.78-.78.77-2.17-.01-4.34.01-6.5-.01-.6,0-.82.18-.8.79.05,1.67-.18,1.43,1.44,1.45,1.37.01,2.74,0,4.1,0,.66,0,.8.14.73.78-.1.8.06,1.58.03,2.38-.02.56-.22.73-.81.7-1.15-.06-2.31.02-3.47.03-.17,0-.34,0-.51,0-1.8-.1-1.45-.05-1.51,1.49-.02.5.18.65.67.65,2.1-.02,4.21,0,6.32,0,1.1,0,1.1,0,1.09,1.07,0,.84,0,1.67,0,2.51,0,.43-.17.61-.6.6-3.85,0-7.7,0-11.56,0-.36,0-.58-.09-.58-.53.02-2.59,0-5.19,0-7.78,0,0,0,0,0,0Z"/>
    <path class="cls-1" d="m27,.51c2.04,0,4.08,0,6.13,0,.76,0,.83.07.83.83,0,.88-.02,1.76,0,2.64.02.56-.21.73-.74.72-1.01-.03-2.02.02-3.03-.01-.61-.02-.8.2-.8.8.02,3.56.01,7.11.02,10.67q0,.98-.98.97c-1.01,0-2.02,0-3.03,0-.51,0-.7-.2-.7-.72.02-3.62.01-7.24.01-10.86,0-.86,0-.87-.88-.86-1.03,0-2.06-.01-3.09.02-.49.02-.62-.16-.6-.61.03-.92,0-1.84,0-2.76,0-.79.03-.82.81-.82,2.02,0,4.04,0,6.06,0h0Z"/>
    <path class="cls-1" d="m16.65,6.2c0,.54-.04,1.09.01,1.63.05.49-.12.68-.6.74-2.37.32-4.75.66-7.12.99-.79.11-1.58.21-2.37.35-.66.11-1.14-.09-1.61-.59-1.41-1.52-2.86-3.01-4.32-4.48-.43-.44-.41-.65.05-1.07.99-.91,2.02-1.76,2.9-2.78.41-.48.54-.47.86.09.77,1.37,1.54,2.74,2.27,4.12.29.55.65.66,1.23.52,2.62-.61,5.25-1.19,7.87-1.78.82-.18.83-.17.8.7-.02.52,0,1.04,0,1.57,0,0,0,0,.01,0Z"/>
    <path class="cls-1" d="m13.23,16.91c0,1.82,0,3.64,0,5.46,0,.73-.05.75-.75.6-1.09-.24-2.18-.47-3.27-.69-.5-.1-.64-.34-.63-.88.06-2.32.04-4.64.04-6.96,0-.86.02-1.72,0-2.57-.02-.51.2-.73.68-.78,1.13-.13,2.26-.26,3.38-.41.51-.07.55.22.55.6,0,1.88,0,3.76,0,5.65,0,0,0,0,.01,0Z"/>
  </g>
  <g>
    <path class="cls-1" d="m22.24,20.22v.38h-.75v2.44h-.46v-2.44h-.76v-.38h1.97Z"/>
    <path class="cls-1" d="m24.7,23.04l-.65-1.13h-.35v1.13h-.46v-2.82h.97c.22,0,.4.04.55.11.15.08.26.18.34.3.07.13.11.27.11.43,0,.18-.05.35-.16.5-.11.15-.27.25-.49.31l.7,1.17h-.55Zm-1-1.5h.51c.17,0,.3-.04.39-.13.09-.09.13-.2.13-.35s-.04-.26-.13-.34c-.09-.08-.22-.12-.39-.12h-.51v.95Z"/>
    <path class="cls-1" d="m26.79,20.22v1.8c0,.21.06.37.17.48s.27.16.47.16.36-.05.47-.16.17-.27.17-.48v-1.8h.46v1.79c0,.23-.05.42-.15.58-.1.16-.23.28-.4.36s-.35.12-.56.12-.39-.04-.56-.12-.3-.2-.4-.36c-.1-.16-.14-.35-.14-.58v-1.79h.46Z"/>
    <path class="cls-1" d="m30.08,22.97c-.15-.07-.27-.16-.36-.28-.09-.12-.13-.26-.13-.43h.5c0,.12.06.22.14.3s.21.12.36.12.28-.04.37-.11.13-.18.13-.3c0-.1-.03-.17-.08-.23s-.12-.11-.21-.14-.2-.07-.34-.11c-.18-.05-.33-.1-.45-.15-.11-.05-.21-.13-.3-.23-.08-.11-.12-.25-.12-.42,0-.16.04-.3.12-.43s.2-.22.34-.28c.15-.07.32-.1.51-.1.27,0,.5.07.67.21s.27.32.29.56h-.51c0-.1-.06-.19-.15-.26-.09-.07-.21-.11-.35-.11-.13,0-.24.03-.33.1s-.13.17-.13.29c0,.09.03.16.08.21.05.06.12.1.2.13s.19.07.33.11c.19.05.34.1.46.15.12.05.22.13.3.24.08.11.12.25.12.43,0,.14-.04.28-.11.41-.08.13-.19.23-.34.31-.15.08-.32.12-.52.12s-.36-.03-.51-.1Z"/>
    <path class="cls-1" d="m34.46,20.22v.38h-.75v2.44h-.46v-2.44h-.76v-.38h1.97Z"/>
    <path class="cls-1" d="m37.08,20.88c.13-.22.3-.39.52-.51.22-.12.46-.19.73-.19.3,0,.57.07.8.22s.4.36.51.63h-.56c-.07-.15-.17-.26-.31-.33-.13-.07-.28-.11-.45-.11-.19,0-.35.04-.5.13s-.26.2-.34.36c-.08.16-.12.34-.12.55s.04.39.12.55c.08.16.2.28.34.36s.31.13.5.13c.17,0,.32-.04.45-.11.13-.07.23-.18.31-.33h.56c-.11.27-.28.48-.51.62-.23.15-.5.22-.8.22-.27,0-.51-.06-.73-.19-.22-.12-.39-.29-.52-.51s-.19-.47-.19-.74.06-.52.19-.74Z"/>
    <path class="cls-1" d="m41.27,22.88c-.22-.12-.39-.29-.52-.52-.13-.22-.19-.47-.19-.75s.06-.52.19-.74.3-.39.52-.51c.22-.12.46-.19.73-.19s.51.06.73.19c.22.12.39.29.52.51.13.22.19.47.19.74s-.06.53-.19.75c-.13.22-.3.39-.52.52-.22.12-.46.19-.73.19s-.5-.06-.73-.19Zm1.23-.34c.14-.09.26-.21.34-.36.08-.16.12-.34.12-.55s-.04-.39-.12-.55c-.08-.16-.2-.28-.34-.36-.15-.08-.31-.13-.5-.13s-.35.04-.5.13-.26.2-.34.36c-.08.16-.12.34-.12.55s.04.39.12.55c.08.16.2.28.34.36s.31.13.5.13.35-.04.5-.13Z"/>
    <path class="cls-1" d="m47.4,20.22v2.82h-.46v-1.93l-.86,1.93h-.32l-.86-1.93v1.93h-.46v-2.82h.5l.99,2.21.99-2.21h.5Z"/>
    <path class="cls-1" d="m51.5,20.22v2.82h-.46v-1.93l-.86,1.93h-.32l-.86-1.93v1.93h-.46v-2.82h.5l.99,2.21.99-2.21h.5Z"/>
    <path class="cls-1" d="m53.1,20.22v1.8c0,.21.06.37.17.48s.27.16.47.16.36-.05.47-.16.17-.27.17-.48v-1.8h.46v1.79c0,.23-.05.42-.15.58-.1.16-.23.28-.4.36s-.35.12-.56.12-.39-.04-.56-.12-.3-.2-.4-.36c-.1-.16-.14-.35-.14-.58v-1.79h.46Z"/>
    <path class="cls-1" d="m58.29,23.04h-.46l-1.39-2.11v2.11h-.46v-2.83h.46l1.39,2.1v-2.1h.46v2.83Z"/>
    <path class="cls-1" d="m59.89,20.22v2.82h-.46v-2.82h.46Z"/>
    <path class="cls-1" d="m62.85,20.22v.38h-.75v2.44h-.46v-2.44h-.76v-.38h1.97Z"/>
    <path class="cls-1" d="m65.93,20.22l-.93,1.8v1.02h-.46v-1.02l-.94-1.8h.52l.65,1.38.65-1.38h.51Z"/>
    <path class="cls-1" d="m69.88,23.04l-.65-1.13h-.35v1.13h-.46v-2.82h.97c.22,0,.4.04.55.11.15.08.26.18.34.3.07.13.11.27.11.43,0,.18-.05.35-.16.5-.11.15-.27.25-.49.31l.7,1.17h-.55Zm-1-1.5h.51c.17,0,.3-.04.39-.13.09-.09.13-.2.13-.35s-.04-.26-.13-.34c-.09-.08-.22-.12-.39-.12h-.51v.95Z"/>
    <path class="cls-1" d="m71.97,20.59v.83h.98v.38h-.98v.86h1.1v.38h-1.56v-2.83h1.56v.38h-1.1Z"/>
    <path class="cls-1" d="m76.59,20.22l-1.06,2.82h-.54l-1.06-2.82h.5l.84,2.35.84-2.35h.49Z"/>
    <path class="cls-1" d="m79.68,23.5h-.46v-3.71h.46v3.71Z"/>
    <path class="cls-1" d="m82.98,20.59v.83h.98v.38h-.98v.86h1.1v.38h-1.56v-2.83h1.56v.38h-1.1Z"/>
    <path class="cls-1" d="m88.85,20.22l-.84,2.82h-.52l-.59-2.14-.63,2.14h-.52s-.8-2.82-.8-2.82h.49l.58,2.3.63-2.3h.52l.59,2.29.59-2.29h.5Z"/>
    <path class="cls-1" d="m90.18,22.97c-.15-.07-.27-.16-.36-.28-.09-.12-.13-.26-.13-.43h.5c0,.12.06.22.14.3s.21.12.36.12.28-.04.37-.11.13-.18.13-.3c0-.1-.03-.17-.08-.23s-.12-.11-.21-.14-.2-.07-.34-.11c-.18-.05-.33-.1-.45-.15-.11-.05-.21-.13-.3-.23-.08-.11-.12-.25-.12-.42,0-.16.04-.3.12-.43s.2-.22.34-.28c.15-.07.32-.1.51-.1.27,0,.5.07.67.21s.27.32.29.56h-.51c0-.1-.06-.19-.15-.26-.09-.07-.21-.11-.35-.11-.13,0-.24.03-.33.1s-.13.17-.13.29c0,.09.03.16.08.21.05.06.12.1.2.13s.19.07.33.11c.19.05.34.1.46.15.12.05.22.13.3.24.08.11.12.25.12.43,0,.14-.04.28-.11.41-.08.13-.19.23-.34.31-.15.08-.32.12-.52.12s-.36-.03-.51-.1Z"/>
  </g>
</svg>