<?xml version="1.0" standalone="no"?>
<!DOCTYPE svg PUBLIC "-//W3C//DTD SVG 20010904//EN"
 "http://www.w3.org/TR/2001/REC-SVG-20010904/DTD/svg10.dtd">
<svg version="1.0" xmlns="http://www.w3.org/2000/svg"
 width="2000.000000pt" height="2000.000000pt" viewBox="0 0 2000.000000 2000.000000"
 preserveAspectRatio="xMidYMid meet">
<metadata>
Created by potrace 1.14, written by Peter Selinger 2001-2017
</metadata>
<g transform="translate(0.000000,2000.000000) scale(0.100000,-0.100000)"
fill="#000000" stroke="none">
<path d="M3439 13606 c-3 -3 -34 -7 -69 -10 -56 -4 -100 -8 -240 -22 -14 -1
-25 -3 -25 -4 0 -1 -11 -3 -25 -5 -108 -11 -350 -64 -490 -107 -36 -11 -72
-21 -80 -23 -30 -6 -247 -88 -308 -116 -35 -16 -67 -29 -70 -29 -4 0 -75 -35
-157 -77 -83 -42 -160 -81 -172 -87 -13 -6 -23 -14 -23 -18 0 -5 -5 -8 -10 -8
-10 0 -229 -137 -240 -150 -3 -3 -21 -17 -40 -30 -19 -13 -37 -27 -40 -30 -3
-3 -30 -24 -60 -46 -30 -23 -66 -52 -80 -64 -14 -12 -45 -38 -70 -58 -59 -49
-303 -292 -361 -362 -156 -184 -297 -382 -390 -547 -92 -162 -99 -175 -99
-190 0 -6 -4 -13 -9 -15 -29 -11 -226 -521 -256 -663 -1 -5 -7 -30 -14 -55 -7
-25 -15 -56 -18 -70 -2 -14 -10 -52 -18 -85 -7 -33 -16 -80 -20 -105 -4 -24
-8 -47 -10 -50 -2 -3 -6 -37 -10 -75 -4 -39 -9 -78 -11 -89 -19 -101 -26 -575
-11 -736 13 -138 22 -215 27 -215 1 0 3 -15 5 -34 2 -19 7 -46 11 -60 4 -14 8
-39 9 -56 4 -39 50 -227 82 -334 14 -47 26 -89 27 -95 1 -6 4 -15 7 -21 4 -5
17 -41 29 -80 12 -38 25 -74 29 -80 3 -5 6 -12 6 -15 1 -3 9 -23 19 -45 10
-22 26 -62 37 -89 11 -27 25 -58 32 -70 6 -12 12 -23 12 -26 2 -11 49 -105 55
-110 9 -7 24 -43 22 -52 -1 -5 3 -8 10 -8 6 0 8 -3 5 -7 -4 -3 -1 -13 6 -22 7
-9 33 -50 56 -91 53 -91 113 -184 124 -188 4 -2 7 -8 7 -13 0 -19 166 -235
280 -364 35 -40 278 -282 322 -321 18 -16 129 -105 248 -197 51 -40 212 -144
315 -204 106 -62 317 -170 337 -173 4 0 31 -12 60 -25 29 -13 55 -20 58 -16 3
5 5 736 5 1625 0 889 2 1616 5 1616 3 0 19 -28 34 -62 62 -136 131 -273 141
-280 5 -4 7 -8 3 -8 -4 0 12 -39 36 -87 24 -49 76 -155 116 -238 40 -82 113
-233 162 -335 156 -320 182 -375 183 -380 1 -3 50 -104 109 -225 59 -121 126
-257 148 -302 44 -91 102 -154 167 -184 131 -58 262 -35 363 64 30 30 76 100
83 127 5 18 20 46 27 51 5 3 10 14 12 25 3 10 26 62 51 114 84 170 155 321
155 331 0 5 5 9 10 9 6 0 10 5 10 11 0 11 83 187 146 311 19 37 34 74 34 83 0
8 4 15 9 15 5 0 15 17 22 38 7 20 20 52 30 70 10 17 17 32 14 32 -3 0 2 17 10
38 40 103 42 151 42 1145 0 526 -1 957 -4 957 -4 0 -54 -105 -125 -265 -23
-49 -45 -93 -50 -96 -5 -3 -9 -10 -8 -15 1 -9 -11 -36 -122 -272 -26 -57 -48
-107 -48 -113 0 -5 -5 -9 -10 -9 -6 0 -9 -3 -8 -7 2 -8 -5 -26 -68 -163 -21
-47 -41 -87 -44 -90 -3 -3 -6 -9 -7 -15 -1 -5 -31 -72 -67 -148 -36 -76 -66
-140 -66 -141 0 -2 -24 -55 -54 -117 -107 -227 -139 -299 -136 -307 0 -1 -5
-9 -12 -16 -15 -17 -34 -5 -44 27 -4 12 -24 58 -44 102 -21 44 -48 103 -60
130 -12 28 -42 92 -66 143 -24 51 -44 100 -44 108 0 8 -4 14 -10 14 -5 0 -10
4 -10 10 0 9 -12 37 -94 213 -20 43 -36 80 -36 82 0 3 -16 37 -35 76 -19 40
-35 78 -35 86 0 7 -4 13 -8 13 -4 0 -14 17 -21 38 -12 33 -41 96 -120 262 -14
30 -26 57 -26 60 0 3 -12 30 -27 60 -14 30 -36 78 -48 105 -61 136 -77 169
-132 285 -33 69 -63 127 -67 130 -3 3 -19 23 -36 45 -109 148 -283 268 -472
324 -101 30 -130 32 -460 35 -269 3 -302 1 -305 -13 -2 -9 -3 -915 -3 -2013 1
-1099 -2 -1998 -7 -1998 -4 0 -24 19 -45 42 -21 23 -45 49 -53 58 -97 103
-232 287 -356 485 -97 155 -228 444 -288 635 -15 47 -32 93 -37 103 -6 11 -8
21 -5 24 2 3 0 17 -6 32 -9 24 -13 37 -23 86 -3 11 -7 29 -9 40 -21 90 -36
168 -41 206 -3 24 -8 55 -10 69 -3 14 -7 48 -10 75 -2 28 -7 79 -10 115 -11
104 -11 114 -3 132 5 9 4 19 0 22 -13 8 -3 360 13 456 2 14 7 48 11 75 3 28 8
59 10 70 3 11 7 36 10 55 3 19 7 42 9 50 2 8 7 29 10 45 3 17 12 57 20 90 9
33 18 70 20 83 9 39 97 307 105 317 4 6 11 21 15 35 4 14 19 50 33 80 29 61
27 56 37 88 4 12 11 22 16 22 5 0 9 7 9 16 0 16 40 95 53 105 5 3 7 8 5 10 -4
5 153 266 174 289 10 11 18 22 18 25 0 20 201 265 303 369 37 38 67 73 67 78
0 4 3 8 8 8 4 0 32 23 62 51 30 28 75 67 99 88 24 20 52 43 62 52 10 8 30 24
45 35 15 10 34 26 43 34 28 26 191 135 291 194 106 64 321 170 420 209 36 14
79 31 95 38 17 7 35 14 40 14 6 1 18 5 28 8 63 24 44 18 182 57 61 18 123 33
138 36 16 2 32 6 37 9 4 3 25 7 46 10 22 4 47 8 57 11 17 5 38 9 122 19 22 3
51 7 65 10 128 25 602 25 780 -1 62 -8 164 -25 195 -31 17 -3 37 -7 45 -8 75
-12 101 -19 106 -26 3 -5 9 -7 13 -5 3 3 38 -5 76 -16 39 -11 88 -24 110 -29
21 -6 53 -16 70 -23 16 -8 59 -24 95 -36 36 -13 76 -27 90 -33 14 -6 27 -11
30 -12 3 0 20 -9 38 -18 17 -10 32 -16 32 -13 0 10 385 -195 400 -214 3 -4 24
-17 48 -30 23 -13 42 -27 42 -31 0 -4 9 -11 20 -14 11 -3 26 -12 32 -18 7 -7
47 -37 88 -69 124 -93 189 -149 300 -259 l57 -56 132 1 c72 1 131 -1 131 -4 0
-4 10 -6 23 -6 45 -1 152 -16 174 -25 13 -5 23 -7 23 -5 0 2 28 -4 62 -15 34
-10 63 -17 65 -16 4 5 -48 80 -69 100 -10 10 -18 21 -18 25 0 4 -17 26 -38 48
-20 23 -62 70 -92 104 -120 135 -347 349 -434 409 -12 8 -23 17 -26 20 -3 4
-23 19 -45 36 -22 16 -42 32 -45 35 -11 13 -239 161 -321 208 -127 73 -309
163 -429 211 -58 23 -114 46 -125 51 -20 9 -149 51 -277 90 -37 11 -76 20 -86
20 -10 0 -22 3 -26 7 -3 4 -17 8 -29 10 -12 2 -33 6 -47 10 -14 3 -27 7 -30 8
-9 2 -134 25 -160 29 -14 3 -25 5 -25 6 0 1 -18 3 -40 6 -22 2 -56 6 -75 9
-158 19 -253 26 -435 29 -71 1 -140 -1 -152 -5 -13 -5 -23 -4 -25 2 -2 6 -6 8
-9 5z"/>
<path d="M4764 11798 c-3 -4 -4 -123 -4 -265 1 -142 1 -274 0 -293 -1 -19 -2
-39 -2 -45 1 -5 1 -59 1 -120 0 -60 1 -126 2 -145 0 -19 1 -42 1 -50 -1 -8 -1
-134 -1 -280 0 -146 0 -301 -1 -345 -1 -116 -1 -177 0 -290 0 -119 0 -271 -1
-367 0 -7 0 -60 0 -118 0 -58 0 -112 0 -120 0 -8 0 -33 0 -55 1 -22 0 -47 0
-55 -1 -8 -1 -71 0 -140 0 -69 0 -134 0 -145 0 -58 0 -121 0 -130 -1 -5 0 -30
0 -55 0 -25 1 -52 0 -60 0 -8 0 -33 0 -55 1 -22 0 -47 0 -55 -1 -8 0 -71 1
-140 1 -69 1 -129 0 -135 -1 -5 -2 -40 -1 -76 l1 -65 454 0 455 0 -1 1391 c0
798 -4 1413 -9 1445 -9 54 -22 105 -41 165 -15 46 -91 194 -110 215 -10 11
-18 23 -18 28 0 10 -155 172 -165 172 -3 0 -23 13 -43 29 -72 57 -280 150
-303 135 -5 -3 -9 0 -9 6 0 7 -6 10 -14 7 -8 -3 -17 -3 -20 1 -12 11 -166 21
-172 10z"/>
<path d="M6043 11801 c-10 -8 -11 -171 -1 -171 4 0 5 -6 2 -14 -9 -24 -11
-106 -2 -106 4 0 5 -6 2 -14 -9 -24 -10 -117 -2 -122 5 -3 5 -11 1 -17 -10
-16 -11 -47 -2 -47 5 0 6 -6 3 -14 -10 -25 -11 -106 -2 -106 5 0 6 -5 3 -11
-7 -10 -11 -232 -5 -254 1 -5 1 -12 0 -15 -6 -15 -4 -80 2 -80 4 0 5 -7 2 -15
-10 -24 -11 -98 -3 -121 4 -12 5 -25 1 -28 -9 -9 -9 -76 0 -76 4 0 5 -6 2 -14
-9 -24 -10 -117 -2 -122 5 -3 5 -10 1 -17 -9 -15 -10 -117 -1 -143 3 -12 4
-25 0 -28 -9 -9 -9 -76 0 -76 4 0 5 -7 2 -15 -10 -24 -11 -98 -3 -121 4 -12 5
-25 1 -28 -9 -9 -9 -76 0 -76 4 0 5 -6 2 -14 -9 -24 -10 -117 -2 -122 5 -3 5
-10 1 -17 -3 -6 -7 -66 -7 -133 l-1 -123 30 -3 c38 -4 191 18 269 38 87 22
155 51 277 117 30 16 80 49 95 62 7 5 24 19 39 30 32 23 116 105 160 155 167
192 267 464 266 724 0 113 -13 225 -33 286 -63 197 -114 301 -204 419 -36 47
-171 181 -183 181 -6 0 -11 4 -11 9 0 13 -115 87 -204 130 -73 36 -151 66
-198 77 -10 2 -27 6 -38 9 -47 12 -68 16 -110 21 -68 9 -139 11 -147 5z"/>
<path d="M7119 9591 c-70 -72 -184 -165 -247 -201 -15 -8 -32 -21 -40 -27 -7
-7 -20 -13 -28 -13 -8 0 -14 -4 -14 -8 0 -4 -20 -18 -45 -30 -25 -12 -48 -30
-51 -40 -3 -9 -8 -24 -12 -32 -3 -8 -4 -19 -3 -24 1 -5 -1 -16 -5 -25 -7 -15
-9 -24 -17 -53 -21 -78 -29 -106 -36 -123 -5 -11 -19 -49 -31 -85 -13 -36 -27
-76 -33 -90 -6 -14 -11 -27 -12 -30 -1 -3 -6 -16 -12 -30 -6 -14 -17 -41 -25
-60 -27 -64 -93 -195 -101 -201 -5 -3 -8 -8 -7 -10 4 -8 -24 -59 -32 -59 -4 0
-8 -8 -8 -18 0 -10 -5 -23 -11 -29 -6 -6 -16 -20 -23 -31 -49 -87 -89 -148
-169 -254 -50 -68 -96 -128 -102 -134 -5 -6 -28 -32 -50 -59 -66 -80 -272
-282 -369 -361 -50 -41 -102 -84 -116 -96 -13 -11 -36 -28 -50 -37 -14 -8 -27
-18 -30 -21 -8 -8 -179 -120 -184 -120 -3 0 -24 -13 -48 -28 -24 -15 -61 -37
-83 -47 -22 -11 -42 -22 -45 -25 -12 -12 -51 -30 -65 -30 -8 0 -15 -4 -15 -10
0 -5 -4 -10 -9 -10 -5 0 -38 -13 -73 -29 -163 -75 -377 -151 -526 -186 -19 -5
-180 -42 -187 -44 -3 -1 -6 -1 -7 -2 -2 0 -16 -2 -33 -4 -16 -2 -59 -9 -95
-15 -64 -11 -87 -13 -220 -26 -105 -10 -545 -6 -545 6 0 0 -27 3 -60 5 -33 3
-71 7 -85 10 -14 3 -45 8 -70 11 -25 3 -53 7 -62 10 -20 6 -58 15 -78 18 -8 1
-31 6 -50 10 -19 4 -42 8 -50 10 -8 2 -22 5 -30 8 -20 8 -99 29 -122 33 -21 4
-19 23 -20 -244 0 -100 4 -187 9 -192 9 -9 20 -12 82 -25 13 -3 51 -11 85 -19
33 -8 62 -12 65 -10 2 3 9 1 15 -4 6 -5 34 -11 61 -15 28 -3 60 -8 72 -10 12
-3 49 -7 82 -11 33 -3 70 -8 82 -10 80 -16 440 -22 599 -11 47 3 112 8 145 10
33 2 67 7 75 10 8 3 40 7 70 10 30 2 55 5 55 6 0 2 37 10 70 14 17 3 30 5 30
6 0 1 9 3 20 4 11 2 47 9 80 17 33 7 65 14 70 15 6 0 17 3 25 6 8 3 67 20 130
37 100 28 240 74 305 101 82 33 161 68 225 98 41 20 77 36 80 37 3 0 23 10 45
22 22 11 44 21 49 21 5 0 12 4 15 9 3 5 26 21 51 34 25 14 61 35 81 46 39 22
207 131 224 145 6 4 46 35 90 68 99 73 100 75 166 130 97 82 262 243 345 336
110 124 122 139 204 249 33 44 64 85 68 90 13 16 122 184 142 219 71 124 89
157 114 206 15 30 31 62 36 70 11 18 70 149 70 154 0 2 10 25 22 52 12 27 23
51 23 54 1 3 4 12 8 20 25 67 41 116 39 123 -1 4 2 7 6 7 5 0 9 6 9 13 1 6 13
50 27 97 34 108 89 328 89 358 1 12 4 22 7 22 4 0 6 10 5 23 -1 12 0 27 4 32
3 6 6 17 6 25 1 8 4 33 8 55 6 38 11 73 21 158 3 20 2 37 -2 36 -4 0 -32 -26
-63 -58z"/>
</g>
</svg>
