<?xml version="1.0" encoding="UTF-8"?>
<svg id="Layer_1" data-name="Layer 1" xmlns="http://www.w3.org/2000/svg" viewBox="0 0 72 40">
  <defs>
    <style>
      .cls-1 {
        fill: #e2e8f0;
      }
    </style>
  </defs>
  <path class="cls-1" d="m11.44,4.12c-.16.43-.31.82-.45,1.21-.44,1.18-.88,2.35-1.33,3.53-.42,1.11-.84,2.23-1.26,3.34-.05.14-.1.22-.27.18-.46-.09-.93-.15-1.39-.25-.61-.13-1.22-.29-1.83-.44.27-.72.54-1.41.8-2.11.43-1.14.86-2.29,1.3-3.43.36-.96.73-1.92,1.09-2.88.28-.73.59-1.46.82-2.21.12-.4.37-.52.72-.52,1.02-.02,2.05-.05,3.07-.04.33,0,.66.08.99.14.07.01.16.08.18.14.4,1.07.79,2.14,1.19,3.2.34.89.68,1.78,1.02,2.67.43,1.14.86,2.28,1.29,3.42.28.75.56,1.5.83,2.25.01.03,0,.06.01.12-.6.06-1.19.13-1.78.19-.53.05-1.06.1-1.59.13-.06,0-.16-.07-.19-.13-.29-.73-.56-1.47-.84-2.21-.26-.69-.54-1.37-.8-2.06-.33-.88-.65-1.78-.98-2.66-.19-.52-.4-1.03-.61-1.59Z"/>
  <path class="cls-1" d="m27.17,10.17c-.39.3-.76.62-1.16.9-1.76,1.28-3.65,2.33-5.68,3.09-1.16.44-2.36.8-3.55,1.12-.87.23-1.77.37-2.66.5-.71.1-1.43.12-2.15.15-.76.03-1.53.06-2.29.05-.55,0-1.1-.07-1.64-.13-.64-.07-1.28-.14-1.91-.25-.91-.17-1.82-.36-2.71-.59-.83-.22-1.65-.5-2.47-.76-.17-.05-.35-.12-.51-.2-.06-.03-.12-.11-.13-.17-.06-.36-.13-.72-.14-1.09-.01-.59.02-1.17.05-1.76,0-.18.07-.35.11-.52,9,3.66,17.94,3.58,26.82-.4.01.02.02.04.03.06Z"/>
  <path class="cls-1" d="m6.89,16.19c-.59,1.57-1.18,3.12-1.77,4.69h5.39c.24.77.25,2.57.02,3.44H.17c.07-.21.13-.42.2-.61.31-.84.63-1.69.95-2.53.29-.76.59-1.51.87-2.27.41-1.09.81-2.18,1.22-3.26.02-.04.13-.08.19-.07.86.18,1.72.36,2.58.54.21.04.43.04.7.07Z"/>
  <path class="cls-1" d="m27.18,20.89c.18,1.15.19,2.28,0,3.44h-.28c-2.48,0-4.97,0-7.45,0-.3,0-.44-.09-.54-.35-.27-.74-.56-1.48-.84-2.22-.3-.81-.59-1.62-.89-2.43-.43-1.14-.87-2.29-1.29-3.41,1.11-.3,2.22-.6,3.35-.9.14.35.29.74.43,1.13.22.58.44,1.17.66,1.75.25.66.5,1.31.74,1.97.11.3.19.6.32.89.03.07.18.12.27.12,1.75,0,3.5,0,5.24,0h.27Z"/>
  <path class="cls-1" d="m68.22.53h1.23c0,.09.01.16.01.23,0,2,0,4,0,6,0,.54-.09,1.07-.29,1.58-.3.75-1.24,1.33-2.02,1.34-1.69,0-3.38,0-5.08,0-.61,0-1.19-.15-1.78-.3-.07-.02-.17-.01-.24.02-.35.19-.72.28-1.13.28-1.2-.01-2.4,0-3.59,0-.09,0-.19-.03-.28-.04-.04.3-.07.61-.12.91-.12.65-.67,1.11-1.28,1.17-.36.04-.72.05-1.08.04-.22,0-.43-.07-.69-.11.07-.34.14-.65.21-.97.41.17.79.15,1.16.06.26-.06.43-.24.48-.51.03-.14.08-.28.08-.41,0-1.88,0-3.75,0-5.65h-.77c-.12-.29-.14-.55-.07-.84.04-.16.09-.19.24-.19.6,0,1.19,0,1.82,0v5.41c1.33,0,2.63,0,3.94,0,.54,0,.97-.4,1.06-1.04.08-.62.09-1.25.1-1.87.01-.42.03-.84.16-1.24.22-.64.68-1.03,1.31-1.2.58-.16,1.19-.15,1.79-.06.39.06.77.12,1.21.18-.05.3-.1.55-.15.81-.04.17-.16.22-.31.17-.55-.19-1.11-.22-1.68-.18-.67.05-1.09.38-1.1,1.14-.02,1.03,0,2.05.02,3.08,0,.05.01.11.02.22.27,0,.54,0,.8,0,1.52,0,3.04-.02,4.57,0,.77.02,1.26-.34,1.39-1.16.04-.24.07-.49.07-.74,0-1.94,0-3.88,0-5.83v-.29Z"/>
  <path class="cls-1" d="m38.39,3.17c0,.13,0,.22,0,.31,0,1.61,0,3.22,0,4.83,0,.19.06.26.25.26,1.74,0,3.48,0,5.22,0,.44,0,.9-.38.98-.83.08-.44.14-.88.15-1.32.02-.99,0-1.97,0-2.96v-.25h1.23v5.41c.56.02,1.08.06,1.6.06.25,0,.51-.04.75-.12.52-.17.81-.58.83-1.1.06-1.29.06-2.59.09-3.89,0-.11,0-.23,0-.36h1.21c0,.08.01.15.01.23,0,1.17.01,2.33,0,3.5,0,.5-.08,1.01-.29,1.48-.34.77-.98,1.13-1.76,1.21-.7.07-1.4.08-2.1.05-.44-.02-.88-.16-1.32-.25-.08-.02-.19-.04-.25,0-.48.24-.99.27-1.52.27-1.68,0-3.37,0-5.05-.02-.34,0-.68-.16-1.02-.23-.1-.02-.22-.03-.31,0-.58.25-1.17.27-1.79.2-.49-.06-.95-.2-1.36-.48-.72-.49-1.03-1.21-1.15-2.06-.09-.63-.03-1.25.17-1.84.34-1.01,1.02-1.73,2.06-2.05.65-.2,1.31-.19,1.97-.11.33.04.67.04,1.01.05.12,0,.24,0,.39,0Zm-1.22,1.02c-.19-.03-.37-.06-.55-.08-.98-.11-1.92.17-2.35,1.25-.18.46-.22.93-.21,1.41.03,1.15.8,1.95,1.99,1.88.42-.02.89-.39.97-.81.07-.35.14-.7.15-1.05.02-.86,0-1.71,0-2.6Z"/>
  <path class="cls-1" d="m58.18,15.16h1.22v3.41c.06-.06.09-.08.12-.11.54-.59,1.2-.83,1.99-.68.26.05.54.06.79.15.67.25,1.07.76,1.3,1.44.19.58.27,1.16.23,1.76-.07,1.26-.51,2.32-1.74,2.88-.46.21-.95.33-1.47.33-.76,0-1.51-.02-2.25-.25-.15-.05-.2-.11-.2-.27,0-2.86,0-5.71,0-8.57,0-.02,0-.05,0-.1Zm1.23,8.04c.49.12.97.15,1.46.07.71-.11,1.3-.64,1.5-1.33.17-.57.17-1.14.09-1.72-.11-.82-.44-1.22-1.16-1.39-.9-.2-1.83.36-1.88,1.4-.05.98-.01,1.97-.01,2.97Z"/>
  <path class="cls-1" d="m46.9,20.21c-.02-.19-.02-.4-.07-.6-.11-.48-.38-.73-.84-.8-.59-.1-1.17-.04-1.75.1-.1.03-.21.05-.32.08-.21-.3-.25-.63-.23-1,.44-.08.86-.19,1.3-.24.32-.03.64,0,.96.03.26.02.53.04.78.11.78.23,1.22.77,1.33,1.57.04.29.05.59.06.89,0,1.16,0,2.33,0,3.49,0,.16-.03.22-.21.27-.94.24-1.9.3-2.86.22-.81-.07-1.49-.43-1.79-1.29-.29-.84,0-1.79.73-2.31.53-.37,1.13-.49,1.75-.51.37-.01.75,0,1.16,0Zm-.02,1.04c-.26-.02-.52-.06-.77-.06-.25,0-.51,0-.76.05-.66.12-.97.52-.95,1.18.02.45.3.81.74.9.58.12,1.16.04,1.73-.06v-2.01Z"/>
  <path class="cls-1" d="m52.73,17.94c.74-.07,1.39-.18,2.04-.19.55,0,1.11.07,1.6.39.55.36.78.9.8,1.53.03,1.38.03,2.76.06,4.14,0,.19-.04.26-.25.31-.94.23-1.89.29-2.84.21-.97-.09-1.86-.65-1.87-1.97-.01-1.11.82-1.82,1.79-2.04.45-.1.91-.13,1.37-.05.18.03.37,0,.56,0,.08-.65-.09-1.23-.64-1.38-.51-.14-1.03-.18-1.55-.06-.2.05-.41.06-.59.14-.16.07-.21,0-.24-.12-.07-.27-.14-.55-.22-.9Zm3.27,3.29c-.53,0-1.05-.05-1.56.01-.6.07-.91.5-.95,1-.05.56.33,1,.81,1.08.57.1,1.14.03,1.7-.07v-2.02Z"/>
  <path class="cls-1" d="m70.65,20.26c-.03-.26-.03-.48-.08-.7-.11-.47-.51-.72-1-.77-.63-.07-1.23,0-1.83.2-.04.01-.14-.05-.15-.1-.08-.28-.15-.57-.22-.87.71-.19,1.36-.31,2.03-.28.38.02.76.08,1.12.18.64.18,1.27.71,1.28,1.85.01,1.35.03,2.71.05,4.06,0,.17-.03.23-.22.27-.93.24-1.88.29-2.83.21-.76-.06-1.46-.38-1.75-1.15-.47-1.24.09-2.41,1.42-2.81.51-.15,1.04-.21,1.57-.11.19.03.38,0,.61,0Zm-.04,3.04v-2.06c-.53,0-1.04-.05-1.54.01-.65.07-1,.59-.96,1.18.04.55.5.94,1.13.93.45,0,.91-.04,1.38-.06Z"/>
  <path class="cls-1" d="m36.51,20.26c-.02-.24-.03-.46-.07-.67-.1-.49-.47-.76-.96-.81-.66-.07-1.3.02-1.99.23-.07-.29-.15-.57-.19-.85,0-.05.08-.17.15-.19,1-.29,2.02-.38,3.03-.04.5.17.86.5,1.05,1.02.16.42.2.83.2,1.26,0,1.21,0,2.41,0,3.62,0,.16-.03.22-.21.27-.93.24-1.87.28-2.81.22-.67-.04-1.28-.29-1.66-.91-.53-.86-.32-1.99.45-2.61.41-.33.88-.52,1.4-.54.52-.02,1.05,0,1.62,0Zm0,.97c-.47-.02-.92-.08-1.36-.04-.81.07-1.15.49-1.14,1.27,0,.38.35.82.72.84.51.03,1.02.01,1.53,0,.08,0,.24-.1.24-.16.02-.63.01-1.25.01-1.91Z"/>
  <path class="cls-1" d="m30.13,33.26c.41,0,.83.01,1.24,0,.44-.02.66-.13.71-.67.04-.42.02-.86.03-1.28,0-.3,0-.3.31-.31v2.03c.27.24.94.32,1.27.11.24-.16.28-.42.28-.68,0-.88,0-1.76,0-2.67.11,0,.22-.02.35-.02,0,.07.02.13.02.19,0,.84,0,1.68,0,2.52,0,.1.01.21-.03.29-.13.26.03.33.22.41.3.13.61.1.91.03.31-.07.38-.35.39-.62.02-.39.02-.78.02-1.16,0-.53,0-1.07,0-1.62.13,0,.23-.01.37-.02,0,.56,0,1.11,0,1.66,0,.44-.02.88-.05,1.32-.05.61-.36.74-.95.8-.35.04-.68-.04-1-.18-.06-.03-.16-.04-.21,0-.52.3-1.05.25-1.58.04-.14-.06-.24-.08-.39.01-.14.09-.33.14-.49.14-3.74,0-7.48,0-11.22,0-.02,0-.04,0-.06-.01.05-.23.17-.3.41-.29.52.02,1.05,0,1.61,0-.12-.48-.21-.95-.34-1.41-.09-.3-.25-.38-.56-.38q-.31,0-.29-.3c.65-.12,1.12.13,1.26.74.09.4.16.81.25,1.21.01.06.1.13.16.13.53.01,1.06,0,1.6,0,.03-.24.02-.47.08-.68.13-.43.46-.52.87-.48.37.03.65.29.65.66,0,.1,0,.19,0,.29-.02.17.06.23.22.22.21-.01.42,0,.62,0,.21-1.61-.47-2.27-2.07-1.9-.03-.08-.07-.17-.11-.27.69-.24,1.34-.26,1.96.13.39.25.58.63.59,1.09,0,.31,0,.61,0,.93h2.17c-.36-.58-.7-1.13-1.04-1.68.7-.72,2.35-.61,2.75.01-.29.54-.59,1.08-.89,1.62,0,.02,0,.03-.01.05.01,0,.02,0,.04,0Zm-1.41-1.61c.32.54.63,1.05.96,1.6.31-.56.59-1.08.88-1.61-.48-.31-1.22-.31-1.84,0Zm-3.16,1.61c.06-.83-.16-.89-.49-.87-.28.02-.45.21-.36.87h.85Z"/>
  <path class="cls-1" d="m41.16,23.25c.04.34.07.64.11.98-.63.06-1.23.19-1.81-.1-.49-.24-.76-.65-.78-1.18-.03-1.06-.02-2.12-.02-3.18,0-1.45,0-2.9,0-4.34,0-.08,0-.16,0-.25h1.21v.27c0,2.25,0,4.5,0,6.75,0,.2-.02.41.04.6.17.56.51.57,1.03.52.05,0,.11-.03.2-.05Z"/>
  <path class="cls-1" d="m70.6.53h1.21v9.1h-1.21V.53Z"/>
  <path class="cls-1" d="m49.07,24.24v-6.37h1.04c.04.31.08.62.12.93.81-.89,1.03-.98,2.16-.91v1.11c-.2,0-.39,0-.57,0-.78-.04-1.32.58-1.44,1.22-.07.38-.08.77-.08,1.15-.01.88,0,1.76,0,2.64,0,.18-.05.24-.23.24-.33-.01-.66,0-1.01,0Z"/>
  <path class="cls-1" d="m8.4,33.17c-.09-.05-.18-.09-.26-.14-.49-.24-.86-.58-.88-1.16-.03-.62.54-1.03.98-.99.21.02.43.01.64.05.42.08.63.4.66.82.03.47-.1.9-.41,1.26.37.22.77.22,1.15.18.15-.02.32-.18.41-.32.08-.13.08-.33.08-.49,0-.78,0-1.55,0-2.33,0-.09,0-.17,0-.28h.37c0,.68,0,1.35,0,2.03,0,.33-.04.65-.05.98-.02.53-.48.75-.89.75-.32,0-.65-.05-.97-.12-.23-.05-.43-.08-.66.03-.16.08-.37.09-.56.09-.49.01-.97,0-1.46,0-.17,0-.38.02-.52-.06-.31-.18-.57-.11-.88,0-.45.16-.91.05-1.34-.13-.05-.02-.14-.04-.17-.02-.28.2-.59.21-.92.21-.3,0-.6,0-.92,0v-.43c-.26.01-.5.03-.74.04-.56.02-.97-.5-.92-.95.02-.22.03-.45.11-.65.14-.35.45-.53.83-.53.36,0,.71.04,1.08.06v2.19c.35-.03.69-.02,1.01-.09.32-.07.39-.26.43-.72.03-.39,0-.78,0-1.16q0-.35.37-.32c0,.34,0,.67,0,1.01,0,.34-.03.67-.05,1.08.23.05.5.17.78.17.56,0,.73-.22.77-.81.03-.38,0-.76,0-1.14,0-.08,0-.16,0-.26.11-.03.22-.05.3-.07v2.09c.8.37,1.7.14,2.58.17l.02-.07Zm-.02-1.99c-.48,0-.74.22-.75.63-.01.5.54,1.09,1.04,1.11.06,0,.14-.04.17-.09.11-.2.23-.4.29-.61.18-.66-.1-1.03-.75-1.04Zm-6.56.19c-.22,0-.42,0-.61,0-.36,0-.57.16-.65.49-.1.42,0,.79.32.89.26.08.57.02.86,0,.03,0,.08-.1.08-.15,0-.4,0-.79,0-1.23Z"/>
  <path class="cls-1" d="m64.98,18.85c-.25,0-.47.01-.69,0-.06,0-.16-.1-.16-.16-.02-.21-.02-.42,0-.63,0-.06.1-.17.16-.17.62-.01,1.24,0,1.87,0v6.35h-1.18v-5.37Z"/>
  <path class="cls-1" d="m60.88,34.76c-.04-.09-.08-.17-.12-.26.23-.03.46-.03.67-.08.39-.1.6-.43.6-.93,0-.52,0-1.04,0-1.55,0-.08,0-.16,0-.25.13-.02.24-.03.37-.05,0,.41,0,.81,0,1.2,0,.14.03.22.17.27.53.2,1.05.22,1.59.06.24-.07.33-.25.34-.47.03-.42.04-.83.07-1.27.09-.02.2-.04.34-.06-.02.59.09,1.17-.13,1.76.43.12.87.22,1.32.06.32-.12.37-.41.38-.7.01-.43,0-.86,0-1.3.12-.02.23-.05.33-.07v1.93c.33.2.72.27,1.14.15.31-.09.37-.36.39-.63.02-.41.02-.82.02-1.24,0-.35,0-.35.33-.35v2.07c.33.18.71.29,1.12.15.15-.05.29-.21.36-.35.07-.15.07-.34.07-.51,0-.75,0-1.5,0-2.26q0-.33.37-.3v1.13c0,.53,0,1.05,0,1.58,0,.53-.18.86-.57.98-.45.14-.91.13-1.35-.07-.14-.06-.25-.08-.41,0-.48.23-.99.2-1.48-.01-.16-.07-.26-.07-.41.02-.36.21-.76.15-1.15.12-.39-.03-.76-.08-1.17-.01-.49.08-1.02.11-1.52-.09-.05-.02-.11-.02-.16-.03.03,1.19-.67,1.35-1.51,1.35Z"/>
  <path class="cls-1" d="m48.45,33.2c-.33-.54-.66-1.08-1-1.64.28-.24.58-.4.93-.45.55-.07,1.09-.07,1.58.24.18.11.28.22.13.46-.29.45-.53.94-.83,1.48.58-.03,1.12-.03,1.64-.09.26-.03.4-.33.4-.72,0-.82,0-1.63,0-2.45v-.25h.37c0,.07.01.14.01.21,0,.8,0,1.6,0,2.4,0,.22-.03.45-.11.66-.13.35-.45.5-.81.5-1.29.01-2.57,0-3.86,0-.2,0-.39-.08-.59-.13-.02,1.12-.57,1.33-1.51,1.35-.05-.09-.1-.18-.14-.25.25-.04.5-.07.74-.14.3-.08.5-.35.51-.66.02-.59.03-1.19.04-1.78,0-.08,0-.16,0-.25.11-.02.21-.03.35-.05,0,.38.03.75,0,1.12-.02.26.11.35.3.41.18.05.37.08.55.09.43.01.86,0,1.29,0h.04s-.01-.04-.02-.05Zm.42.04c.3-.54.59-1.07.89-1.6-.46-.32-1.37-.31-1.83.02.31.51.61,1.03.94,1.58Z"/>
  <path class="cls-1" d="m60.34,29.92c-.49.45-.95.88-1.45,1.35.2.07.32.12.45.15.59.15.94.6.94,1.2,0,.31,0,.61,0,.93h-3.3v-.43c-.22.02-.42.05-.62.05-.66,0-1.04-.41-1.03-1.06.01-.61.36-1.09,1.04-1.08.17,0,.34-.01.51,0,.16.02.32.07.5.11v2.1h2.53c.13-.89.01-1.38-1.08-1.63-.19-.04-.38-.05-.6-.07.07-.08.14-.15.2-.22.4-.44.83-.87,1.21-1.33.2-.24.39-.25.71-.08Zm-3.32,2.16v-.12c0-.58,0-.55-.58-.59-.54-.04-.84.51-.68,1.01.16.49.5.47.94.45.24-.01.38-.11.33-.39-.02-.12,0-.24,0-.36Z"/>
  <path class="cls-1" d="m40.53,33.26c.28,0,.52,0,.77,0,.44-.02.67-.28.68-.77,0-.4,0-.79,0-1.19q0-.32.4-.29c-.03.62-.07,1.24-.1,1.86,0,.07.05.19.11.22.23.12.48.23.76.14.1-.04.23,0,.33-.04.28-.1.33-.36.35-.6.02-.42.02-.84.02-1.26,0-.34,0-.34.32-.32,0,.64.02,1.27,0,1.9-.01.36-.43.64-.88.66-.37.02-.73-.04-1.08-.19-.07-.03-.17,0-.25.02-.17.05-.34.14-.52.16-.35.03-.71,0-1.07,0-.05,0-.11,0-.18,0v-.44c-.25.02-.48.05-.7.05-.64,0-1-.44-.99-1.07,0-.6.39-1.07.99-1.07.27,0,.54.02.82.04.17.01.25.07.24.27-.01.63,0,1.26,0,1.91Zm-.35-1.16v-.1c0-.63,0-.64-.64-.62-.16,0-.35.08-.47.19-.24.23-.27.68-.1.95.16.26.46.38.82.31q.39-.08.39-.49v-.24Z"/>
  <path class="cls-1" d="m10.66,37.78c.54.18.66.4.67.85,0,.39-.27.68-.73.78-.47.1-.95.11-1.44.01v-3.07c.34,0,.68,0,1.02,0,.13,0,.26.04.39.06.26.05.45.2.51.46.09.41-.01.66-.31.84-.03.02-.05.03-.12.06Zm-1.02,1.31c.16,0,.31,0,.46,0,.06,0,.11,0,.17,0,.29-.03.5-.2.52-.41.04-.38-.06-.54-.44-.62-.23-.05-.47-.03-.72-.05v1.08Zm0-1.45c.34-.03.71.1.91-.25.07-.13.06-.4-.03-.51-.22-.27-.56-.21-.88-.18v.95Z"/>
  <path class="cls-1" d="m45.2,37.27v2.16h-.44v-3.03c.33-.1.5.04.67.32.37.63.79,1.24,1.22,1.9v-2.23h.47v3.02c-.3.08-.48,0-.65-.28-.38-.64-.81-1.26-1.22-1.88-.02,0-.04,0-.06.01Z"/>
  <path class="cls-1" d="m16.64,37.26v2.17h-.45v-3.02c.3-.08.48,0,.65.28.38.64.8,1.26,1.24,1.94v-2.23h.47v3.01c-.4.08-.41.08-.63-.26-.42-.63-.83-1.26-1.25-1.89,0-.01-.02-.02-.03-.04,0,.01,0,.03,0,.04Z"/>
  <path class="cls-1" d="m28.65,38.56v-2.17h.46v3.02c-.39.08-.42.07-.63-.26-.38-.58-.75-1.17-1.13-1.75-.03-.05-.07-.1-.14-.2v2.22h-.47v-3.01c.39-.09.42-.08.64.25.41.63.83,1.27,1.25,1.9,0,.01.02.02.02.04,0-.01,0-.03,0-.04Z"/>
  <path class="cls-1" d="m23.11,37.88c.09-.3.14-.62.27-.89.43-.89,1.81-.82,2.29-.26.21.24.32.52.32.82,0,.33.02.66-.05.98-.16.69-.67.9-1.25.95-.86.07-1.57-.55-1.52-1.58-.02,0-.04-.01-.06-.02Zm2.42.03c-.02-.16-.03-.32-.06-.48-.1-.47-.35-.69-.85-.72-.38-.02-.69.18-.83.59-.11.33-.15.65-.07,1,.09.39.41.76.71.79.57.04.88-.14,1.03-.66.05-.17.05-.34.07-.51Z"/>
  <path class="cls-1" d="m4.77,38.15c.33.43.64.84.96,1.26-.33.08-.58.04-.78-.27-.25-.39-.56-.74-.86-1.14.08-.02.16-.05.23-.07.36-.08.59-.33.61-.62.03-.46-.22-.53-.53-.59-.15-.03-.3,0-.47,0v2.71h-.5c0-.34,0-.67,0-.99,0-.62,0-1.24,0-1.87,0-.18.06-.25.23-.24.33.02.66.02.98.05.39.03.73.29.81.59.11.43-.05.8-.43,1.04-.07.05-.15.09-.25.14Z"/>
  <path class="cls-1" d="m58.73,38.16c.32.41.63.83.97,1.26-.33.04-.59.05-.79-.28-.24-.4-.56-.74-.86-1.12.16-.06.33-.11.49-.19.32-.16.43-.45.32-.77-.08-.24-.3-.3-.51-.33-.15-.02-.3,0-.47,0v2.71h-.5v-.92c0-.65,0-1.29,0-1.94,0-.18.07-.24.24-.23.33.02.66.02.99.05.39.03.73.29.81.6.1.41-.05.79-.41,1.02-.08.05-.17.1-.26.15Z"/>
  <path class="cls-1" d="m32.93,36.73v2.69h-.5c0-.45,0-.9,0-1.35,0-.5,0-1,0-1.5,0-.18.08-.24.22-.23.41.02.83.04,1.23.1.36.06.54.37.57.73.05.52-.25.77-.67.98.16.21.32.42.48.63.16.21.31.41.47.62-.38.11-.51.07-.74-.24-.29-.38-.58-.75-.88-1.15.41-.15.88-.24.84-.78-.03-.4-.21-.55-1.01-.5Z"/>
  <path class="cls-1" d="m36,36.38h.57c.37,1.01.73,2.02,1.1,3.05h-.52c-.06-.17-.13-.34-.17-.52-.04-.14-.11-.19-.26-.18-.29.01-.58.02-.87,0-.18-.01-.24.06-.28.21-.04.16-.1.32-.16.49h-.51c.37-1.02.73-2.03,1.1-3.05Zm.27.47c-.17.51-.33.99-.48,1.45h.97c-.16-.49-.32-.95-.48-1.45Z"/>
  <path class="cls-1" d="m7.56,36.38c.37,1.03.73,2.04,1.1,3.05h-.51c-.02-.05-.05-.1-.07-.16q-.2-.54-.76-.54h-.05q-.71,0-.88.69h-.5c.1-.29.19-.57.29-.84.24-.65.49-1.29.71-1.94.08-.24.19-.3.41-.27.08.01.16,0,.25,0Zm-.75,1.94h.95c-.16-.5-.32-.97-.5-1.51-.17.53-.33,1.01-.48,1.49,0,0,.02.02.04.03h-.03s0,0,0,.02l.03-.03Z"/>
  <path class="cls-1" d="m15.69,39.43h-.52c-.06-.19-.12-.37-.2-.55-.03-.07-.13-.14-.2-.14-.32-.02-.65,0-.97,0-.12,0-.2.01-.21.16,0,.06-.04.12-.06.17q-.14.42-.61.35c.37-1.01.73-2.01,1.1-3.02h.57c.36,1,.73,2.01,1.1,3.04Zm-.9-1.12c-.16-.48-.32-.94-.47-1.41-.02,0-.04,0-.05,0-.16.46-.32.92-.48,1.4h1.01Z"/>
  <path class="cls-1" d="m1.26,36.38h.57c.36,1.01.73,2.03,1.09,3.04q-.54.04-.76-.69c-.38,0-.77,0-1.15,0-.06,0-.14.08-.17.15-.07.17-.12.35-.18.54H.16c.37-1.02.73-2.03,1.1-3.05Zm.77,1.93c-.16-.49-.32-.97-.5-1.51-.18.54-.34,1.02-.5,1.51h1Z"/>
  <path class="cls-1" d="m50.23,36.42c-.06.38-.1.39-.45.32-.67-.12-1.21.08-1.4.79-.11.44-.09.91.27,1.25.35.34.79.38,1.27.24v-1.18h.49c0,.47,0,.93,0,1.39,0,.05-.07.14-.12.15-.46.09-.92.16-1.39.05-.87-.22-1.2-1.08-1.05-1.87.16-.88,1.03-1.41,1.95-1.19.14.04.3.03.45.05Z"/>
  <path class="cls-1" d="m67.82,39.05h1.43v.37h-1.89v-3.03h1.84v.36h-1.39c0,.26,0,.51,0,.76,0,.05.12.12.18.12.31.01.61,0,.94,0v.38h-1.12v1.02Z"/>
  <path class="cls-1" d="m56.72,39.43h-1.87v-3.04h1.86v.37h-1.37v.86h1.07c.06.4.05.41-.31.41-.25,0-.5,0-.76,0v1.01h1.38v.39Z"/>
  <path class="cls-1" d="m69.66,39.32c.04-.1.07-.2.12-.31.25.03.5.07.76.08.14,0,.3,0,.42-.07.13-.07.28-.2.31-.33.05-.22.03-.45-.25-.55-.24-.09-.48-.18-.71-.27-.39-.17-.58-.46-.54-.82.04-.32.31-.62.69-.66.39-.04.78,0,1.16,0,.07.38,0,.42-.33.37-.24-.03-.5-.04-.73.02-.33.09-.37.44-.09.65.11.08.24.12.36.18.16.06.31.12.47.18.36.14.56.41.54.8-.03.4-.15.66-.63.82-.48.16-.97.14-1.46,0-.04-.01-.06-.05-.1-.07Z"/>
  <path class="cls-1" d="m62.62,36.38c-.27.71-.52,1.38-.77,2.06-.1.27-.19.53-.26.81-.07.3-.3.16-.47.19-.15.02-.21-.04-.26-.2-.18-.55-.39-1.09-.59-1.64-.14-.4-.28-.81-.42-1.21.52-.04.52-.04.68.44.23.68.46,1.36.7,2.09.15-.42.28-.81.41-1.19.12-.38.24-.76.34-1.14.05-.17.13-.26.32-.23.09.01.19,0,.32,0Z"/>
  <path class="cls-1" d="m54.08,36.45c-.03.11-.05.2-.08.31-.23-.01-.47-.03-.71-.04-.07,0-.15,0-.22,0-.21.02-.37.15-.4.33-.01.12.11.29.22.38.12.1.29.14.44.2.13.05.26.1.38.15.4.17.55.47.5.89-.04.35-.22.58-.59.71-.51.18-1.02.14-1.53,0,0-.36.07-.4.39-.35.25.04.51.04.75.02.3-.04.43-.19.45-.42.02-.3-.09-.44-.4-.55-.24-.08-.48-.17-.7-.28-.25-.12-.4-.32-.41-.63-.02-.34.14-.55.4-.71.3-.17.63-.17.96-.14.18.02.35.07.55.11Z"/>
  <path class="cls-1" d="m66.63,36.44c.04.32-.03.36-.36.33-.26-.03-.54-.04-.79.03-.43.12-.78.82-.67,1.28.1.46.29.87.8.97.23.05.5.05.72,0,.29-.08.4,0,.39.29-.61.28-1.54.23-2.01-.27-.49-.53-.59-1.33-.19-2.04.33-.58,1.01-.88,2.11-.58Z"/>
  <path class="cls-1" d="m22.77,36.45c-.05.13-.09.24-.12.35-.58-.09-1.14-.23-1.56.35-.25.35-.25,1.19,0,1.52.44.56,1,.46,1.59.32.04.1.09.2.13.3-.45.31-1.52.28-2-.18-.5-.49-.58-1.3-.34-1.85.39-.88.87-1.04,2.29-.81Z"/>
  <path class="cls-1" d="m40.22,38.98c.04.12.08.22.12.33-.61.28-1.55.24-2.03-.25-.46-.47-.56-1.33-.24-1.97.34-.68.92-.85,2.21-.65-.03.11-.06.22-.09.33-.29-.02-.56-.06-.83-.06-.46.01-.91.45-.91.91,0,.3.01.61.12.88.23.56.78.63,1.27.56.12-.02.24-.06.39-.09Z"/>
  <path class="cls-1" d="m14.97,31.03c0,.44,0,.87,0,1.31,0,.52.34.94.98.93.39,0,.78,0,1.17,0,.54,0,.72-.15.76-.69.04-.5.05-1.01.08-1.54.09-.02.19-.04.35-.07-.03.66-.02,1.29-.09,1.91-.05.44-.36.67-.82.68-.57.01-1.15.04-1.72,0-.6-.04-.99-.41-1.04-.99-.03-.39-.04-.79,0-1.19.01-.13.18-.26.27-.38.02.01.05.02.07.04Z"/>
  <path class="cls-1" d="m31.02,39.43h-.49v-2.65h-.88v-.39h2.25v.37h-.88v2.67Z"/>
  <path class="cls-1" d="m42.03,39.43h-.49v-2.66h-.92v-.38h2.26v.37h-.85v2.67Z"/>
  <path class="cls-1" d="m43.78,10.48h1.35v1.29h-1.35v-1.29Z"/>
  <path class="cls-1" d="m35.96.56v1.27c-.39,0-.76.03-1.13.02-.12,0-.23-.04-.24-.2,0-.26-.05-.52-.04-.78.01-.28.1-.35.43-.36.32,0,.63.03.98.05Z"/>
  <path class="cls-1" d="m43.18,10.49v1.28h-1.37v-1.28h1.37Z"/>
  <path class="cls-1" d="m37.83,1.82h-1.36V.53h1.36v1.29Z"/>
  <path class="cls-1" d="m48.59,11.77c-.4,0-.77,0-1.14,0-.2,0-.23-.13-.23-.28,0-.27-.01-.53,0-.8,0-.07.1-.18.15-.19.39-.02.79,0,1.21,0v1.27Z"/>
  <path class="cls-1" d="m66.03,15.21v1.31c-.43,0-.83,0-1.23,0-.05,0-.14-.13-.14-.2-.02-.3,0-.6,0-.89,0-.14.05-.21.21-.21.37.01.75,0,1.17,0Z"/>
  <path class="cls-1" d="m11.96,36.38h.46v3.04h-.46v-3.04Z"/>
  <path class="cls-1" d="m43.45,36.38h.47v3.05h-.47v-3.05Z"/>
  <path class="cls-1" d="m71.83,29.78v3.76h-.37v-.25c0-1.07,0-2.14,0-3.2q0-.33.37-.31Z"/>
  <path class="cls-1" d="m52.53,29.78h.34v3.77h-.34v-3.77Z"/>
  <path class="cls-1" d="m12.34,33.56h-.34v-3.77c.11,0,.22-.01.34-.02v3.78Z"/>
  <path class="cls-1" d="m63.14,36.38h.46v3.04h-.46v-3.04Z"/>
  <path class="cls-1" d="m19.15,29.79c.11,0,.21-.01.33-.02v3.77h-.33v-3.76Z"/>
  <path class="cls-1" d="m44.21,34.21c0,.12,0,.23,0,.34,0,.14-.01.23-.19.23-.17,0-.21-.07-.2-.22,0-.11,0-.22,0-.35h.39Z"/>
  <path class="cls-1" d="m8.45,30.35h-.36v-.52h.36v.52Z"/>
  <path class="cls-1" d="m5.46,30.34v-.51h.37v.51h-.37Z"/>
  <path class="cls-1" d="m2.93,34.76v-.56h.32v.56h-.32Z"/>
  <path class="cls-1" d="m42.3,34.77h-.32v-.57h.32v.57Z"/>
  <path class="cls-1" d="m66.17,30.39v-.56h.31c.07.57.06.59-.31.56Z"/>
  <path class="cls-1" d="m67.16,30.39q-.34.03-.32-.55h.32v.55Z"/>
  <path class="cls-1" d="m16.05,29.83h.31v.52h-.31v-.52Z"/>
  <path class="cls-1" d="m16.73,29.83h.31v.51h-.31v-.51Z"/>
  <path class="cls-1" d="m1.44,30.02h.31v.51h-.31v-.51Z"/>
  <path class="cls-1" d="m31.39,30.34v-.51h.32v.51h-.32Z"/>
  <path class="cls-1" d="m32.44,30.35h-.31v-.51h.31v.51Z"/>
  <path class="cls-1" d="m1.07,30.55h-.31v-.52h.31v.52Z"/>
  <path class="cls-1" d="m56.97,30.55h-.32v-.52h.32v.52Z"/>
  <path class="cls-1" d="m56.24,30.03v.51h-.32v-.51h.32Z"/>
  <path class="cls-1" d="m39.8,30.03h.32v.51h-.32v-.51Z"/>
  <path class="cls-1" d="m3.67,34.2h.26v.57h-.26v-.57Z"/>
  <path class="cls-1" d="m41.58,34.77h-.27v-.56h.27v.56Z"/>
  <path class="cls-1" d="m66.51,29.06h.32v.46h-.32v-.46Z"/>
  <path class="cls-1" d="m39.39,30.54h-.27v-.51h.27v.51Z"/>
  <path class="cls-1" d="m48.45,33.2s.01.03.02.05h-.04s.02-.03.02-.05Z"/>
  <path class="cls-1" d="m30.13,33.26s-.02,0-.04,0c0-.02,0-.03.01-.05,0,.02.01.03.02.05Z"/>
  <path class="cls-1" d="m16.64,37.26s0-.03,0-.04c0,.01.02.02.03.04h-.01s-.02,0-.02,0Z"/>
  <path class="cls-1" d="m28.65,38.56s0,.03,0,.04c0-.01-.02-.02-.02-.04h.01s.01,0,.01,0Z"/>
  <path class="cls-1" d="m6.81,38.32l-.03.03s0-.02,0-.03c.01,0,.02,0,.03.01,0,0,0,0,0,0Z"/>
</svg>