<?xml version="1.0" encoding="UTF-8"?>
<svg id="Layer_1" data-name="Layer 1" xmlns="http://www.w3.org/2000/svg" viewBox="0 0 98 40">
  <defs>
    <style>
      .cls-1 {
        fill: #e2e8f0;
      }

      .cls-2 {
        fill: none;
        opacity: .7;
        stroke: #e2e8f0;
        stroke-linejoin: round;
        stroke-width: 3.3px;
      }
    </style>
  </defs>
  <g>
    <path class="cls-1" d="m45.85,19.96c0-3.27,0-6.55,0-9.82,0-.23,0-.45.02-.68.02-.41.27-.62.66-.62,1.05-.01,2.11-.02,3.16,0,.5.01.75.3.75.81,0,6.21,0,12.42,0,18.63,0,.75-.06,1.51-.08,2.26-.02.52-.4.63-.79.64-1,.03-2.01.03-3.01,0-.47-.01-.68-.28-.69-.82-.02-1.69-.02-3.39-.02-5.08,0-1.77,0-3.55,0-5.32h0Z"/>
    <path class="cls-1" d="m97.34,29.87c-.93-1.33-1.85-2.67-2.77-4-.28-.39-.57-.77-.85-1.16-.78-1.13-1.57-2.26-2.35-3.39-.22-.36-.44-.71-.66-1.07-.11-.18-.22-.35-.33-.53,2.13-3.15,4.26-6.28,6.38-9.42.16-.24.3-.5.37-.77.07-.3,0-.58-.42-.61-.25-.02-.5-.08-.76-.09-.73-.01-1.46.04-2.18-.02-.67-.05-1.11.23-1.46.74-1.12,1.65-2.25,3.3-3.38,4.95-.39.56-.78,1.12-1.2,1.73-.27-.32-.48-.58-.7-.83-.26-.36-.52-.72-.78-1.08-1.14-1.69-2.27-3.38-3.43-5.06-.23-.34-.59-.46-1.02-.45-.96.02-1.91-.02-2.87.03-.31.02-.69.16-.87.38-.1.13.06.57.21.79,2.07,3.08,4.14,6.16,6.24,9.22.27.39.27.64.01,1.01-1.96,2.8-3.9,5.62-5.84,8.43-.32.46-.67.91-.96,1.39-.39.65-.11,1.1.64,1.1.94,0,1.88,0,2.82,0,.58,0,1.01-.22,1.34-.7.87-1.26,1.76-2.51,2.64-3.76.71-1,1.42-2,2.13-3,.17-.24.3-.25.47,0,.24.35.5.68.74,1.02,1.34,1.9,2.68,3.79,4,5.71.37.54.84.75,1.47.74.74-.02,1.49-.03,2.24,0,.55.02,1.05-.05,1.5-.39v-.58c-.12-.12-.27-.21-.37-.35Z"/>
    <path class="cls-1" d="m74.46,9.67c-.03-.41-.14-.77-.66-.77-1.1-.02-2.2-.06-3.29-.03-.18,0-.47.34-.5.55-.08.59-.04,1.19-.05,1.78-.02,2.06-.06,4.12-.06,6.18,0,.4-.13.48-.5.48-1.98-.02-3.95-.02-5.93-.01-.91,0-1.81.04-2.72.05-.04.01-.07.02-.11.03-.03-.17-.07-.34-.08-.5,0-2.53,0-5.06,0-7.6,0-.73-.28-.99-1-.99-.89,0-1.78,0-2.67,0-.61,0-.81.2-.81.81,0,6.87,0,13.74,0,20.61,0,.61.33.92.96.92.78,0,1.56,0,2.33,0,1.01,0,1.18-.18,1.18-1.19,0-2.21,0-4.42,0-6.63v-1.44h9.31c.03.41.08.78.08,1.15,0,1.72-.02,3.45-.03,5.17,0,.72,0,1.45.05,2.17.03.56.26.76.84.76.81,0,1.62,0,2.43,0,1.06.01,1.2-.18,1.2-1.19.01-6.5,0-13,0-19.5,0-.27.01-.55,0-.82Z"/>
  </g>
  <g>
    <circle class="cls-1" cx="36.5" cy="19.73" r="2.8"/>
    <circle class="cls-1" cx="19.67" cy="36.7" r="2.8"/>
    <circle class="cls-1" cx="3.09" cy="20.12" r="2.8"/>
    <circle class="cls-1" cx="20.07" cy="3.3" r="2.8"/>
    <circle class="cls-1" cx="11.48" cy="11.62" r="2.8"/>
    <path class="cls-2" d="m20.07,3.3v12.02c0,2.65-2.15,4.8-4.8,4.8H3.09"/>
    <path class="cls-2" d="m36.5,19.73h-12.02c-2.65,0-4.8,2.15-4.8,4.8v12.17"/>
  </g>
</svg>