<?xml version="1.0" encoding="UTF-8"?>
<svg id="Layer_1" data-name="Layer 1" xmlns="http://www.w3.org/2000/svg" xmlns:xlink="http://www.w3.org/1999/xlink" viewBox="0 0 249.5 40">
  <defs>
    <style>
      .cls-1 {
        fill: url(#linear-gradient);
      }

      .cls-2 {
        fill: #f6f39d;
      }

      .cls-3 {
        fill: #ebeff2;
      }

      .cls-4 {
        fill: #e9eef4;
      }

      .cls-5 {
        fill: #f5f187;
      }

      .cls-6 {
        fill: #fafcf9;
      }

      .cls-7 {
        fill: #edf2f7;
      }

      .cls-8 {
        fill: #e2e8f0;
      }

      .cls-9 {
        fill: #fff;
      }

      .cls-10 {
        fill: #dfe4ea;
      }

      .cls-11 {
        fill: #e1e3e5;
      }

      .cls-12 {
        fill: #87c042;
      }

      .cls-13 {
        fill: #88836f;
      }

      .cls-14 {
        fill: #4cb949;
      }
    </style>
    <linearGradient id="linear-gradient" x1="18.81" y1="27.01" x2="18.81" y2=".5" gradientUnits="userSpaceOnUse">
      <stop offset=".26" stop-color="#f3f9ff"/>
      <stop offset="1" stop-color="#e2e8f0"/>
    </linearGradient>
  </defs>
  <g>
    <path class="cls-8" d="m44.03,6.71c3.96,0,7.91.02,11.87,0,2.27-.02,4.55-.08,6.82-.19.98-.04,1.49.17,1.96,1.2,2.97,6.62,6.07,13.18,9.27,20.04,1.19-2.62,2.27-5.02,3.36-7.41,1.95-4.27,3.9-8.55,5.91-12.8.21-.44.84-.95,1.31-.97,1.98-.11,3.97-.07,5.96-.02.31,0,.61.3.78.81-.51.02-1.02,0-1.53.08-1.34.19-2.13.95-2.13,2.34-.02,6.9-.02,13.81-.01,20.71,0,1.51.98,2.52,2.53,2.67.41.04.82.04,1.23.06-.01.15-.02.31-.03.46h-11.89c.45-.38.68-.73.98-.8,3-.69,3.21-.67,3.27-3.46.13-5.65.02-11.3,0-16.95,0-.07-.13-.14-.36-.39-.36.64-.74,1.2-1.02,1.81-2.91,6.41-5.81,12.83-8.73,19.24-.12.27-.49.62-.73.61-.25-.01-.57-.37-.7-.65-2.2-4.72-4.38-9.45-6.56-14.17-1.08-2.35-2.16-4.69-3.52-6.99,0,1.69,0,3.38,0,5.07.01,4.39,0,8.79.05,13.18.03,2.18.74,2.83,3,2.99.26.02.51.13.74.5h-10.02c.5-.39.75-.73,1.06-.8,3.19-.66,3.31-.75,3.33-4.05.02-4.29.04-8.58,0-12.87-.02-2.17-.12-4.35-.35-6.5-.06-.6-.62-1.41-1.15-1.63-1.64-.7-3.41-.76-5.16-.35-1.28.3-1.62,1.39-1.63,2.46-.05,6.91-.04,13.83-.03,20.74,0,1.27,1.13,2.31,2.62,2.49.44.05.88.06,1.32.08,0,.13,0,.25,0,.38h-12.28c.58-.38.85-.65,1.17-.76.84-.28,2.09-.22,2.47-.78.58-.84.76-2.09.77-3.17.07-5.23.05-10.46.02-15.69,0-1.12-.38-2.27-.25-3.36.24-2.12-1.34-2.05-2.6-2.45-.42-.13-.83-.29-1.24-.43.05-.09.1-.18.16-.27Zm17.99,4.67l-.07-.05v.08s.07-.03.07-.03Zm21.61.41s.1-.07.1-.1c0-.04-.06-.08-.09-.11-.04.05-.08.1-.11.16.03.02.07.04.1.06Z"/>
    <path class="cls-8" d="m187.35,33.85c-2.22,0-4.44,0-6.66,0-1.41,0-2.83.03-4.24-.03-.23,0-.45-.36-.68-.55.22-.14.43-.38.67-.41,2.87-.39,3.14-.68,3.14-3.56,0-5.91,0-11.82,0-17.73,0-3.4-.53-4.1-4.11-4.29.44-.37.67-.73.9-.73,3.96.05,7.92.11,11.87.24,1.27.04,2.58.14,3.8.46,2.84.76,4.71,2.96,4.75,5.32.07,4.2-1.18,6.26-4.54,7.43-.56.2-1.13.37-1.88.61,1.94,2.7,3.75,5.27,5.61,7.8,1.59,2.17,3.31,4.21,6.21,4.66.21.03.39.2.55.7-2.4,0-4.8.01-7.21-.02-.15,0-.3-.35-.44-.54-2.9-3.96-5.81-7.91-8.68-11.89-.27-.38-.28-.94-.33-1.13,1.66-.89,3.21-1.59,4.63-2.5,1.78-1.15,2.09-4.06,1.16-6.28-.91-2.16-2.36-3.06-5-3.06-1.04,0-2.08,0-3.22,0-.04.47-.1.86-.1,1.26.01,6.8.01,13.6.05,20.4.01,2.38.65,2.99,2.98,3.15.27.02.52.12.79.18-.01.16-.02.33-.04.49Z"/>
    <path class="cls-8" d="m99.79,21.53c0,2.86-.03,5.94.01,9.02.02,1.53,1.05,2.48,2.62,2.62.38.03.77.07,1.19.46-.28.08-.56.22-.84.22-3.24.02-6.48.03-9.72-.01-.37,0-.73-.3-1.1-.45.35-.17.69-.48,1.04-.5,2.13-.1,2.69-.44,2.77-2.6.15-3.86.09-7.73.1-11.59.01-2.4,0-4.81,0-7.21,0-3.14-.37-3.57-3.45-4.12-.16-.03-.3-.2-.82-.55.72-.13,1.07-.26,1.42-.25,4.17.07,8.36-.12,12.49.32,6.19.67,8.85,5.89,6.25,11.04-1.07,2.11-2.97,3.33-5.26,3.59-2.14.24-4.33.05-6.71.05Zm0-1.7c.5.13.84.24,1.19.31,2.14.47,4.07.02,5.65-1.5,1.82-1.75,1.71-5.58.68-7.53-1.15-2.16-3.79-3.28-6.46-2.69-.41.09-.99.74-1,1.14-.08,3.39-.05,6.78-.05,10.27Z"/>
    <path class="cls-8" d="m227.35,27.05c-.72,2.14-1.42,4.29-2.2,6.41-.09.23-.69.37-1.06.37-6.38.02-12.76.02-19.14,0-.31,0-.62-.3-.93-.46.3-.17.59-.47.9-.49,2.39-.17,2.88-.39,2.92-2.62.11-6.63.14-13.27,0-19.9-.05-2.36-.28-2.83-3.24-2.93-.19,0-.38-.08-.67-.46.33-.14.66-.41.99-.41,6.64-.02,13.27-.02,19.98-.02.16,1.77.35,3.49.45,5.22.02.31-.36.63-.66,1.12-.2-.62-.36-.95-.41-1.3-.3-2.46-1.91-3.39-4.15-3.45-2.7-.06-5.41-.02-8.26-.02,0,1.68,0,3.23,0,4.79,0,5.8.03,11.61-.02,17.41-.01,1.4.47,1.99,1.9,1.94,1.83-.07,3.67-.14,5.49,0,3.12.25,5.02-1.33,6.45-3.84.33-.58.79-1.08,1.19-1.62.16.09.31.17.47.26Z"/>
    <path class="cls-8" d="m249.22,27.34c-.65,1.9-1.25,3.82-1.99,5.69-.15.37-.8.78-1.22.78-6.33.05-12.66.04-18.98.01-.35,0-.69-.33-1.03-.51.37-.15.73-.43,1.1-.44,2.08-.1,2.69-.63,2.7-2.73.03-6.54.11-13.08-.04-19.61-.06-2.51-.1-2.82-3.83-3.54.32-.15.65-.44.97-.44,6.64-.03,13.27-.02,20.16-.02v6.03c-.34-.34-.84-.61-.95-.99-.75-2.7-1.1-3.2-3.92-3.41-2.74-.2-5.51-.04-8.4-.04,0,1.39,0,2.63,0,3.87.01,6.12.05,12.24.03,18.35,0,1.39.51,1.98,1.94,1.91,1.67-.08,3.36-.15,5.02,0,3.38.31,5.52-1.32,7.06-4.12.24-.43.7-.73,1.07-1.09.11.1.21.2.32.3Z"/>
    <path class="cls-8" d="m152.25,27.52c-2.53,4.14-5.86,6.68-11.08,6.99-7.97.48-13.63-6.47-13.51-13.63.07-4.05,1.12-7.63,3.72-10.61,2.13-2.44,4.95-3.93,8.3-4.1,2.84-.14,5.63-.03,8.21,1.44.72.41,1.5.26,1.91-.7.17-.41.53-.73,1.07-1.45.27,3.57.5,6.66.72,9.74-.15.05-.3.1-.45.15-.26-.53-.58-1.04-.78-1.59-1.06-2.89-2.82-5.02-5.95-5.85-6.05-1.6-10.14,1.59-11.59,7.46-.85,3.48-.97,7.01.19,10.56,1.28,3.93,5.07,6.71,9.03,6.67,3.85-.04,6.53-1.67,8.66-4.64.28-.39.83-.59,1.25-.87.09.14.19.28.28.42Z"/>
    <path class="cls-8" d="m103.92,33.68c.36-.37.55-.76.79-.8,1.49-.25,2.35-1.24,2.91-2.49,2.25-5.09,4.45-10.19,6.65-15.3,1.31-3.04,2.6-6.1,4.02-9.42.4.42.83.68.99,1.05,2.96,7.01,5.86,14.04,8.85,21.04.62,1.44,1.35,2.9,2.32,4.11.6.75,1.75,1.07,2.62,1.91-3.49,0-6.98,0-10.47-.03-.08,0-.16-.42-.24-.65.12-.1.19-.21.27-.22,2.38-.19,2.85-.8,1.97-3.01-2.18-5.49-4.45-10.95-6.69-16.42-.11-.28-.24-.55-.44-1.02-1.18,2.72-2.33,5.31-3.43,7.92-1.43,3.37-2.85,6.75-4.22,10.15-.5,1.24.08,2.09,1.41,2.35.51.1,1,.29,1.51.44-.02.13-.05.26-.07.39h-8.73Z"/>
    <path class="cls-8" d="m161.63,8.41c-3.98-.06-8.29-1.09-8.83,5.14-.12-.17-.25-.34-.37-.51v-6.46h22.29c.1,2.13.2,4.27.3,6.41-.15.04-.31.08-.46.12-.74-1.74-1.03-3.95-3.2-4.4-1.84-.38-3.77-.34-5.81-.49,0,3,.02,5.75,0,8.5-.04,4.57-.11,9.14-.15,13.72-.01,1.35,1.09,2.46,2.64,2.71.37.06.75.08,1.11.49h-11.56c-.04-.09-.08-.19-.12-.28.4-.17.78-.46,1.19-.49,2.24-.19,2.91-.72,2.93-3.01.06-7.11.02-14.21.02-21.45Z"/>
    <path class="cls-8" d="m244.75,15.02v9.76c-1.58-1.58-1.01-4.98-4.25-4.1v-1.51c.99-.59,2.05-.95,2.7-1.69.6-.67.74-1.74,1.09-2.64.15.06.31.11.46.17Z"/>
    <path class="cls-8" d="m222.78,14.97v9.78c-.45-.51-.78-.71-.84-.97-.35-1.68-.71-3.25-2.97-3.27-.23,0-.45-.97-.58-1.25,1.14-.69,2.24-1.08,2.93-1.84.58-.65.69-1.73,1.01-2.62.15.06.3.11.45.17Z"/>
    <polygon class="cls-8" points="62.02 11.38 61.93 11.41 61.95 11.33 62.02 11.38"/>
    <path class="cls-8" d="m83.62,11.79s-.07-.04-.1-.06c.04-.05.08-.1.11-.16.03.04.09.08.09.11,0,.04-.07.07-.1.1Z"/>
  </g>
  <g>
    <path class="cls-8" d="m.48,17.52c.28.7.51,1.31.75,1.91.82,2,1.79,3.93,3.24,5.57.73.82,1.55,1.52,2.59,1.92.29.11.59.2.88.27,1.56.4,2.78,1.26,3.68,2.6,1.16,1.75,2.53,3.31,4.05,4.76.12.12.27.21.39.33.13.12.24.25.35.38-.16.11-.29.27-.47.33-.84.32-1.66.25-2.38-.29-1.21-.92-2.38-1.87-3.58-2.8-.33-.26-.68-.49-1.02-.73-.05.03-.09.06-.14.09.05.31.06.63.17.92.42,1.09,1.01,2.03,2.17,2.5,1.72.71,3.44,1.45,5.14,2.22.57.26,1.08.64,1.6.98.12.08.23.18.3.3.09.17.12.36.17.55-.17.04-.34.14-.51.12-1.59-.1-3.15-.35-4.69-.81-2.25-.67-4.31-1.69-6.17-3.11-2.49-1.89-4.26-4.31-5.36-7.24-.54-1.45-.88-2.93-1.11-4.46-.25-1.62-.29-3.25-.25-4.89.01-.45.11-.89.18-1.44Z"/>
    <path class="cls-8" d="m28.58,31.71c-.48.35-.86.62-1.22.91-1.02.81-2.03,1.63-3.05,2.43-.59.47-1.26.8-2.04.72-.34-.03-.69-.16-1.01-.3-.22-.09-.27-.26-.03-.45,1.73-1.37,3.17-3.02,4.38-4.85,1.06-1.6,2.43-2.65,4.28-3.09,1.12-.27,2.03-.9,2.81-1.71,1.63-1.7,2.7-3.74,3.55-5.91.24-.62.47-1.25.71-1.88.05,0,.1,0,.15,0,0,1.21.01,2.43,0,3.64,0,.52-.03,1.05-.09,1.57-.09.84-.18,1.68-.34,2.51-.45,2.31-1.25,4.48-2.58,6.44-1.85,2.73-4.35,4.67-7.33,6-1.82.82-3.73,1.34-5.71,1.56-.63.07-1.27.13-1.92.19-.12-.44.09-.73.37-.92.66-.45,1.32-.91,2.04-1.24,1.57-.72,3.16-1.38,4.76-2.04,1.4-.58,2.01-1.73,2.32-3.11.02-.1,0-.22-.03-.48Z"/>
    <path class="cls-8" d="m23.18,32c-.38.49-.77.98-1.44,1.07-.39.05-.47.42-.68.65.02-.19.04-.37.05-.56-.03-.01-.07-.03-.1-.04-.04.08-.09.17-.13.25-.24-.02-.48-.05-.72-.07-.05,0-.09,0-.14,0-.13.14-.27.29-.4.43-.1-.06-.19-.13-.29-.19-.28.12-.31.35-.26.62.04.22.07.44.11.66-.1-.12-.18-.22-.26-.32-.03-.23-.08-.46-.09-.69-.01-.34-.14-.43-.44-.25-.2,0-.43-.04-.61.02-.28.1-.67-.13-.86.26-.57-.35-1.14-.7-1.7-1.05.11-.03.22-.06.33-.09.09,0,.18,0,.27,0,.03,0,.07,0,.1,0,.06-.03.11-.06.17-.09.08-.09.2-.17.23-.27.08-.26.11-.53.17-.8h.13c.04.33.07.66.11,1.03.12-.06.2-.08.2-.11.08-.51.15-1.02.22-1.54h.05v1.19h0c-.12.15-.19.28.08.34l.17-.32c.12-.32.27-.62.34-.95.27-1.35.52-2.7.77-4.05.01-.2,0-.4.05-.59.2-.99.08-1.32-.76-1.88-.26-.18-.53-.34-.82-.47-.81-.36-1.64-.71-2.46-1.06-.14-.09-.3-.17-.42-.28-.2-.19-.38-.41-.56-.61.2.1.4.19.59.29q.84.43.87-.46h0c.08.13.16.26.24.39.02.39.23.64.6.71.95.19,1.84.52,2.65,1.11-.18-.63-.34-1.23-.52-1.82-.11-.37-.26-.73-.4-1.1-.02-.18-.03-.36-.07-.54-.09-.45-.19-.89-.28-1.34-.03-.47-.11-.94-.06-1.4.06-.62-.15-1.04-.72-1.28,0,0,0-.04,0-.09.23.08.45.16.58.2.2-.82.38-1.62.57-2.41h.03s.03,0,.03,0c-.03.27-.08.53-.07.8.02.74.03,1.47.1,2.2.04.46.18.92.28,1.4.36-.12.65-.22.94-.31-.16.23-.39.35-.57.52-.11.11-.15.29-.22.44.18.58.37,1.16.55,1.74.18.55.37,1.1.57,1.72.35-.38.63-.69.93-1.01-.2-.15-.38-.29-.55-.42.21,0,.39.04.55.12.23.12.4.06.55-.14.87-.58,1.71-1.2,2.2-2.17.07-.1.15-.2.26-.36,0,.17-.01.26-.02.36-.2.39-.4.79-.62,1.23h.81c-.16.09-.32.12-.48.16-.35.08-.75.06-.95.46-.05.04-.1.08-.15.12-.16.15-.32.29-.48.44-.54.59-1.09,1.17-1.62,1.77-.07.08-.11.24-.08.35.3,1.1.61,2.2.92,3.3.34,1.54.56,3.1.51,4.69.37.04.69.08,1.01.12.04,0,.07,0,.11,0,.34,0,.67,0,1.01,0Z"/>
    <path class="cls-4" d="m18.56,27.11c-.25,1.35-.5,2.7-.77,4.05-.07.33-.22.63-.34.95.03-.58.06-1.16.09-1.73-.06.05-.07.1-.08.15-.09.52-.17,1.04-.26,1.56v-1.19h-.05c-.07.51-.14,1.02-.22,1.54,0,.03-.09.05-.2.11-.04-.37-.07-.7-.11-1.03h-.13c-.05.26-.09.54-.17.8-.03.1-.15.18-.23.27-.06-.71-.12-1.43-.17-1.98v2.07s-.07,0-.1,0c-.03-.25-.07-.51-.1-.76-.05-.4-.1-.8-.15-1.2-.03,0-.06,0-.09.01.03.25.06.5.1.8-.08-.08-.12-.11-.25-.22.07.24.12.38.16.52,0,.08,0,.17,0,.25v.09c.03.17.05.34.06.51-.11.03-.22.06-.33.09-.06-.06-.12-.12-.18-.18-.05-.38-.1-.76-.15-1.14-.02,0-.04,0-.06.01-.02.3-.03.59-.05.89-.69-.92-1.43-1.8-2.04-2.77-.67-1.08-1.51-1.9-2.68-2.42-1-.44-1.94-1.01-2.91-1.52.23.02.46.04.69.06.16.03.33.07.49.1,1.11.2,2.22.4,3.33.58.47.08.94.11,1.41.17.5.07,1,.16,1.5.2,1.33.12,2.66.22,3.99.33Zm-3.82,4.1s0,.02-.01.03c.01,0,.03,0,.04,0,0-.01,0-.02,0-.03,0,0-.02,0-.02,0Z"/>
    <path class="cls-4" d="m22.07,32c-.32-.04-.64-.07-1.01-.12.06-1.59-.16-3.15-.51-4.69.77,0,1.54.02,2.31,0,.6-.02,1.2-.11,1.8-.18.66-.06,1.32-.12,1.97-.17.46-.09.92-.17,1.37-.26.26-.02.51-.04.77-.06-.5.26-1,.54-1.51.78-1.02.45-1.72,1.22-2.31,2.14-.46.73-.95,1.44-1.43,2.16-.1.15-.23.27-.34.4-.34,0-.67,0-1.01,0,.06-.63.11-1.26.17-1.89-.03,0-.06,0-.09,0-.06.63-.12,1.26-.18,1.9Z"/>
    <path class="cls-10" d="m16.93,33.83c.19-.39.58-.16.86-.26.18-.06.4-.02.61-.02.11.47.22.95.33,1.42.03,0,.05,0,.08,0,.04-.16.08-.32.12-.47.08.1.16.2.26.32-.04-.22-.07-.44-.11-.66-.05-.27-.02-.49.26-.62-.15.46-.13.92.05,1.36h.16c.02-.38.05-.78.07-1.17.13-.14.27-.29.4-.43.03.45.06.9.1,1.35h.04v-1.35c.24.02.48.05.72.07.02.06.05.13.07.19-.11.37-.26.74-.32,1.12-.11.6.13,1.11.53,1.58-.81.54-1.61,1.06-2.34,1.55-.74-.49-1.53-1-2.35-1.55.44-.5.63-1.09.53-1.76-.03-.22-.06-.44-.09-.66Zm.41,1.25c.51-.35.54-1.14.13-1.35-.04.43-.08.84-.13,1.35Zm.82.05s.08-.03.12-.04c.01-.23.03-.47.04-.7,0-.25.02-.51-.39-.7.09.55.17,1,.24,1.45Z"/>
    <path class="cls-10" d="m14.79,32.36c.02-.3.03-.59.05-.89.02,0,.04,0,.06-.01.05.38.1.76.15,1.14-.09-.08-.17-.16-.26-.24Z"/>
    <path class="cls-4" d="m20.96,33.55c-.02-.06-.05-.13-.07-.19.04-.08.09-.17.13-.25.03.01.07.03.1.04-.02.19-.04.37-.05.56-.04-.05-.07-.11-.11-.16Z"/>
    <path class="cls-9" d="m18.56,27.11c-1.33-.11-2.66-.21-3.99-.33-.5-.05-1-.13-1.5-.2.1-.48.2-.96.29-1.45.06,0,.13.03.17,0,.2-.15.38-.37.68-.19,0,0,.1-.14.14-.22.06-.12.11-.26.17-.38.03-.07.1-.19.1-.2-.33-.2-.14-.55-.23-.81.06-.08.13-.15.19-.23.82.35,1.65.69,2.46,1.06.28.13.56.29.82.47.83.56.96.89.76,1.88-.04.19-.03.4-.05.59Z"/>
    <path class="cls-9" d="m24.66,27.01c-.6.06-1.2.15-1.8.18-.77.03-1.54,0-2.31,0-.31-1.1-.62-2.2-.92-3.3-.03-.1.01-.27.08-.35.53-.6,1.07-1.18,1.62-1.77.14.07.29.13.43.2.12.39.02.61-.33.66-.22.03-.33.07-.37.32-.04.27.11.34.31.42.35.15.41.38.22.71-.06.1-.11.2-.21.38.19.09.39.28.54.25.61-.12.6-.14.85.44.04.1.19.22.29.22.13,0,.31-.07.37-.17.32-.52.46-.56.95-.19.09.67.18,1.33.27,2Z"/>
    <path class="cls-9" d="m15.29,22.43c.09-.07.19-.14.28-.21.38-.22.53.03.64.37.28-.16.47-.53.84-.29.04-.08.13-.18.11-.22-.13-.26.05-.35.22-.46.08-.05.11-.16.16-.25.03,0,.05,0,.08-.02.13.37.28.73.4,1.1.18.59.34,1.18.52,1.82-.81-.6-1.7-.93-2.65-1.11-.37-.07-.58-.32-.6-.71Z"/>
    <path class="cls-9" d="m18.71,21.29c.7-.06,1.38-.02,2.04.26-.14.2-.31.26-.55.14-.16-.08-.34-.12-.55-.12.18.14.35.27.55.42-.29.32-.58.63-.93,1.01-.2-.61-.39-1.16-.57-1.72Z"/>
    <path class="cls-4" d="m19.62,33.72c-.02.39-.05.79-.07,1.18h-.16c-.18-.45-.2-.9-.05-1.37.1.06.19.13.29.19Z"/>
    <path class="cls-4" d="m18.92,34.49c-.04.16-.08.32-.12.47-.03,0-.05,0-.08,0-.11-.47-.22-.95-.33-1.42.3-.18.42-.09.44.25,0,.23.06.46.09.69Z"/>
    <path class="cls-10" d="m15.92,32.69v-2.07c.05.55.11,1.26.17,1.98-.06.03-.11.06-.17.09Z"/>
    <path class="cls-10" d="m17.19,32.09c.09-.52.17-1.04.26-1.56,0-.05.02-.11.08-.15-.03.58-.06,1.16-.09,1.73-.06.11-.11.22-.17.32-.03-.11-.05-.23-.08-.34h0Z"/>
    <path class="cls-10" d="m22.07,32c.06-.63.12-1.26.18-1.9.03,0,.06,0,.09,0-.06.63-.11,1.26-.17,1.89-.04,0-.07,0-.11,0Z"/>
    <path class="cls-4" d="m20.17,33.29v1.35h-.04c-.03-.45-.06-.9-.1-1.35.05,0,.09,0,.14,0Z"/>
    <path class="cls-10" d="m15.55,32.69c-.02-.17-.04-.34-.06-.51.07-.09.15-.17.22-.26.03.25.07.51.1.76-.09,0-.18,0-.27,0Z"/>
    <path class="cls-7" d="m21.75,21.97c-.14-.07-.29-.13-.43-.2.16-.15.32-.29.48-.44.03.03.05.05.08.08-.04.19-.09.37-.13.56Z"/>
    <path class="cls-4" d="m17.2,32.09c.03.11.05.23.08.34-.27-.06-.2-.19-.08-.34Z"/>
    <path class="cls-7" d="m21.81,21.34s.1-.08.15-.12c.02.02.04.05.06.07-.04.04-.09.08-.13.12-.03-.03-.05-.05-.08-.08Z"/>
    <path class="cls-9" d="m7.49,7.63c.03.17.07.35.1.52-.21-.34-.47-.3-.76-.18.07-.1.13-.2.21-.31-.11-.07-.21-.13-.32-.2.01-.04.03-.08.04-.11.24.09.49.19.73.28Z"/>
    <path class="cls-10" d="m15.72,31.92c-.07.09-.15.17-.22.26,0-.03,0-.06,0-.09,0-.08,0-.17,0-.25-.04-.14-.09-.28-.16-.52.13.11.16.14.25.22-.04-.3-.07-.55-.1-.8.03,0,.06,0,.09-.01.05.4.1.8.15,1.2Z"/>
    <path class="cls-12" d="m15.49,31.83c0,.08,0,.17,0,.25,0-.08,0-.17,0-.25Z"/>
    <path class="cls-10" d="m14.74,31.21s.02,0,.02,0c0,0,0,.02,0,.03-.01,0-.03,0-.04,0,0-.01,0-.02.01-.03Z"/>
    <path class="cls-9" d="m7.76,10.17c-.46-.16-.91-.33-1.37-.49.28-.06.56-.12.85-.18.53-.04,1,.11,1.44.41.12.09.36.02.54.02.13.03.26.05.41.08-.09.17-.15.29-.16.31.2.39.36.69.52,1-.28-.11-.36.01-.35.27-.19-.19-.39-.37-.58-.56-.14-.02-.29-.1-.4-.06-.42.13-.82.29-1.23.45l-.02-.02c-.09-.05-.18-.1-.26-.15.29-.19.5-.31.69-.46.38-.31.36-.37-.07-.62Z"/>
    <path class="cls-9" d="m10.35,9.33c-.07-.09-.14-.18-.2-.27-.22-.34-.48-.46-.85-.2-.12.09-.29.11-.44.14.46-.44.46-.45.14-.62-.18-.07-.37-.13-.55-.2v-.1c.35.03.69.06,1.04.08.16.01.33,0,.49,0,.01.1,0,.21.04.3.11.25.25.48.37.72-.01.05-.02.1-.04.14Z"/>
    <path class="cls-8" d="m6.9,20.53c-.41-.05-.57-.31-.38-.63.16-.27.22-.52-.05-.75-.08-.03-.17-.05-.23-.1-.11-.1-.28-.24-.26-.33.02-.14.16-.33.3-.38.55-.21.62-.27.45-.81-.08-.24,0-.4.19-.48.12-.05.31-.04.43.02.4.2.66.16.81-.25.16-.41.45-.23.71-.24.11.64.31.85.73.72.2-.06.42-.22.53.07.06.17.04.4-.03.56-.13.3-.1.55.19.67.38.16.46.41.36.77-.29.05-.61.04-.73.39-.04.1-.07.26-.02.34.27.41.01.58-.31.74-.07-.05-.15-.09-.22-.14-.42-.27-.64-.22-.82.23-.09.24-.23.27-.46.26-.22-.01-.3-.1-.35-.33-.1-.5-.3-.57-.84-.34Zm1.43-2.52c-.49,0-.93.41-.92.84.01.46.44.89.89.88.56,0,.93-.35.93-.87,0-.52-.35-.85-.9-.85Z"/>
    <path class="cls-8" d="m12.51,15.01c-.07.11-.12.3-.22.33-.43.13-.51.38-.32.76.03.06.04.13.06.2,0,0,0,0,0,0-.06.03-.12.06-.18.09h0s-.06.06-.09.09h0c-.12-.05-.23-.12-.35-.12-.18,0-.47,0-.51.08-.15.33-.37.33-.65.26-.09-.56-.09-.54-.66-.5-.13.01-.27-.11-.4-.17.04-.12.06-.24.11-.35.13-.25.06-.41-.18-.56-.14-.09-.24-.26-.38-.42q.85-.36.6-.97s.02-.05.02-.07c.03-.03.06-.06.09-.09h0s.06-.05.09-.08h0c.11.02.22.02.31.06.47.2.54.17.73-.31h.38c.14.18.24.31.34.43.1.03.23.11.3.07.33-.18.45.04.59.25-.31.54-.3.55.19.87.05.04.08.11.12.17Zm-1.81-.69c-.43,0-.73.26-.72.65,0,.35.32.65.71.65.4,0,.67-.26.67-.66,0-.45-.2-.64-.65-.64Z"/>
    <path class="cls-8" d="m11.53,19.72c.46-.58.39-.89-.25-1.16-.1-.04-.26-.19-.24-.26.05-.18.13-.45.27-.51.81-.33.82-.32.5-1.16-.02-.05,0-.11,0-.17h0s.06-.06.09-.09h0c.06-.02.12-.05.18-.08,0,0,0,0,0,0,.17-.14.31-.16.52-.02.44.31.73.25.93-.22.18-.43.51-.24.81-.29.04.15.09.28.12.41.1.4.36.54.76.39.24-.09.42-.16.63.09.24.27.08.42-.05.63-.22.36-.13.64.25.82.13.06.26.12.4.19-.05.38-.05.73-.58.8-.14.02-.22.4-.33.62.03.21.06.42.09.63-.13.09-.26.18-.31.22-.37-.08-.67-.18-.98-.21-.09,0-.2.14-.29.23-.15.16-.27.44-.44.47-.32.06-.48-.2-.52-.51,0-.02-.04-.04-.06-.06-.11-.37-.32-.46-.7-.31-.46.18-.66.05-.77-.47Zm3.18-1.32c0-.7-.33-1-1.06-.99-.53,0-.93.42-.92.94,0,.6.44,1.04,1.01,1.03.6-.01.97-.39.97-.98Z"/>
    <path class="cls-8" d="m11.63,20.84c-.01.35.12.49.49.38.28-.08.49.12.37.34-.24.41-.02.56.33.66.01.23,0,.41-.3.47-.09.02-.14.28-.2.44-.03.11,0,.29-.06.32-.09.05-.25,0-.37.02-.15.02-.31.04-.44.1-.15.06-.27.17-.47.3-.08-.64-.42-.62-.81-.47-.03-.15-.13-.33-.07-.44.13-.27.06-.42-.19-.55-.09-.05-.13-.18-.19-.27.06-.06.12-.15.19-.17.3-.09.39-.27.32-.58-.06-.27.13-.43.38-.3.23.12.41.13.52-.12.12-.27.29-.26.51-.12Zm-.34.86c-.33-.01-.62.25-.62.56,0,.29.31.65.57.64.29,0,.6-.31.62-.59.02-.31-.26-.6-.57-.61Z"/>
    <path class="cls-8" d="m24,19.37c-.1-.05-.21-.09-.29-.16-.1-.09-.25-.24-.23-.32.05-.17.16-.35.3-.47.09-.08.3-.03.39-.11.21-.17.4-.4.23-.68-.23-.39-.15-.65.25-.82.17.07.34.12.49.21.24.14.69.07.76-.2.1-.43.39-.46.72-.46.08.12.19.23.23.36.14.53.36.66.87.46.22-.09.37-.08.55.12.2.23.14.39,0,.6-.24.37-.21.66.08.82.17.09.36.16.51.24v.45c0,.34-.32.22-.48.34-.11.08-.21.16-.32.24q-.2.32.06.92c-.24.33-.49.53-.9.2-.11-.09-.36-.01-.54-.02-.11.14-.2.29-.32.4-.14.13-.34.31-.48.29-.15-.02-.34-.25-.37-.41-.11-.49-.39-.68-.84-.47-.25.12-.39.11-.58-.1-.2-.23-.14-.39,0-.6.22-.3.24-.59-.12-.81Zm1.17-.33c0,.54.47,1.03.97,1.03.58,0,1.1-.46,1.08-1.03-.02-.66-.53-1.06-1.05-1.04-.56.01-1.01.47-1,1.04Z"/>
    <path class="cls-8" d="m24.76,24.11c0,.1-.02.2,0,.28.15.42.08.54-.37.62-.49-.37-.64-.33-.95.19-.06.1-.25.17-.37.17-.1,0-.25-.12-.29-.22-.26-.58-.24-.56-.85-.44-.16.03-.35-.16-.54-.25.1-.18.16-.28.21-.38.19-.33.13-.56-.22-.71-.2-.09-.34-.16-.31-.42.03-.24.15-.29.37-.32.35-.05.45-.27.33-.66.04-.19.09-.37.13-.56.04-.04.09-.08.13-.12.1.04.21.07.31.13.38.23.6.15.8-.26.06-.11.25-.2.38-.21.11,0,.28.12.32.23.21.55.26.57.81.42.38-.11.47.17.5.46-.37.51-.34.62.18.94.11.07.19.27.18.4,0,.1-.17.19-.27.29-.15.14-.31.28-.47.42Zm-.62-.98c0-.44-.38-.79-.9-.82-.38-.02-.81.41-.82.83-.01.43.39.88.8.89.52,0,.91-.37.91-.89Z"/>
    <path class="cls-4" d="m17.33,35.08c.05-.52.09-.92.13-1.35.41.22.37,1-.13,1.35Z"/>
    <path class="cls-4" d="m18.16,35.13c-.08-.45-.15-.9-.24-1.45.41.2.4.45.39.7,0,.23-.02.47-.04.7-.04.01-.08.03-.12.04Z"/>
    <path class="cls-8" d="m12.08,13.24c.11-.24.19-.48.32-.71.25-.44.09-.94-.39-1.1-.18-.06-.36-.13-.54-.2-.07-.87-.05-.88.76-1.1.14-.04.28-.16.38-.28.37-.44.08-.82-.12-1.21.24-.58.64-.73,1.12-.42.57.37,1,.23,1.28-.42.18-.41.74-.57,1.08-.29.04.03.03.13.05.2.06.22.06.49.2.64.23.25.55.46.91.23.44-.28.76-.18,1.02.23.03,0,.06,0,.09,0h0c-.03.17-.06.34-.09.51-.51.66-.43,1.06.3,1.4.3.14.45.33.41.67-.02.14-.01.28-.02.42-.35.12-.77.17-1.03.39-.43.36-.2.83.02,1.24-.12.58-.57.79-1.03.5-.65-.41-1.11-.26-1.38.46-.04.11-.06.22-.1.33-.52.2-.89.05-1.04-.42-.11-.8-.47-1.02-1.22-.7-.36.16-.63.12-.83-.24-.03-.06-.1-.1-.15-.14Zm4.43-2.2c.12-.77-.64-1.39-1.33-1.36-.82.03-1.42.58-1.42,1.36,0,.79.6,1.41,1.38,1.41.86,0,1.37-.52,1.37-1.41Z"/>
    <path class="cls-8" d="m20.02,9.06c.23-.2.44-.28.74-.06.36.26.62.07.86-.57.18.02.37.04.6.07.03.1.08.22.11.33.1.36.33.5.66.38.21-.07.38-.22.6.04.21.26.08.44-.05.64-.02.03-.04.08-.05.11.1.19.15.51.29.56.41.14.4.4.35.72-.14.06-.27.14-.42.17-.36.07-.48.35-.38.61.14.38.07.62-.24.84-.04,0-.07,0-.11,0-.24-.2-.48-.48-.81-.24-.17.13-.24.39-.35.59-.09,0-.17.02-.26.03-.28,0-.41-.12-.47-.41-.08-.44-.32-.54-.73-.38-.4.15-.57.04-.68-.43.41-.54.36-.77-.21-1.05-.29-.14-.31-.45-.05-.74.67-.07.79-.28.59-.92-.03-.09,0-.21,0-.31Zm2.58,1.8c0-.58-.35-.93-.91-.94-.51,0-.91.41-.9.94,0,.48.47.98.89.97.52-.02.93-.44.92-.96Z"/>
    <path class="cls-8" d="m18.21,8.75c0-.28.2-.61-.22-.76.05-.09.11-.19.16-.28.07-.13.18-.26.18-.39,0-.24.08-.27.3-.27.22,0,.43-.16.65-.18.23-.02.22.5.59.3.04-.02.2.05.2.07-.02.31-.02.6.22.85.02.02,0,.11-.02.12-.41.11-.25.46-.31.71-.42-.22-.7.27-1.11.26.05-.65-.38-.29-.61-.35,0,0,0,0,0,0,0-.03-.01-.06-.02-.08Zm.84-.27c.38-.05.55-.19.55-.48,0-.28-.16-.45-.45-.45-.31,0-.49.22-.48.47,0,.16.24.3.37.46Z"/>
    <path class="cls-8" d="m24.57,11.66c.14.05.29.07.42.14.38.21.65.12.85-.26.06-.12.18-.21.28-.32.31,0,.5.11.55.44.02.11.12.2.19.29.18.02.36.08.53.05.21-.04.38-.14.56.09.17.21.14.35,0,.56-.23.35-.16.71.21.83.35.11.39.31.36.59-.13.09-.25.21-.39.25-.4.1-.56.36-.42.75.07.2.19.37-.05.57-.25.21-.42.12-.64-.02-.35-.22-.69-.07-.77.33-.09.27-.3.28-.54.26-.27-.02-.26-.19-.31-.37-.12-.48-.33-.58-.8-.4-.19.07-.32.11-.47-.08-.15-.19-.2-.33-.05-.56.26-.39.16-.7-.26-.87-.22-.09-.31-.19-.29-.43.01-.24.11-.37.34-.39.43-.09.67-.37.51-.67-.19-.35-.1-.57.19-.77Zm1.42,1.11c-.49,0-.91.42-.91.92,0,.52.42.99.89.98.57-.01,1.04-.42,1.01-.93-.04-.63-.3-.9-.99-.97Z"/>
    <path class="cls-8" d="m13.36,25.13c.02-.5-.47-.23-.68-.44.04-.1.09-.21.17-.41-.03-.01-.12-.03-.16-.08-.06-.08-.08-.19-.12-.28.51.08.02-.81.62-.64.07.02.17.03.23,0,.36-.2.36-.2.55.13.13-.02.27-.04.4-.05.09.26-.1.61.23.81,0,0-.07.13-.1.2-.06.13-.11.26-.17.38-.04.08-.14.22-.14.22-.3-.18-.47.04-.68.19-.03.03-.11,0-.17,0Zm.24-.48c.2-.27.41-.43.39-.56-.02-.15-.26-.4-.36-.38-.17.03-.37.23-.42.4-.03.1.19.28.39.55Z"/>
    <path class="cls-8" d="m13.33,21.96c.06.06.12.11.18.17-.07-.03-.14-.06-.21-.09.01-.03.02-.06.03-.09h0Z"/>
    <path class="cls-14" d="m13.5,22.13s.06.06.09.09c-.03-.03-.06-.06-.09-.09Z"/>
    <path class="cls-8" d="m19.16,14.41c.15-.12.29-.25.44-.37.11.05.23.09.34.16.45.28.72.19.95-.29.06-.12.17-.21.25-.31.15.02.31.04.47.06.04.11.09.21.12.31.14.53.35.65.85.46.21-.08.37-.11.54.1.18.22.15.37.01.6-.09.15-.06.37-.09.56.22.14.44.29.67.43h0c.05.43.06.79-.55.8-.29,0-.45.51-.3.79.1.19.22.37-.04.55-.2.15-.34.27-.6.06-.39-.31-.7-.2-.91.24-.06.13-.14.24-.22.38-.19-.04-.38-.07-.6-.11-.01-.1-.02-.21-.04-.32-.08-.41-.39-.66-.76-.47-.45.23-.61-.03-.81-.31q.39-1.01-.46-1.41c-.1-.42,0-.68.5-.73.35-.03.52-.43.39-.79-.05-.13-.1-.26-.14-.39Zm1.88,2.83c.69,0,1.01-.42,1.05-1.02.04-.54-.45-.96-1.03-.96-.53,0-1.02.46-1.04.98-.01.49.51,1,1.01,1.01Z"/>
    <path class="cls-8" d="m20.47,19.39c.01.21.02.42.03.63.02,0,.03-.01.05-.02-.07.2-.13.41-.21.6-.02.06-.08.13-.14.14-.28.05-.55.08-.83.12,0-.26-.13-.31-.37-.24-.02,0-.13-.27-.15-.43q-.39-.31.07-.64c.05-.21-.06-.6.4-.37.03.02.14-.04.17-.09.17-.24.26-.18.43.03.11.14.36.17.55.25Zm-.53.86c-.03-.3.16-.65-.27-.67-.13,0-.39.23-.4.35-.01.48.36.27.67.32Z"/>
    <path class="cls-8" d="m22.24,19.38c-.02.29-.03.58-.06.93h-1.07c-.08-.31-.13-.51-.19-.76.03-.03.11-.09.19-.16.02-.15-.08-.4.27-.28.08.03.21-.09.33-.16.17.14.35.29.53.43Zm-.21.32c-.18-.14-.29-.29-.4-.3-.09,0-.28.18-.27.24.03.12.16.26.27.3.08.02.21-.12.4-.25Z"/>
    <path class="cls-8" d="m15.05,22.04c-.05,0-.11,0-.16,0,.04-.04.09-.07.13-.11,0,.04.02.08.03.12,0,0,0,0,0,0Z"/>
    <path class="cls-14" d="m13.33,21.96s-.04-.02-.07-.02c.02,0,.04.02.06.03,0,0,0,0,0,0Z"/>
    <path class="cls-8" d="m9.98,11.32c.13-.08.27-.16.3-.17.3.11.52.18.74.26.05.21.12.42.15.64.01.07-.04.15-.07.22-.05.12-.1.23-.16.34-.04.08-.08.19-.15.21-.21.06-.42.09-.62.12-.22-.11-.45-.22-.69-.34-.01-.21-.03-.42-.04-.63-.04,0-.08,0-.12,0,.11-.13.21-.25.32-.38-.02-.26.07-.38.35-.27Zm.18,1.09c.06,0,.13,0,.19,0,.08-.11.2-.21.23-.33.05-.21-.02-.44-.28-.4-.14.02-.33.18-.35.3-.02.13.14.29.21.43Z"/>
    <path class="cls-6" d="m8.33,18.01c.54,0,.9.33.9.85,0,.52-.37.87-.93.87-.45,0-.87-.42-.89-.88-.01-.43.43-.84.92-.84Zm.05.35c-.43,0-.62.15-.62.5,0,.27.28.61.52.61.35,0,.57-.24.6-.61.02-.37-.14-.53-.5-.5Z"/>
    <path class="cls-6" d="m10.71,14.32c.46,0,.65.19.65.64,0,.4-.27.66-.67.66-.38,0-.7-.29-.71-.65,0-.39.29-.65.72-.65Zm.39.6c.07-.34-.25-.42-.41-.39-.17.04-.4.28-.41.45-.01.13.26.4.41.41.21,0,.47-.14.4-.48Z"/>
    <path class="cls-3" d="m9.56,13.47c.32-.21.62-.48,1.04-.25-.19.48-.26.51-.73.31-.1-.04-.21-.04-.31-.06Z"/>
    <path class="cls-2" d="m12.05,16.29c-.06.03-.12.06-.18.09.06-.03.12-.06.18-.09Z"/>
    <path class="cls-5" d="m9.39,13.64s.06-.06.09-.09c-.03.03-.06.06-.09.09Z"/>
    <path class="cls-5" d="m9.47,13.56s.06-.06.09-.09c-.03.03-.06.06-.09.09Z"/>
    <path class="cls-2" d="m11.88,16.38s-.06.06-.09.09c.03-.03.06-.06.09-.09Z"/>
    <path class="cls-6" d="m14.71,18.4c0,.59-.37.97-.97.98-.57.01-1-.44-1.01-1.03,0-.53.39-.94.92-.94.73,0,1.05.3,1.06.99Zm-.35-.01c0-.44-.17-.63-.59-.63-.41,0-.68.22-.69.57,0,.39.27.7.63.71.39.02.65-.25.65-.65Z"/>
    <path class="cls-6" d="m11.29,21.7c.31,0,.58.31.57.61-.02.28-.33.58-.62.59-.26,0-.57-.35-.57-.64,0-.3.3-.57.62-.56Zm0,.08c-.19.25-.38.4-.35.48.04.15.22.26.35.38.11-.12.28-.23.31-.36.02-.11-.14-.25-.3-.5Z"/>
    <path class="cls-6" d="m25.17,19.04c0-.57.44-1.02,1-1.04.52-.01,1.03.39,1.05,1.04.02.56-.5,1.03-1.08,1.03-.51,0-.97-.5-.97-1.03Zm1-.68c-.36,0-.66.33-.65.69,0,.3.36.69.63.68.42-.02.75-.37.73-.77-.01-.33-.34-.61-.71-.6Z"/>
    <path class="cls-6" d="m24.15,23.13c0,.53-.39.9-.91.89-.41,0-.82-.45-.8-.89.01-.42.44-.85.82-.83.52.03.91.39.9.82Zm-.84-.48c-.33,0-.62.25-.61.52,0,.22.38.6.58.59.31-.02.53-.29.53-.64,0-.36-.18-.48-.5-.47Z"/>
    <path class="cls-13" d="m7.42,11.42s-.03.03-.05.05c0-.02.02-.04.03-.07,0,0,.02.02.02.02Z"/>
    <path class="cls-6" d="m16.51,11.04c0,.88-.52,1.41-1.37,1.41-.78,0-1.38-.62-1.38-1.41,0-.78.61-1.33,1.42-1.36.68-.02,1.45.59,1.33,1.36Zm-1.34-.84c-.53,0-.96.37-.98.84-.01.45.51.97.96.96.52-.01.93-.42.93-.95,0-.57-.3-.85-.91-.85Z"/>
    <path class="cls-11" d="m6.82,7.96h0c.07-.1.13-.2.21-.31-.11-.07-.21-.13-.32-.2.01-.04.03-.08.04-.11.24.09.49.19.73.28.03.17.07.35.1.52-.21-.34-.47-.3-.76-.18Z"/>
    <path class="cls-11" d="m21.01,5.39c.1-.09.25-.11.41-.14-.15.03-.31.05-.41.14Z"/>
    <path class="cls-11" d="m23.11,2.06h0c.19.04.38.07.57.07-.19,0-.38-.03-.57-.07Z"/>
    <path class="cls-11" d="m24.58,5.4c-.21.07-.41.16-.63.19.21-.04.42-.13.63-.19.03,0,.05,0,.08,0-.03,0-.05,0-.08,0Z"/>
    <path class="cls-11" d="m27.23,4.63c-.06.09-.11.2-.19.27.08-.07.13-.18.19-.27.17.06.37.09.5.2-.13-.11-.33-.13-.5-.2Z"/>
    <path class="cls-11" d="m27.75,10.36c-.12-.13-.22-.28-.34-.42.11.14.22.28.34.42.41.03.54.08.58.35-.04-.27-.17-.31-.58-.35Z"/>
    <path class="cls-6" d="m22.6,10.87c0,.52-.4.94-.92.96-.43.02-.89-.49-.89-.97,0-.53.39-.94.9-.94.57,0,.91.35.91.94Zm-.35.02c0-.44-.13-.59-.52-.6-.37,0-.72.28-.67.61.05.31.25.54.58.59.31.04.61-.27.62-.59Z"/>
    <path class="cls-1" d="m36.66,14.49c-.43-1.17-.81-2.36-1.32-3.5-.67-1.52-1.62-2.89-2.71-4.14-2.03-2.33-4.46-4.11-7.37-5.21-1.65-.65-3.38-1.02-5.13-1.11-1.4-.07-2.82,0-4.21.17-1.55.2-3.05.68-4.47,1.36-1.58.68-3,1.6-4.29,2.73-.7.68-1.44,1.33-2.09,2.06-1.16,1.3-2.11,2.75-2.82,4.35-.35.89-.69,1.79-1.04,2.68-.1.4-.21.8-.31,1.2-.4.59.06,1.05.23,1.56.21.54.42,1.07.63,1.61.17.4.34.8.51,1.2.4.86.8,1.72,1.2,2.58.29.48.58.97.87,1.45.54.71,1.24,1.23,2.02,1.66.27.17.54.33.8.5.23.02.46.04.69.06.52-.54,1.04-1.09,1.57-1.63.24-.25.5-.47.76-.7-.03-.15-.13-.33-.07-.44.13-.27.06-.42-.19-.55-.09-.05-.13-.18-.19-.27.06-.06.12-.15.19-.17.3-.09.39-.27.32-.58-.06-.27.13-.43.38-.3.23.12.41.13.52-.12.12-.27.29-.26.51-.12-.01.35.12.49.49.38.28-.08.49.12.37.34-.24.41-.02.56.33.66.16-.06.32-.12.49-.18.01-.03.02-.06.03-.08.06.06.12.11.17.17h0s0,0,0,0c-.07-.03-.14-.06-.2-.09-.16.06-.32.12-.49.18.01.23,0,.41-.3.47-.09.02-.14.28-.2.44-.03.11,0,.29-.06.32-.09.05-.25,0-.37.02-.15.02-.31.04-.44.1-.15.06-.27.17-.47.3-.08-.64-.42-.62-.81-.47-.25.23-.52.46-.76.7-.53.54-1.05,1.08-1.57,1.63.16.03.33.07.49.1,1.11.2,2.22.4,3.33.58.47.08.94.11,1.41.17.1-.48.2-.96.29-1.45.02-.5-.47-.23-.68-.44.04-.1.09-.21.17-.41-.03-.01-.12-.03-.16-.08-.06-.08-.08-.19-.12-.28.51.08.02-.81.62-.64.07.02.17.03.23,0,.36-.2.36-.2.55.13.13-.02.27-.04.4-.05.06-.08.13-.15.19-.23-.14-.09-.3-.17-.42-.28-.2-.19-.38-.41-.56-.61.2.1.4.19.59.29.84.43.84.43.87-.45.08.13.16.25.24.38.09-.07.19-.14.28-.21-.03-.1-.13-.23-.09-.29.12-.23.11-.36-.16-.45-.05-.02-.02-.23-.03-.35.39-.02.35-.27.29-.54,0-.04.06-.09.09-.14-.03-.03-.06-.06-.08-.09-.13.09-.26.18-.31.22-.37-.08-.67-.18-.98-.21-.09,0-.2.14-.29.24-.15.16-.27.44-.44.47-.32.06-.48-.2-.52-.51,0-.02-.04-.04-.06-.06-.11-.37-.32-.46-.7-.31-.46.18-.66.05-.77-.47.46-.58.39-.89-.25-1.16-.1-.04-.26-.19-.24-.26.05-.18.13-.45.27-.51.81-.33.82-.32.5-1.16-.02-.05,0-.11,0-.17-.12-.04-.23-.12-.35-.12-.18,0-.47,0-.51.08-.15.33-.37.33-.65.26-.09-.56-.09-.54-.66-.5-.13.01-.27-.11-.4-.17.04-.12.06-.24.11-.35.13-.25.06-.41-.18-.56-.14-.09-.24-.26-.38-.42q.85-.36.6-.97s.02-.05.02-.07c.03-.03.06-.06.09-.09,0,0,0,0,0,0,.03-.03.06-.06.09-.09.31-.21.61-.48,1.04-.25h.38c.14.18.24.31.34.43.26-.14.51-.28.77-.42.11-.24.19-.48.32-.71.25-.44.09-.94-.39-1.1-.18-.06-.36-.13-.54-.2-.07-.87-.05-.88.76-1.1.14-.04.28-.16.38-.28.37-.44.08-.82-.12-1.21-.7.18-1.4.36-2.1.55-.01.05-.02.1-.04.14-.07-.09-.14-.18-.2-.27-.22-.34-.47-.46-.85-.2-.12.09-.29.11-.44.14.46-.44.46-.45.14-.62-.36.19-.74.35-1.09.57.35-.22.73-.38,1.09-.57-.18-.07-.37-.13-.55-.2v-.1c.35.03.69.06,1.04.08.16.01.33,0,.49,0,.05-.04.09-.1.14-.15-.05.05-.09.11-.14.15.01.1,0,.21.04.3.11.25.25.48.37.72.7-.18,1.4-.36,2.1-.55.24-.58.64-.73,1.12-.42.57.37,1,.23,1.28-.42.18-.41.74-.57,1.08-.29.04.03.03.13.05.2.06.22.06.49.2.64.23.25.55.46.91.23.44-.28.76-.18,1.02.23.03,0,.05,0,.08,0-.03.17-.06.34-.09.51-.51.66-.43,1.06.3,1.4.3.14.45.33.41.67-.02.14-.01.28-.02.42-.35.12-.77.17-1.03.39-.43.36-.2.83.02,1.24-.12.58-.57.79-1.03.5-.65-.41-1.11-.26-1.38.46-.04.11-.06.22-.1.33-.52.2-.89.05-1.04-.42-.4,0-.62,0-.78.12.16-.12.38-.12.78-.12-.11-.8-.47-1.02-1.22-.7-.36.16-.63.12-.83-.24-.03-.06-.1-.1-.15-.14-.26.14-.51.28-.77.42.1.03.23.11.3.07.33-.18.45.04.59.25-.31.54-.3.55.19.87.05.04.08.11.12.17-.07.11-.12.3-.22.33-.43.13-.51.38-.32.76.03.06.04.13.06.2.17-.14.31-.16.52-.02.44.31.73.25.93-.22.18-.43.51-.24.81-.29.04.15.09.28.12.41.1.4.36.54.76.39.24-.09.42-.16.63.09.24.27.08.42-.05.63-.22.36-.13.64.25.82.13.06.26.12.4.19-.05.38-.05.73-.58.8-.14.02-.22.4-.33.62-.04.02-.08.06-.12.11-.11.17-.02.44.12.57.11.1.21.1.49.14.48.08,1.01.16,1.12.43.04.1,0,.14.05.23.1.17.34.22.54.23-.47-1.98-.54-2.9-.5-3.37.06-.62-.15-1.04-.72-1.28,0,0,0-.04,0-.09.23.08.45.16.58.2.2-.82.38-1.62.57-2.41h.03s.03,0,.03,0c-.03.27-.08.53-.07.8.02.74.03,1.47.1,2.2.04.46.18.92.28,1.4.36-.12.65-.22.94-.31-.16.23-.39.35-.57.52-.11.11-.15.29-.22.44h0c.18.58.37,1.16.55,1.74.7-.06,1.38-.02,2.04.26.87-.58,1.71-1.2,2.2-2.17.07-.1.15-.2.26-.36,0,.17-.01.26-.02.36-.2.39-.4.79-.62,1.23h.81c-.16.09-.32.12-.48.16-.35.08-.75.06-.95.46.02.02.04.05.06.07.1.04.21.07.31.13.38.23.6.15.8-.26.06-.11.25-.2.38-.21.11,0,.28.12.32.23.21.55.26.57.81.42.38-.11.46.17.5.46,0,0,0,0,0,0-.37.51-.34.62.18.94.11.07.19.27.18.4,0,.1-.17.19-.27.29-.15.14-.31.28-.47.42,0,.1-.02.2,0,.28.15.42.08.54-.37.62.09.66.18,1.33.27,2,.66-.06,1.32-.12,1.97-.17.46-.09.92-.17,1.37-.26.26-.02.51-.04.77-.06.29-.14.58-.28.87-.42.51-.29,1.03-.58,1.54-.87.41-.28.81-.57,1.22-.85.32-.34.63-.69.95-1.03.26-.4.52-.8.78-1.2.43-.91.86-1.83,1.28-2.74.26-.66.51-1.32.77-1.99h0c.06-.12.14-.24.19-.36.35-.83.77-1.65.28-2.57Zm-21.64,7.43s.02.08.03.12c-.05,0-.1,0-.16,0l.13-.11Zm-6.16-5.35c.11.64.31.85.73.72.2-.06.43-.22.53.07.06.17.04.4-.03.56-.13.3-.1.55.19.67.38.16.46.41.36.77-.29.05-.61.04-.73.39-.04.1-.07.26-.02.34.27.41.01.58-.31.74-.07-.05-.15-.09-.22-.14-.42-.27-.64-.22-.82.23-.09.24-.23.27-.46.26-.22-.01-.3-.1-.35-.33-.1-.5-.3-.57-.84-.34-.41-.05-.57-.31-.38-.63.16-.27.22-.52-.05-.75-.08-.03-.17-.05-.23-.1-.11-.1-.28-.24-.26-.33.02-.14.16-.33.3-.38.55-.21.62-.27.45-.81-.08-.24,0-.4.19-.48.12-.05.31-.04.43.02.4.2.66.16.81-.25.16-.41.45-.23.71-.24Zm-.18-6.67c.13.09.36.02.54.02.23-.14.45-.28.68-.41-.23.13-.45.27-.68.41.13.03.26.05.41.08-.09.17-.15.29-.16.31.2.39.36.69.52,1,.13-.08.27-.16.3-.17.3.11.52.18.74.26.05.21.12.42.15.64.01.07-.04.15-.07.22-.05.12-.1.23-.16.34-.04.08-.08.19-.15.21-.21.06-.42.09-.62.12-.22-.11-.45-.22-.69-.34-.01-.21-.03-.42-.04-.63-.04,0-.08,0-.12,0,.11-.13.21-.25.32-.38-.19-.19-.39-.37-.58-.56-.14-.02-.29-.1-.4-.06-.41.13-.82.29-1.23.45-.02.02-.03.03-.05.05,0-.02.02-.04.03-.07-.09-.05-.18-.1-.26-.15.29-.19.5-.31.69-.46.38-.31.36-.37-.07-.62-.46-.16-.91-.33-1.37-.49-.2.14-.42.27-.62.41.21-.14.42-.27.62-.41l.85-.18c.53-.04,1,.11,1.44.41Zm17.17,1.63c.06-.12.18-.21.28-.32.31,0,.5.11.55.44.02.11.12.2.19.29.08-.05.19-.09.28-.14-.09.05-.2.09-.28.14.18.02.36.08.53.05.21-.04.38-.14.56.09.17.21.14.35,0,.56-.23.35-.16.71.21.83.35.11.39.31.36.59-.13.09-.25.21-.39.25-.4.1-.56.36-.42.75.07.19.19.37-.05.57-.25.21-.42.12-.64-.02-.35-.22-.69-.07-.77.33-.09.27-.3.28-.54.26-.27-.02-.26-.19-.31-.37-.12-.48-.33-.58-.8-.4-.19.07-.32.11-.47-.08-.15-.19-.2-.33-.05-.56.26-.39.16-.7-.26-.87-.22-.09-.31-.19-.29-.43.01-.24.11-.37.34-.39.43-.09.67-.37.51-.67-.19-.35-.1-.57.19-.77.14.05.29.07.42.14.38.21.65.12.85-.26Zm-5.08-2.53c.36.26.62.07.86-.57.18.02.37.04.6.07.03.1.08.22.11.33.1.36.33.5.66.38.21-.07.38-.22.6.04.21.26.08.44-.05.64-.02.03-.04.08-.06.11.51.03,1.01.06,1.52.08-.51-.03-1.01-.06-1.52-.08.1.19.15.51.3.56.41.14.4.4.35.72,0,0,0,0,0,0-.14.06-.27.14-.42.17-.36.07-.48.35-.38.61.14.38.07.62-.24.84-.04,0-.07,0-.11,0-.24-.2-.48-.48-.81-.24-.17.13-.24.39-.35.59-.08,0-.17.02-.26.03-.28,0-.41-.12-.47-.41-.08-.44-.32-.54-.73-.38-.4.15-.57.04-.68-.43.41-.54.36-.77-.21-1.05-.29-.14-.31-.45-.05-.74.67-.07.79-.28.59-.92-.03-.09,0-.21,0-.31.23-.2.44-.28.74-.06Zm-1.93.17c.05-.65-.38-.29-.61-.35,0-.03-.01-.05-.02-.08,0-.28.2-.61-.22-.76.05-.09.11-.19.16-.29.07-.13.18-.26.18-.39,0-.24.08-.27.3-.27.22,0,.43-.16.65-.18.23-.02.22.5.59.3.04-.02.2.05.2.07-.02.31-.02.6.22.85.02.02,0,.11-.02.12-.41.11-.25.46-.31.71-.42-.22-.7.27-1.11.26Zm1.5,11.42c-.02.06-.08.13-.14.14-.28.05-.55.08-.83.12,0-.26-.13-.31-.37-.24-.02,0-.13-.27-.15-.43q-.39-.31.07-.64c.05-.21-.06-.6.4-.37.03.02.14-.04.17-.09.17-.24.26-.18.43.03.11.14.36.17.55.25,0,.21.02.42.03.63.02,0,.03-.01.05-.02-.07.2-.13.41-.21.6Zm1.86-.29h-1.07c-.08-.3-.13-.51-.19-.76.03-.03.11-.09.19-.16.02-.15-.08-.4.27-.28.08.03.21-.09.33-.16.17.14.35.29.53.43-.02.29-.03.58-.06.93Zm.98-3.38c-.29,0-.45.51-.3.79.1.19.22.37-.04.55-.2.15-.34.27-.6.06-.39-.31-.7-.2-.91.24-.06.13-.14.24-.22.38-.19-.04-.38-.07-.6-.11-.01-.1-.02-.21-.04-.32-.08-.41-.39-.66-.76-.47-.45.23-.61-.03-.81-.31q.39-1.01-.46-1.41c-.1-.42,0-.68.5-.73.35-.03.52-.43.39-.79-.05-.13-.1-.26-.14-.39l.44-.37c.11.05.23.09.34.16.45.28.72.19.95-.29.06-.12.17-.21.25-.31.15.02.31.04.47.06.04.11.09.21.12.31.14.53.35.65.85.46.21-.08.37-.11.54.1.18.22.15.37.01.6-.09.15-.06.37-.09.56.31,0,.56.11.67.43,0,0,0,0,0,0,.05.43.06.79-.55.8Zm4.92,3.04q-.19.32.06.92c-.24.33-.49.53-.9.2-.11-.09-.36-.01-.54-.02h0c-.11.14-.2.29-.32.4-.14.13-.34.31-.48.29-.15-.02-.34-.25-.37-.41-.11-.49-.39-.68-.84-.47-.25.12-.39.11-.58-.1-.2-.23-.14-.39,0-.6.22-.3.24-.59-.12-.81-.1-.05-.21-.09-.29-.16-.1-.09-.25-.24-.23-.32.05-.17.16-.35.3-.47.09-.08.3-.03.39-.11.21-.17.4-.4.23-.68-.23-.39-.15-.65.25-.82.17.07.34.12.49.21.24.14.69.07.76-.2.1-.43.39-.46.72-.46.08.12.19.23.23.36.14.53.36.66.87.46.22-.09.37-.08.55.12.2.23.14.39,0,.6-.24.37-.21.66.08.82.17.09.36.16.51.24v.45c0,.34-.32.22-.48.34-.11.08-.21.16-.32.24.62.81,1.19,1.66,1.7,2.54-.51-.88-1.08-1.73-1.7-2.54Z"/>
    <path class="cls-6" d="m19.05,8.47c-.13-.15-.36-.3-.37-.46-.01-.26.16-.48.48-.47.29,0,.45.17.45.45,0,.3-.17.43-.55.48Zm.13-.88c-.16.18-.26.29-.35.39.09.08.18.21.28.22.1,0,.29-.12.29-.18,0-.12-.11-.24-.22-.44Z"/>
    <path class="cls-6" d="m26,12.76c.68.07.94.34.99.97.04.51-.44.92-1.01.93-.47,0-.89-.46-.89-.98,0-.5.42-.92.91-.92Zm.64.94c0-.38-.19-.57-.57-.58-.39,0-.63.21-.64.56-.01.34.27.64.61.64.36,0,.6-.25.61-.62Z"/>
    <path class="cls-6" d="m13.59,24.65c-.2-.27-.42-.45-.39-.55.05-.17.25-.36.42-.4.1-.02.35.23.36.38.02.13-.19.29-.39.56Zm-.04-.91c-.1.17-.21.28-.19.36.02.08.17.16.27.17.06,0,.2-.15.19-.2-.03-.1-.13-.18-.27-.33Z"/>
    <path class="cls-6" d="m21.04,17.24c-.51,0-1.03-.52-1.01-1.01.01-.52.5-.98,1.04-.98.58,0,1.06.43,1.03.96-.04.6-.36,1.03-1.05,1.02Zm.71-.99c.01-.35-.28-.65-.64-.65-.39,0-.75.31-.74.66,0,.32.34.63.68.63.38,0,.69-.28.7-.64Z"/>
    <path class="cls-7" d="m23.05,15.7c.31,0,.56.11.67.43-.22-.14-.44-.29-.67-.43Z"/>
    <path class="cls-6" d="m19.93,20.25c-.31-.05-.68.16-.67-.32,0-.13.26-.36.4-.35.43.02.24.37.27.67Z"/>
    <path class="cls-6" d="m22.03,19.7c-.19.13-.32.27-.4.25-.12-.04-.24-.18-.27-.3-.01-.06.18-.25.27-.24.11,0,.22.15.4.3Z"/>
    <path class="cls-6" d="m16.02,21.59c-.23-.2-.12-.4.06-.51.14-.08.42-.14.51-.06.12.12.22.42.15.53-.08.13-.35.14-.54.21.02-.02.04-.04.06-.06.22-.02.38-.11.33-.36-.02-.09-.13-.15-.19-.23-.1.14-.2.28-.3.42-.02.02-.04.04-.07.07Z"/>
    <path class="cls-6" d="m16.2,21.76c-.06-.06-.12-.11-.18-.17.02-.02.04-.04.07-.07.06.06.11.11.17.17-.02.02-.04.04-.06.06Z"/>
    <path class="cls-6" d="m10.16,12.41c-.08-.15-.23-.3-.21-.43.02-.12.22-.28.35-.3.27-.03.33.19.28.4-.03.12-.15.22-.23.33-.06,0-.13,0-.19,0Z"/>
    <path class="cls-8" d="m8.37,18.36c.36-.02.52.13.5.5-.02.37-.24.61-.6.61-.24,0-.53-.34-.52-.61,0-.36.19-.51.62-.5Z"/>
    <path class="cls-8" d="m11.09,14.92c.07.34-.19.48-.4.48-.15,0-.42-.28-.41-.41.01-.17.24-.41.41-.45.16-.04.48.05.41.39Z"/>
    <path class="cls-8" d="m14.36,18.39c0,.41-.27.67-.65.65-.36-.01-.64-.33-.63-.71,0-.35.28-.57.69-.57.43,0,.6.19.59.63Z"/>
    <path class="cls-8" d="m11.29,21.78c.16.25.32.39.3.5-.03.14-.2.24-.31.36-.12-.12-.3-.23-.35-.38-.03-.09.17-.24.35-.48Z"/>
    <path class="cls-8" d="m26.18,18.36c.37,0,.69.27.71.6.02.4-.32.75-.73.77-.27.01-.63-.38-.63-.68,0-.36.3-.68.65-.69Z"/>
    <path class="cls-8" d="m23.3,22.65c.32-.01.51.11.5.47,0,.35-.22.62-.53.64-.2.01-.58-.37-.58-.59,0-.27.28-.52.61-.52Z"/>
    <path class="cls-8" d="m15.17,10.2c.61,0,.91.28.91.85,0,.53-.4.94-.93.95-.45,0-.97-.51-.96-.96.02-.47.44-.84.98-.84Z"/>
    <path class="cls-8" d="m22.26,10.89c0,.32-.31.64-.62.59-.32-.05-.53-.27-.58-.59-.05-.32.3-.61.67-.61.39,0,.53.16.52.6Z"/>
    <path class="cls-8" d="m19.18,7.6c.11.2.22.32.22.44,0,.06-.19.19-.29.18-.1,0-.19-.14-.28-.22.09-.11.19-.21.35-.39Z"/>
    <path class="cls-8" d="m26.63,13.7c0,.37-.25.62-.61.62-.34,0-.62-.3-.61-.64.01-.36.26-.57.64-.56.38,0,.57.2.57.58Z"/>
    <path class="cls-8" d="m13.56,23.73c.13.15.24.23.27.33.01.05-.12.2-.19.2-.1,0-.25-.09-.27-.17-.02-.08.09-.19.19-.36Z"/>
    <path class="cls-8" d="m21.75,16.25c-.01.37-.32.65-.7.64-.34,0-.67-.31-.68-.63-.01-.35.34-.67.74-.66.36,0,.65.31.64.65Z"/>
    <path class="cls-8" d="m16.26,21.7c-.06-.06-.11-.11-.17-.17.1-.14.2-.28.3-.42.07.08.17.14.19.23.06.25-.1.34-.33.36Z"/>
    <path class="cls-8" d="m15.67,20.44c.25.02.55.2.71-.18.15.1.29.19.44.29-.01.04-.03.07-.04.11.1-.03.22-.09.3-.06.09.04.23.21.22.24-.24.33.07.4.25.54-.05.08-.09.2-.16.25-.17.12-.35.2-.22.46.02.05-.07.15-.11.22-.37-.24-.56.13-.84.29-.11-.34-.26-.59-.64-.37-.03-.1-.13-.23-.09-.29.12-.23.11-.36-.16-.45-.05-.02-.02-.23-.03-.35.39-.02.35-.27.29-.54,0-.04.06-.09.09-.14Zm.35,1.14c.06.06.12.11.18.17.19-.06.47-.08.54-.21.07-.12-.03-.42-.15-.53-.08-.08-.37-.03-.51.06-.19.11-.29.31-.06.51Z"/>
  </g>
</svg>