<?xml version="1.0" encoding="UTF-8"?>
<svg id="Layer_1" data-name="Layer 1" xmlns="http://www.w3.org/2000/svg" viewBox="0 0 91.5 40">
  <defs>
    <style>
      .cls-1 {
        fill: #e2e8f0;
      }
    </style>
  </defs>
  <g id="Group_83779" data-name="Group 83779">
    <g id="Group_83774" data-name="Group 83774">
      <path id="Path_165341" data-name="Path 165341" class="cls-1" d="m91.2,5.64h-.38v-1.59h-.01s-.01.03-.01.04c-.14.5-.26,1.01-.39,1.51,0,.03-.03.05-.05.05h-.36c-.14-.53-.27-1.06-.4-1.6h-.01v1.59h-.38v-2.06h.59s.04.01.04.03h0c.11.45.23.89.35,1.33,0,.02.01.03.02.04l.37-1.4h.62v2.06Z"/>
      <path id="Path_165342" data-name="Path 165342" class="cls-1" d="m88.32,5.64h-.42v-1.72h-.58s-.04,0-.04-.04v-.31h1.64v.34h-.61v1.72Z"/>
    </g>
    <g id="Group_83775" data-name="Group 83775">
      <g id="Group_83764" data-name="Group 83764">
        <path id="Path_165343" data-name="Path 165343" class="cls-1" d="m15.89,36.86v.09c0,.29.04.5.09.62.05.12.17.18.35.18s.29-.07.35-.2c.04-.08.05-.21.05-.39v-2.65h.79v2.64c0,.32-.05.58-.16.77-.19.32-.52.48-1,.48s-.81-.13-.97-.39c-.17-.25-.25-.6-.25-1.05v-.09h.75Z"/>
        <path id="Path_165344" data-name="Path 165344" class="cls-1" d="m21.05,37.96c-.24.29-.6.44-1.08.44s-.84-.15-1.08-.44c-.47-.62-.47-1.49,0-2.11.24-.3.6-.45,1.08-.45s.84.15,1.08.45c.48.62.48,1.49,0,2.11m-.59-.41c.11-.15.17-.37.17-.65s-.06-.5-.17-.65c-.11-.15-.28-.23-.49-.23s-.38.08-.49.23c-.11.15-.17.37-.17.65s.06.5.17.65c.11.15.28.23.49.23s.38-.08.49-.23"/>
        <path id="Path_165345" data-name="Path 165345" class="cls-1" d="m22.46,38.83h.09c.07.01.14,0,.21,0,.06,0,.11-.03.17-.06.06-.05.1-.11.12-.18.03-.05.04-.11.05-.17l-1.03-2.93h.82l.61,2.07.58-2.07h.78l-.96,2.76c-.19.53-.33.86-.44.99-.11.13-.32.19-.65.19h-.16s-.1,0-.18-.01v-.59Z"/>
        <path id="Path_165346" data-name="Path 165346" class="cls-1" d="m29.92,37.96c-.24.29-.6.44-1.08.44s-.84-.15-1.08-.44c-.47-.62-.47-1.49,0-2.11.24-.3.6-.45,1.08-.45s.84.15,1.08.45c.47.62.47,1.49,0,2.11m-.59-.41c.11-.15.17-.37.17-.65s-.06-.5-.17-.65c-.11-.15-.28-.23-.49-.23s-.38.08-.49.23c-.11.15-.17.37-.17.65s.06.5.17.65c.11.15.28.23.49.23.21,0,.38-.08.49-.23"/>
        <path id="Path_165347" data-name="Path 165347" class="cls-1" d="m32.38,34.47s.09,0,.16.01v.6s-.11-.01-.21-.01-.17.02-.2.06c-.04.04-.06.09-.06.15v.24h.48v.52h-.48v2.26h-.73v-2.26h-.41v-.52h.4v-.18c0-.3.05-.51.15-.62.1-.17.36-.25.77-.25.05,0,.09,0,.13.01"/>
        <path id="Path_165348" data-name="Path 165348" class="cls-1" d="m37.85,34.5h1.14v3.79h-.74v-3.18l-.72,3.18h-.77l-.71-3.18v3.18h-.74v-3.79h1.15l.69,2.98.69-2.99Z"/>
        <path id="Path_165349" data-name="Path 165349" class="cls-1" d="m41.19,36.59c.1-.01.2-.03.29-.06.1-.05.16-.11.16-.21,0-.11-.04-.19-.12-.24-.11-.05-.23-.07-.36-.07-.18,0-.3.04-.37.13-.06.07-.09.17-.1.26h-.71c0-.22.08-.43.21-.6.19-.25.53-.37,1-.37.29,0,.57.06.82.18.24.12.36.35.36.69v1.29c0,.09,0,.2,0,.32,0,.07.02.14.04.2.03.04.07.07.11.08v.11h-.8c-.02-.05-.04-.1-.05-.16-.01-.05-.02-.1-.02-.17-.1.11-.22.2-.35.28-.17.09-.35.14-.54.14-.23.01-.46-.07-.63-.22-.17-.15-.25-.35-.25-.62,0-.34.14-.59.4-.75.15-.08.36-.15.65-.18l.26-.03Zm.45.34s-.09.05-.14.07c-.06.02-.13.04-.2.05l-.17.03c-.12.02-.23.05-.34.1-.11.06-.18.18-.17.31,0,.12.04.22.1.27.07.06.17.09.26.08.16,0,.31-.05.44-.14.14-.09.21-.26.21-.51v-.27Z"/>
        <path id="Path_165350" data-name="Path 165350" class="cls-1" d="m45.68,35.66c.18.15.28.41.28.75v1.89h-.75v-1.71c0-.11-.02-.23-.06-.34-.07-.15-.21-.22-.41-.22-.25,0-.42.1-.51.32-.05.14-.08.28-.07.43v1.52h-.73v-2.79h.71v.41c.07-.12.16-.22.26-.31.17-.12.37-.18.57-.17.29,0,.53.07.71.23"/>
        <path id="Path_165351" data-name="Path 165351" class="cls-1" d="m48.17,36.59c.1-.01.2-.03.29-.06.1-.05.16-.11.16-.21,0-.11-.04-.19-.12-.24-.11-.05-.23-.07-.36-.07-.18,0-.3.04-.37.13-.06.07-.09.17-.1.26h-.71c0-.22.08-.43.21-.6.19-.25.53-.37,1-.37.29,0,.57.06.82.18.24.12.36.35.36.69v1.29c0,.09,0,.2,0,.32,0,.07.02.14.04.2.03.04.07.07.11.08v.11h-.8c-.02-.05-.04-.1-.05-.16-.01-.05-.02-.1-.02-.17-.1.11-.22.2-.35.28-.17.09-.35.14-.54.14-.23.01-.46-.07-.63-.22-.17-.15-.25-.35-.25-.62,0-.34.14-.59.4-.75.15-.08.36-.15.65-.18l.26-.03Zm.45.34s-.09.05-.14.07c-.06.02-.13.04-.2.05l-.17.03c-.12.02-.23.05-.34.1-.11.06-.18.18-.17.31,0,.12.04.22.1.27.07.06.17.09.26.08.16,0,.31-.05.44-.14.14-.09.21-.26.21-.51v-.27Z"/>
        <path id="Path_165352" data-name="Path 165352" class="cls-1" d="m51.8,35.49c.19.08.34.22.43.41v-.41h.72v2.66c0,.36-.06.63-.18.82-.21.32-.61.47-1.2.47-.36,0-.65-.07-.88-.21-.22-.14-.36-.37-.37-.63h.8c.01.07.05.14.1.19.08.07.21.1.4.1.26,0,.44-.09.53-.26.06-.11.09-.3.09-.57v-.18c-.06.1-.14.2-.23.27-.15.11-.34.17-.57.17-.36,0-.65-.12-.86-.38s-.32-.6-.32-1.03.1-.77.31-1.05c.21-.29.5-.43.88-.43.12,0,.24.02.36.06m.25,2.01c.12-.13.18-.34.18-.62,0-.26-.06-.47-.17-.61-.11-.14-.28-.21-.45-.21-.25,0-.43.12-.53.36-.06.15-.08.31-.08.48,0,.15.03.3.08.44.08.22.3.37.53.35.16,0,.32-.07.43-.2"/>
        <path id="Path_165353" data-name="Path 165353" class="cls-1" d="m54.8,35.16h-.74v-.68h.74v.68Zm-.75.34h.74v2.8h-.74v-2.8Z"/>
        <path id="Path_165354" data-name="Path 165354" class="cls-1" d="m58.18,35.66c.18.15.28.41.28.75v1.89h-.75v-1.71c0-.11-.02-.23-.06-.34-.07-.15-.21-.22-.41-.22-.25,0-.42.1-.51.32-.05.14-.08.28-.07.43v1.52h-.73v-2.79h.71v.41c.07-.12.16-.22.26-.31.17-.12.37-.18.57-.17.29,0,.53.07.71.23"/>
        <path id="Path_165355" data-name="Path 165355" class="cls-1" d="m60.95,35.49c.19.08.34.22.43.41v-.41h.72v2.66c0,.36-.06.63-.18.82-.21.32-.61.47-1.2.47-.36,0-.65-.07-.88-.21-.22-.14-.36-.37-.37-.63h.8c.01.07.05.14.1.19.08.07.21.1.4.1.26,0,.44-.09.53-.26.06-.11.09-.3.09-.57v-.18c-.06.1-.14.2-.23.27-.15.11-.34.17-.57.17-.36,0-.65-.12-.86-.38s-.32-.6-.32-1.03.1-.77.31-1.05.5-.43.88-.43c.12,0,.24.02.36.06m.25,2.01c.12-.13.18-.34.18-.62,0-.26-.06-.47-.17-.61-.11-.14-.28-.21-.45-.21-.25,0-.43.12-.53.36-.06.15-.08.31-.08.48,0,.15.03.3.08.44.08.22.3.37.53.35.16,0,.32-.07.43-.2"/>
        <path id="Path_165356" data-name="Path 165356" class="cls-1" d="m65.13,34.51h2.71v.66h-1.92v.87h1.68v.66h-1.68v1.59h-.79v-3.79h0Z"/>
        <path id="Path_165357" data-name="Path 165357" class="cls-1" d="m69.47,35.16h-.74v-.68h.74v.68Zm-.74.34h.74v2.8h-.74v-2.8Z"/>
        <path id="Path_165358" data-name="Path 165358" class="cls-1" d="m72.85,35.66c.18.15.28.41.28.75v1.89h-.75v-1.71c0-.11-.02-.23-.06-.34-.07-.15-.21-.22-.41-.22-.25,0-.42.1-.51.32-.05.14-.08.28-.07.43v1.52h-.73v-2.79h.71v.41c.07-.12.16-.22.26-.31.17-.12.37-.18.57-.17.29,0,.52.07.71.23"/>
        <path id="Path_165359" data-name="Path 165359" class="cls-1" d="m75.34,36.59c.1-.01.2-.03.29-.06.1-.05.16-.11.16-.21,0-.11-.04-.19-.12-.24-.11-.05-.23-.07-.36-.07-.18,0-.3.04-.37.13-.06.07-.09.17-.1.26h-.71c0-.22.08-.43.21-.6.19-.25.53-.37,1-.37.29,0,.57.06.82.18.24.12.36.35.36.69v1.29c0,.09,0,.2,0,.32,0,.07.02.14.04.2.03.04.07.07.11.08v.11h-.8c-.02-.05-.04-.1-.05-.16-.01-.05-.02-.1-.02-.17-.1.11-.22.2-.35.28-.17.09-.35.14-.54.14-.23.01-.46-.07-.63-.22-.17-.15-.25-.35-.25-.62,0-.34.14-.59.4-.75.15-.08.36-.15.65-.18l.26-.03Zm.45.34s-.09.05-.14.07c-.06.02-.13.04-.2.05l-.17.03c-.12.02-.23.05-.34.1-.11.06-.18.18-.17.31,0,.12.04.22.1.27.07.06.17.09.26.08.16,0,.31-.05.44-.14.14-.09.21-.26.21-.51v-.27Z"/>
        <path id="Path_165360" data-name="Path 165360" class="cls-1" d="m79.84,35.66c.18.15.28.41.28.75v1.89h-.75v-1.71c0-.11-.02-.23-.06-.34-.07-.15-.21-.22-.41-.22-.25,0-.42.1-.51.32-.05.14-.08.28-.07.43v1.52h-.73v-2.79h.71v.41c.07-.12.16-.22.26-.31.17-.12.37-.18.57-.17.29,0,.52.07.71.23"/>
        <path id="Path_165361" data-name="Path 165361" class="cls-1" d="m82.89,36.5c-.01-.1-.05-.2-.1-.29-.08-.11-.21-.17-.38-.17-.25,0-.42.12-.51.37-.05.17-.08.34-.07.52,0,.17.02.34.07.49.09.23.25.35.49.35.17,0,.3-.05.37-.14.08-.1.12-.23.13-.36h.75c-.02.23-.1.45-.24.63-.23.32-.57.48-1.02.48s-.78-.14-1-.4c-.21-.27-.32-.61-.32-1.04,0-.48.12-.86.35-1.12.23-.27.56-.4.98-.4.35,0,.64.08.86.24.22.16.36.44.4.84h-.75Z"/>
        <path id="Path_165362" data-name="Path 165362" class="cls-1" d="m86.39,35.55c.2.09.36.23.48.42.12.17.19.37.22.58.02.19.03.37.03.56h-2.04c.01.28.11.48.29.59.12.07.26.11.41.1.23.02.46-.11.56-.32h.75c-.02.17-.11.34-.27.51-.25.28-.6.41-1.05.41-.36,0-.71-.12-.99-.34-.29-.23-.43-.6-.43-1.12,0-.49.13-.86.38-1.12s.59-.39,1-.39c.22-.01.45.03.66.12m-1.1.63c-.11.12-.18.27-.2.44h1.26c-.02-.19-.08-.34-.2-.44-.12-.1-.28-.16-.44-.15-.18,0-.33.05-.43.16"/>
      </g>
      <path id="Path_165371" data-name="Path 165371" class="cls-1" d="m50.81.51c.06.02.12.03.18.04,1.16.03,2.29.25,3.39.6.13.04.26.08.42.12-.41,1.59-.8,3.17-1.2,4.77-.23-.02-.45-.05-.67-.06-.55-.05-1.1-.12-1.65-.07-1.11.12-1.91.81-2.18,1.73-.13.44-.14.9-.02,1.35.04.13.12.25.22.34.26.26.62.41.99.41.5.01,1.01.01,1.51.02h.82s.02.02.02.02.01.01.01.02c0,.04.01.08.02.12,0,1.68,0,3.37,0,5.04,0,.03-.01.05-.02.07-.05.01-.1.02-.15.02-.57,0-1.13,0-1.69,0-.15,0-.29-.03-.43-.03-.19,0-.37,0-.56.02-.39.05-.64.29-.72.66-.05.24-.08.49-.07.74,0,2.54.02,5.08.03,7.63,0,2.21,0,4.43,0,6.64v.2s-.02.03-.03.04c0,0-.01.01-.02.01-.03,0-.07.01-.1.02h-6.72s-.06,0-.08-.01c-.02-.01-.04-.02-.06-.04v-13.48c0-.51-.02-1.03-.04-1.55,0-.08-.02-.17-.04-.24-.06-.28-.23-.46-.51-.51-.29-.05-.57-.08-.86-.1-.46-.03-.92-.05-1.4-.07-.01-.07-.02-.14-.03-.2-.01-.99-.02-1.98-.02-2.98,0-.34.04-.69.08-1.03.02-.11.06-.21.14-.29.36-.39.79-.64,1.33-.66.17,0,.33-.03.49-.06.36-.08.62-.29.74-.65.07-.22.12-.45.15-.69.09-.91.25-1.81.53-2.69.34-1.02.83-1.97,1.55-2.78.76-.85,1.68-1.46,2.74-1.86.76-.28,1.55-.45,2.35-.51.17-.02.34-.03.51-.04.05-.01.1-.03.16-.04h.91Z"/>
      <path id="Path_165373" data-name="Path 165373" class="cls-1" d="m67.1,9.73c.07,0,.12-.01.18-.01,1.37,0,2.73.01,4.09.02.22,0,.44.02.66.02.15,0,.29.07.37.19.2.23.35.5.45.78.14.45.25.91.37,1.38.03.1.06.21.09.34.08-.05.15-.09.2-.14.9-.62,1.8-1.26,2.71-1.86.93-.63,1.96-1.07,3.07-1.27,1.79-.33,3.44-.03,4.92,1.06,1.01.75,1.69,1.75,2.15,2.9.29.75.45,1.53.55,2.33.19,1.49.23,2.98.23,4.48.02,3.6.01,7.19.02,10.79v.2c-.17.04-6.69.05-6.92.01-.02-.25-.05-.51-.05-.77-.02-.96-.03-1.92-.03-2.87-.01-3.06-.02-6.12-.03-9.18,0-.49-.02-.98-.16-1.45-.18-.62-.55-1.08-1.13-1.36-.91-.44-1.84-.47-2.78-.06-.35.16-.69.36-.99.6-.56.43-.85,1-.99,1.67-.03.18-.05.35-.05.53-.02,4.21-.03,8.42-.04,12.63v.29c-.16.05-6.56.07-6.89.03,0,0-.01-.01-.01-.02s-.01-.01-.01-.02c0-.03-.01-.07-.01-.1V9.81s.02-.05.03-.08"/>
      <path id="Path_165374" data-name="Path 165374" class="cls-1" d="m15.1,21.1c0-1.48.21-2.93.76-4.31.99-2.48,2.65-4.38,4.99-5.67.99-.55,2.07-.91,3.19-1.09,1.73-.29,3.52-.13,5.17.46,1.73.61,3.28,1.66,4.48,3.04,1.4,1.59,2.23,3.45,2.53,5.54.32,2.21.15,4.38-.65,6.49-.73,1.93-1.91,3.53-3.57,4.76-1.43,1.05-3.04,1.69-4.79,1.94-.59.08-1.18.12-1.77.12-1.19,0-2.37-.24-3.46-.71-3.1-1.36-5.22-3.62-6.35-6.8-.28-.79-.41-1.62-.47-2.45-.04-.44-.05-.88-.07-1.32m7.42-.05h.02v.44c0,.76.07,1.53.22,2.28.11.55.28,1.08.57,1.57.35.6.85,1.01,1.53,1.17.53.14,1.1.14,1.64.02.52-.11.99-.4,1.34-.81.2-.23.36-.49.49-.76.24-.53.41-1.1.48-1.68.21-1.47.2-2.96-.04-4.43-.11-.65-.3-1.29-.64-1.86-.37-.63-.89-1.08-1.62-1.25-.49-.11-.99-.08-1.48,0-.77.14-1.36.55-1.75,1.23-.19.35-.34.72-.44,1.11-.17.64-.24,1.3-.29,1.96-.03.33-.03.67-.04,1.01"/>
      <path id="Path_165375" data-name="Path 165375" class="cls-1" d="m56.73,9.83h6.77s.01.01.02.02.01.01.01.02c0,.02,0,.03.01.04v20.94s0,.08,0,.12c-.01.01-.02.01-.02.02s-.01.01-.02.01c-.02,0-.04.01-.06.01h-6.6s-.06,0-.09-.01l-.02-.02s-.01-.01-.01-.02c0-.07-.01-.14-.01-.2,0-6.95,0-13.9,0-20.86,0-.02,0-.04.02-.06"/>
      <path id="Path_165376" data-name="Path 165376" class="cls-1" d="m60.23,2.23c.62,0,1.23.16,1.76.48.76.46,1.19,1.14,1.32,2.02.13.9-.09,1.7-.7,2.37-.47.52-1.11.87-1.8.98-1.36.23-2.48-.2-3.33-1.28-1.11-1.41-.57-3.69,1.33-4.35.43-.15.83-.21,1.42-.21"/>
    </g>
    <g id="Group_83776" data-name="Group 83776">
      <path id="Path_165372" data-name="Path 165372" class="cls-1" d="m.3,37.89s.05-.08.07-.12c.12-.45.24-.89.35-1.34.07-.29.1-.58.18-.87.05-.23.12-.45.22-.66.23-.51.64-.77,1.19-.84.2-.03.41-.04.62-.03.25.02.5-.04.71-.17.47-.28.86-.66,1.14-1.12.23-.38.31-.81.34-1.24.02-.36.04-.73.04-1.1,0-6.76.01-13.52.01-20.28v-.28c.18-.05,6.66-.06,6.88-.01.07.4.14.81.14,1.22,0,3.46,0,6.93.01,10.4,0,2.78,0,5.55-.02,8.33,0,.62,0,1.24-.04,1.86-.07,1.37-.34,2.7-1.02,3.91-1.17,2.11-2.97,3.37-5.33,3.83-.83.16-1.67.16-2.51.09-.78-.06-1.56-.2-2.32-.37-.16-.04-.27-.11-.34-.24-.08-.16-.14-.33-.21-.49-.03-.06-.06-.12-.09-.18v-.29"/>
      <path id="Path_165377" data-name="Path 165377" class="cls-1" d="m8.58,2.24c.58,0,1.16.14,1.67.43.88.49,1.34,1.26,1.43,2.25.08.84-.16,1.58-.73,2.21-.47.51-1.1.85-1.79.96-1.36.23-2.48-.2-3.33-1.28-1.1-1.4-.59-3.73,1.41-4.38.41-.14.78-.19,1.34-.19"/>
    </g>
  </g>
</svg>