<svg width="99" height="86" viewBox="0 0 99 86" fill="none" xmlns="http://www.w3.org/2000/svg">
<path opacity="0.2" d="M39 0C46.7135 0 54.2537 2.28731 60.6672 6.57269C67.0808 10.8581 72.0795 16.949 75.0313 24.0753C77.9831 31.2017 78.7554 39.0433 77.2506 46.6085C75.7458 54.1738 72.0314 61.1229 66.5772 66.5772C61.1229 72.0314 54.1738 75.7458 46.6085 77.2506C39.0433 78.7554 31.2017 77.9831 24.0753 75.0313C16.949 72.0795 10.8581 67.0808 6.57269 60.6672C2.28731 54.2537 0 46.7135 0 39C0 28.6566 4.10892 18.7368 11.4228 11.4228C18.7368 4.10892 28.6566 0 39 0V0Z" fill="#F4DD4B"/>
<path d="M69.515 82.385H54.368C54.1317 82.385 53.9051 82.2911 53.738 82.1241C53.5709 81.957 53.477 81.7303 53.477 81.494V61.892C53.477 61.775 53.5 61.6592 53.5448 61.5511C53.5896 61.4429 53.6552 61.3447 53.738 61.262C53.8207 61.1793 53.9189 61.1136 54.027 61.0688C54.1351 61.0241 54.251 61.001 54.368 61.001H66.842V50.308H54.368C54.1317 50.308 53.9051 50.2141 53.738 50.0471C53.5709 49.88 53.477 49.6533 53.477 49.417V36.943C53.477 36.7067 53.5709 36.4801 53.738 36.313C53.9051 36.1459 54.1317 36.052 54.368 36.052H79.317C79.4343 36.0512 79.5506 36.0736 79.6592 36.1179C79.7679 36.1622 79.8667 36.2275 79.95 36.31L87.077 43.439C87.1596 43.5224 87.2248 43.6212 87.2691 43.7298C87.3134 43.8384 87.3358 43.9547 87.335 44.072V67.238C87.335 67.4743 87.2411 67.701 87.074 67.8681C86.9069 68.0351 86.6803 68.129 86.444 68.129H70.406V81.494C70.406 81.7303 70.3121 81.957 70.145 82.1241C69.9779 82.2911 69.7513 82.385 69.515 82.385V82.385ZM55.259 80.603H68.624V67.238C68.624 67.0017 68.7179 66.7751 68.885 66.608C69.0521 66.4409 69.2787 66.347 69.515 66.347H85.554V44.436L78.954 37.836H55.259V48.526H67.733C67.9693 48.526 68.1959 48.6199 68.363 48.787C68.5301 48.9541 68.624 49.1807 68.624 49.417V61.892C68.624 62.1283 68.5301 62.355 68.363 62.5221C68.1959 62.6891 67.9693 62.783 67.733 62.783H55.259V80.603Z" fill="#F4DD4B"/>
<path d="M98.028 85.949H69.515C69.2787 85.949 69.0521 85.8551 68.885 85.688C68.7179 85.521 68.624 85.2943 68.624 85.058V67.238C68.624 67.0017 68.7179 66.7751 68.885 66.608C69.0521 66.4409 69.2787 66.347 69.515 66.347H98.028C98.2643 66.347 98.4909 66.4409 98.658 66.608C98.8251 66.7751 98.919 67.0017 98.919 67.238V85.058C98.919 85.2943 98.8251 85.521 98.658 85.688C98.4909 85.8551 98.2643 85.949 98.028 85.949ZM70.406 84.167H97.137V68.129H70.406V84.167ZM67.733 62.782H49.913C49.6767 62.782 49.4501 62.6881 49.283 62.5211C49.1159 62.354 49.022 62.1273 49.022 61.891V49.417C49.022 49.1807 49.1159 48.9541 49.283 48.787C49.4501 48.6199 49.6767 48.526 49.913 48.526H67.733C67.9693 48.526 68.1959 48.6199 68.363 48.787C68.5301 48.9541 68.624 49.1807 68.624 49.417V61.891C68.624 62.1273 68.5301 62.354 68.363 62.5211C68.1959 62.6881 67.9693 62.782 67.733 62.782V62.782ZM50.804 61H66.842V50.307H50.804V61ZM94.393 65.455C94.2561 65.4521 94.1218 65.4176 94.0004 65.3543C93.879 65.291 93.7738 65.2006 93.693 65.09L91.093 61.526C90.9759 61.3752 90.9104 61.1909 90.906 61V42.289C90.906 41.8174 91.0929 41.3651 91.4258 41.0311C91.7587 40.6971 92.2104 40.5086 92.682 40.507H96.246C96.7186 40.507 97.1719 40.6948 97.5061 41.029C97.8403 41.3631 98.028 41.8164 98.028 42.289V61C98.0275 61.197 97.9618 61.3883 97.841 61.544L95.097 65.107C95.014 65.215 94.9074 65.3024 94.7854 65.3628C94.6634 65.4231 94.5291 65.4547 94.393 65.455V65.455ZM92.682 60.707L94.411 63.077L96.246 60.698V42.289H92.682V60.707Z" fill="#F4DD4B"/>
<path d="M96.246 42.289H92.686C92.4497 42.289 92.2231 42.1951 92.056 42.028C91.8889 41.861 91.795 41.6343 91.795 41.398V38.725C91.795 38.0161 92.0766 37.3362 92.5779 36.8349C93.0792 36.3336 93.7591 36.052 94.468 36.052C95.1769 36.052 95.8568 36.3336 96.3581 36.8349C96.8594 37.3362 97.141 38.0161 97.141 38.725V41.398C97.141 41.5154 97.1178 41.6316 97.0728 41.7399C97.0278 41.8483 96.9618 41.9467 96.8786 42.0295C96.7955 42.1123 96.6968 42.1778 96.5882 42.2223C96.4796 42.2669 96.3633 42.2895 96.246 42.289V42.289ZM93.573 40.507H95.355V38.725C95.355 38.4887 95.2611 38.2621 95.094 38.095C94.9269 37.9279 94.7003 37.834 94.464 37.834C94.2277 37.834 94.0011 37.9279 93.834 38.095C93.6669 38.2621 93.573 38.4887 93.573 38.725V40.507ZM55.259 57.436C54.7303 57.436 54.2135 57.2792 53.774 56.9855C53.3344 56.6918 52.9918 56.2744 52.7895 55.7859C52.5872 55.2975 52.5342 54.7601 52.6374 54.2415C52.7405 53.723 52.9951 53.2467 53.3689 52.8729C53.7427 52.4991 54.219 52.2445 54.7375 52.1414C55.256 52.0382 55.7935 52.0912 56.2819 52.2935C56.7703 52.4958 57.1878 52.8384 57.4815 53.278C57.7752 53.7176 57.932 54.2343 57.932 54.763C57.932 55.114 57.8629 55.4616 57.7285 55.7859C57.5942 56.1102 57.3973 56.4049 57.1491 56.6531C56.9009 56.9013 56.6062 57.0982 56.2819 57.2325C55.9576 57.3669 55.61 57.436 55.259 57.436V57.436ZM55.259 53.872C55.0828 53.872 54.9105 53.9243 54.764 54.0222C54.6175 54.1201 54.5033 54.2592 54.4358 54.422C54.3684 54.5849 54.3507 54.764 54.3851 54.9368C54.4195 55.1097 54.5044 55.2684 54.629 55.393C54.7536 55.5177 54.9123 55.6025 55.0852 55.6369C55.258 55.6713 55.4372 55.6536 55.6 55.5862C55.7628 55.5188 55.9019 55.4046 55.9998 55.258C56.0977 55.1115 56.15 54.9392 56.15 54.763C56.15 54.5267 56.0561 54.3001 55.889 54.133C55.7219 53.9659 55.4953 53.872 55.259 53.872V53.872ZM64.169 56.545H60.605C60.3687 56.545 60.1421 56.4511 59.975 56.284C59.8079 56.117 59.714 55.8903 59.714 55.654C59.714 55.4177 59.8079 55.1911 59.975 55.024C60.1421 54.8569 60.3687 54.763 60.605 54.763H64.169C64.4053 54.763 64.6319 54.8569 64.799 55.024C64.9661 55.1911 65.06 55.4177 65.06 55.654C65.06 55.8903 64.9661 56.117 64.799 56.284C64.6319 56.4511 64.4053 56.545 64.169 56.545ZM64.169 59.218H60.605C60.3687 59.218 60.1421 59.1241 59.975 58.957C59.8079 58.79 59.714 58.5633 59.714 58.327C59.714 58.0907 59.8079 57.8641 59.975 57.697C60.1421 57.5299 60.3687 57.436 60.605 57.436H64.169C64.4053 57.436 64.6319 57.5299 64.799 57.697C64.9661 57.8641 65.06 58.0907 65.06 58.327C65.06 58.5633 64.9661 58.79 64.799 58.957C64.6319 59.1241 64.4053 59.218 64.169 59.218V59.218ZM61.496 46.744C60.7911 46.744 60.102 46.535 59.516 46.1434C58.9299 45.7518 58.473 45.1951 58.2033 44.5439C57.9335 43.8927 57.863 43.1761 58.0005 42.4847C58.138 41.7934 58.4774 41.1583 58.9759 40.6599C59.4743 40.1615 60.1094 39.822 60.8007 39.6845C61.4921 39.547 62.2087 39.6176 62.8599 39.8873C63.5111 40.1571 64.0677 40.6139 64.4594 41.2C64.851 41.7861 65.06 42.4751 65.06 43.18C65.06 44.1252 64.6845 45.0318 64.0161 45.7001C63.3478 46.3685 62.4412 46.744 61.496 46.744ZM61.496 41.398C61.1436 41.398 60.799 41.5025 60.506 41.6983C60.2129 41.8941 59.9845 42.1725 59.8497 42.4981C59.7148 42.8237 59.6795 43.182 59.7482 43.5277C59.817 43.8733 59.9867 44.1909 60.2359 44.4401C60.4852 44.6893 60.8027 44.859 61.1484 44.9278C61.494 44.9965 61.8523 44.9612 62.1779 44.8264C62.5036 44.6915 62.7819 44.4631 62.9777 44.17C63.1735 43.877 63.278 43.5325 63.278 43.18C63.278 42.7074 63.0903 42.2541 62.7561 41.92C62.4219 41.5858 61.9686 41.398 61.496 41.398V41.398ZM75.752 42.289H67.733C67.4967 42.289 67.2701 42.1951 67.103 42.028C66.9359 41.861 66.842 41.6343 66.842 41.398C66.842 41.1617 66.9359 40.9351 67.103 40.768C67.2701 40.6009 67.4967 40.507 67.733 40.507H75.752C75.9883 40.507 76.2149 40.6009 76.382 40.768C76.5491 40.9351 76.643 41.1617 76.643 41.398C76.643 41.6343 76.5491 41.861 76.382 42.028C76.2149 42.1951 75.9883 42.289 75.752 42.289V42.289ZM72.186 45.852H67.733C67.4967 45.852 67.2701 45.7581 67.103 45.591C66.9359 45.424 66.842 45.1973 66.842 44.961C66.842 44.7247 66.9359 44.4981 67.103 44.331C67.2701 44.1639 67.4967 44.07 67.733 44.07H72.186C72.4223 44.07 72.6489 44.1639 72.816 44.331C72.9831 44.4981 73.077 44.7247 73.077 44.961C73.077 45.1973 72.9831 45.424 72.816 45.591C72.6489 45.7581 72.4223 45.852 72.186 45.852ZM86.442 44.961H79.317C79.0807 44.961 78.8541 44.8671 78.687 44.7C78.5199 44.533 78.426 44.3063 78.426 44.07V36.943C78.429 36.7678 78.4831 36.5973 78.5816 36.4524C78.6801 36.3075 78.8188 36.1945 78.9806 36.1273C79.1425 36.0601 79.3204 36.0416 79.4926 36.074C79.6648 36.1065 79.8238 36.1885 79.95 36.31L87.078 43.438C87.1995 43.5643 87.2815 43.7232 87.314 43.8954C87.3465 44.0676 87.3279 44.2456 87.2607 44.4074C87.1935 44.5692 87.0805 44.7079 86.9356 44.8064C86.7907 44.9049 86.6202 44.959 86.445 44.962L86.442 44.961ZM80.205 43.179H84.295L80.205 39.089V43.179ZM83.772 75.252C83.6327 75.2504 83.4957 75.2162 83.372 75.152L69.114 68.031C68.9226 67.9145 68.7822 67.7302 68.7206 67.5148C68.6591 67.2994 68.6809 67.0687 68.7818 66.8687C68.8827 66.6687 69.0552 66.514 69.2651 66.4355C69.4749 66.357 69.7066 66.3604 69.914 66.445L83.769 73.368L97.624 66.445C97.729 66.3811 97.8462 66.3395 97.9681 66.3231C98.09 66.3066 98.2139 66.3156 98.3322 66.3494C98.4504 66.3832 98.5604 66.4411 98.6552 66.5195C98.75 66.5978 98.8275 66.695 98.8829 66.8048C98.9383 66.9146 98.9703 67.0347 98.977 67.1575C98.9837 67.2803 98.9649 67.4032 98.9218 67.5183C98.8787 67.6335 98.8122 67.7385 98.7266 67.8268C98.6409 67.915 98.5379 67.9845 98.424 68.031L84.173 75.159C84.0484 75.2209 83.9111 75.2527 83.772 75.252V75.252ZM75.307 82.38C74.6901 82.38 74.0871 82.1971 73.5742 81.8544C73.0613 81.5116 72.6615 81.0245 72.4254 80.4546C72.1894 79.8847 72.1276 79.2576 72.2479 78.6525C72.3683 78.0475 72.6653 77.4917 73.1015 77.0555C73.5377 76.6193 74.0935 76.3223 74.6985 76.2019C75.3035 76.0816 75.9307 76.1434 76.5006 76.3794C77.0705 76.6155 77.5576 77.0153 77.9004 77.5282C78.2431 78.0411 78.426 78.6441 78.426 79.261C78.426 80.0882 78.0974 80.8816 77.5125 81.4665C76.9275 82.0514 76.1342 82.38 75.307 82.38V82.38ZM75.307 77.925C75.0426 77.925 74.7841 78.0034 74.5642 78.1503C74.3443 78.2973 74.173 78.5061 74.0718 78.7504C73.9706 78.9947 73.9441 79.2635 73.9957 79.5229C74.0473 79.7822 74.1746 80.0204 74.3616 80.2074C74.5486 80.3944 74.7868 80.5217 75.0462 80.5733C75.3055 80.6249 75.5743 80.5984 75.8187 80.4972C76.063 80.3961 76.2718 80.2247 76.4187 80.0048C76.5656 79.7849 76.644 79.5264 76.644 79.262C76.6427 78.9083 76.5012 78.5695 76.2506 78.3198C76 78.0702 75.6607 77.93 75.307 77.93V77.925ZM89.118 78.816H81.099C80.8627 78.816 80.6361 78.7221 80.469 78.555C80.3019 78.388 80.208 78.1613 80.208 77.925C80.208 77.6887 80.3019 77.4621 80.469 77.295C80.6361 77.1279 80.8627 77.034 81.099 77.034H89.118C89.235 77.034 89.3509 77.0571 89.459 77.1018C89.5671 77.1466 89.6653 77.2122 89.748 77.295C89.8308 77.3777 89.8964 77.4759 89.9412 77.584C89.986 77.6921 90.009 77.808 90.009 77.925C90.009 78.042 89.986 78.1579 89.9412 78.266C89.8964 78.3741 89.8308 78.4723 89.748 78.555C89.6653 78.6378 89.5671 78.7034 89.459 78.7482C89.3509 78.793 89.235 78.816 89.118 78.816V78.816ZM85.554 82.38H81.099C80.8627 82.38 80.6361 82.2861 80.469 82.119C80.3019 81.952 80.208 81.7253 80.208 81.489C80.208 81.2527 80.3019 81.0261 80.469 80.859C80.6361 80.6919 80.8627 80.598 81.099 80.598H85.554C85.7903 80.598 86.0169 80.6919 86.184 80.859C86.3511 81.0261 86.445 81.2527 86.445 81.489C86.445 81.7253 86.3511 81.952 86.184 82.119C86.0169 82.2861 85.7903 82.38 85.554 82.38V82.38Z" fill="#F4DD4B"/>
</svg>
