<svg width="28" height="28" viewBox="0 0 28 28" fill="none" xmlns="http://www.w3.org/2000/svg">
<path d="M17.5149 21.792H10.0309C8.89658 21.792 7.8087 21.3414 7.00661 20.5393C6.20452 19.7372 5.75391 18.6493 5.75391 17.515V10.031C5.75391 8.89667 6.20452 7.8088 7.00661 7.0067C7.8087 6.20461 8.89658 5.754 10.0309 5.754H17.5149C18.0766 5.754 18.6327 5.86463 19.1516 6.07957C19.6706 6.2945 20.142 6.60955 20.5392 7.0067C20.9364 7.40386 21.2514 7.87535 21.4663 8.39426C21.6813 8.91317 21.7919 9.46933 21.7919 10.031V17.515C21.7919 18.0767 21.6813 18.6328 21.4663 19.1517C21.2514 19.6706 20.9364 20.1421 20.5392 20.5393C20.142 20.9364 19.6706 21.2515 19.1516 21.4664C18.6327 21.6814 18.0766 21.792 17.5149 21.792V21.792Z" stroke="#F4DD4B" stroke-miterlimit="10"/>
<path d="M13.7369 17.261C15.6434 17.261 17.1889 15.7155 17.1889 13.809C17.1889 11.9025 15.6434 10.357 13.7369 10.357C11.8304 10.357 10.2849 11.9025 10.2849 13.809C10.2849 15.7155 11.8304 17.261 13.7369 17.261Z" stroke="#F4DD4B" stroke-miterlimit="10"/>
<path d="M18.5849 9.497C18.8804 9.497 19.1199 9.25747 19.1199 8.962C19.1199 8.66653 18.8804 8.427 18.5849 8.427C18.2894 8.427 18.0499 8.66653 18.0499 8.962C18.0499 9.25747 18.2894 9.497 18.5849 9.497Z" stroke="#F4DD4B" stroke-miterlimit="10"/>
</svg>
