<svg width="28" height="28" viewBox="0 0 28 28" fill="none" xmlns="http://www.w3.org/2000/svg">
<path d="M9.70454 11.379H6.50454C6.39846 11.379 6.29672 11.4212 6.2217 11.4962C6.14669 11.5712 6.10454 11.6729 6.10454 11.779V21.386C6.10454 21.4921 6.14669 21.5938 6.2217 21.6689C6.29672 21.7439 6.39846 21.786 6.50454 21.786H9.70454C9.75707 21.786 9.80909 21.7757 9.85762 21.7556C9.90615 21.7355 9.95024 21.706 9.98739 21.6689C10.0245 21.6317 10.054 21.5876 10.0741 21.5391C10.0942 21.4906 10.1045 21.4385 10.1045 21.386V21.386V11.779C10.1045 11.7265 10.0942 11.6745 10.0741 11.6259C10.054 11.5774 10.0245 11.5333 9.98739 11.4962C9.95024 11.459 9.90615 11.4296 9.85762 11.4095C9.80909 11.3894 9.75707 11.379 9.70454 11.379ZM9.30454 20.986H6.90454V12.179H9.30454V20.986ZM18.1105 11.379C17.2427 11.3794 16.3992 11.6658 15.7105 12.194V11.779C15.7105 11.6729 15.6684 11.5712 15.5934 11.4962C15.5184 11.4212 15.4166 11.379 15.3105 11.379H12.1105C12.0045 11.379 11.9027 11.4212 11.8277 11.4962C11.7527 11.5712 11.7105 11.6729 11.7105 11.779V21.386C11.7105 21.4921 11.7527 21.5938 11.8277 21.6689C11.9027 21.7439 12.0045 21.786 12.1105 21.786H15.3105C15.4166 21.786 15.5184 21.7439 15.5934 21.6689C15.6684 21.5938 15.7105 21.4921 15.7105 21.386V16.986C15.7105 16.6678 15.837 16.3625 16.062 16.1375C16.2871 15.9124 16.5923 15.786 16.9105 15.786C17.2288 15.786 17.534 15.9124 17.7591 16.1375C17.9841 16.3625 18.1105 16.6678 18.1105 16.986V21.386C18.1105 21.4385 18.1209 21.4906 18.141 21.5391C18.1611 21.5876 18.1906 21.6317 18.2277 21.6689C18.2648 21.706 18.3089 21.7355 18.3575 21.7556C18.406 21.7757 18.458 21.786 18.5105 21.786H21.7105C21.8166 21.786 21.9184 21.7439 21.9934 21.6689C22.0684 21.5938 22.1105 21.4921 22.1105 21.386V21.386V15.386C22.1103 14.3246 21.689 13.3066 20.9391 12.5554C20.1892 11.8042 19.172 11.3811 18.1105 11.379V11.379ZM21.3105 20.986H18.9105V16.986C18.9105 16.4556 18.6998 15.9469 18.3248 15.5718C17.9497 15.1967 17.441 14.986 16.9105 14.986C16.3801 14.986 15.8714 15.1967 15.4963 15.5718C15.1213 15.9469 14.9105 16.4556 14.9105 16.986V20.986H12.5105V12.179H14.9105V13.142C14.9105 13.225 14.9362 13.306 14.9842 13.3738C15.0323 13.4415 15.1002 13.4926 15.1785 13.52C15.2567 13.5476 15.3416 13.5501 15.4213 13.5274C15.501 13.5046 15.5717 13.4577 15.6235 13.393C16.0348 12.8721 16.5983 12.4925 17.2355 12.307C17.8728 12.1216 18.552 12.1396 19.1786 12.3585C19.8051 12.5775 20.3477 12.9864 20.7308 13.5284C21.1138 14.0704 21.3183 14.7183 21.3155 15.382L21.3105 20.986ZM8.39755 5.77901C8.30331 5.7729 8.20878 5.7729 8.11455 5.77901C7.53457 5.73946 6.96262 5.93181 6.5244 6.31377C6.08618 6.69574 5.81755 7.23607 5.77755 7.81601C5.77755 7.86468 5.77588 7.91334 5.77254 7.96201C5.77004 8.24685 5.82366 8.5294 5.93036 8.79351C6.03705 9.05763 6.19472 9.29814 6.39437 9.50132C6.59402 9.70449 6.83173 9.86635 7.09394 9.97766C7.35614 10.089 7.6377 10.1475 7.92254 10.15C7.97121 10.15 8.02021 10.15 8.06955 10.15H8.09254C8.67218 10.1905 9.24413 9.99899 9.68259 9.61773C10.1211 9.23647 10.3901 8.69664 10.4305 8.11701C10.471 7.53738 10.2795 6.96542 9.89826 6.52696C9.517 6.0885 8.97718 5.81946 8.39755 5.77901V5.77901ZM8.36954 9.34801C8.27711 9.3573 8.18398 9.3573 8.09154 9.34801H8.06955C7.87726 9.36173 7.68422 9.33531 7.50269 9.27042C7.32117 9.20552 7.15512 9.10358 7.01511 8.97107C6.8751 8.83855 6.76419 8.67837 6.68942 8.50068C6.61464 8.323 6.57765 8.1317 6.58078 7.93895C6.58391 7.7462 6.6271 7.55621 6.70761 7.38105C6.78812 7.20589 6.90418 7.04939 7.04842 6.92149C7.19266 6.7936 7.36193 6.69711 7.54547 6.63815C7.72901 6.57919 7.92281 6.55905 8.11455 6.57901C8.29786 6.55947 8.48323 6.57657 8.65987 6.62931C8.83652 6.68205 9.00092 6.76937 9.14352 6.88621C9.28612 7.00304 9.40408 7.14706 9.49053 7.30988C9.57698 7.47271 9.6302 7.65109 9.6471 7.83467C9.664 8.01824 9.64424 8.20334 9.58897 8.37921C9.5337 8.55509 9.44402 8.71822 9.32515 8.85912C9.20627 9.00003 9.06058 9.1159 8.89653 9.2C8.73247 9.2841 8.55334 9.33475 8.36954 9.34901V9.34801Z" fill="#F4DD4B"/>
</svg>
