<svg width="28" height="28" viewBox="0 0 28 28" fill="none" xmlns="http://www.w3.org/2000/svg">
<path d="M10.6972 22.094C8.46599 22.0543 6.28363 21.4339 4.36519 20.294C4.27767 20.2461 4.20962 20.1692 4.1728 20.0765C4.13598 19.9837 4.1327 19.8811 4.16354 19.7862C4.19437 19.6913 4.25738 19.6102 4.34167 19.5569C4.42596 19.5035 4.52624 19.4813 4.62519 19.494C6.19196 19.6626 7.77227 19.3375 9.14519 18.564C8.43486 18.4049 7.77151 18.0821 7.20797 17.6213C6.64443 17.1605 6.19627 16.5745 5.89919 15.91C5.86506 15.8349 5.85336 15.7515 5.8655 15.6699C5.87764 15.5883 5.9131 15.512 5.96762 15.4501C6.02214 15.3882 6.09339 15.3433 6.17279 15.321C6.25219 15.2986 6.33637 15.2996 6.41519 15.324C6.59531 15.3797 6.78004 15.4192 6.96719 15.442C6.28614 15.0649 5.71646 14.515 5.31549 13.8478C4.91453 13.1805 4.69644 12.4194 4.68319 11.641C4.6827 11.5596 4.70541 11.4798 4.74865 11.4109C4.79188 11.342 4.85386 11.2869 4.92732 11.2519C5.00078 11.217 5.08267 11.2037 5.16341 11.2136C5.24415 11.2236 5.32038 11.2563 5.38319 11.308C5.51706 11.417 5.66302 11.5103 5.81819 11.586C5.47371 11.1187 5.22092 10.5904 5.07319 10.029C4.93159 9.48831 4.90058 8.92461 4.98203 8.37166C5.06348 7.8187 5.2557 7.28788 5.54719 6.81099C5.58275 6.7521 5.63196 6.70262 5.69066 6.66673C5.74936 6.63084 5.81584 6.6096 5.88447 6.6048C5.9531 6.59999 6.02189 6.61177 6.08501 6.63913C6.14814 6.66648 6.20376 6.70862 6.24719 6.76199C7.10736 7.85294 8.18247 8.75556 9.40586 9.41387C10.6293 10.0722 11.9748 10.4722 13.3592 10.589C13.2859 9.82827 13.419 9.06186 13.7446 8.37043C14.0702 7.679 14.5761 7.08812 15.2092 6.65999C16.0214 6.10199 17.0003 5.83903 17.9828 5.9149C18.9654 5.99078 19.8922 6.4009 20.6092 7.07699C21.3267 6.89401 22.0189 6.6233 22.6702 6.27099C22.7421 6.22026 22.8279 6.19293 22.9159 6.19273C23.0039 6.19252 23.0898 6.21945 23.162 6.26985C23.2341 6.32024 23.289 6.39165 23.3191 6.47435C23.3492 6.55705 23.3531 6.64701 23.3302 6.73199C23.1924 7.18655 22.9716 7.61171 22.6792 7.98599C22.8665 7.93371 23.0494 7.86684 23.2262 7.78599C23.3097 7.74251 23.4052 7.72778 23.498 7.74409C23.5907 7.7604 23.6755 7.80683 23.7391 7.8762C23.8028 7.94557 23.8418 8.034 23.8502 8.12779C23.8585 8.22158 23.8357 8.3155 23.7852 8.39499C23.2782 9.14277 22.6483 9.79937 21.9222 10.337C21.9752 12.2988 21.5232 14.2412 20.6097 15.9781C19.6962 17.715 18.3517 19.1881 16.7052 20.256C14.9259 21.4454 12.8354 22.084 10.6952 22.092L10.6972 22.094ZM6.41719 20.344C7.98724 21.0527 9.71156 21.3511 11.4285 21.2112C13.1454 21.0712 14.7986 20.4976 16.2332 19.544C19.4512 17.407 21.4332 13.557 21.0482 10.18C21.0391 10.1014 21.0521 10.0217 21.0856 9.95005C21.1192 9.87836 21.172 9.8174 21.2382 9.77399C21.5726 9.54361 21.8862 9.28428 22.1752 8.99899C21.869 9.07118 21.5565 9.11371 21.2422 9.12599C21.1424 9.12636 21.0457 9.09188 20.9687 9.02851C20.8916 8.96513 20.8392 8.87685 20.8203 8.7789C20.8015 8.68095 20.8174 8.57949 20.8654 8.49205C20.9134 8.40461 20.9904 8.33668 21.0832 8.29999C21.4208 8.11937 21.7126 7.86384 21.9362 7.55299C21.4864 7.73684 21.0189 7.87422 20.5412 7.96299C20.4775 7.97212 20.4125 7.9667 20.3512 7.94712C20.2899 7.92755 20.2338 7.89434 20.1872 7.84999C19.6689 7.29713 18.9837 6.92936 18.2365 6.80299C17.4893 6.67662 16.7213 6.79861 16.05 7.1503C15.3788 7.50198 14.8413 8.06397 14.5198 8.75022C14.1984 9.43647 14.1107 10.2092 14.2702 10.95C14.2863 11.0151 14.2868 11.083 14.2719 11.1483C14.2569 11.2136 14.2268 11.2745 14.184 11.3261C14.1412 11.3776 14.0869 11.4184 14.0254 11.4452C13.964 11.4719 13.8971 11.4838 13.8302 11.48C12.347 11.4269 10.8899 11.0739 9.54682 10.4425C8.20371 9.81107 7.00236 8.91422 6.01519 7.80599C5.76704 8.44673 5.7275 9.14946 5.90219 9.81399C6.09857 10.6251 6.58476 11.3364 7.26919 11.814C7.34441 11.8576 7.40457 11.9231 7.44164 12.0018C7.47872 12.0804 7.49096 12.1685 7.47674 12.2543C7.46251 12.3401 7.4225 12.4195 7.36202 12.4819C7.30154 12.5444 7.22346 12.587 7.13819 12.604C6.63332 12.6968 6.11239 12.6416 5.63819 12.445C5.83805 13.0983 6.20335 13.6889 6.69866 14.1595C7.19397 14.6302 7.80248 14.9648 8.46519 15.131C8.54834 15.1404 8.62694 15.1739 8.6913 15.2273C8.75567 15.2808 8.80299 15.3519 8.82743 15.432C8.85188 15.512 8.85238 15.5974 8.82888 15.6778C8.80539 15.7581 8.75891 15.8298 8.69519 15.884C8.24608 16.2201 7.68744 16.376 7.12919 16.321C7.50059 16.8022 7.97853 17.1907 8.52544 17.456C9.07236 17.7213 9.67335 17.8562 10.2812 17.85C10.3672 17.8517 10.4506 17.8792 10.5207 17.929C10.5908 17.9787 10.6443 18.0485 10.6742 18.1291C10.7041 18.2097 10.709 18.2975 10.6883 18.3809C10.6676 18.4644 10.6223 18.5397 10.5582 18.597C9.38524 19.5822 7.9424 20.1907 6.41819 20.343L6.41719 20.344Z" fill="#F4DD4B"/>
</svg>
